%TF.GenerationSoftware,KiCad,Pcbnew,9.0.9-9.0.9~ubuntu24.04.1*%
%TF.CreationDate,2026-06-25T15:13:57+02:00*%
%TF.ProjectId,dabao_v3c_sdcard,64616261-6f5f-4763-9363-5f7364636172,rev?*%
%TF.SameCoordinates,Original*%
%TF.FileFunction,Legend,Top*%
%TF.FilePolarity,Positive*%
%FSLAX46Y46*%
G04 Gerber Fmt 4.6, Leading zero omitted, Abs format (unit mm)*
G04 Created by KiCad (PCBNEW 9.0.9-9.0.9~ubuntu24.04.1) date 2026-06-25 15:13:57*
%MOMM*%
%LPD*%
G01*
G04 APERTURE LIST*
%ADD10C,0.150000*%
%ADD11C,0.120000*%
%ADD12C,0.200000*%
G04 APERTURE END LIST*
D10*
X126941541Y-74518771D02*
X126941541Y-73918771D01*
X126941541Y-73918771D02*
X127170112Y-73918771D01*
X127170112Y-73918771D02*
X127227255Y-73947342D01*
X127227255Y-73947342D02*
X127255826Y-73975914D01*
X127255826Y-73975914D02*
X127284398Y-74033057D01*
X127284398Y-74033057D02*
X127284398Y-74118771D01*
X127284398Y-74118771D02*
X127255826Y-74175914D01*
X127255826Y-74175914D02*
X127227255Y-74204485D01*
X127227255Y-74204485D02*
X127170112Y-74233057D01*
X127170112Y-74233057D02*
X126941541Y-74233057D01*
X127884398Y-74518771D02*
X127684398Y-74233057D01*
X127541541Y-74518771D02*
X127541541Y-73918771D01*
X127541541Y-73918771D02*
X127770112Y-73918771D01*
X127770112Y-73918771D02*
X127827255Y-73947342D01*
X127827255Y-73947342D02*
X127855826Y-73975914D01*
X127855826Y-73975914D02*
X127884398Y-74033057D01*
X127884398Y-74033057D02*
X127884398Y-74118771D01*
X127884398Y-74118771D02*
X127855826Y-74175914D01*
X127855826Y-74175914D02*
X127827255Y-74204485D01*
X127827255Y-74204485D02*
X127770112Y-74233057D01*
X127770112Y-74233057D02*
X127541541Y-74233057D01*
X128255826Y-73918771D02*
X128370112Y-73918771D01*
X128370112Y-73918771D02*
X128427255Y-73947342D01*
X128427255Y-73947342D02*
X128484398Y-74004485D01*
X128484398Y-74004485D02*
X128512969Y-74118771D01*
X128512969Y-74118771D02*
X128512969Y-74318771D01*
X128512969Y-74318771D02*
X128484398Y-74433057D01*
X128484398Y-74433057D02*
X128427255Y-74490200D01*
X128427255Y-74490200D02*
X128370112Y-74518771D01*
X128370112Y-74518771D02*
X128255826Y-74518771D01*
X128255826Y-74518771D02*
X128198684Y-74490200D01*
X128198684Y-74490200D02*
X128141541Y-74433057D01*
X128141541Y-74433057D02*
X128112969Y-74318771D01*
X128112969Y-74318771D02*
X128112969Y-74118771D01*
X128112969Y-74118771D02*
X128141541Y-74004485D01*
X128141541Y-74004485D02*
X128198684Y-73947342D01*
X128198684Y-73947342D02*
X128255826Y-73918771D01*
X129084397Y-73947342D02*
X129027255Y-73918771D01*
X129027255Y-73918771D02*
X128941540Y-73918771D01*
X128941540Y-73918771D02*
X128855826Y-73947342D01*
X128855826Y-73947342D02*
X128798683Y-74004485D01*
X128798683Y-74004485D02*
X128770112Y-74061628D01*
X128770112Y-74061628D02*
X128741540Y-74175914D01*
X128741540Y-74175914D02*
X128741540Y-74261628D01*
X128741540Y-74261628D02*
X128770112Y-74375914D01*
X128770112Y-74375914D02*
X128798683Y-74433057D01*
X128798683Y-74433057D02*
X128855826Y-74490200D01*
X128855826Y-74490200D02*
X128941540Y-74518771D01*
X128941540Y-74518771D02*
X128998683Y-74518771D01*
X128998683Y-74518771D02*
X129084397Y-74490200D01*
X129084397Y-74490200D02*
X129112969Y-74461628D01*
X129112969Y-74461628D02*
X129112969Y-74261628D01*
X129112969Y-74261628D02*
X128998683Y-74261628D01*
X131401980Y-62897457D02*
X131449600Y-62945076D01*
X131449600Y-62945076D02*
X131497219Y-63087933D01*
X131497219Y-63087933D02*
X131497219Y-63183171D01*
X131497219Y-63183171D02*
X131449600Y-63326028D01*
X131449600Y-63326028D02*
X131354361Y-63421266D01*
X131354361Y-63421266D02*
X131259123Y-63468885D01*
X131259123Y-63468885D02*
X131068647Y-63516504D01*
X131068647Y-63516504D02*
X130925790Y-63516504D01*
X130925790Y-63516504D02*
X130735314Y-63468885D01*
X130735314Y-63468885D02*
X130640076Y-63421266D01*
X130640076Y-63421266D02*
X130544838Y-63326028D01*
X130544838Y-63326028D02*
X130497219Y-63183171D01*
X130497219Y-63183171D02*
X130497219Y-63087933D01*
X130497219Y-63087933D02*
X130544838Y-62945076D01*
X130544838Y-62945076D02*
X130592457Y-62897457D01*
X131497219Y-61945076D02*
X131497219Y-62516504D01*
X131497219Y-62230790D02*
X130497219Y-62230790D01*
X130497219Y-62230790D02*
X130640076Y-62326028D01*
X130640076Y-62326028D02*
X130735314Y-62421266D01*
X130735314Y-62421266D02*
X130782933Y-62516504D01*
X130497219Y-61611742D02*
X130497219Y-60945076D01*
X130497219Y-60945076D02*
X131497219Y-61373647D01*
X132469771Y-85999999D02*
X132469771Y-86285713D01*
X132469771Y-86285713D02*
X131869771Y-86285713D01*
X131926914Y-85828571D02*
X131898342Y-85799999D01*
X131898342Y-85799999D02*
X131869771Y-85742857D01*
X131869771Y-85742857D02*
X131869771Y-85599999D01*
X131869771Y-85599999D02*
X131898342Y-85542857D01*
X131898342Y-85542857D02*
X131926914Y-85514285D01*
X131926914Y-85514285D02*
X131984057Y-85485714D01*
X131984057Y-85485714D02*
X132041200Y-85485714D01*
X132041200Y-85485714D02*
X132126914Y-85514285D01*
X132126914Y-85514285D02*
X132469771Y-85857142D01*
X132469771Y-85857142D02*
X132469771Y-85485714D01*
X134854641Y-75521061D02*
X134854641Y-75561467D01*
X134854641Y-75561467D02*
X134814235Y-75642279D01*
X134814235Y-75642279D02*
X134773829Y-75682685D01*
X134773829Y-75682685D02*
X134693017Y-75723092D01*
X134693017Y-75723092D02*
X134612205Y-75723092D01*
X134612205Y-75723092D02*
X134551595Y-75702889D01*
X134551595Y-75702889D02*
X134450580Y-75642279D01*
X134450580Y-75642279D02*
X134389971Y-75581670D01*
X134389971Y-75581670D02*
X134329362Y-75480655D01*
X134329362Y-75480655D02*
X134309159Y-75420046D01*
X134309159Y-75420046D02*
X134309159Y-75339234D01*
X134309159Y-75339234D02*
X134349565Y-75258421D01*
X134349565Y-75258421D02*
X134389971Y-75218015D01*
X134389971Y-75218015D02*
X134470783Y-75177609D01*
X134470783Y-75177609D02*
X134511189Y-75177609D01*
X134854641Y-74753345D02*
X134652611Y-74955376D01*
X134652611Y-74955376D02*
X134834438Y-75177609D01*
X134834438Y-75177609D02*
X134834438Y-75137203D01*
X134834438Y-75137203D02*
X134854641Y-75076594D01*
X134854641Y-75076594D02*
X134955656Y-74975579D01*
X134955656Y-74975579D02*
X135016266Y-74955376D01*
X135016266Y-74955376D02*
X135056672Y-74955376D01*
X135056672Y-74955376D02*
X135117281Y-74975579D01*
X135117281Y-74975579D02*
X135218296Y-75076594D01*
X135218296Y-75076594D02*
X135238499Y-75137203D01*
X135238499Y-75137203D02*
X135238499Y-75177609D01*
X135238499Y-75177609D02*
X135218296Y-75238218D01*
X135218296Y-75238218D02*
X135117281Y-75339234D01*
X135117281Y-75339234D02*
X135056672Y-75359437D01*
X135056672Y-75359437D02*
X135016266Y-75359437D01*
X130727609Y-82598092D02*
X130727609Y-82638498D01*
X130727609Y-82638498D02*
X130687203Y-82719310D01*
X130687203Y-82719310D02*
X130646797Y-82759717D01*
X130646797Y-82759717D02*
X130565985Y-82800123D01*
X130565985Y-82800123D02*
X130485173Y-82800123D01*
X130485173Y-82800123D02*
X130424563Y-82779920D01*
X130424563Y-82779920D02*
X130323548Y-82719310D01*
X130323548Y-82719310D02*
X130262939Y-82658701D01*
X130262939Y-82658701D02*
X130202330Y-82557686D01*
X130202330Y-82557686D02*
X130182127Y-82497077D01*
X130182127Y-82497077D02*
X130182127Y-82416265D01*
X130182127Y-82416265D02*
X130222533Y-82335452D01*
X130222533Y-82335452D02*
X130262939Y-82295046D01*
X130262939Y-82295046D02*
X130343751Y-82254640D01*
X130343751Y-82254640D02*
X130384157Y-82254640D01*
X131172076Y-82234437D02*
X130929640Y-82476874D01*
X131050858Y-82355655D02*
X130626594Y-81931391D01*
X130626594Y-81931391D02*
X130646797Y-82032407D01*
X130646797Y-82032407D02*
X130646797Y-82113219D01*
X130646797Y-82113219D02*
X130626594Y-82173828D01*
X131010452Y-81547533D02*
X131050858Y-81507127D01*
X131050858Y-81507127D02*
X131111467Y-81486924D01*
X131111467Y-81486924D02*
X131151873Y-81486924D01*
X131151873Y-81486924D02*
X131212483Y-81507127D01*
X131212483Y-81507127D02*
X131313498Y-81567736D01*
X131313498Y-81567736D02*
X131414513Y-81668751D01*
X131414513Y-81668751D02*
X131475122Y-81769767D01*
X131475122Y-81769767D02*
X131495325Y-81830376D01*
X131495325Y-81830376D02*
X131495325Y-81870782D01*
X131495325Y-81870782D02*
X131475122Y-81931391D01*
X131475122Y-81931391D02*
X131434716Y-81971797D01*
X131434716Y-81971797D02*
X131374107Y-81992000D01*
X131374107Y-81992000D02*
X131333701Y-81992000D01*
X131333701Y-81992000D02*
X131273092Y-81971797D01*
X131273092Y-81971797D02*
X131172077Y-81911188D01*
X131172077Y-81911188D02*
X131071061Y-81810173D01*
X131071061Y-81810173D02*
X131010452Y-81709158D01*
X131010452Y-81709158D02*
X130990249Y-81648548D01*
X130990249Y-81648548D02*
X130990249Y-81608142D01*
X130990249Y-81608142D02*
X131010452Y-81547533D01*
X138400000Y-67769771D02*
X138200000Y-67484057D01*
X138057143Y-67769771D02*
X138057143Y-67169771D01*
X138057143Y-67169771D02*
X138285714Y-67169771D01*
X138285714Y-67169771D02*
X138342857Y-67198342D01*
X138342857Y-67198342D02*
X138371428Y-67226914D01*
X138371428Y-67226914D02*
X138400000Y-67284057D01*
X138400000Y-67284057D02*
X138400000Y-67369771D01*
X138400000Y-67369771D02*
X138371428Y-67426914D01*
X138371428Y-67426914D02*
X138342857Y-67455485D01*
X138342857Y-67455485D02*
X138285714Y-67484057D01*
X138285714Y-67484057D02*
X138057143Y-67484057D01*
X138600000Y-67169771D02*
X138971428Y-67169771D01*
X138971428Y-67169771D02*
X138771428Y-67398342D01*
X138771428Y-67398342D02*
X138857143Y-67398342D01*
X138857143Y-67398342D02*
X138914286Y-67426914D01*
X138914286Y-67426914D02*
X138942857Y-67455485D01*
X138942857Y-67455485D02*
X138971428Y-67512628D01*
X138971428Y-67512628D02*
X138971428Y-67655485D01*
X138971428Y-67655485D02*
X138942857Y-67712628D01*
X138942857Y-67712628D02*
X138914286Y-67741200D01*
X138914286Y-67741200D02*
X138857143Y-67769771D01*
X138857143Y-67769771D02*
X138685714Y-67769771D01*
X138685714Y-67769771D02*
X138628571Y-67741200D01*
X138628571Y-67741200D02*
X138600000Y-67712628D01*
X133712628Y-73785714D02*
X133741200Y-73814286D01*
X133741200Y-73814286D02*
X133769771Y-73900000D01*
X133769771Y-73900000D02*
X133769771Y-73957143D01*
X133769771Y-73957143D02*
X133741200Y-74042857D01*
X133741200Y-74042857D02*
X133684057Y-74100000D01*
X133684057Y-74100000D02*
X133626914Y-74128571D01*
X133626914Y-74128571D02*
X133512628Y-74157143D01*
X133512628Y-74157143D02*
X133426914Y-74157143D01*
X133426914Y-74157143D02*
X133312628Y-74128571D01*
X133312628Y-74128571D02*
X133255485Y-74100000D01*
X133255485Y-74100000D02*
X133198342Y-74042857D01*
X133198342Y-74042857D02*
X133169771Y-73957143D01*
X133169771Y-73957143D02*
X133169771Y-73900000D01*
X133169771Y-73900000D02*
X133198342Y-73814286D01*
X133198342Y-73814286D02*
X133226914Y-73785714D01*
X133769771Y-73214286D02*
X133769771Y-73557143D01*
X133769771Y-73385714D02*
X133169771Y-73385714D01*
X133169771Y-73385714D02*
X133255485Y-73442857D01*
X133255485Y-73442857D02*
X133312628Y-73500000D01*
X133312628Y-73500000D02*
X133341200Y-73557143D01*
X133169771Y-73014285D02*
X133169771Y-72642857D01*
X133169771Y-72642857D02*
X133398342Y-72842857D01*
X133398342Y-72842857D02*
X133398342Y-72757142D01*
X133398342Y-72757142D02*
X133426914Y-72700000D01*
X133426914Y-72700000D02*
X133455485Y-72671428D01*
X133455485Y-72671428D02*
X133512628Y-72642857D01*
X133512628Y-72642857D02*
X133655485Y-72642857D01*
X133655485Y-72642857D02*
X133712628Y-72671428D01*
X133712628Y-72671428D02*
X133741200Y-72700000D01*
X133741200Y-72700000D02*
X133769771Y-72757142D01*
X133769771Y-72757142D02*
X133769771Y-72928571D01*
X133769771Y-72928571D02*
X133741200Y-72985714D01*
X133741200Y-72985714D02*
X133712628Y-73014285D01*
X126700000Y-76012628D02*
X126671428Y-76041200D01*
X126671428Y-76041200D02*
X126585714Y-76069771D01*
X126585714Y-76069771D02*
X126528571Y-76069771D01*
X126528571Y-76069771D02*
X126442857Y-76041200D01*
X126442857Y-76041200D02*
X126385714Y-75984057D01*
X126385714Y-75984057D02*
X126357143Y-75926914D01*
X126357143Y-75926914D02*
X126328571Y-75812628D01*
X126328571Y-75812628D02*
X126328571Y-75726914D01*
X126328571Y-75726914D02*
X126357143Y-75612628D01*
X126357143Y-75612628D02*
X126385714Y-75555485D01*
X126385714Y-75555485D02*
X126442857Y-75498342D01*
X126442857Y-75498342D02*
X126528571Y-75469771D01*
X126528571Y-75469771D02*
X126585714Y-75469771D01*
X126585714Y-75469771D02*
X126671428Y-75498342D01*
X126671428Y-75498342D02*
X126700000Y-75526914D01*
X127271428Y-76069771D02*
X126928571Y-76069771D01*
X127100000Y-76069771D02*
X127100000Y-75469771D01*
X127100000Y-75469771D02*
X127042857Y-75555485D01*
X127042857Y-75555485D02*
X126985714Y-75612628D01*
X126985714Y-75612628D02*
X126928571Y-75641200D01*
X126190000Y-89219771D02*
X125990000Y-88934057D01*
X125847143Y-89219771D02*
X125847143Y-88619771D01*
X125847143Y-88619771D02*
X126075714Y-88619771D01*
X126075714Y-88619771D02*
X126132857Y-88648342D01*
X126132857Y-88648342D02*
X126161428Y-88676914D01*
X126161428Y-88676914D02*
X126190000Y-88734057D01*
X126190000Y-88734057D02*
X126190000Y-88819771D01*
X126190000Y-88819771D02*
X126161428Y-88876914D01*
X126161428Y-88876914D02*
X126132857Y-88905485D01*
X126132857Y-88905485D02*
X126075714Y-88934057D01*
X126075714Y-88934057D02*
X125847143Y-88934057D01*
X126390000Y-88619771D02*
X126790000Y-88619771D01*
X126790000Y-88619771D02*
X126532857Y-89219771D01*
X123099219Y-55403333D02*
X123813504Y-55403333D01*
X123813504Y-55403333D02*
X123956361Y-55450952D01*
X123956361Y-55450952D02*
X124051600Y-55546190D01*
X124051600Y-55546190D02*
X124099219Y-55689047D01*
X124099219Y-55689047D02*
X124099219Y-55784285D01*
X124099219Y-54403333D02*
X124099219Y-54974761D01*
X124099219Y-54689047D02*
X123099219Y-54689047D01*
X123099219Y-54689047D02*
X123242076Y-54784285D01*
X123242076Y-54784285D02*
X123337314Y-54879523D01*
X123337314Y-54879523D02*
X123384933Y-54974761D01*
X127225000Y-82512628D02*
X127196428Y-82541200D01*
X127196428Y-82541200D02*
X127110714Y-82569771D01*
X127110714Y-82569771D02*
X127053571Y-82569771D01*
X127053571Y-82569771D02*
X126967857Y-82541200D01*
X126967857Y-82541200D02*
X126910714Y-82484057D01*
X126910714Y-82484057D02*
X126882143Y-82426914D01*
X126882143Y-82426914D02*
X126853571Y-82312628D01*
X126853571Y-82312628D02*
X126853571Y-82226914D01*
X126853571Y-82226914D02*
X126882143Y-82112628D01*
X126882143Y-82112628D02*
X126910714Y-82055485D01*
X126910714Y-82055485D02*
X126967857Y-81998342D01*
X126967857Y-81998342D02*
X127053571Y-81969771D01*
X127053571Y-81969771D02*
X127110714Y-81969771D01*
X127110714Y-81969771D02*
X127196428Y-81998342D01*
X127196428Y-81998342D02*
X127225000Y-82026914D01*
X127510714Y-82569771D02*
X127625000Y-82569771D01*
X127625000Y-82569771D02*
X127682143Y-82541200D01*
X127682143Y-82541200D02*
X127710714Y-82512628D01*
X127710714Y-82512628D02*
X127767857Y-82426914D01*
X127767857Y-82426914D02*
X127796428Y-82312628D01*
X127796428Y-82312628D02*
X127796428Y-82084057D01*
X127796428Y-82084057D02*
X127767857Y-82026914D01*
X127767857Y-82026914D02*
X127739286Y-81998342D01*
X127739286Y-81998342D02*
X127682143Y-81969771D01*
X127682143Y-81969771D02*
X127567857Y-81969771D01*
X127567857Y-81969771D02*
X127510714Y-81998342D01*
X127510714Y-81998342D02*
X127482143Y-82026914D01*
X127482143Y-82026914D02*
X127453571Y-82084057D01*
X127453571Y-82084057D02*
X127453571Y-82226914D01*
X127453571Y-82226914D02*
X127482143Y-82284057D01*
X127482143Y-82284057D02*
X127510714Y-82312628D01*
X127510714Y-82312628D02*
X127567857Y-82341200D01*
X127567857Y-82341200D02*
X127682143Y-82341200D01*
X127682143Y-82341200D02*
X127739286Y-82312628D01*
X127739286Y-82312628D02*
X127767857Y-82284057D01*
X127767857Y-82284057D02*
X127796428Y-82226914D01*
X133200000Y-70169771D02*
X133000000Y-69884057D01*
X132857143Y-70169771D02*
X132857143Y-69569771D01*
X132857143Y-69569771D02*
X133085714Y-69569771D01*
X133085714Y-69569771D02*
X133142857Y-69598342D01*
X133142857Y-69598342D02*
X133171428Y-69626914D01*
X133171428Y-69626914D02*
X133200000Y-69684057D01*
X133200000Y-69684057D02*
X133200000Y-69769771D01*
X133200000Y-69769771D02*
X133171428Y-69826914D01*
X133171428Y-69826914D02*
X133142857Y-69855485D01*
X133142857Y-69855485D02*
X133085714Y-69884057D01*
X133085714Y-69884057D02*
X132857143Y-69884057D01*
X133742857Y-69569771D02*
X133457143Y-69569771D01*
X133457143Y-69569771D02*
X133428571Y-69855485D01*
X133428571Y-69855485D02*
X133457143Y-69826914D01*
X133457143Y-69826914D02*
X133514286Y-69798342D01*
X133514286Y-69798342D02*
X133657143Y-69798342D01*
X133657143Y-69798342D02*
X133714286Y-69826914D01*
X133714286Y-69826914D02*
X133742857Y-69855485D01*
X133742857Y-69855485D02*
X133771428Y-69912628D01*
X133771428Y-69912628D02*
X133771428Y-70055485D01*
X133771428Y-70055485D02*
X133742857Y-70112628D01*
X133742857Y-70112628D02*
X133714286Y-70141200D01*
X133714286Y-70141200D02*
X133657143Y-70169771D01*
X133657143Y-70169771D02*
X133514286Y-70169771D01*
X133514286Y-70169771D02*
X133457143Y-70141200D01*
X133457143Y-70141200D02*
X133428571Y-70112628D01*
X135479639Y-78221061D02*
X135479639Y-78261467D01*
X135479639Y-78261467D02*
X135439233Y-78342279D01*
X135439233Y-78342279D02*
X135398827Y-78382685D01*
X135398827Y-78382685D02*
X135318015Y-78423092D01*
X135318015Y-78423092D02*
X135237203Y-78423092D01*
X135237203Y-78423092D02*
X135176593Y-78402889D01*
X135176593Y-78402889D02*
X135075578Y-78342279D01*
X135075578Y-78342279D02*
X135014969Y-78281670D01*
X135014969Y-78281670D02*
X134954360Y-78180655D01*
X134954360Y-78180655D02*
X134934157Y-78120046D01*
X134934157Y-78120046D02*
X134934157Y-78039234D01*
X134934157Y-78039234D02*
X134974563Y-77958421D01*
X134974563Y-77958421D02*
X135014969Y-77918015D01*
X135014969Y-77918015D02*
X135095781Y-77877609D01*
X135095781Y-77877609D02*
X135136187Y-77877609D01*
X135600857Y-77614970D02*
X135883700Y-77897812D01*
X135338218Y-77554360D02*
X135540248Y-77958421D01*
X135540248Y-77958421D02*
X135802888Y-77695782D01*
X136219771Y-84999999D02*
X135934057Y-85199999D01*
X136219771Y-85342856D02*
X135619771Y-85342856D01*
X135619771Y-85342856D02*
X135619771Y-85114285D01*
X135619771Y-85114285D02*
X135648342Y-85057142D01*
X135648342Y-85057142D02*
X135676914Y-85028571D01*
X135676914Y-85028571D02*
X135734057Y-84999999D01*
X135734057Y-84999999D02*
X135819771Y-84999999D01*
X135819771Y-84999999D02*
X135876914Y-85028571D01*
X135876914Y-85028571D02*
X135905485Y-85057142D01*
X135905485Y-85057142D02*
X135934057Y-85114285D01*
X135934057Y-85114285D02*
X135934057Y-85342856D01*
X135819771Y-84485714D02*
X136219771Y-84485714D01*
X135591200Y-84628571D02*
X136019771Y-84771428D01*
X136019771Y-84771428D02*
X136019771Y-84399999D01*
X129454640Y-82571061D02*
X129454640Y-82611467D01*
X129454640Y-82611467D02*
X129414234Y-82692279D01*
X129414234Y-82692279D02*
X129373828Y-82732685D01*
X129373828Y-82732685D02*
X129293016Y-82773092D01*
X129293016Y-82773092D02*
X129212204Y-82773092D01*
X129212204Y-82773092D02*
X129151594Y-82752889D01*
X129151594Y-82752889D02*
X129050579Y-82692279D01*
X129050579Y-82692279D02*
X128989970Y-82631670D01*
X128989970Y-82631670D02*
X128929361Y-82530655D01*
X128929361Y-82530655D02*
X128909158Y-82470046D01*
X128909158Y-82470046D02*
X128909158Y-82389234D01*
X128909158Y-82389234D02*
X128949564Y-82308421D01*
X128949564Y-82308421D02*
X128989970Y-82268015D01*
X128989970Y-82268015D02*
X129070782Y-82227609D01*
X129070782Y-82227609D02*
X129111188Y-82227609D01*
X129434437Y-81823548D02*
X129353625Y-81904360D01*
X129353625Y-81904360D02*
X129333422Y-81964970D01*
X129333422Y-81964970D02*
X129333422Y-82005376D01*
X129333422Y-82005376D02*
X129353625Y-82106391D01*
X129353625Y-82106391D02*
X129414234Y-82207406D01*
X129414234Y-82207406D02*
X129575858Y-82369031D01*
X129575858Y-82369031D02*
X129636468Y-82389234D01*
X129636468Y-82389234D02*
X129676874Y-82389234D01*
X129676874Y-82389234D02*
X129737483Y-82369031D01*
X129737483Y-82369031D02*
X129818295Y-82288218D01*
X129818295Y-82288218D02*
X129838498Y-82227609D01*
X129838498Y-82227609D02*
X129838498Y-82187203D01*
X129838498Y-82187203D02*
X129818295Y-82126594D01*
X129818295Y-82126594D02*
X129717280Y-82025579D01*
X129717280Y-82025579D02*
X129656671Y-82005376D01*
X129656671Y-82005376D02*
X129616265Y-82005376D01*
X129616265Y-82005376D02*
X129555655Y-82025579D01*
X129555655Y-82025579D02*
X129474843Y-82106391D01*
X129474843Y-82106391D02*
X129454640Y-82167000D01*
X129454640Y-82167000D02*
X129454640Y-82207406D01*
X129454640Y-82207406D02*
X129474843Y-82268015D01*
X124870000Y-87689771D02*
X124670000Y-87404057D01*
X124527143Y-87689771D02*
X124527143Y-87089771D01*
X124527143Y-87089771D02*
X124755714Y-87089771D01*
X124755714Y-87089771D02*
X124812857Y-87118342D01*
X124812857Y-87118342D02*
X124841428Y-87146914D01*
X124841428Y-87146914D02*
X124870000Y-87204057D01*
X124870000Y-87204057D02*
X124870000Y-87289771D01*
X124870000Y-87289771D02*
X124841428Y-87346914D01*
X124841428Y-87346914D02*
X124812857Y-87375485D01*
X124812857Y-87375485D02*
X124755714Y-87404057D01*
X124755714Y-87404057D02*
X124527143Y-87404057D01*
X125212857Y-87346914D02*
X125155714Y-87318342D01*
X125155714Y-87318342D02*
X125127143Y-87289771D01*
X125127143Y-87289771D02*
X125098571Y-87232628D01*
X125098571Y-87232628D02*
X125098571Y-87204057D01*
X125098571Y-87204057D02*
X125127143Y-87146914D01*
X125127143Y-87146914D02*
X125155714Y-87118342D01*
X125155714Y-87118342D02*
X125212857Y-87089771D01*
X125212857Y-87089771D02*
X125327143Y-87089771D01*
X125327143Y-87089771D02*
X125384286Y-87118342D01*
X125384286Y-87118342D02*
X125412857Y-87146914D01*
X125412857Y-87146914D02*
X125441428Y-87204057D01*
X125441428Y-87204057D02*
X125441428Y-87232628D01*
X125441428Y-87232628D02*
X125412857Y-87289771D01*
X125412857Y-87289771D02*
X125384286Y-87318342D01*
X125384286Y-87318342D02*
X125327143Y-87346914D01*
X125327143Y-87346914D02*
X125212857Y-87346914D01*
X125212857Y-87346914D02*
X125155714Y-87375485D01*
X125155714Y-87375485D02*
X125127143Y-87404057D01*
X125127143Y-87404057D02*
X125098571Y-87461200D01*
X125098571Y-87461200D02*
X125098571Y-87575485D01*
X125098571Y-87575485D02*
X125127143Y-87632628D01*
X125127143Y-87632628D02*
X125155714Y-87661200D01*
X125155714Y-87661200D02*
X125212857Y-87689771D01*
X125212857Y-87689771D02*
X125327143Y-87689771D01*
X125327143Y-87689771D02*
X125384286Y-87661200D01*
X125384286Y-87661200D02*
X125412857Y-87632628D01*
X125412857Y-87632628D02*
X125441428Y-87575485D01*
X125441428Y-87575485D02*
X125441428Y-87461200D01*
X125441428Y-87461200D02*
X125412857Y-87404057D01*
X125412857Y-87404057D02*
X125384286Y-87375485D01*
X125384286Y-87375485D02*
X125327143Y-87346914D01*
X136014285Y-76912628D02*
X135985713Y-76941200D01*
X135985713Y-76941200D02*
X135899999Y-76969771D01*
X135899999Y-76969771D02*
X135842856Y-76969771D01*
X135842856Y-76969771D02*
X135757142Y-76941200D01*
X135757142Y-76941200D02*
X135699999Y-76884057D01*
X135699999Y-76884057D02*
X135671428Y-76826914D01*
X135671428Y-76826914D02*
X135642856Y-76712628D01*
X135642856Y-76712628D02*
X135642856Y-76626914D01*
X135642856Y-76626914D02*
X135671428Y-76512628D01*
X135671428Y-76512628D02*
X135699999Y-76455485D01*
X135699999Y-76455485D02*
X135757142Y-76398342D01*
X135757142Y-76398342D02*
X135842856Y-76369771D01*
X135842856Y-76369771D02*
X135899999Y-76369771D01*
X135899999Y-76369771D02*
X135985713Y-76398342D01*
X135985713Y-76398342D02*
X136014285Y-76426914D01*
X136585713Y-76969771D02*
X136242856Y-76969771D01*
X136414285Y-76969771D02*
X136414285Y-76369771D01*
X136414285Y-76369771D02*
X136357142Y-76455485D01*
X136357142Y-76455485D02*
X136299999Y-76512628D01*
X136299999Y-76512628D02*
X136242856Y-76541200D01*
X137100000Y-76569771D02*
X137100000Y-76969771D01*
X136957142Y-76341200D02*
X136814285Y-76769771D01*
X136814285Y-76769771D02*
X137185714Y-76769771D01*
X132779640Y-83571060D02*
X132779640Y-83611466D01*
X132779640Y-83611466D02*
X132739234Y-83692278D01*
X132739234Y-83692278D02*
X132698828Y-83732684D01*
X132698828Y-83732684D02*
X132618016Y-83773091D01*
X132618016Y-83773091D02*
X132537204Y-83773091D01*
X132537204Y-83773091D02*
X132476594Y-83752888D01*
X132476594Y-83752888D02*
X132375579Y-83692278D01*
X132375579Y-83692278D02*
X132314970Y-83631669D01*
X132314970Y-83631669D02*
X132254361Y-83530654D01*
X132254361Y-83530654D02*
X132234158Y-83470045D01*
X132234158Y-83470045D02*
X132234158Y-83389233D01*
X132234158Y-83389233D02*
X132274564Y-83308420D01*
X132274564Y-83308420D02*
X132314970Y-83268014D01*
X132314970Y-83268014D02*
X132395782Y-83227608D01*
X132395782Y-83227608D02*
X132436188Y-83227608D01*
X132537204Y-83045781D02*
X132820046Y-82762938D01*
X132820046Y-82762938D02*
X133062483Y-83369030D01*
X135557143Y-68269771D02*
X135557143Y-67669771D01*
X135557143Y-67669771D02*
X135700000Y-67669771D01*
X135700000Y-67669771D02*
X135785714Y-67698342D01*
X135785714Y-67698342D02*
X135842857Y-67755485D01*
X135842857Y-67755485D02*
X135871428Y-67812628D01*
X135871428Y-67812628D02*
X135900000Y-67926914D01*
X135900000Y-67926914D02*
X135900000Y-68012628D01*
X135900000Y-68012628D02*
X135871428Y-68126914D01*
X135871428Y-68126914D02*
X135842857Y-68184057D01*
X135842857Y-68184057D02*
X135785714Y-68241200D01*
X135785714Y-68241200D02*
X135700000Y-68269771D01*
X135700000Y-68269771D02*
X135557143Y-68269771D01*
X136471428Y-68269771D02*
X136128571Y-68269771D01*
X136300000Y-68269771D02*
X136300000Y-67669771D01*
X136300000Y-67669771D02*
X136242857Y-67755485D01*
X136242857Y-67755485D02*
X136185714Y-67812628D01*
X136185714Y-67812628D02*
X136128571Y-67841200D01*
X128929640Y-82021061D02*
X128929640Y-82061467D01*
X128929640Y-82061467D02*
X128889234Y-82142279D01*
X128889234Y-82142279D02*
X128848828Y-82182685D01*
X128848828Y-82182685D02*
X128768016Y-82223092D01*
X128768016Y-82223092D02*
X128687204Y-82223092D01*
X128687204Y-82223092D02*
X128626594Y-82202889D01*
X128626594Y-82202889D02*
X128525579Y-82142279D01*
X128525579Y-82142279D02*
X128464970Y-82081670D01*
X128464970Y-82081670D02*
X128404361Y-81980655D01*
X128404361Y-81980655D02*
X128384158Y-81920046D01*
X128384158Y-81920046D02*
X128384158Y-81839234D01*
X128384158Y-81839234D02*
X128424564Y-81758421D01*
X128424564Y-81758421D02*
X128464970Y-81718015D01*
X128464970Y-81718015D02*
X128545782Y-81677609D01*
X128545782Y-81677609D02*
X128586188Y-81677609D01*
X128747813Y-81515985D02*
X128747813Y-81475579D01*
X128747813Y-81475579D02*
X128768016Y-81414970D01*
X128768016Y-81414970D02*
X128869031Y-81313954D01*
X128869031Y-81313954D02*
X128929640Y-81293751D01*
X128929640Y-81293751D02*
X128970046Y-81293751D01*
X128970046Y-81293751D02*
X129030655Y-81313954D01*
X129030655Y-81313954D02*
X129071061Y-81354360D01*
X129071061Y-81354360D02*
X129111468Y-81435173D01*
X129111468Y-81435173D02*
X129111468Y-81920046D01*
X129111468Y-81920046D02*
X129374107Y-81657406D01*
X127199999Y-71041200D02*
X127285714Y-71069771D01*
X127285714Y-71069771D02*
X127428571Y-71069771D01*
X127428571Y-71069771D02*
X127485714Y-71041200D01*
X127485714Y-71041200D02*
X127514285Y-71012628D01*
X127514285Y-71012628D02*
X127542856Y-70955485D01*
X127542856Y-70955485D02*
X127542856Y-70898342D01*
X127542856Y-70898342D02*
X127514285Y-70841200D01*
X127514285Y-70841200D02*
X127485714Y-70812628D01*
X127485714Y-70812628D02*
X127428571Y-70784057D01*
X127428571Y-70784057D02*
X127314285Y-70755485D01*
X127314285Y-70755485D02*
X127257142Y-70726914D01*
X127257142Y-70726914D02*
X127228571Y-70698342D01*
X127228571Y-70698342D02*
X127199999Y-70641200D01*
X127199999Y-70641200D02*
X127199999Y-70584057D01*
X127199999Y-70584057D02*
X127228571Y-70526914D01*
X127228571Y-70526914D02*
X127257142Y-70498342D01*
X127257142Y-70498342D02*
X127314285Y-70469771D01*
X127314285Y-70469771D02*
X127457142Y-70469771D01*
X127457142Y-70469771D02*
X127542856Y-70498342D01*
X127742857Y-70469771D02*
X127885714Y-71069771D01*
X127885714Y-71069771D02*
X128000000Y-70641200D01*
X128000000Y-70641200D02*
X128114285Y-71069771D01*
X128114285Y-71069771D02*
X128257143Y-70469771D01*
X128799999Y-71069771D02*
X128457142Y-71069771D01*
X128628571Y-71069771D02*
X128628571Y-70469771D01*
X128628571Y-70469771D02*
X128571428Y-70555485D01*
X128571428Y-70555485D02*
X128514285Y-70612628D01*
X128514285Y-70612628D02*
X128457142Y-70641200D01*
X129005919Y-97569904D02*
X129815442Y-97569904D01*
X129815442Y-97569904D02*
X129910680Y-97522285D01*
X129910680Y-97522285D02*
X129958300Y-97474666D01*
X129958300Y-97474666D02*
X130005919Y-97379428D01*
X130005919Y-97379428D02*
X130005919Y-97188952D01*
X130005919Y-97188952D02*
X129958300Y-97093714D01*
X129958300Y-97093714D02*
X129910680Y-97046095D01*
X129910680Y-97046095D02*
X129815442Y-96998476D01*
X129815442Y-96998476D02*
X129005919Y-96998476D01*
X129005919Y-96046095D02*
X129005919Y-96522285D01*
X129005919Y-96522285D02*
X129482109Y-96569904D01*
X129482109Y-96569904D02*
X129434490Y-96522285D01*
X129434490Y-96522285D02*
X129386871Y-96427047D01*
X129386871Y-96427047D02*
X129386871Y-96188952D01*
X129386871Y-96188952D02*
X129434490Y-96093714D01*
X129434490Y-96093714D02*
X129482109Y-96046095D01*
X129482109Y-96046095D02*
X129577347Y-95998476D01*
X129577347Y-95998476D02*
X129815442Y-95998476D01*
X129815442Y-95998476D02*
X129910680Y-96046095D01*
X129910680Y-96046095D02*
X129958300Y-96093714D01*
X129958300Y-96093714D02*
X130005919Y-96188952D01*
X130005919Y-96188952D02*
X130005919Y-96427047D01*
X130005919Y-96427047D02*
X129958300Y-96522285D01*
X129958300Y-96522285D02*
X129910680Y-96569904D01*
X128014285Y-89312628D02*
X127985713Y-89341200D01*
X127985713Y-89341200D02*
X127899999Y-89369771D01*
X127899999Y-89369771D02*
X127842856Y-89369771D01*
X127842856Y-89369771D02*
X127757142Y-89341200D01*
X127757142Y-89341200D02*
X127699999Y-89284057D01*
X127699999Y-89284057D02*
X127671428Y-89226914D01*
X127671428Y-89226914D02*
X127642856Y-89112628D01*
X127642856Y-89112628D02*
X127642856Y-89026914D01*
X127642856Y-89026914D02*
X127671428Y-88912628D01*
X127671428Y-88912628D02*
X127699999Y-88855485D01*
X127699999Y-88855485D02*
X127757142Y-88798342D01*
X127757142Y-88798342D02*
X127842856Y-88769771D01*
X127842856Y-88769771D02*
X127899999Y-88769771D01*
X127899999Y-88769771D02*
X127985713Y-88798342D01*
X127985713Y-88798342D02*
X128014285Y-88826914D01*
X128585713Y-89369771D02*
X128242856Y-89369771D01*
X128414285Y-89369771D02*
X128414285Y-88769771D01*
X128414285Y-88769771D02*
X128357142Y-88855485D01*
X128357142Y-88855485D02*
X128299999Y-88912628D01*
X128299999Y-88912628D02*
X128242856Y-88941200D01*
X129100000Y-88769771D02*
X128985714Y-88769771D01*
X128985714Y-88769771D02*
X128928571Y-88798342D01*
X128928571Y-88798342D02*
X128900000Y-88826914D01*
X128900000Y-88826914D02*
X128842857Y-88912628D01*
X128842857Y-88912628D02*
X128814285Y-89026914D01*
X128814285Y-89026914D02*
X128814285Y-89255485D01*
X128814285Y-89255485D02*
X128842857Y-89312628D01*
X128842857Y-89312628D02*
X128871428Y-89341200D01*
X128871428Y-89341200D02*
X128928571Y-89369771D01*
X128928571Y-89369771D02*
X129042857Y-89369771D01*
X129042857Y-89369771D02*
X129100000Y-89341200D01*
X129100000Y-89341200D02*
X129128571Y-89312628D01*
X129128571Y-89312628D02*
X129157142Y-89255485D01*
X129157142Y-89255485D02*
X129157142Y-89112628D01*
X129157142Y-89112628D02*
X129128571Y-89055485D01*
X129128571Y-89055485D02*
X129100000Y-89026914D01*
X129100000Y-89026914D02*
X129042857Y-88998342D01*
X129042857Y-88998342D02*
X128928571Y-88998342D01*
X128928571Y-88998342D02*
X128871428Y-89026914D01*
X128871428Y-89026914D02*
X128842857Y-89055485D01*
X128842857Y-89055485D02*
X128814285Y-89112628D01*
X135012628Y-82185714D02*
X135041200Y-82214286D01*
X135041200Y-82214286D02*
X135069771Y-82300000D01*
X135069771Y-82300000D02*
X135069771Y-82357143D01*
X135069771Y-82357143D02*
X135041200Y-82442857D01*
X135041200Y-82442857D02*
X134984057Y-82500000D01*
X134984057Y-82500000D02*
X134926914Y-82528571D01*
X134926914Y-82528571D02*
X134812628Y-82557143D01*
X134812628Y-82557143D02*
X134726914Y-82557143D01*
X134726914Y-82557143D02*
X134612628Y-82528571D01*
X134612628Y-82528571D02*
X134555485Y-82500000D01*
X134555485Y-82500000D02*
X134498342Y-82442857D01*
X134498342Y-82442857D02*
X134469771Y-82357143D01*
X134469771Y-82357143D02*
X134469771Y-82300000D01*
X134469771Y-82300000D02*
X134498342Y-82214286D01*
X134498342Y-82214286D02*
X134526914Y-82185714D01*
X135069771Y-81614286D02*
X135069771Y-81957143D01*
X135069771Y-81785714D02*
X134469771Y-81785714D01*
X134469771Y-81785714D02*
X134555485Y-81842857D01*
X134555485Y-81842857D02*
X134612628Y-81900000D01*
X134612628Y-81900000D02*
X134641200Y-81957143D01*
X134526914Y-81385714D02*
X134498342Y-81357142D01*
X134498342Y-81357142D02*
X134469771Y-81300000D01*
X134469771Y-81300000D02*
X134469771Y-81157142D01*
X134469771Y-81157142D02*
X134498342Y-81100000D01*
X134498342Y-81100000D02*
X134526914Y-81071428D01*
X134526914Y-81071428D02*
X134584057Y-81042857D01*
X134584057Y-81042857D02*
X134641200Y-81042857D01*
X134641200Y-81042857D02*
X134726914Y-81071428D01*
X134726914Y-81071428D02*
X135069771Y-81414285D01*
X135069771Y-81414285D02*
X135069771Y-81042857D01*
X130603938Y-75829640D02*
X130563532Y-75829640D01*
X130563532Y-75829640D02*
X130482720Y-75789234D01*
X130482720Y-75789234D02*
X130442314Y-75748828D01*
X130442314Y-75748828D02*
X130401907Y-75668016D01*
X130401907Y-75668016D02*
X130401907Y-75587204D01*
X130401907Y-75587204D02*
X130422110Y-75526594D01*
X130422110Y-75526594D02*
X130482720Y-75425579D01*
X130482720Y-75425579D02*
X130543329Y-75364970D01*
X130543329Y-75364970D02*
X130644344Y-75304361D01*
X130644344Y-75304361D02*
X130704953Y-75284158D01*
X130704953Y-75284158D02*
X130785765Y-75284158D01*
X130785765Y-75284158D02*
X130866578Y-75324564D01*
X130866578Y-75324564D02*
X130906984Y-75364970D01*
X130906984Y-75364970D02*
X130947390Y-75445782D01*
X130947390Y-75445782D02*
X130947390Y-75486188D01*
X131129217Y-75587204D02*
X131391857Y-75849843D01*
X131391857Y-75849843D02*
X131088811Y-75870046D01*
X131088811Y-75870046D02*
X131149420Y-75930655D01*
X131149420Y-75930655D02*
X131169623Y-75991265D01*
X131169623Y-75991265D02*
X131169623Y-76031671D01*
X131169623Y-76031671D02*
X131149420Y-76092280D01*
X131149420Y-76092280D02*
X131048405Y-76193295D01*
X131048405Y-76193295D02*
X130987796Y-76213498D01*
X130987796Y-76213498D02*
X130947390Y-76213498D01*
X130947390Y-76213498D02*
X130886781Y-76193295D01*
X130886781Y-76193295D02*
X130765562Y-76072077D01*
X130765562Y-76072077D02*
X130745359Y-76011468D01*
X130745359Y-76011468D02*
X130745359Y-75971061D01*
X134600000Y-73969771D02*
X134314286Y-73969771D01*
X134314286Y-73969771D02*
X134314286Y-73369771D01*
X135114285Y-73969771D02*
X134771428Y-73969771D01*
X134942857Y-73969771D02*
X134942857Y-73369771D01*
X134942857Y-73369771D02*
X134885714Y-73455485D01*
X134885714Y-73455485D02*
X134828571Y-73512628D01*
X134828571Y-73512628D02*
X134771428Y-73541200D01*
X134593244Y-79989741D02*
X134936696Y-80333193D01*
X134936696Y-80333193D02*
X134997305Y-80353396D01*
X134997305Y-80353396D02*
X135037711Y-80353396D01*
X135037711Y-80353396D02*
X135098320Y-80333193D01*
X135098320Y-80333193D02*
X135179132Y-80252381D01*
X135179132Y-80252381D02*
X135199335Y-80191772D01*
X135199335Y-80191772D02*
X135199335Y-80151366D01*
X135199335Y-80151366D02*
X135179132Y-80090757D01*
X135179132Y-80090757D02*
X134835680Y-79747305D01*
X135057914Y-79605884D02*
X135057914Y-79565478D01*
X135057914Y-79565478D02*
X135078117Y-79504869D01*
X135078117Y-79504869D02*
X135179132Y-79403853D01*
X135179132Y-79403853D02*
X135239741Y-79383650D01*
X135239741Y-79383650D02*
X135280147Y-79383650D01*
X135280147Y-79383650D02*
X135340756Y-79403853D01*
X135340756Y-79403853D02*
X135381163Y-79444259D01*
X135381163Y-79444259D02*
X135421569Y-79525072D01*
X135421569Y-79525072D02*
X135421569Y-80009945D01*
X135421569Y-80009945D02*
X135684208Y-79747305D01*
X128214285Y-76509057D02*
X128214285Y-76794771D01*
X128014285Y-76194771D02*
X128214285Y-76509057D01*
X128214285Y-76509057D02*
X128414285Y-76194771D01*
X128928571Y-76794771D02*
X128585714Y-76794771D01*
X128757143Y-76794771D02*
X128757143Y-76194771D01*
X128757143Y-76194771D02*
X128700000Y-76280485D01*
X128700000Y-76280485D02*
X128642857Y-76337628D01*
X128642857Y-76337628D02*
X128585714Y-76366200D01*
X125409771Y-77719999D02*
X125124057Y-77919999D01*
X125409771Y-78062856D02*
X124809771Y-78062856D01*
X124809771Y-78062856D02*
X124809771Y-77834285D01*
X124809771Y-77834285D02*
X124838342Y-77777142D01*
X124838342Y-77777142D02*
X124866914Y-77748571D01*
X124866914Y-77748571D02*
X124924057Y-77719999D01*
X124924057Y-77719999D02*
X125009771Y-77719999D01*
X125009771Y-77719999D02*
X125066914Y-77748571D01*
X125066914Y-77748571D02*
X125095485Y-77777142D01*
X125095485Y-77777142D02*
X125124057Y-77834285D01*
X125124057Y-77834285D02*
X125124057Y-78062856D01*
X124866914Y-77491428D02*
X124838342Y-77462856D01*
X124838342Y-77462856D02*
X124809771Y-77405714D01*
X124809771Y-77405714D02*
X124809771Y-77262856D01*
X124809771Y-77262856D02*
X124838342Y-77205714D01*
X124838342Y-77205714D02*
X124866914Y-77177142D01*
X124866914Y-77177142D02*
X124924057Y-77148571D01*
X124924057Y-77148571D02*
X124981200Y-77148571D01*
X124981200Y-77148571D02*
X125066914Y-77177142D01*
X125066914Y-77177142D02*
X125409771Y-77519999D01*
X125409771Y-77519999D02*
X125409771Y-77148571D01*
X134440000Y-65954571D02*
X134240000Y-65668857D01*
X134097143Y-65954571D02*
X134097143Y-65354571D01*
X134097143Y-65354571D02*
X134325714Y-65354571D01*
X134325714Y-65354571D02*
X134382857Y-65383142D01*
X134382857Y-65383142D02*
X134411428Y-65411714D01*
X134411428Y-65411714D02*
X134440000Y-65468857D01*
X134440000Y-65468857D02*
X134440000Y-65554571D01*
X134440000Y-65554571D02*
X134411428Y-65611714D01*
X134411428Y-65611714D02*
X134382857Y-65640285D01*
X134382857Y-65640285D02*
X134325714Y-65668857D01*
X134325714Y-65668857D02*
X134097143Y-65668857D01*
X135011428Y-65954571D02*
X134668571Y-65954571D01*
X134840000Y-65954571D02*
X134840000Y-65354571D01*
X134840000Y-65354571D02*
X134782857Y-65440285D01*
X134782857Y-65440285D02*
X134725714Y-65497428D01*
X134725714Y-65497428D02*
X134668571Y-65526000D01*
X127542857Y-85069771D02*
X127542857Y-85555485D01*
X127542857Y-85555485D02*
X127571428Y-85612628D01*
X127571428Y-85612628D02*
X127600000Y-85641200D01*
X127600000Y-85641200D02*
X127657142Y-85669771D01*
X127657142Y-85669771D02*
X127771428Y-85669771D01*
X127771428Y-85669771D02*
X127828571Y-85641200D01*
X127828571Y-85641200D02*
X127857142Y-85612628D01*
X127857142Y-85612628D02*
X127885714Y-85555485D01*
X127885714Y-85555485D02*
X127885714Y-85069771D01*
X128428571Y-85269771D02*
X128428571Y-85669771D01*
X128285713Y-85041200D02*
X128142856Y-85469771D01*
X128142856Y-85469771D02*
X128514285Y-85469771D01*
X132300000Y-69369771D02*
X132100000Y-69084057D01*
X131957143Y-69369771D02*
X131957143Y-68769771D01*
X131957143Y-68769771D02*
X132185714Y-68769771D01*
X132185714Y-68769771D02*
X132242857Y-68798342D01*
X132242857Y-68798342D02*
X132271428Y-68826914D01*
X132271428Y-68826914D02*
X132300000Y-68884057D01*
X132300000Y-68884057D02*
X132300000Y-68969771D01*
X132300000Y-68969771D02*
X132271428Y-69026914D01*
X132271428Y-69026914D02*
X132242857Y-69055485D01*
X132242857Y-69055485D02*
X132185714Y-69084057D01*
X132185714Y-69084057D02*
X131957143Y-69084057D01*
X132814286Y-68769771D02*
X132700000Y-68769771D01*
X132700000Y-68769771D02*
X132642857Y-68798342D01*
X132642857Y-68798342D02*
X132614286Y-68826914D01*
X132614286Y-68826914D02*
X132557143Y-68912628D01*
X132557143Y-68912628D02*
X132528571Y-69026914D01*
X132528571Y-69026914D02*
X132528571Y-69255485D01*
X132528571Y-69255485D02*
X132557143Y-69312628D01*
X132557143Y-69312628D02*
X132585714Y-69341200D01*
X132585714Y-69341200D02*
X132642857Y-69369771D01*
X132642857Y-69369771D02*
X132757143Y-69369771D01*
X132757143Y-69369771D02*
X132814286Y-69341200D01*
X132814286Y-69341200D02*
X132842857Y-69312628D01*
X132842857Y-69312628D02*
X132871428Y-69255485D01*
X132871428Y-69255485D02*
X132871428Y-69112628D01*
X132871428Y-69112628D02*
X132842857Y-69055485D01*
X132842857Y-69055485D02*
X132814286Y-69026914D01*
X132814286Y-69026914D02*
X132757143Y-68998342D01*
X132757143Y-68998342D02*
X132642857Y-68998342D01*
X132642857Y-68998342D02*
X132585714Y-69026914D01*
X132585714Y-69026914D02*
X132557143Y-69055485D01*
X132557143Y-69055485D02*
X132528571Y-69112628D01*
X134104641Y-75146061D02*
X134104641Y-75186467D01*
X134104641Y-75186467D02*
X134064235Y-75267279D01*
X134064235Y-75267279D02*
X134023829Y-75307685D01*
X134023829Y-75307685D02*
X133943017Y-75348092D01*
X133943017Y-75348092D02*
X133862205Y-75348092D01*
X133862205Y-75348092D02*
X133801595Y-75327889D01*
X133801595Y-75327889D02*
X133700580Y-75267279D01*
X133700580Y-75267279D02*
X133639971Y-75206670D01*
X133639971Y-75206670D02*
X133579362Y-75105655D01*
X133579362Y-75105655D02*
X133559159Y-75045046D01*
X133559159Y-75045046D02*
X133559159Y-74964234D01*
X133559159Y-74964234D02*
X133599565Y-74883421D01*
X133599565Y-74883421D02*
X133639971Y-74843015D01*
X133639971Y-74843015D02*
X133720783Y-74802609D01*
X133720783Y-74802609D02*
X133761189Y-74802609D01*
X134145047Y-74701594D02*
X134084438Y-74721797D01*
X134084438Y-74721797D02*
X134044032Y-74721797D01*
X134044032Y-74721797D02*
X133983423Y-74701594D01*
X133983423Y-74701594D02*
X133963220Y-74681391D01*
X133963220Y-74681391D02*
X133943017Y-74620782D01*
X133943017Y-74620782D02*
X133943017Y-74580376D01*
X133943017Y-74580376D02*
X133963220Y-74519767D01*
X133963220Y-74519767D02*
X134044032Y-74438954D01*
X134044032Y-74438954D02*
X134104641Y-74418751D01*
X134104641Y-74418751D02*
X134145047Y-74418751D01*
X134145047Y-74418751D02*
X134205656Y-74438954D01*
X134205656Y-74438954D02*
X134225859Y-74459157D01*
X134225859Y-74459157D02*
X134246062Y-74519767D01*
X134246062Y-74519767D02*
X134246062Y-74560173D01*
X134246062Y-74560173D02*
X134225859Y-74620782D01*
X134225859Y-74620782D02*
X134145047Y-74701594D01*
X134145047Y-74701594D02*
X134124844Y-74762203D01*
X134124844Y-74762203D02*
X134124844Y-74802609D01*
X134124844Y-74802609D02*
X134145047Y-74863218D01*
X134145047Y-74863218D02*
X134225859Y-74944031D01*
X134225859Y-74944031D02*
X134286469Y-74964234D01*
X134286469Y-74964234D02*
X134326875Y-74964234D01*
X134326875Y-74964234D02*
X134387484Y-74944031D01*
X134387484Y-74944031D02*
X134468296Y-74863218D01*
X134468296Y-74863218D02*
X134488499Y-74802609D01*
X134488499Y-74802609D02*
X134488499Y-74762203D01*
X134488499Y-74762203D02*
X134468296Y-74701594D01*
X134468296Y-74701594D02*
X134387484Y-74620782D01*
X134387484Y-74620782D02*
X134326875Y-74600579D01*
X134326875Y-74600579D02*
X134286469Y-74600579D01*
X134286469Y-74600579D02*
X134225859Y-74620782D01*
X131763066Y-99469619D02*
X131763066Y-100183904D01*
X131763066Y-100183904D02*
X131715447Y-100326761D01*
X131715447Y-100326761D02*
X131620209Y-100422000D01*
X131620209Y-100422000D02*
X131477352Y-100469619D01*
X131477352Y-100469619D02*
X131382114Y-100469619D01*
X132191638Y-99564857D02*
X132239257Y-99517238D01*
X132239257Y-99517238D02*
X132334495Y-99469619D01*
X132334495Y-99469619D02*
X132572590Y-99469619D01*
X132572590Y-99469619D02*
X132667828Y-99517238D01*
X132667828Y-99517238D02*
X132715447Y-99564857D01*
X132715447Y-99564857D02*
X132763066Y-99660095D01*
X132763066Y-99660095D02*
X132763066Y-99755333D01*
X132763066Y-99755333D02*
X132715447Y-99898190D01*
X132715447Y-99898190D02*
X132144019Y-100469619D01*
X132144019Y-100469619D02*
X132763066Y-100469619D01*
X131042857Y-72369771D02*
X131042857Y-72855485D01*
X131042857Y-72855485D02*
X131071428Y-72912628D01*
X131071428Y-72912628D02*
X131100000Y-72941200D01*
X131100000Y-72941200D02*
X131157142Y-72969771D01*
X131157142Y-72969771D02*
X131271428Y-72969771D01*
X131271428Y-72969771D02*
X131328571Y-72941200D01*
X131328571Y-72941200D02*
X131357142Y-72912628D01*
X131357142Y-72912628D02*
X131385714Y-72855485D01*
X131385714Y-72855485D02*
X131385714Y-72369771D01*
X131985713Y-72969771D02*
X131642856Y-72969771D01*
X131814285Y-72969771D02*
X131814285Y-72369771D01*
X131814285Y-72369771D02*
X131757142Y-72455485D01*
X131757142Y-72455485D02*
X131699999Y-72512628D01*
X131699999Y-72512628D02*
X131642856Y-72541200D01*
X135842856Y-70669771D02*
X135842856Y-71155485D01*
X135842856Y-71155485D02*
X135871427Y-71212628D01*
X135871427Y-71212628D02*
X135899999Y-71241200D01*
X135899999Y-71241200D02*
X135957141Y-71269771D01*
X135957141Y-71269771D02*
X136071427Y-71269771D01*
X136071427Y-71269771D02*
X136128570Y-71241200D01*
X136128570Y-71241200D02*
X136157141Y-71212628D01*
X136157141Y-71212628D02*
X136185713Y-71155485D01*
X136185713Y-71155485D02*
X136185713Y-70669771D01*
X136414284Y-70669771D02*
X136785712Y-70669771D01*
X136785712Y-70669771D02*
X136585712Y-70898342D01*
X136585712Y-70898342D02*
X136671427Y-70898342D01*
X136671427Y-70898342D02*
X136728570Y-70926914D01*
X136728570Y-70926914D02*
X136757141Y-70955485D01*
X136757141Y-70955485D02*
X136785712Y-71012628D01*
X136785712Y-71012628D02*
X136785712Y-71155485D01*
X136785712Y-71155485D02*
X136757141Y-71212628D01*
X136757141Y-71212628D02*
X136728570Y-71241200D01*
X136728570Y-71241200D02*
X136671427Y-71269771D01*
X136671427Y-71269771D02*
X136499998Y-71269771D01*
X136499998Y-71269771D02*
X136442855Y-71241200D01*
X136442855Y-71241200D02*
X136414284Y-71212628D01*
X138712628Y-72885714D02*
X138741200Y-72914286D01*
X138741200Y-72914286D02*
X138769771Y-73000000D01*
X138769771Y-73000000D02*
X138769771Y-73057143D01*
X138769771Y-73057143D02*
X138741200Y-73142857D01*
X138741200Y-73142857D02*
X138684057Y-73200000D01*
X138684057Y-73200000D02*
X138626914Y-73228571D01*
X138626914Y-73228571D02*
X138512628Y-73257143D01*
X138512628Y-73257143D02*
X138426914Y-73257143D01*
X138426914Y-73257143D02*
X138312628Y-73228571D01*
X138312628Y-73228571D02*
X138255485Y-73200000D01*
X138255485Y-73200000D02*
X138198342Y-73142857D01*
X138198342Y-73142857D02*
X138169771Y-73057143D01*
X138169771Y-73057143D02*
X138169771Y-73000000D01*
X138169771Y-73000000D02*
X138198342Y-72914286D01*
X138198342Y-72914286D02*
X138226914Y-72885714D01*
X138769771Y-72314286D02*
X138769771Y-72657143D01*
X138769771Y-72485714D02*
X138169771Y-72485714D01*
X138169771Y-72485714D02*
X138255485Y-72542857D01*
X138255485Y-72542857D02*
X138312628Y-72600000D01*
X138312628Y-72600000D02*
X138341200Y-72657143D01*
X138769771Y-71742857D02*
X138769771Y-72085714D01*
X138769771Y-71914285D02*
X138169771Y-71914285D01*
X138169771Y-71914285D02*
X138255485Y-71971428D01*
X138255485Y-71971428D02*
X138312628Y-72028571D01*
X138312628Y-72028571D02*
X138341200Y-72085714D01*
X125712628Y-83585714D02*
X125741200Y-83614286D01*
X125741200Y-83614286D02*
X125769771Y-83700000D01*
X125769771Y-83700000D02*
X125769771Y-83757143D01*
X125769771Y-83757143D02*
X125741200Y-83842857D01*
X125741200Y-83842857D02*
X125684057Y-83900000D01*
X125684057Y-83900000D02*
X125626914Y-83928571D01*
X125626914Y-83928571D02*
X125512628Y-83957143D01*
X125512628Y-83957143D02*
X125426914Y-83957143D01*
X125426914Y-83957143D02*
X125312628Y-83928571D01*
X125312628Y-83928571D02*
X125255485Y-83900000D01*
X125255485Y-83900000D02*
X125198342Y-83842857D01*
X125198342Y-83842857D02*
X125169771Y-83757143D01*
X125169771Y-83757143D02*
X125169771Y-83700000D01*
X125169771Y-83700000D02*
X125198342Y-83614286D01*
X125198342Y-83614286D02*
X125226914Y-83585714D01*
X125769771Y-83014286D02*
X125769771Y-83357143D01*
X125769771Y-83185714D02*
X125169771Y-83185714D01*
X125169771Y-83185714D02*
X125255485Y-83242857D01*
X125255485Y-83242857D02*
X125312628Y-83300000D01*
X125312628Y-83300000D02*
X125341200Y-83357143D01*
X125169771Y-82471428D02*
X125169771Y-82757142D01*
X125169771Y-82757142D02*
X125455485Y-82785714D01*
X125455485Y-82785714D02*
X125426914Y-82757142D01*
X125426914Y-82757142D02*
X125398342Y-82700000D01*
X125398342Y-82700000D02*
X125398342Y-82557142D01*
X125398342Y-82557142D02*
X125426914Y-82500000D01*
X125426914Y-82500000D02*
X125455485Y-82471428D01*
X125455485Y-82471428D02*
X125512628Y-82442857D01*
X125512628Y-82442857D02*
X125655485Y-82442857D01*
X125655485Y-82442857D02*
X125712628Y-82471428D01*
X125712628Y-82471428D02*
X125741200Y-82500000D01*
X125741200Y-82500000D02*
X125769771Y-82557142D01*
X125769771Y-82557142D02*
X125769771Y-82700000D01*
X125769771Y-82700000D02*
X125741200Y-82757142D01*
X125741200Y-82757142D02*
X125712628Y-82785714D01*
D11*
%TO.C,C17*%
X129102400Y-62114020D02*
X129102400Y-62395180D01*
X130122400Y-62114020D02*
X130122400Y-62395180D01*
%TO.C,L2*%
X130440000Y-85500378D02*
X130440000Y-86299622D01*
X131560000Y-85500378D02*
X131560000Y-86299622D01*
%TO.C,J1*%
X125499400Y-53020000D02*
X125499400Y-51970000D01*
X127244400Y-56190000D02*
X127244400Y-56945000D01*
X127244400Y-56190000D02*
X136044400Y-56190000D01*
X137789400Y-53020000D02*
X137789400Y-51970000D01*
%TO.C,C14*%
X136659419Y-74990000D02*
X136940581Y-74990000D01*
X136659419Y-76010000D02*
X136940581Y-76010000D01*
%TO.C,D1*%
X137560000Y-67150000D02*
X134900000Y-67150000D01*
X137560000Y-68850000D02*
X134900000Y-68850000D01*
X137560000Y-68850000D02*
X137560000Y-67150000D01*
%TO.C,SW1*%
X125250000Y-69500000D02*
X125250000Y-72100000D01*
X125700000Y-69050001D02*
X125250000Y-69500000D01*
X125700000Y-72549999D02*
X125250000Y-72100000D01*
X129000000Y-68050000D02*
X127000000Y-68050000D01*
X129000000Y-73550000D02*
X127000000Y-73550000D01*
X130300000Y-69050001D02*
X130750000Y-69500000D01*
X130300000Y-72549999D02*
X130750000Y-72100000D01*
X130750000Y-69500000D02*
X130750000Y-72100000D01*
%TO.C,U5*%
X130391100Y-97237252D02*
X130391100Y-96023000D01*
X133911100Y-96023000D02*
X133911100Y-97593000D01*
X130381100Y-97528000D02*
X130191100Y-97668000D01*
X130191100Y-97388000D01*
X130381100Y-97528000D01*
G36*
X130381100Y-97528000D02*
G01*
X130191100Y-97668000D01*
X130191100Y-97388000D01*
X130381100Y-97528000D01*
G37*
%TO.C,C16*%
X128740581Y-87290000D02*
X128459419Y-87290000D01*
X128740581Y-88310000D02*
X128459419Y-88310000D01*
%TO.C,L1*%
X137199622Y-73340000D02*
X136400378Y-73340000D01*
X137199622Y-74460000D02*
X136400378Y-74460000D01*
%TO.C,U2*%
X129164093Y-78893934D02*
X129829127Y-78228900D01*
X129882160Y-79612001D02*
X129164093Y-78893934D01*
X131487999Y-81217840D02*
X132206066Y-81935907D01*
X132206066Y-81935907D02*
X132871100Y-81270873D01*
X132785894Y-76856052D02*
X131201974Y-76856052D01*
X134317840Y-78387999D02*
X135035907Y-79106066D01*
X135035907Y-79106066D02*
X134370873Y-79771100D01*
D12*
X132093934Y-76233798D02*
G75*
G02*
X131893934Y-76233798I-100000J0D01*
G01*
X131893934Y-76233798D02*
G75*
G02*
X132093934Y-76233798I100000J0D01*
G01*
D11*
%TO.C,Y1*%
X125575000Y-77050000D02*
X125575000Y-81050000D01*
X128875000Y-77050000D02*
X125575000Y-77050000D01*
%TO.C,R2*%
X124670000Y-79228641D02*
X124670000Y-78921359D01*
X125430000Y-79228641D02*
X125430000Y-78921359D01*
%TO.C,U4*%
X128100000Y-83739999D02*
X127300000Y-83740000D01*
X128100000Y-83739999D02*
X128900000Y-83740000D01*
X128100000Y-86860001D02*
X127300000Y-86860000D01*
X128100000Y-86860001D02*
X128900000Y-86860000D01*
X129640000Y-87140000D02*
X129160000Y-87140000D01*
X129400000Y-86810000D01*
X129640000Y-87140000D01*
G36*
X129640000Y-87140000D02*
G01*
X129160000Y-87140000D01*
X129400000Y-86810000D01*
X129640000Y-87140000D01*
G37*
%TO.C,J2*%
X125196400Y-101654800D02*
X125196400Y-105264800D01*
X125196400Y-106964800D02*
X125196400Y-111664800D01*
X125196400Y-112964800D02*
X125196400Y-114764800D01*
X125646400Y-101654800D02*
X125196400Y-101654800D01*
X126226400Y-117924800D02*
X126026400Y-117724800D01*
X126226400Y-117924800D02*
X128086400Y-117924800D01*
X128086400Y-117924800D02*
X128296400Y-117724800D01*
X128296400Y-117574800D02*
X128296400Y-117724800D01*
X128296400Y-117574800D02*
X134666400Y-117574800D01*
X135176400Y-117924800D02*
X134666400Y-117574800D01*
X137246400Y-101654800D02*
X139166400Y-101654800D01*
X137486400Y-117924800D02*
X135176400Y-117924800D01*
X137486400Y-117924800D02*
X137686400Y-117724800D01*
X137686400Y-117724800D02*
X137946400Y-117724800D01*
X139166400Y-101654800D02*
X139166400Y-115664800D01*
%TO.C,U1*%
X131249999Y-70310000D02*
X131250000Y-70260000D01*
X131249999Y-71910000D02*
X131250000Y-71960000D01*
X131250000Y-70260000D02*
X131700000Y-70260000D01*
X131250000Y-71960000D02*
X131700000Y-71960000D01*
X133350000Y-71960000D02*
X132900000Y-71960000D01*
X133350001Y-70310000D02*
X133350000Y-70110000D01*
X133350001Y-71910000D02*
X133350000Y-71960000D01*
%TO.C,U3*%
X134689999Y-71000000D02*
X134690000Y-70200000D01*
X134689999Y-71000000D02*
X134690000Y-71800000D01*
X137810001Y-71000000D02*
X137810000Y-70200000D01*
X137810001Y-71000000D02*
X137810000Y-71800000D01*
X134740000Y-72300000D02*
X134410000Y-72540000D01*
X134410000Y-72060000D01*
X134740000Y-72300000D01*
G36*
X134740000Y-72300000D02*
G01*
X134410000Y-72540000D01*
X134410000Y-72060000D01*
X134740000Y-72300000D01*
G37*
%TO.C,C11*%
X138190000Y-70259419D02*
X138190000Y-70540581D01*
X139210000Y-70259419D02*
X139210000Y-70540581D01*
%TO.C,C15*%
X124790000Y-85159419D02*
X124790000Y-85440581D01*
X125810000Y-85159419D02*
X125810000Y-85440581D01*
%TD*%
M02*
