%TF.GenerationSoftware,KiCad,Pcbnew,9.0.9-9.0.9~ubuntu24.04.1*%
%TF.CreationDate,2026-06-18T13:11:39+02:00*%
%TF.ProjectId,dabao_v3c_sdcard,64616261-6f5f-4763-9363-5f7364636172,rev?*%
%TF.SameCoordinates,Original*%
%TF.FileFunction,Paste,Top*%
%TF.FilePolarity,Positive*%
%FSLAX46Y46*%
G04 Gerber Fmt 4.6, Leading zero omitted, Abs format (unit mm)*
G04 Created by KiCad (PCBNEW 9.0.9-9.0.9~ubuntu24.04.1) date 2026-06-18 13:11:39*
%MOMM*%
%LPD*%
G01*
G04 APERTURE LIST*
G04 Aperture macros list*
%AMRoundRect*
0 Rectangle with rounded corners*
0 $1 Rounding radius*
0 $2 $3 $4 $5 $6 $7 $8 $9 X,Y pos of 4 corners*
0 Add a 4 corners polygon primitive as box body*
4,1,4,$2,$3,$4,$5,$6,$7,$8,$9,$2,$3,0*
0 Add four circle primitives for the rounded corners*
1,1,$1+$1,$2,$3*
1,1,$1+$1,$4,$5*
1,1,$1+$1,$6,$7*
1,1,$1+$1,$8,$9*
0 Add four rect primitives between the rounded corners*
20,1,$1+$1,$2,$3,$4,$5,0*
20,1,$1+$1,$4,$5,$6,$7,0*
20,1,$1+$1,$6,$7,$8,$9,0*
20,1,$1+$1,$8,$9,$2,$3,0*%
G04 Aperture macros list end*
%ADD10C,0.230000*%
%ADD11RoundRect,0.225000X-0.250000X0.225000X-0.250000X-0.225000X0.250000X-0.225000X0.250000X0.225000X0*%
%ADD12RoundRect,0.218750X-0.381250X0.218750X-0.381250X-0.218750X0.381250X-0.218750X0.381250X0.218750X0*%
%ADD13RoundRect,0.079500X0.014849X-0.127279X0.127279X-0.014849X-0.014849X0.127279X-0.127279X0.014849X0*%
%ADD14RoundRect,0.079500X-0.014849X0.127279X-0.127279X0.014849X0.014849X-0.127279X0.127279X-0.014849X0*%
%ADD15RoundRect,0.079500X0.079500X0.100500X-0.079500X0.100500X-0.079500X-0.100500X0.079500X-0.100500X0*%
%ADD16RoundRect,0.079500X-0.100500X0.079500X-0.100500X-0.079500X0.100500X-0.079500X0.100500X0.079500X0*%
%ADD17RoundRect,0.079500X-0.079500X-0.100500X0.079500X-0.100500X0.079500X0.100500X-0.079500X0.100500X0*%
%ADD18R,1.100000X2.500000*%
%ADD19RoundRect,0.079500X0.100500X-0.079500X0.100500X0.079500X-0.100500X0.079500X-0.100500X-0.079500X0*%
%ADD20RoundRect,0.225000X-0.225000X-0.250000X0.225000X-0.250000X0.225000X0.250000X-0.225000X0.250000X0*%
%ADD21RoundRect,0.112500X0.187500X0.112500X-0.187500X0.112500X-0.187500X-0.112500X0.187500X-0.112500X0*%
%ADD22R,0.750000X1.000000*%
%ADD23RoundRect,0.080000X0.295000X-0.080000X0.295000X0.080000X-0.295000X0.080000X-0.295000X-0.080000X0*%
%ADD24RoundRect,0.050000X0.050000X-0.262500X0.050000X0.262500X-0.050000X0.262500X-0.050000X-0.262500X0*%
%ADD25RoundRect,0.225000X0.225000X0.250000X-0.225000X0.250000X-0.225000X-0.250000X0.225000X-0.250000X0*%
%ADD26RoundRect,0.079500X0.127279X0.014849X0.014849X0.127279X-0.127279X-0.014849X-0.014849X-0.127279X0*%
%ADD27RoundRect,0.218750X0.218750X0.381250X-0.218750X0.381250X-0.218750X-0.381250X0.218750X-0.381250X0*%
%ADD28R,1.200000X1.400000*%
%ADD29RoundRect,0.135000X0.185000X-0.135000X0.185000X0.135000X-0.185000X0.135000X-0.185000X-0.135000X0*%
%ADD30RoundRect,0.150000X0.512500X0.150000X-0.512500X0.150000X-0.512500X-0.150000X0.512500X-0.150000X0*%
%ADD31R,0.700000X1.200000*%
%ADD32R,1.000000X0.800000*%
%ADD33R,1.000000X1.200000*%
%ADD34R,1.000000X2.800000*%
%ADD35R,1.300000X1.900000*%
%ADD36O,0.200000X0.700000*%
%ADD37O,0.200000X0.600000*%
%ADD38O,0.600000X0.200000*%
%ADD39RoundRect,0.150000X0.150000X-0.512500X0.150000X0.512500X-0.150000X0.512500X-0.150000X-0.512500X0*%
G04 APERTURE END LIST*
D10*
%TO.C,U2*%
X132241421Y-77161522D03*
X132524264Y-77444365D03*
X132807107Y-77727208D03*
X133089949Y-78010051D03*
X133372792Y-78292893D03*
X133655635Y-78575736D03*
X133938478Y-78858579D03*
X134221320Y-79141421D03*
X131675736Y-77161522D03*
X131958579Y-77444365D03*
X132241421Y-77727208D03*
X132524264Y-78010051D03*
X132807107Y-78292893D03*
X133089949Y-78575736D03*
X133372792Y-78858579D03*
X133655635Y-79141421D03*
X133938478Y-79424264D03*
X131392893Y-77444365D03*
X131675736Y-77727208D03*
X131958579Y-78010051D03*
X132241421Y-78292893D03*
X132524264Y-78575736D03*
X132807107Y-78858579D03*
X133089949Y-79141421D03*
X133372792Y-79424264D03*
X133655635Y-79707107D03*
X131110051Y-77727208D03*
X131392893Y-78010051D03*
X131675736Y-78292893D03*
X131958579Y-78575736D03*
X132241421Y-78858579D03*
X132524264Y-79141421D03*
X132807107Y-79424264D03*
X133089949Y-79707107D03*
X133372792Y-79989949D03*
X130827208Y-78010051D03*
X131110051Y-78292893D03*
X131392893Y-78575736D03*
X131675736Y-78858579D03*
X131958579Y-79141421D03*
X132241421Y-79424264D03*
X132524264Y-79707107D03*
X132807107Y-79989949D03*
X133089949Y-80272792D03*
X130544365Y-78292893D03*
X130827208Y-78575736D03*
X131110051Y-78858579D03*
X131392893Y-79141421D03*
X131675736Y-79424264D03*
X131958579Y-79707107D03*
X132241421Y-79989949D03*
X132524264Y-80272792D03*
X132807107Y-80555635D03*
X130261522Y-78575736D03*
X130544365Y-78858579D03*
X130827208Y-79141421D03*
X131110051Y-79424264D03*
X131392893Y-79707107D03*
X131675736Y-79989949D03*
X131958579Y-80272792D03*
X132241421Y-80555635D03*
X132524264Y-80838478D03*
X129978680Y-78858579D03*
X130261522Y-79141421D03*
X130544365Y-79424264D03*
X130827208Y-79707107D03*
X131110051Y-79989949D03*
X131392893Y-80272792D03*
X131675736Y-80555635D03*
X131958579Y-80838478D03*
X132241421Y-81121320D03*
%TD*%
D11*
%TO.C,C17*%
X129612400Y-61479600D03*
X129612400Y-63029600D03*
%TD*%
D12*
%TO.C,L2*%
X131000000Y-84837500D03*
X131000000Y-86962500D03*
%TD*%
D13*
%TO.C,C5*%
X133331048Y-76568952D03*
X133818952Y-76081048D03*
%TD*%
D14*
%TO.C,C10*%
X131543952Y-82331048D03*
X131056048Y-82818952D03*
%TD*%
D15*
%TO.C,R3*%
X138645000Y-68500000D03*
X137955000Y-68500000D03*
%TD*%
D16*
%TO.C,C13*%
X134100000Y-71375000D03*
X134100000Y-72065000D03*
%TD*%
D17*
%TO.C,C1*%
X126580000Y-76600000D03*
X127270000Y-76600000D03*
%TD*%
%TO.C,R7*%
X125855000Y-88100000D03*
X126545000Y-88100000D03*
%TD*%
D18*
%TO.C,J1*%
X128144400Y-57820000D03*
X130644400Y-57820000D03*
X132644400Y-57820000D03*
X135144400Y-57820000D03*
%TD*%
D17*
%TO.C,C9*%
X126805000Y-81500000D03*
X127495000Y-81500000D03*
%TD*%
D19*
%TO.C,R5*%
X134100000Y-70645000D03*
X134100000Y-69955000D03*
%TD*%
D13*
%TO.C,C4*%
X134581048Y-77718952D03*
X135068952Y-77231048D03*
%TD*%
D16*
%TO.C,R4*%
X136700000Y-84555000D03*
X136700000Y-85245000D03*
%TD*%
D14*
%TO.C,C6*%
X130543952Y-81056048D03*
X130056048Y-81543952D03*
%TD*%
D15*
%TO.C,R8*%
X126545000Y-87400000D03*
X125855000Y-87400000D03*
%TD*%
D20*
%TO.C,C14*%
X136025000Y-75500000D03*
X137575000Y-75500000D03*
%TD*%
D14*
%TO.C,C7*%
X132043952Y-82831048D03*
X131556048Y-83318952D03*
%TD*%
D21*
%TO.C,D1*%
X137000000Y-68000000D03*
X134900000Y-68000000D03*
%TD*%
D14*
%TO.C,C2*%
X130043952Y-80556048D03*
X129556048Y-81043952D03*
%TD*%
D22*
%TO.C,SW1*%
X129875000Y-67800000D03*
X129875000Y-73800000D03*
X126125000Y-67800000D03*
X126125000Y-73800000D03*
%TD*%
D23*
%TO.C,U5*%
X131221100Y-96808000D03*
X132151100Y-96808000D03*
X133081100Y-96808000D03*
D24*
X130751100Y-97520500D03*
X131151100Y-97520500D03*
X131551100Y-97520500D03*
X131951100Y-97520500D03*
X132351100Y-97520500D03*
X132751100Y-97520500D03*
X133151100Y-97520500D03*
X133551100Y-97520500D03*
X133551100Y-96095500D03*
X133151100Y-96095500D03*
X132751100Y-96095500D03*
X132351100Y-96095500D03*
X131951100Y-96095500D03*
X131551100Y-96095500D03*
X131151100Y-96095500D03*
X130751100Y-96095500D03*
%TD*%
D25*
%TO.C,C16*%
X129375000Y-87800000D03*
X127825000Y-87800000D03*
%TD*%
D19*
%TO.C,C12*%
X133900000Y-82245000D03*
X133900000Y-81555000D03*
%TD*%
D26*
%TO.C,C3*%
X130668952Y-76518952D03*
X130181048Y-76031048D03*
%TD*%
D27*
%TO.C,L1*%
X137862500Y-73900000D03*
X135737500Y-73900000D03*
%TD*%
D28*
%TO.C,Y1*%
X126375000Y-77950000D03*
X126375000Y-80150000D03*
X128075000Y-80150000D03*
X128075000Y-77950000D03*
%TD*%
D29*
%TO.C,R2*%
X125050000Y-79584999D03*
X125050000Y-78565001D03*
%TD*%
D15*
%TO.C,R1*%
X134885000Y-64984800D03*
X134195000Y-64984800D03*
%TD*%
D30*
%TO.C,U4*%
X129237500Y-86249999D03*
X129237500Y-85300000D03*
X129237500Y-84350001D03*
X126962500Y-84350001D03*
X126962500Y-86249999D03*
%TD*%
D15*
%TO.C,R6*%
X133945000Y-69100000D03*
X133255000Y-69100000D03*
%TD*%
D13*
%TO.C,C8*%
X132806048Y-76043952D03*
X133293952Y-75556048D03*
%TD*%
D31*
%TO.C,J2*%
X134946400Y-101814800D03*
X133846400Y-101814800D03*
X132746400Y-101814800D03*
X131646400Y-101814800D03*
X130546400Y-101814800D03*
X129446400Y-101814800D03*
X128346400Y-101814800D03*
X127246400Y-101814800D03*
X126296400Y-101814800D03*
D32*
X125346400Y-112314800D03*
D33*
X125346400Y-106114800D03*
D34*
X125346400Y-116464800D03*
D33*
X136496400Y-101814800D03*
D35*
X138846400Y-116914800D03*
%TD*%
D36*
%TO.C,U1*%
X132500000Y-70560000D03*
D37*
X132100001Y-70510000D03*
D38*
X131500000Y-70710000D03*
X131500001Y-71110000D03*
X131500000Y-71510000D03*
D37*
X132100001Y-71710000D03*
X132499999Y-71710000D03*
D38*
X133100000Y-71510000D03*
X133099999Y-71110000D03*
X133100000Y-70710000D03*
%TD*%
D39*
%TO.C,U3*%
X135300001Y-72137500D03*
X136250000Y-72137500D03*
X137199999Y-72137500D03*
X137199999Y-69862500D03*
X135300001Y-69862500D03*
%TD*%
D11*
%TO.C,C11*%
X138700000Y-69625000D03*
X138700000Y-71175000D03*
%TD*%
%TO.C,C15*%
X125300000Y-84525000D03*
X125300000Y-86075000D03*
%TD*%
M02*
