M48
; DRILL file {KiCad 9.0.8-9.0.8~ubuntu24.04.1} date 2026-03-31T13:32:25+0200
; FORMAT={-:-/ absolute / metric / decimal}
; #@! TF.CreationDate,2026-03-31T13:32:25+02:00
; #@! TF.GenerationSoftware,Kicad,Pcbnew,9.0.8-9.0.8~ubuntu24.04.1
; #@! TF.FileFunction,Plated,1,2,PTH
FMAT,2
METRIC
; #@! TA.AperFunction,Plated,PTH,ViaDrill
T1C0.200
; #@! TA.AperFunction,Plated,PTH,ViaDrill
T2C0.250
; #@! TA.AperFunction,Plated,PTH,ComponentDrill
T3C0.900
%
G90
G05
T1
X131.393Y-78.859
X132.241Y-79.707
X132.807Y-79.141
T2
X124.8Y-81.9
X125.2Y-87.1
X125.2Y-90.3
X125.425Y-77.837
X125.701Y-58.279
X125.9Y-83.6
X126.0Y-85.4
X126.1Y-68.85
X126.125Y-81.55
X126.5Y-69.85
X126.5Y-72.6
X126.62Y-83.59
X127.174Y-67.576
X127.45Y-72.6
X127.5Y-69.85
X127.53Y-64.629
X127.8Y-88.7
X127.84Y-76.82
X127.885Y-92.518
X128.1Y-85.3
X128.1Y-87.0
X128.5Y-83.6
X128.6Y-88.7
X129.054Y-79.463
X129.2Y-78.5
X129.325Y-81.75
X129.4Y-90.3
X129.75Y-75.6
X130.1Y-83.6
X130.222Y-91.96
X130.25Y-79.9
X130.39Y-71.88
X130.4Y-85.9
X130.851Y-83.524
X130.882Y-62.089
X130.882Y-63.512
X130.882Y-64.731
X130.882Y-65.899
X130.933Y-60.362
X130.96Y-70.09
X130.984Y-68.338
X131.035Y-67.169
X131.3Y-76.3
X131.746Y-60.311
X131.746Y-61.775
X132.3Y-81.675
X132.346Y-61.788
X132.356Y-60.311
X132.37Y-82.3
X132.675Y-76.675
X133.016Y-83.425
X133.1Y-72.5
X133.168Y-60.362
X133.168Y-62.089
X133.168Y-67.169
X133.168Y-68.338
X133.219Y-63.562
X133.219Y-64.68
X133.25Y-89.25
X133.27Y-65.95
X133.33Y-77.205
X133.55Y-69.95
X133.559Y-74.059
X133.9Y-80.9
X133.91Y-67.28
X133.95Y-77.6
X134.0Y-85.7
X134.037Y-75.362
X134.438Y-83.273
X134.896Y-70.928
X135.0Y-74.9
X135.0Y-75.7
X135.3Y-79.4
X135.4Y-68.8
X135.5Y-77.8
X135.55Y-76.75
X135.556Y-92.569
X135.65Y-90.8
X136.0Y-80.1
X136.3Y-77.9
X136.4Y-71.1
X136.7Y-73.3
X136.7Y-86.175
X136.8Y-74.0
X136.85Y-88.6
X136.877Y-66.56
X136.9Y-74.8
X136.928Y-65.34
X137.1Y-71.0
X137.385Y-58.279
X137.9Y-71.0
X137.9Y-80.05
X137.9Y-84.0
X137.9Y-89.55
X138.045Y-65.29
X138.5Y-75.2
X138.7Y-72.0
X139.2Y-84.4
X139.214Y-85.305
X139.25Y-80.05
X139.264Y-82.511
X139.479Y-68.501
X139.7Y-69.8
X139.976Y-72.249
X140.077Y-75.196
X141.652Y-72.249
X141.703Y-84.441
X141.703Y-85.254
T3
G00X125.944Y-55.87
M15
G01X125.944Y-54.27
M16
G05
G00X137.344Y-55.87
M15
G01X137.344Y-54.27
M16
G05
M30
