%TF.GenerationSoftware,KiCad,Pcbnew,9.0.9-9.0.9~ubuntu24.04.1*%
%TF.CreationDate,2026-06-25T15:13:57+02:00*%
%TF.ProjectId,dabao_v3c_sdcard,64616261-6f5f-4763-9363-5f7364636172,rev?*%
%TF.SameCoordinates,Original*%
%TF.FileFunction,Legend,Bot*%
%TF.FilePolarity,Positive*%
%FSLAX46Y46*%
G04 Gerber Fmt 4.6, Leading zero omitted, Abs format (unit mm)*
G04 Created by KiCad (PCBNEW 9.0.9-9.0.9~ubuntu24.04.1) date 2026-06-25 15:13:57*
%MOMM*%
%LPD*%
G01*
G04 APERTURE LIST*
%ADD10C,0.100000*%
%ADD11C,0.150000*%
G04 APERTURE END LIST*
D10*
X136191353Y-78672419D02*
X135572306Y-78672419D01*
X135572306Y-78672419D02*
X135905639Y-79053371D01*
X135905639Y-79053371D02*
X135762782Y-79053371D01*
X135762782Y-79053371D02*
X135667544Y-79100990D01*
X135667544Y-79100990D02*
X135619925Y-79148609D01*
X135619925Y-79148609D02*
X135572306Y-79243847D01*
X135572306Y-79243847D02*
X135572306Y-79481942D01*
X135572306Y-79481942D02*
X135619925Y-79577180D01*
X135619925Y-79577180D02*
X135667544Y-79624800D01*
X135667544Y-79624800D02*
X135762782Y-79672419D01*
X135762782Y-79672419D02*
X136048496Y-79672419D01*
X136048496Y-79672419D02*
X136143734Y-79624800D01*
X136143734Y-79624800D02*
X136191353Y-79577180D01*
X135143734Y-79577180D02*
X135096115Y-79624800D01*
X135096115Y-79624800D02*
X135143734Y-79672419D01*
X135143734Y-79672419D02*
X135191353Y-79624800D01*
X135191353Y-79624800D02*
X135143734Y-79577180D01*
X135143734Y-79577180D02*
X135143734Y-79672419D01*
X134762782Y-78672419D02*
X134143735Y-78672419D01*
X134143735Y-78672419D02*
X134477068Y-79053371D01*
X134477068Y-79053371D02*
X134334211Y-79053371D01*
X134334211Y-79053371D02*
X134238973Y-79100990D01*
X134238973Y-79100990D02*
X134191354Y-79148609D01*
X134191354Y-79148609D02*
X134143735Y-79243847D01*
X134143735Y-79243847D02*
X134143735Y-79481942D01*
X134143735Y-79481942D02*
X134191354Y-79577180D01*
X134191354Y-79577180D02*
X134238973Y-79624800D01*
X134238973Y-79624800D02*
X134334211Y-79672419D01*
X134334211Y-79672419D02*
X134619925Y-79672419D01*
X134619925Y-79672419D02*
X134715163Y-79624800D01*
X134715163Y-79624800D02*
X134762782Y-79577180D01*
X133858020Y-78672419D02*
X133524687Y-79672419D01*
X133524687Y-79672419D02*
X133191354Y-78672419D01*
D11*
X131428458Y-62388771D02*
X131428458Y-62874485D01*
X131428458Y-62874485D02*
X131399887Y-62931628D01*
X131399887Y-62931628D02*
X131371316Y-62960200D01*
X131371316Y-62960200D02*
X131314173Y-62988771D01*
X131314173Y-62988771D02*
X131199887Y-62988771D01*
X131199887Y-62988771D02*
X131142744Y-62960200D01*
X131142744Y-62960200D02*
X131114173Y-62931628D01*
X131114173Y-62931628D02*
X131085601Y-62874485D01*
X131085601Y-62874485D02*
X131085601Y-62388771D01*
X130799887Y-62760200D02*
X130342745Y-62760200D01*
X130571316Y-62988771D02*
X130571316Y-62531628D01*
X133428458Y-63378771D02*
X133428458Y-63864485D01*
X133428458Y-63864485D02*
X133399887Y-63921628D01*
X133399887Y-63921628D02*
X133371316Y-63950200D01*
X133371316Y-63950200D02*
X133314173Y-63978771D01*
X133314173Y-63978771D02*
X133199887Y-63978771D01*
X133199887Y-63978771D02*
X133142744Y-63950200D01*
X133142744Y-63950200D02*
X133114173Y-63921628D01*
X133114173Y-63921628D02*
X133085601Y-63864485D01*
X133085601Y-63864485D02*
X133085601Y-63378771D01*
X132799887Y-63750200D02*
X132342745Y-63750200D01*
X133058332Y-97855149D02*
X133096428Y-97893245D01*
X133096428Y-97893245D02*
X133210713Y-97931340D01*
X133210713Y-97931340D02*
X133286904Y-97931340D01*
X133286904Y-97931340D02*
X133401190Y-97893245D01*
X133401190Y-97893245D02*
X133477380Y-97817054D01*
X133477380Y-97817054D02*
X133515475Y-97740864D01*
X133515475Y-97740864D02*
X133553571Y-97588483D01*
X133553571Y-97588483D02*
X133553571Y-97474197D01*
X133553571Y-97474197D02*
X133515475Y-97321816D01*
X133515475Y-97321816D02*
X133477380Y-97245625D01*
X133477380Y-97245625D02*
X133401190Y-97169435D01*
X133401190Y-97169435D02*
X133286904Y-97131340D01*
X133286904Y-97131340D02*
X133210713Y-97131340D01*
X133210713Y-97131340D02*
X133096428Y-97169435D01*
X133096428Y-97169435D02*
X133058332Y-97207530D01*
X132715475Y-97512292D02*
X132448809Y-97512292D01*
X132334523Y-97931340D02*
X132715475Y-97931340D01*
X132715475Y-97931340D02*
X132715475Y-97131340D01*
X132715475Y-97131340D02*
X132334523Y-97131340D01*
X131534522Y-97931340D02*
X131801189Y-97550387D01*
X131991665Y-97931340D02*
X131991665Y-97131340D01*
X131991665Y-97131340D02*
X131686903Y-97131340D01*
X131686903Y-97131340D02*
X131610713Y-97169435D01*
X131610713Y-97169435D02*
X131572618Y-97207530D01*
X131572618Y-97207530D02*
X131534522Y-97283721D01*
X131534522Y-97283721D02*
X131534522Y-97398006D01*
X131534522Y-97398006D02*
X131572618Y-97474197D01*
X131572618Y-97474197D02*
X131610713Y-97512292D01*
X131610713Y-97512292D02*
X131686903Y-97550387D01*
X131686903Y-97550387D02*
X131991665Y-97550387D01*
X131191665Y-97931340D02*
X131191665Y-97131340D01*
X131191665Y-97131340D02*
X130734522Y-97931340D01*
X130734522Y-97931340D02*
X130734522Y-97131340D01*
X135344046Y-98419295D02*
X135191665Y-98419295D01*
X135191665Y-98419295D02*
X135115475Y-98457390D01*
X135115475Y-98457390D02*
X135039284Y-98533580D01*
X135039284Y-98533580D02*
X135001189Y-98685961D01*
X135001189Y-98685961D02*
X135001189Y-98952628D01*
X135001189Y-98952628D02*
X135039284Y-99105009D01*
X135039284Y-99105009D02*
X135115475Y-99181200D01*
X135115475Y-99181200D02*
X135191665Y-99219295D01*
X135191665Y-99219295D02*
X135344046Y-99219295D01*
X135344046Y-99219295D02*
X135420237Y-99181200D01*
X135420237Y-99181200D02*
X135496427Y-99105009D01*
X135496427Y-99105009D02*
X135534523Y-98952628D01*
X135534523Y-98952628D02*
X135534523Y-98685961D01*
X135534523Y-98685961D02*
X135496427Y-98533580D01*
X135496427Y-98533580D02*
X135420237Y-98457390D01*
X135420237Y-98457390D02*
X135344046Y-98419295D01*
X134658332Y-99219295D02*
X134658332Y-98419295D01*
X134658332Y-98800247D02*
X134201189Y-98800247D01*
X134201189Y-99219295D02*
X134201189Y-98419295D01*
X133439285Y-99219295D02*
X133820237Y-99219295D01*
X133820237Y-99219295D02*
X133820237Y-98419295D01*
X133172618Y-98914533D02*
X132563095Y-98914533D01*
X132258333Y-98419295D02*
X132067857Y-99219295D01*
X132067857Y-99219295D02*
X131915476Y-98647866D01*
X131915476Y-98647866D02*
X131763095Y-99219295D01*
X131763095Y-99219295D02*
X131572619Y-98419295D01*
X131267856Y-98914533D02*
X130658333Y-98914533D01*
X130315476Y-98495485D02*
X130277380Y-98457390D01*
X130277380Y-98457390D02*
X130201190Y-98419295D01*
X130201190Y-98419295D02*
X130010714Y-98419295D01*
X130010714Y-98419295D02*
X129934523Y-98457390D01*
X129934523Y-98457390D02*
X129896428Y-98495485D01*
X129896428Y-98495485D02*
X129858333Y-98571676D01*
X129858333Y-98571676D02*
X129858333Y-98647866D01*
X129858333Y-98647866D02*
X129896428Y-98762152D01*
X129896428Y-98762152D02*
X130353571Y-99219295D01*
X130353571Y-99219295D02*
X129858333Y-99219295D01*
X129515475Y-99143104D02*
X129477380Y-99181200D01*
X129477380Y-99181200D02*
X129515475Y-99219295D01*
X129515475Y-99219295D02*
X129553571Y-99181200D01*
X129553571Y-99181200D02*
X129515475Y-99143104D01*
X129515475Y-99143104D02*
X129515475Y-99219295D01*
X128982142Y-98419295D02*
X128905952Y-98419295D01*
X128905952Y-98419295D02*
X128829761Y-98457390D01*
X128829761Y-98457390D02*
X128791666Y-98495485D01*
X128791666Y-98495485D02*
X128753571Y-98571676D01*
X128753571Y-98571676D02*
X128715476Y-98724057D01*
X128715476Y-98724057D02*
X128715476Y-98914533D01*
X128715476Y-98914533D02*
X128753571Y-99066914D01*
X128753571Y-99066914D02*
X128791666Y-99143104D01*
X128791666Y-99143104D02*
X128829761Y-99181200D01*
X128829761Y-99181200D02*
X128905952Y-99219295D01*
X128905952Y-99219295D02*
X128982142Y-99219295D01*
X128982142Y-99219295D02*
X129058333Y-99181200D01*
X129058333Y-99181200D02*
X129096428Y-99143104D01*
X129096428Y-99143104D02*
X129134523Y-99066914D01*
X129134523Y-99066914D02*
X129172619Y-98914533D01*
X129172619Y-98914533D02*
X129172619Y-98724057D01*
X129172619Y-98724057D02*
X129134523Y-98571676D01*
X129134523Y-98571676D02*
X129096428Y-98495485D01*
X129096428Y-98495485D02*
X129058333Y-98457390D01*
X129058333Y-98457390D02*
X128982142Y-98419295D01*
M02*
