%TF.GenerationSoftware,KiCad,Pcbnew,9.0.9-9.0.9~ubuntu24.04.1*%
%TF.CreationDate,2026-06-18T13:11:39+02:00*%
%TF.ProjectId,dabao_v3c_sdcard,64616261-6f5f-4763-9363-5f7364636172,rev?*%
%TF.SameCoordinates,Original*%
%TF.FileFunction,Copper,L1,Top*%
%TF.FilePolarity,Positive*%
%FSLAX46Y46*%
G04 Gerber Fmt 4.6, Leading zero omitted, Abs format (unit mm)*
G04 Created by KiCad (PCBNEW 9.0.9-9.0.9~ubuntu24.04.1) date 2026-06-18 13:11:39*
%MOMM*%
%LPD*%
G01*
G04 APERTURE LIST*
G04 Aperture macros list*
%AMRoundRect*
0 Rectangle with rounded corners*
0 $1 Rounding radius*
0 $2 $3 $4 $5 $6 $7 $8 $9 X,Y pos of 4 corners*
0 Add a 4 corners polygon primitive as box body*
4,1,4,$2,$3,$4,$5,$6,$7,$8,$9,$2,$3,0*
0 Add four circle primitives for the rounded corners*
1,1,$1+$1,$2,$3*
1,1,$1+$1,$4,$5*
1,1,$1+$1,$6,$7*
1,1,$1+$1,$8,$9*
0 Add four rect primitives between the rounded corners*
20,1,$1+$1,$2,$3,$4,$5,0*
20,1,$1+$1,$4,$5,$6,$7,0*
20,1,$1+$1,$6,$7,$8,$9,0*
20,1,$1+$1,$8,$9,$2,$3,0*%
G04 Aperture macros list end*
%TA.AperFunction,EtchedComponent*%
%ADD10C,0.000000*%
%TD*%
%TA.AperFunction,EtchedComponent*%
%ADD11C,0.050000*%
%TD*%
%TA.AperFunction,SMDPad,CuDef*%
%ADD12C,0.230000*%
%TD*%
%TA.AperFunction,SMDPad,CuDef*%
%ADD13RoundRect,0.225000X-0.250000X0.225000X-0.250000X-0.225000X0.250000X-0.225000X0.250000X0.225000X0*%
%TD*%
%TA.AperFunction,SMDPad,CuDef*%
%ADD14RoundRect,0.218750X-0.381250X0.218750X-0.381250X-0.218750X0.381250X-0.218750X0.381250X0.218750X0*%
%TD*%
%TA.AperFunction,SMDPad,CuDef*%
%ADD15RoundRect,0.100000X-0.021213X-0.162635X0.162635X0.021213X0.021213X0.162635X-0.162635X-0.021213X0*%
%TD*%
%TA.AperFunction,SMDPad,CuDef*%
%ADD16RoundRect,0.100000X0.021213X0.162635X-0.162635X-0.021213X-0.021213X-0.162635X0.162635X0.021213X0*%
%TD*%
%TA.AperFunction,SMDPad,CuDef*%
%ADD17RoundRect,0.100000X0.130000X0.100000X-0.130000X0.100000X-0.130000X-0.100000X0.130000X-0.100000X0*%
%TD*%
%TA.AperFunction,SMDPad,CuDef*%
%ADD18RoundRect,0.100000X-0.100000X0.130000X-0.100000X-0.130000X0.100000X-0.130000X0.100000X0.130000X0*%
%TD*%
%TA.AperFunction,SMDPad,CuDef*%
%ADD19RoundRect,0.100000X-0.130000X-0.100000X0.130000X-0.100000X0.130000X0.100000X-0.130000X0.100000X0*%
%TD*%
%TA.AperFunction,SMDPad,CuDef*%
%ADD20R,1.100000X2.500000*%
%TD*%
%TA.AperFunction,HeatsinkPad*%
%ADD21O,1.900000X3.500000*%
%TD*%
%TA.AperFunction,SMDPad,CuDef*%
%ADD22RoundRect,0.100000X0.100000X-0.130000X0.100000X0.130000X-0.100000X0.130000X-0.100000X-0.130000X0*%
%TD*%
%TA.AperFunction,SMDPad,CuDef*%
%ADD23RoundRect,0.225000X-0.225000X-0.250000X0.225000X-0.250000X0.225000X0.250000X-0.225000X0.250000X0*%
%TD*%
%TA.AperFunction,SMDPad,CuDef*%
%ADD24RoundRect,0.112500X0.187500X0.112500X-0.187500X0.112500X-0.187500X-0.112500X0.187500X-0.112500X0*%
%TD*%
%TA.AperFunction,SMDPad,CuDef*%
%ADD25R,0.750000X1.000000*%
%TD*%
%TA.AperFunction,SMDPad,CuDef*%
%ADD26RoundRect,0.050000X0.050000X-0.262500X0.050000X0.262500X-0.050000X0.262500X-0.050000X-0.262500X0*%
%TD*%
%TA.AperFunction,HeatsinkPad*%
%ADD27R,2.800000X0.400000*%
%TD*%
%TA.AperFunction,SMDPad,CuDef*%
%ADD28RoundRect,0.225000X0.225000X0.250000X-0.225000X0.250000X-0.225000X-0.250000X0.225000X-0.250000X0*%
%TD*%
%TA.AperFunction,SMDPad,CuDef*%
%ADD29RoundRect,0.100000X0.162635X-0.021213X-0.021213X0.162635X-0.162635X0.021213X0.021213X-0.162635X0*%
%TD*%
%TA.AperFunction,SMDPad,CuDef*%
%ADD30RoundRect,0.218750X0.218750X0.381250X-0.218750X0.381250X-0.218750X-0.381250X0.218750X-0.381250X0*%
%TD*%
%TA.AperFunction,SMDPad,CuDef*%
%ADD31R,1.200000X1.400000*%
%TD*%
%TA.AperFunction,SMDPad,CuDef*%
%ADD32RoundRect,0.135000X0.185000X-0.135000X0.185000X0.135000X-0.185000X0.135000X-0.185000X-0.135000X0*%
%TD*%
%TA.AperFunction,SMDPad,CuDef*%
%ADD33RoundRect,0.150000X0.512500X0.150000X-0.512500X0.150000X-0.512500X-0.150000X0.512500X-0.150000X0*%
%TD*%
%TA.AperFunction,SMDPad,CuDef*%
%ADD34R,0.700000X1.200000*%
%TD*%
%TA.AperFunction,SMDPad,CuDef*%
%ADD35R,1.000000X0.800000*%
%TD*%
%TA.AperFunction,SMDPad,CuDef*%
%ADD36R,1.000000X1.200000*%
%TD*%
%TA.AperFunction,SMDPad,CuDef*%
%ADD37R,1.000000X2.800000*%
%TD*%
%TA.AperFunction,SMDPad,CuDef*%
%ADD38R,1.300000X1.900000*%
%TD*%
%TA.AperFunction,SMDPad,CuDef*%
%ADD39O,0.200000X0.700000*%
%TD*%
%TA.AperFunction,SMDPad,CuDef*%
%ADD40O,0.200000X0.600000*%
%TD*%
%TA.AperFunction,SMDPad,CuDef*%
%ADD41O,0.600000X0.200000*%
%TD*%
%TA.AperFunction,SMDPad,CuDef*%
%ADD42RoundRect,0.150000X0.150000X-0.512500X0.150000X0.512500X-0.150000X0.512500X-0.150000X-0.512500X0*%
%TD*%
%TA.AperFunction,ViaPad*%
%ADD43C,0.500000*%
%TD*%
%TA.AperFunction,ViaPad*%
%ADD44C,0.400000*%
%TD*%
%TA.AperFunction,Conductor*%
%ADD45C,0.100000*%
%TD*%
%TA.AperFunction,Conductor*%
%ADD46C,0.500000*%
%TD*%
%TA.AperFunction,Conductor*%
%ADD47C,0.200000*%
%TD*%
%TA.AperFunction,Conductor*%
%ADD48C,0.120000*%
%TD*%
%TA.AperFunction,Conductor*%
%ADD49C,0.400000*%
%TD*%
%TA.AperFunction,Conductor*%
%ADD50C,0.150000*%
%TD*%
G04 APERTURE END LIST*
D10*
%TA.AperFunction,EtchedComponent*%
%TO.C,FID2*%
G36*
X132630330Y-74227029D02*
G01*
X132559619Y-74297740D01*
X132276776Y-74014897D01*
X132347487Y-73944186D01*
X132630330Y-74227029D01*
G37*
%TD.AperFunction*%
%TA.AperFunction,EtchedComponent*%
G36*
X132630330Y-74014897D02*
G01*
X132347487Y-74297740D01*
X132276776Y-74227029D01*
X132559619Y-73944186D01*
X132630330Y-74014897D01*
G37*
%TD.AperFunction*%
%TA.AperFunction,EtchedComponent*%
%TO.C,FID1*%
G36*
X131923224Y-83985102D02*
G01*
X131852513Y-84055813D01*
X131569670Y-83772970D01*
X131640381Y-83702259D01*
X131923224Y-83985102D01*
G37*
%TD.AperFunction*%
%TA.AperFunction,EtchedComponent*%
G36*
X131923224Y-83772970D02*
G01*
X131640381Y-84055813D01*
X131569670Y-83985102D01*
X131852513Y-83702259D01*
X131923224Y-83772970D01*
G37*
%TD.AperFunction*%
%TO.C,FID3*%
D11*
X137004000Y-78646400D02*
G75*
G02*
X136954000Y-78646400I-25000J0D01*
G01*
X136954000Y-78646400D02*
G75*
G02*
X137004000Y-78646400I25000J0D01*
G01*
D10*
%TA.AperFunction,EtchedComponent*%
G36*
X137049711Y-78434268D02*
G01*
X136979000Y-78504979D01*
X136908289Y-78434268D01*
X136979000Y-78363557D01*
X137049711Y-78434268D01*
G37*
%TD.AperFunction*%
%TA.AperFunction,EtchedComponent*%
G36*
X137049711Y-78858532D02*
G01*
X136979000Y-78929243D01*
X136908289Y-78858532D01*
X136979000Y-78787821D01*
X137049711Y-78858532D01*
G37*
%TD.AperFunction*%
%TA.AperFunction,EtchedComponent*%
G36*
X137261843Y-78646400D02*
G01*
X137191132Y-78717111D01*
X137120421Y-78646400D01*
X137191132Y-78575689D01*
X137261843Y-78646400D01*
G37*
%TD.AperFunction*%
%TD*%
D12*
%TO.P,U2,A2,USB_D+*%
%TO.N,/USBC_P*%
X132241421Y-77161522D03*
%TO.P,U2,A3,V3.3IN*%
%TO.N,+3.3V*%
X132524264Y-77444365D03*
%TO.P,U2,A4,VDD.85*%
%TO.N,+0.9V*%
X132807107Y-77727208D03*
%TO.P,U2,A5,PB5*%
%TO.N,unconnected-(U2C-PB5-PadA5)*%
X133089949Y-78010051D03*
%TO.P,U2,A6,PB4*%
%TO.N,unconnected-(U2C-PB4-PadA6)*%
X133372792Y-78292893D03*
%TO.P,U2,A7,PB3*%
%TO.N,unconnected-(U2C-PB3-PadA7)*%
X133655635Y-78575736D03*
%TO.P,U2,A8,PB2*%
%TO.N,unconnected-(U2C-PB2-PadA8)*%
X133938478Y-78858579D03*
%TO.P,U2,A9,PB1*%
%TO.N,unconnected-(U2C-PB1-PadA9)*%
X134221320Y-79141421D03*
%TO.P,U2,B1,USB_D-*%
%TO.N,/USBC_N*%
X131675736Y-77161522D03*
%TO.P,U2,B2,GND*%
%TO.N,GND*%
X131958579Y-77444365D03*
%TO.P,U2,B3,X32KIN*%
%TO.N,unconnected-(U2B-X32KIN-PadB3)*%
X132241421Y-77727208D03*
%TO.P,U2,B4,X32KOUT*%
%TO.N,unconnected-(U2B-X32KOUT-PadB4)*%
X132524264Y-78010051D03*
%TO.P,U2,B5,PB6*%
%TO.N,unconnected-(U2C-PB6-PadB5)*%
X132807107Y-78292893D03*
%TO.P,U2,B6,PB7*%
%TO.N,unconnected-(U2C-PB7-PadB6)*%
X133089949Y-78575736D03*
%TO.P,U2,B7,VDDIO*%
%TO.N,+3.3V*%
X133372792Y-78858579D03*
%TO.P,U2,B8,PB8*%
%TO.N,unconnected-(U2C-PB8-PadB8)*%
X133655635Y-79141421D03*
%TO.P,U2,B9,PB11*%
%TO.N,unconnected-(U2C-PB11-PadB9)*%
X133938478Y-79424264D03*
%TO.P,U2,C1,VDD2.5*%
%TO.N,/2.5V*%
X131392893Y-77444365D03*
%TO.P,U2,C2,PC15*%
%TO.N,unconnected-(U2D-PC15-PadC2)*%
X131675736Y-77727208D03*
%TO.P,U2,C3,GND*%
%TO.N,GND*%
X131958579Y-78010051D03*
%TO.P,U2,C4,PA5*%
X132241421Y-78292893D03*
%TO.P,U2,C5,GND*%
X132524264Y-78575736D03*
%TO.P,U2,C6,PF9_PA0*%
%TO.N,+3.3V*%
X132807107Y-78858579D03*
%TO.P,U2,C7,VDDIO*%
X133089949Y-79141421D03*
%TO.P,U2,C8,PB9*%
%TO.N,unconnected-(U2C-PB9-PadC8)*%
X133372792Y-79424264D03*
%TO.P,U2,C9,PB12*%
%TO.N,unconnected-(U2C-PB12-PadC9)*%
X133655635Y-79707107D03*
%TO.P,U2,D1,PC13*%
%TO.N,unconnected-(U2D-PC13-PadD1)*%
X131110051Y-77727208D03*
%TO.P,U2,D2,PC14*%
%TO.N,unconnected-(U2D-PC14-PadD2)*%
X131392893Y-78010051D03*
%TO.P,U2,D3,DUART*%
%TO.N,unconnected-(U2B-DUART-PadD3)*%
X131675736Y-78292893D03*
%TO.P,U2,D4,GND*%
%TO.N,GND*%
X131958579Y-78575736D03*
%TO.P,U2,D5,GND_TP*%
X132241421Y-78858579D03*
%TO.P,U2,D6,PB0*%
%TO.N,+3.3V*%
X132524264Y-79141421D03*
%TO.P,U2,D7,PA7*%
X132807107Y-79424264D03*
%TO.P,U2,D8,PB10*%
%TO.N,unconnected-(U2C-PB10-PadD8)*%
X133089949Y-79707107D03*
%TO.P,U2,D9,PB13*%
%TO.N,unconnected-(U2C-PB13-PadD9)*%
X133372792Y-79989949D03*
%TO.P,U2,E1,PC12*%
%TO.N,MOSI*%
X130827208Y-78010051D03*
%TO.P,U2,E2,PF0*%
%TO.N,unconnected-(U2E-PF0-PadE2)*%
X131110051Y-78292893D03*
%TO.P,U2,E3,PC5*%
%TO.N,GND*%
X131392893Y-78575736D03*
%TO.P,U2,E4,PF1*%
X131675736Y-78858579D03*
%TO.P,U2,E5,XRSTn*%
%TO.N,unconnected-(U2B-XRSTn-PadE5)*%
X131958579Y-79141421D03*
%TO.P,U2,E6,VDDAO*%
%TO.N,+0.9V*%
X132241421Y-79424264D03*
%TO.P,U2,E7,VDD.85*%
X132524264Y-79707107D03*
%TO.P,U2,E8,PC4*%
%TO.N,unconnected-(U2D-PC4-PadE8)*%
X132807107Y-79989949D03*
%TO.P,U2,E9,PB14*%
%TO.N,unconnected-(U2C-PB14-PadE9)*%
X133089949Y-80272792D03*
%TO.P,U2,F1,PC11*%
%TO.N,SCK*%
X130544365Y-78292893D03*
%TO.P,U2,F2,PF8_PA1*%
%TO.N,unconnected-(U2E-PF8_PA1-PadF2)*%
X130827208Y-78575736D03*
%TO.P,U2,F3,PA3*%
%TO.N,GND*%
X131110051Y-78858579D03*
%TO.P,U2,F4,PC6*%
X131392893Y-79141421D03*
%TO.P,U2,F5,GND*%
X131675736Y-79424264D03*
%TO.P,U2,F6,PA6*%
%TO.N,+0.9V*%
X131958579Y-79707107D03*
%TO.P,U2,F7,VDD.85*%
X132241421Y-79989949D03*
%TO.P,U2,F8,PF7_PA2*%
%TO.N,unconnected-(U2E-PF7_PA2-PadF8)*%
X132524264Y-80272792D03*
%TO.P,U2,F9,PC0*%
%TO.N,unconnected-(U2D-PC0-PadF9)*%
X132807107Y-80555635D03*
%TO.P,U2,G1,PC10*%
%TO.N,CS*%
X130261522Y-78575736D03*
%TO.P,U2,G2,PF3*%
%TO.N,unconnected-(U2E-PF3-PadG2)*%
X130544365Y-78858579D03*
%TO.P,U2,G3,PA4*%
%TO.N,unconnected-(U2E-PA4-PadG3)*%
X130827208Y-79141421D03*
%TO.P,U2,G4,PF2*%
%TO.N,unconnected-(U2E-PF2-PadG4)*%
X131110051Y-79424264D03*
%TO.P,U2,G5,PF4*%
%TO.N,unconnected-(U2E-PF4-PadG5)*%
X131392893Y-79707107D03*
%TO.P,U2,G6,PB15*%
%TO.N,unconnected-(U2C-PB15-PadG6)*%
X131675736Y-79989949D03*
%TO.P,U2,G7,PF5*%
%TO.N,unconnected-(U2E-PF5-PadG7)*%
X131958579Y-80272792D03*
%TO.P,U2,G8,PF6*%
%TO.N,unconnected-(U2E-PF6-PadG8)*%
X132241421Y-80555635D03*
%TO.P,U2,G9,PC1*%
%TO.N,unconnected-(U2D-PC1-PadG9)*%
X132524264Y-80838478D03*
%TO.P,U2,H1,X48MI*%
%TO.N,/XI_48M*%
X129978680Y-78858579D03*
%TO.P,U2,H2,X48MO*%
%TO.N,/XO_48M*%
X130261522Y-79141421D03*
%TO.P,U2,H3,PC9*%
%TO.N,unconnected-(U2D-PC9-PadH3)*%
X130544365Y-79424264D03*
%TO.P,U2,H4,V3.3RR*%
%TO.N,+3.3V*%
X130827208Y-79707107D03*
%TO.P,U2,H5,AORSTn*%
%TO.N,/RST_N*%
X131110051Y-79989949D03*
%TO.P,U2,H6,PC8*%
%TO.N,unconnected-(U2D-PC8-PadH6)*%
X131392893Y-80272792D03*
%TO.P,U2,H7,PC7*%
%TO.N,MISO*%
X131675736Y-80555635D03*
%TO.P,U2,H8,PC3*%
%TO.N,unconnected-(U2D-PC3-PadH8)*%
X131958579Y-80838478D03*
%TO.P,U2,H9,PC2*%
%TO.N,unconnected-(U2D-PC2-PadH9)*%
X132241421Y-81121320D03*
%TD*%
D13*
%TO.P,C17,1,1*%
%TO.N,VBUS*%
X129612400Y-61479600D03*
%TO.P,C17,2,2*%
%TO.N,GND*%
X129612400Y-63029600D03*
%TD*%
D14*
%TO.P,L2,1*%
%TO.N,Net-(U4-SW)*%
X131000000Y-84837500D03*
%TO.P,L2,2*%
%TO.N,+0.9V*%
X131000000Y-86962500D03*
%TD*%
D15*
%TO.P,C5,1,1*%
%TO.N,+0.9V*%
X133348726Y-76551274D03*
%TO.P,C5,2,2*%
%TO.N,GND*%
X133801274Y-76098726D03*
%TD*%
D16*
%TO.P,C10,1,1*%
%TO.N,+0.9V*%
X131526274Y-82348726D03*
%TO.P,C10,2,2*%
%TO.N,GND*%
X131073726Y-82801274D03*
%TD*%
D17*
%TO.P,R3,1,1*%
%TO.N,/EN*%
X138620000Y-68500000D03*
%TO.P,R3,2,2*%
%TO.N,/VSYS*%
X137980000Y-68500000D03*
%TD*%
D18*
%TO.P,C13,1,1*%
%TO.N,+3.3V*%
X134100000Y-71400000D03*
%TO.P,C13,2,2*%
%TO.N,GND*%
X134100000Y-72040000D03*
%TD*%
D19*
%TO.P,C1,1*%
%TO.N,/XI_48M*%
X126605000Y-76600000D03*
%TO.P,C1,2*%
%TO.N,GND*%
X127245000Y-76600000D03*
%TD*%
%TO.P,R7,1,1*%
%TO.N,+0.9V*%
X125880000Y-88100000D03*
%TO.P,R7,2,2*%
%TO.N,/FB_0.85V*%
X126520000Y-88100000D03*
%TD*%
D20*
%TO.P,J1,1,VBUS*%
%TO.N,VBUS*%
X128144400Y-57820000D03*
%TO.P,J1,2,D-*%
%TO.N,/USBCONN_N*%
X130644400Y-57820000D03*
%TO.P,J1,3,D+*%
%TO.N,/USBCONN_P*%
X132644400Y-57820000D03*
%TO.P,J1,4,GND*%
%TO.N,GND*%
X135144400Y-57820000D03*
D21*
%TO.P,J1,5,Shield*%
X125944400Y-55070000D03*
X137344400Y-55070000D03*
%TD*%
D19*
%TO.P,C9,1*%
%TO.N,GND*%
X126830000Y-81500000D03*
%TO.P,C9,2*%
%TO.N,/XO_48M*%
X127470000Y-81500000D03*
%TD*%
D22*
%TO.P,R5,1,1*%
%TO.N,+3.3V*%
X134100000Y-70620000D03*
%TO.P,R5,2,2*%
%TO.N,/FB_3.3V*%
X134100000Y-69980000D03*
%TD*%
D15*
%TO.P,C4,1,1*%
%TO.N,+3.3V*%
X134598726Y-77701274D03*
%TO.P,C4,2,2*%
%TO.N,GND*%
X135051274Y-77248726D03*
%TD*%
D18*
%TO.P,R4,1,1*%
%TO.N,+3.3V*%
X136700000Y-84580000D03*
%TO.P,R4,2,2*%
%TO.N,/RST_N*%
X136700000Y-85220000D03*
%TD*%
D16*
%TO.P,C6,1,1*%
%TO.N,+3.3V*%
X130526274Y-81073726D03*
%TO.P,C6,2,2*%
%TO.N,GND*%
X130073726Y-81526274D03*
%TD*%
D17*
%TO.P,R8,1,1*%
%TO.N,/FB_0.85V*%
X126520000Y-87400000D03*
%TO.P,R8,2,2*%
%TO.N,GND*%
X125880000Y-87400000D03*
%TD*%
D23*
%TO.P,C14,1,1*%
%TO.N,+3.3V*%
X136025000Y-75500000D03*
%TO.P,C14,2,2*%
%TO.N,GND*%
X137575000Y-75500000D03*
%TD*%
D16*
%TO.P,C7,1,1*%
%TO.N,+0.9V*%
X132026274Y-82848726D03*
%TO.P,C7,2,2*%
%TO.N,GND*%
X131573726Y-83301274D03*
%TD*%
D24*
%TO.P,D1,1,K*%
%TO.N,/VSYS*%
X137000000Y-68000000D03*
%TO.P,D1,2,A*%
%TO.N,VBUS*%
X134900000Y-68000000D03*
%TD*%
D16*
%TO.P,C2,1,1*%
%TO.N,+3.3V*%
X130026274Y-80573726D03*
%TO.P,C2,2,2*%
%TO.N,GND*%
X129573726Y-81026274D03*
%TD*%
D25*
%TO.P,SW1,1,1*%
%TO.N,GND*%
X129875000Y-67800000D03*
X129875000Y-73800000D03*
%TO.P,SW1,2,2*%
%TO.N,/PC13*%
X126125000Y-67800000D03*
X126125000Y-73800000D03*
%TD*%
D26*
%TO.P,U5,1,SDData1*%
%TO.N,unconnected-(U5-SDData1-Pad1)*%
X130751100Y-97520500D03*
%TO.P,U5,2,SDData0*%
%TO.N,data0*%
X131151100Y-97520500D03*
%TO.P,U5,3,SDCLK*%
%TO.N,SDclock*%
X131551100Y-97520500D03*
%TO.P,U5,4,ESD1*%
%TO.N,unconnected-(U5-ESD1-Pad4)*%
X131951100Y-97520500D03*
%TO.P,U5,5,ESD3*%
%TO.N,unconnected-(U5-ESD3-Pad5)*%
X132351100Y-97520500D03*
%TO.P,U5,6,SDCMD*%
%TO.N,CMD*%
X132751100Y-97520500D03*
%TO.P,U5,7,SDData3*%
%TO.N,DAT3*%
X133151100Y-97520500D03*
%TO.P,U5,8,SDData2*%
%TO.N,unconnected-(U5-SDData2-Pad8)*%
X133551100Y-97520500D03*
%TO.P,U5,9,Data2*%
%TO.N,Net-(U5-Data1)*%
X133551100Y-96095500D03*
%TO.P,U5,10,Data3*%
%TO.N,CS*%
X133151100Y-96095500D03*
%TO.P,U5,11,CMD*%
%TO.N,MOSI*%
X132751100Y-96095500D03*
%TO.P,U5,12,VCC*%
%TO.N,+3.3V*%
X132351100Y-96095500D03*
%TO.P,U5,13,ESD1*%
%TO.N,unconnected-(U5-ESD1-Pad13)*%
X131951100Y-96095500D03*
%TO.P,U5,14,CLK*%
%TO.N,SCK*%
X131551100Y-96095500D03*
%TO.P,U5,15,Data0*%
%TO.N,MISO*%
X131151100Y-96095500D03*
%TO.P,U5,16,Data1*%
%TO.N,Net-(U5-Data1)*%
X130751100Y-96095500D03*
D27*
%TO.P,U5,17,GND*%
%TO.N,GND*%
X132151100Y-96808000D03*
%TD*%
D28*
%TO.P,C16,1,1*%
%TO.N,+0.9V*%
X129375000Y-87800000D03*
%TO.P,C16,2,2*%
%TO.N,GND*%
X127825000Y-87800000D03*
%TD*%
D22*
%TO.P,C12,1,1*%
%TO.N,/RST_N*%
X133900000Y-82220000D03*
%TO.P,C12,2,2*%
%TO.N,GND*%
X133900000Y-81580000D03*
%TD*%
D29*
%TO.P,C3,1,1*%
%TO.N,/2.5V*%
X130651274Y-76501274D03*
%TO.P,C3,2,2*%
%TO.N,GND*%
X130198726Y-76048726D03*
%TD*%
D30*
%TO.P,L1,1*%
%TO.N,Net-(U3-SW)*%
X137862500Y-73900000D03*
%TO.P,L1,2*%
%TO.N,+3.3V*%
X135737500Y-73900000D03*
%TD*%
D31*
%TO.P,Y1,1,X1*%
%TO.N,/XI_48M*%
X126375000Y-77950000D03*
%TO.P,Y1,2,CASE2*%
%TO.N,GND*%
X126375000Y-80150000D03*
%TO.P,Y1,3,X2*%
%TO.N,/XO_48M*%
X128075000Y-80150000D03*
%TO.P,Y1,4,CASE4*%
%TO.N,GND*%
X128075000Y-77950000D03*
%TD*%
D32*
%TO.P,R2,1,1*%
%TO.N,/XO_48M*%
X125050000Y-79584999D03*
%TO.P,R2,2,2*%
%TO.N,/XI_48M*%
X125050000Y-78565001D03*
%TD*%
D17*
%TO.P,R1,1,1*%
%TO.N,VBUS*%
X134860000Y-64984800D03*
%TO.P,R1,2,2*%
%TO.N,GND*%
X134220000Y-64984800D03*
%TD*%
D33*
%TO.P,U4,1,EN*%
%TO.N,/EN*%
X129237500Y-86249999D03*
%TO.P,U4,2,GND*%
%TO.N,GND*%
X129237500Y-85300000D03*
%TO.P,U4,3,SW*%
%TO.N,Net-(U4-SW)*%
X129237500Y-84350001D03*
%TO.P,U4,4,VIN*%
%TO.N,/VSYS*%
X126962500Y-84350001D03*
%TO.P,U4,5,FB*%
%TO.N,/FB_0.85V*%
X126962500Y-86249999D03*
%TD*%
D17*
%TO.P,R6,1,1*%
%TO.N,/FB_3.3V*%
X133920000Y-69100000D03*
%TO.P,R6,2,2*%
%TO.N,GND*%
X133280000Y-69100000D03*
%TD*%
D15*
%TO.P,C8,1,1*%
%TO.N,+3.3V*%
X132823726Y-76026274D03*
%TO.P,C8,2,2*%
%TO.N,GND*%
X133276274Y-75573726D03*
%TD*%
D34*
%TO.P,J2,1,DAT2*%
%TO.N,DAT2*%
X134946400Y-101814800D03*
%TO.P,J2,2,DAT3/CD*%
%TO.N,DAT3*%
X133846400Y-101814800D03*
%TO.P,J2,3,CMD*%
%TO.N,CMD*%
X132746400Y-101814800D03*
%TO.P,J2,4,VDD*%
%TO.N,+3.3V*%
X131646400Y-101814800D03*
%TO.P,J2,5,CLK*%
%TO.N,SDclock*%
X130546400Y-101814800D03*
%TO.P,J2,6,VSS*%
%TO.N,GND*%
X129446400Y-101814800D03*
%TO.P,J2,7,DAT0*%
%TO.N,data0*%
X128346400Y-101814800D03*
%TO.P,J2,8,DAT1*%
%TO.N,data1*%
X127246400Y-101814800D03*
%TO.P,J2,9,SHIELD*%
%TO.N,GND*%
X126296400Y-101814800D03*
D35*
%TO.P,J2,10*%
%TO.N,N/C*%
X125346400Y-112314800D03*
D36*
%TO.P,J2,11*%
X125346400Y-106114800D03*
D37*
X125346400Y-116464800D03*
D36*
X136496400Y-101814800D03*
D38*
X138846400Y-116914800D03*
%TD*%
D39*
%TO.P,U1,1,C0+*%
%TO.N,/USBCONN_P*%
X132500000Y-70560000D03*
D40*
%TO.P,U1,2,C0-*%
%TO.N,/USBCONN_N*%
X132100001Y-70510000D03*
D41*
%TO.P,U1,3,GND*%
%TO.N,GND*%
X131500000Y-70710000D03*
%TO.P,U1,4,L0-*%
X131500001Y-71110000D03*
%TO.P,U1,5,L0+*%
X131500000Y-71510000D03*
D40*
%TO.P,U1,6,L1-*%
%TO.N,/USBC_N*%
X132100001Y-71710000D03*
%TO.P,U1,7,L1+*%
%TO.N,/USBC_P*%
X132499999Y-71710000D03*
D41*
%TO.P,U1,8,EN*%
%TO.N,GND*%
X133100000Y-71510000D03*
%TO.P,U1,9,VDD*%
%TO.N,+3.3V*%
X133099999Y-71110000D03*
%TO.P,U1,10,SEL*%
%TO.N,/PC13*%
X133100000Y-70710000D03*
%TD*%
D42*
%TO.P,U3,1,EN*%
%TO.N,/EN*%
X135300001Y-72137500D03*
%TO.P,U3,2,GND*%
%TO.N,GND*%
X136250000Y-72137500D03*
%TO.P,U3,3,SW*%
%TO.N,Net-(U3-SW)*%
X137199999Y-72137500D03*
%TO.P,U3,4,VIN*%
%TO.N,/VSYS*%
X137199999Y-69862500D03*
%TO.P,U3,5,FB*%
%TO.N,/FB_3.3V*%
X135300001Y-69862500D03*
%TD*%
D13*
%TO.P,C11,1,1*%
%TO.N,/VSYS*%
X138700000Y-69625000D03*
%TO.P,C11,2,2*%
%TO.N,GND*%
X138700000Y-71175000D03*
%TD*%
%TO.P,C15,1,1*%
%TO.N,/VSYS*%
X125300000Y-84525000D03*
%TO.P,C15,2,2*%
%TO.N,GND*%
X125300000Y-86075000D03*
%TD*%
D43*
%TO.N,GND*%
X141000000Y-94000000D03*
X122800000Y-94000000D03*
X141200000Y-109000000D03*
X123000000Y-109000000D03*
X124000000Y-71200000D03*
D44*
X136800000Y-90600000D03*
X135000000Y-91400000D03*
X134600000Y-86600000D03*
X134400000Y-89800000D03*
X132000000Y-89400000D03*
X127600000Y-91000000D03*
X129400000Y-93000000D03*
X134400000Y-95200000D03*
X130000000Y-95200000D03*
X130000000Y-96200000D03*
X134400000Y-96200000D03*
X134400000Y-100200000D03*
X134400000Y-99400000D03*
X134400000Y-98600000D03*
X134400000Y-97600000D03*
X129800000Y-97600000D03*
X129500000Y-98500000D03*
X129000000Y-99000000D03*
X128500000Y-99500000D03*
X128000000Y-100000000D03*
X127500000Y-100500000D03*
D43*
X131085600Y-99630400D03*
X133168000Y-62089200D03*
X134896000Y-70928400D03*
X138500000Y-75200000D03*
X135556000Y-92569200D03*
X125425000Y-77837200D03*
X135400000Y-68800000D03*
X126000000Y-85400000D03*
X130390000Y-71880000D03*
X130960000Y-70090000D03*
X133900000Y-80900000D03*
X132152400Y-99630400D03*
X137900000Y-89550000D03*
X128500000Y-83600000D03*
X133100000Y-72500000D03*
X133320800Y-99681200D03*
X130882000Y-62089200D03*
X130933000Y-60362000D03*
X130882000Y-65899200D03*
X139214000Y-85304800D03*
X141652000Y-72249200D03*
D44*
X130526800Y-82206000D03*
X133270000Y-93128000D03*
D43*
X129750000Y-75600000D03*
X137900000Y-71000000D03*
X130882000Y-63511600D03*
X139200000Y-84400000D03*
X137100000Y-71000000D03*
X128100000Y-87000000D03*
X127530000Y-64629200D03*
D44*
X131393000Y-78858600D03*
D43*
X138700000Y-72000000D03*
X130882000Y-64730800D03*
X130851000Y-83524400D03*
X125200000Y-87100000D03*
X138045000Y-65289600D03*
X133016000Y-83425200D03*
X133168000Y-67169200D03*
X134438000Y-83272800D03*
X129200000Y-78500000D03*
X139976000Y-72249200D03*
X141703000Y-85254000D03*
X131034800Y-92924800D03*
X133168000Y-68337600D03*
X131035000Y-67169200D03*
X136400000Y-71100000D03*
X133168000Y-60362000D03*
X137780000Y-86760000D03*
X137900000Y-80050000D03*
D44*
X129917200Y-100138400D03*
D43*
X133219000Y-63562400D03*
X133219000Y-64680000D03*
X136800000Y-74000000D03*
X135911600Y-85711200D03*
X133559000Y-74058600D03*
X135550000Y-76750000D03*
X130090000Y-89210000D03*
X129325000Y-81750000D03*
X127840000Y-76820000D03*
X140077000Y-75195600D03*
X127174000Y-67575600D03*
X128100000Y-85300000D03*
X141703000Y-84441200D03*
X129054000Y-79462800D03*
X137385000Y-58279200D03*
X133910000Y-67280000D03*
X130984000Y-68337600D03*
X134235200Y-92366000D03*
X130100000Y-83600000D03*
X125701000Y-58279200D03*
X136850000Y-88600000D03*
X137900000Y-84000000D03*
D44*
X131390400Y-81291600D03*
D43*
X133270000Y-65950000D03*
X139250000Y-80050000D03*
X134038000Y-75362500D03*
X125220000Y-88930000D03*
X130710000Y-90970000D03*
X126125000Y-81550000D03*
X136700000Y-73300000D03*
X131300000Y-76300000D03*
X139264000Y-82510800D03*
X135911600Y-86778000D03*
X127800000Y-88700000D03*
X136900000Y-74800000D03*
X133320800Y-91350000D03*
X139700000Y-69800000D03*
X127885000Y-92518400D03*
%TO.N,+3.3V*%
X136300000Y-77900000D03*
X135000000Y-74900000D03*
X133950000Y-77600000D03*
X135467900Y-89831500D03*
X135000000Y-75700000D03*
X136000000Y-80100000D03*
X130250000Y-79900000D03*
X132000500Y-94096200D03*
D44*
X132807000Y-79141400D03*
D43*
X135300000Y-79400000D03*
X135500000Y-77800000D03*
X132675000Y-76675000D03*
X131642700Y-98419600D03*
X132089800Y-92697100D03*
%TO.N,/VSYS*%
X126500000Y-72600000D03*
X127500000Y-69850000D03*
X125900000Y-83600000D03*
X127450000Y-72600000D03*
X126620000Y-83590000D03*
X136928000Y-65340400D03*
X126500000Y-69850000D03*
%TO.N,/RST_N*%
X129400000Y-90300000D03*
X133250000Y-89250000D03*
X125200000Y-90300000D03*
X124800000Y-81900000D03*
X134000000Y-85700000D03*
X136700000Y-86175000D03*
%TO.N,/EN*%
X128600000Y-88700000D03*
X130222000Y-91959600D03*
X135650000Y-90800000D03*
X139479000Y-68501200D03*
X136877000Y-66559600D03*
%TO.N,/PC13*%
X126100000Y-68850000D03*
X133550000Y-69950000D03*
D44*
%TO.N,+0.9V*%
X132241000Y-79707100D03*
D43*
X132300000Y-81675000D03*
X132370000Y-82300000D03*
X133330000Y-77204700D03*
%TO.N,/USBCONN_P*%
X132346000Y-61787600D03*
X132356000Y-60311200D03*
%TO.N,/USBCONN_N*%
X131746000Y-61774800D03*
X131746000Y-60311200D03*
%TO.N,MISO*%
X132097600Y-88451400D03*
X129956700Y-82968000D03*
%TO.N,CS*%
X129114000Y-77751400D03*
X137796200Y-76685100D03*
%TO.N,SCK*%
X131966800Y-92089400D03*
X130128900Y-77803600D03*
%TO.N,MOSI*%
X131267800Y-92277500D03*
X129603400Y-76845600D03*
%TO.N,Net-(U5-Data1)*%
X129993300Y-94169500D03*
X133932400Y-94094200D03*
%TD*%
D45*
%TO.N,/VSYS*%
X137320000Y-67680000D02*
X137960000Y-67680000D01*
X137960000Y-67680000D02*
X137980000Y-67700000D01*
X137980000Y-67700000D02*
X137980000Y-68500000D01*
D46*
X136928000Y-65340400D02*
X136928000Y-65696000D01*
X136928000Y-65696000D02*
X137400000Y-66168000D01*
X137400000Y-66168000D02*
X137400000Y-66234071D01*
X137400000Y-66234071D02*
X137477000Y-66311071D01*
X137477000Y-66311071D02*
X137477000Y-66808129D01*
X137477000Y-66808129D02*
X137400000Y-66885129D01*
X137400000Y-66885129D02*
X137400000Y-67020800D01*
X137400000Y-67020800D02*
X137320000Y-67100800D01*
X137320000Y-67100800D02*
X137320000Y-67680000D01*
D45*
%TO.N,MOSI*%
X132400000Y-94262386D02*
X132400000Y-95073958D01*
X132400500Y-94261886D02*
X132400000Y-94262386D01*
X132400500Y-93930514D02*
X132400500Y-94261886D01*
X132400000Y-93930014D02*
X132400500Y-93930514D01*
X132400000Y-92952586D02*
X132400000Y-93930014D01*
X132489800Y-92862786D02*
X132400000Y-92952586D01*
X132489800Y-92531414D02*
X132489800Y-92862786D01*
X132145600Y-91684900D02*
X132400000Y-91939300D01*
X132400000Y-91939300D02*
X132400000Y-92441614D01*
X131769700Y-91684900D02*
X132145600Y-91684900D01*
X132601100Y-95748772D02*
X132601100Y-95945500D01*
X132400000Y-92441614D02*
X132489800Y-92531414D01*
X131267800Y-92186800D02*
X131769700Y-91684900D01*
X132551100Y-95225057D02*
X132551100Y-95698772D01*
X132551100Y-95698772D02*
X132601100Y-95748772D01*
X131267800Y-92277500D02*
X131267800Y-92186800D01*
X132400000Y-95073958D02*
X132551100Y-95225057D01*
X132601100Y-95945500D02*
X132751100Y-96095500D01*
D46*
%TO.N,+0.9V*%
X132123000Y-87000000D02*
X131613400Y-87000000D01*
X131613400Y-87000000D02*
X131575900Y-86962500D01*
X131575900Y-86962500D02*
X131000000Y-86962500D01*
D47*
X132123000Y-87000000D02*
X132450000Y-86673000D01*
X132450000Y-86673000D02*
X132450000Y-84525000D01*
D46*
X132123000Y-87000000D02*
X132123000Y-84623300D01*
X130162000Y-87800000D02*
X130300000Y-87800000D01*
X130300000Y-87800000D02*
X131000000Y-87100000D01*
X131000000Y-87100000D02*
X131000000Y-86962500D01*
D48*
%TO.N,GND*%
X131940000Y-78858600D02*
X132241000Y-78858600D01*
D47*
X132241000Y-78292900D02*
X132155000Y-78379700D01*
D46*
X134038000Y-75362500D02*
X134038000Y-74537500D01*
D49*
X135550000Y-76750000D02*
X135200000Y-76400000D01*
D47*
X129200000Y-78500000D02*
X128625000Y-78500000D01*
D49*
X135200000Y-76400000D02*
X134800000Y-76400000D01*
D47*
X131299000Y-83075600D02*
X131298700Y-83076000D01*
D48*
X131675700Y-78858600D02*
X131393000Y-78858600D01*
D46*
X137575000Y-75500000D02*
X138200000Y-75500000D01*
D45*
X133413500Y-75711200D02*
X133276300Y-75574000D01*
D46*
X136800000Y-74725000D02*
X136800000Y-74000000D01*
D47*
X134700000Y-68800000D02*
X134150000Y-68250000D01*
D45*
X135217300Y-77082500D02*
X135051300Y-77248500D01*
D49*
X134399000Y-75999000D02*
X134399000Y-75700000D01*
D47*
X131300000Y-76300000D02*
X130907000Y-75907300D01*
D45*
X131110100Y-78858600D02*
X131393000Y-78858600D01*
D50*
X125200000Y-87100000D02*
X125300000Y-87000000D01*
D46*
X126075000Y-85300000D02*
X128100000Y-85300000D01*
X128100000Y-87000000D02*
X128100000Y-87525000D01*
D45*
X131958600Y-77844500D02*
X131958600Y-78010100D01*
X133676300Y-75973700D02*
X133801300Y-76098700D01*
D46*
X137100000Y-71000000D02*
X136500000Y-71000000D01*
D47*
X135051000Y-77248700D02*
X135217300Y-77082500D01*
D45*
X129800000Y-75550000D02*
X129750000Y-75600000D01*
D46*
X137575000Y-75500000D02*
X136800000Y-74725000D01*
D50*
X132382500Y-78434300D02*
X132241000Y-78292900D01*
D47*
X131599000Y-83376300D02*
X131298700Y-83076000D01*
X130907000Y-75907300D02*
X130340000Y-75907300D01*
D46*
X136250000Y-72850000D02*
X136250000Y-72137500D01*
X138200000Y-75500000D02*
X138500000Y-75200000D01*
X134038000Y-74537500D02*
X133100000Y-73600000D01*
X130775000Y-83600000D02*
X130851000Y-83524400D01*
D50*
X131500000Y-71110000D02*
X130590000Y-71110000D01*
D45*
X133900000Y-81580000D02*
X133900000Y-80900000D01*
X131392900Y-79000100D02*
X131392900Y-79141400D01*
X132382500Y-78434300D02*
X132241400Y-78293200D01*
D50*
X130970000Y-70710000D02*
X130750000Y-70710000D01*
X132524000Y-78575700D02*
X132382500Y-78434300D01*
X133500000Y-72040000D02*
X134100000Y-72040000D01*
D48*
X131940000Y-78858600D02*
X131675700Y-78858600D01*
D46*
X128100000Y-87525000D02*
X127825000Y-87800000D01*
D47*
X132155000Y-78379700D02*
X131959000Y-78575700D01*
D46*
X138700000Y-75000000D02*
X138700000Y-72000000D01*
X136800000Y-74000000D02*
X136800000Y-73400000D01*
D49*
X134800000Y-76400000D02*
X134399000Y-75999000D01*
D45*
X131959000Y-77844100D02*
X131959000Y-77610300D01*
D46*
X129237500Y-85300000D02*
X129800000Y-85300000D01*
D47*
X130770000Y-83605000D02*
X130851000Y-83524400D01*
D50*
X130970000Y-70710000D02*
X130970000Y-70080000D01*
D45*
X126502000Y-81172500D02*
X126125000Y-81550000D01*
X131393000Y-78717100D02*
X131393000Y-78858600D01*
D46*
X127825000Y-87800000D02*
X127825000Y-88675000D01*
D47*
X133280000Y-68880000D02*
X133910000Y-68250000D01*
D50*
X130390000Y-71880000D02*
X130380000Y-71890000D01*
D45*
X126375000Y-80150000D02*
X126375000Y-81045000D01*
D48*
X131959000Y-78707800D02*
X131959000Y-78641700D01*
D45*
X131393000Y-78717100D02*
X131392900Y-78717000D01*
D48*
X131959000Y-78641700D02*
X131959000Y-78575700D01*
D46*
X130100000Y-83600000D02*
X130775000Y-83600000D01*
D47*
X139700000Y-69800000D02*
X139700000Y-69950000D01*
D46*
X128100000Y-85300000D02*
X129237500Y-85300000D01*
D50*
X131500000Y-70710000D02*
X130970000Y-70710000D01*
D47*
X131298700Y-83076000D02*
X130851000Y-83524400D01*
X128075000Y-77055000D02*
X127840000Y-76820000D01*
D50*
X131967000Y-78567600D02*
X131967000Y-78018200D01*
X130760000Y-71510000D02*
X130390000Y-71880000D01*
D45*
X133276300Y-75574000D02*
X133276300Y-75573700D01*
D47*
X133801000Y-76098700D02*
X133676000Y-75973700D01*
D45*
X131110000Y-78858600D02*
X131110100Y-78858600D01*
X133676000Y-75973700D02*
X133676300Y-75973700D01*
X131958600Y-77609900D02*
X131958600Y-77444400D01*
D47*
X133413500Y-75711200D02*
X133276000Y-75573700D01*
D50*
X132441500Y-78658200D02*
X132524000Y-78575700D01*
D45*
X131393000Y-78575700D02*
X131393000Y-78717100D01*
D47*
X135217300Y-77082500D02*
X135550000Y-76750000D01*
D46*
X136500000Y-71000000D02*
X136400000Y-71100000D01*
D45*
X131959000Y-78641700D02*
X131958600Y-78641300D01*
D47*
X133910000Y-67310000D02*
X133920000Y-67300000D01*
X133551000Y-75848700D02*
X133413500Y-75711200D01*
X133280000Y-69100000D02*
X133280000Y-68880000D01*
D46*
X138525000Y-71000000D02*
X137900000Y-71000000D01*
X128100000Y-85300000D02*
X128100000Y-87000000D01*
D47*
X132155000Y-78379700D02*
X132075000Y-78300000D01*
D45*
X135051300Y-77248500D02*
X135051300Y-77248700D01*
D50*
X133500000Y-72100000D02*
X133500000Y-72040000D01*
D45*
X131392900Y-78717000D02*
X131392900Y-78575700D01*
D46*
X138700000Y-72000000D02*
X138700000Y-71175000D01*
D45*
X131958600Y-78641300D02*
X131958600Y-78575700D01*
D50*
X133100000Y-71640000D02*
X133500000Y-72040000D01*
D47*
X130340000Y-75907300D02*
X130199000Y-76048700D01*
D46*
X125300000Y-86075000D02*
X126075000Y-85300000D01*
D49*
X134375000Y-75700000D02*
X134038000Y-75362500D01*
D46*
X136250000Y-71250000D02*
X136250000Y-72137500D01*
D47*
X135400000Y-68800000D02*
X134700000Y-68800000D01*
D45*
X128075000Y-77050000D02*
X127625000Y-76600000D01*
D50*
X131676000Y-79424300D02*
X131393000Y-79141400D01*
D47*
X129811000Y-81263800D02*
X129325000Y-81750000D01*
X129811000Y-81263800D02*
X130074000Y-81526300D01*
X139700000Y-69950000D02*
X138700000Y-70950000D01*
D46*
X136400000Y-71100000D02*
X136250000Y-71250000D01*
X128100000Y-85300000D02*
X128100000Y-84000000D01*
X138500000Y-75200000D02*
X138700000Y-75000000D01*
D47*
X133551000Y-75848700D02*
X134038000Y-75362500D01*
D45*
X131959000Y-77610300D02*
X131959000Y-77444400D01*
D46*
X136800000Y-73400000D02*
X136700000Y-73300000D01*
D45*
X128075000Y-77055000D02*
X128075000Y-77050000D01*
X126375000Y-81045000D02*
X126502000Y-81172500D01*
X127625000Y-76600000D02*
X127245000Y-76600000D01*
D50*
X130580000Y-71100000D02*
X130580000Y-71330000D01*
X125880000Y-87400000D02*
X125500000Y-87400000D01*
D48*
X131940000Y-78858600D02*
X131959000Y-78840000D01*
D47*
X133676000Y-75973700D02*
X133551000Y-75848700D01*
X133910000Y-68250000D02*
X133910000Y-67310000D01*
D50*
X133100000Y-71510000D02*
X133100000Y-71640000D01*
D47*
X131298700Y-83076000D02*
X131099000Y-82876300D01*
D50*
X130590000Y-71110000D02*
X130580000Y-71100000D01*
D45*
X131967000Y-78699800D02*
X131967000Y-78567600D01*
D46*
X136700000Y-73300000D02*
X136250000Y-72850000D01*
D45*
X132459100Y-78640500D02*
X132459500Y-78640500D01*
D47*
X128075000Y-77950000D02*
X128075000Y-77055000D01*
D50*
X125300000Y-87000000D02*
X125300000Y-86075000D01*
D45*
X131393000Y-79000000D02*
X131392900Y-79000100D01*
D50*
X130580000Y-70880000D02*
X130580000Y-71100000D01*
D46*
X128100000Y-84000000D02*
X128500000Y-83600000D01*
X137900000Y-71000000D02*
X137100000Y-71000000D01*
D45*
X132441500Y-78658200D02*
X132441500Y-78658100D01*
D47*
X134150000Y-68250000D02*
X133910000Y-68250000D01*
X131959000Y-78010100D02*
X132241000Y-78292900D01*
D45*
X129800000Y-73875000D02*
X129800000Y-75550000D01*
D46*
X128500000Y-83600000D02*
X130100000Y-83600000D01*
X133100000Y-73600000D02*
X133100000Y-72500000D01*
D50*
X132241000Y-78858600D02*
X132441500Y-78658200D01*
X125500000Y-87400000D02*
X125200000Y-87100000D01*
D45*
X131959000Y-78010100D02*
X131959000Y-77844100D01*
X132241400Y-78293200D02*
X132241400Y-78292900D01*
D50*
X131393000Y-79000000D02*
X131393000Y-78858600D01*
D47*
X129574000Y-81026300D02*
X129811000Y-81263800D01*
D45*
X131959000Y-78707800D02*
X131967000Y-78699800D01*
D50*
X130750000Y-70710000D02*
X130580000Y-70880000D01*
D45*
X131959000Y-77610300D02*
X131958600Y-77609900D01*
D50*
X131393000Y-79141400D02*
X131393000Y-79000000D01*
D45*
X126502000Y-81172500D02*
X126830000Y-81500000D01*
D50*
X130760000Y-71510000D02*
X131500000Y-71510000D01*
D45*
X128075000Y-77950000D02*
X128075000Y-77055000D01*
X132441500Y-78658100D02*
X132459100Y-78640500D01*
D47*
X130199000Y-76048700D02*
X129750000Y-75600000D01*
X128625000Y-78500000D02*
X128075000Y-77950000D01*
D45*
X132459500Y-78640500D02*
X132524300Y-78575700D01*
X131959000Y-77844100D02*
X131958600Y-77844500D01*
D50*
X133100000Y-72500000D02*
X133500000Y-72100000D01*
D48*
X131959000Y-78840000D02*
X131959000Y-78707800D01*
D50*
X130580000Y-71330000D02*
X130760000Y-71510000D01*
D45*
%TO.N,/XI_48M*%
X129978700Y-78858600D02*
X129978800Y-78858700D01*
X129812000Y-79025000D02*
X127450000Y-79025000D01*
X127450000Y-79025000D02*
X126375000Y-77950000D01*
X126605000Y-77695000D02*
X126605000Y-77388200D01*
X129979000Y-78858600D02*
X129978800Y-78858700D01*
X125760000Y-78565000D02*
X126375000Y-77950000D01*
X126605000Y-77388200D02*
X126605000Y-76600000D01*
X126605000Y-77388200D02*
X126375000Y-77618200D01*
X129978800Y-78858700D02*
X129812000Y-79025000D01*
X125050000Y-78565000D02*
X125760000Y-78565000D01*
X126375000Y-77618200D02*
X126375000Y-77950000D01*
D46*
%TO.N,+3.3V*%
X135738000Y-75212500D02*
X136025000Y-75500000D01*
D45*
X136700000Y-80800000D02*
X136000000Y-80100000D01*
D47*
X133950000Y-77750000D02*
X133999000Y-77701300D01*
D46*
X135738000Y-73900000D02*
X135738000Y-75212500D01*
D45*
X131611200Y-98451100D02*
X131611200Y-101967200D01*
X132000000Y-94096700D02*
X132000500Y-94096200D01*
D47*
X132675000Y-76675000D02*
X132675000Y-76175000D01*
D45*
X132351100Y-96095500D02*
X132351100Y-95307900D01*
D47*
X133999000Y-77701300D02*
X134598700Y-77701300D01*
D50*
X130673000Y-79707100D02*
X130665000Y-79715300D01*
D45*
X132351100Y-95307900D02*
X132000000Y-94956800D01*
D50*
X130827000Y-79707100D02*
X130673000Y-79707100D01*
D46*
X135100000Y-75500000D02*
X135000000Y-75400000D01*
D50*
X130435000Y-79715300D02*
X130250000Y-79900000D01*
D47*
X134700000Y-71700000D02*
X134700000Y-74600000D01*
D50*
X130026000Y-80123700D02*
X130026000Y-80573700D01*
D45*
X131642700Y-98419600D02*
X131611200Y-98451100D01*
X135488000Y-89811400D02*
X135467900Y-89831500D01*
X136700000Y-84580000D02*
X136700000Y-80800000D01*
D46*
X135000000Y-75400000D02*
X135000000Y-74900000D01*
D45*
X132000000Y-94956800D02*
X132000000Y-94096700D01*
X132000500Y-92786400D02*
X132000500Y-94096200D01*
D50*
X130665000Y-79715300D02*
X130435000Y-79715300D01*
D47*
X132524000Y-77444400D02*
X132675000Y-77293600D01*
D46*
X135000000Y-74900000D02*
X134700000Y-74600000D01*
D47*
X134400000Y-71400000D02*
X134700000Y-71700000D01*
X134100000Y-71400000D02*
X134100000Y-70620000D01*
X134598700Y-77701300D02*
X134599000Y-77701300D01*
X132675000Y-76175000D02*
X132824000Y-76026300D01*
D45*
X132089800Y-92697100D02*
X132000500Y-92786400D01*
X136000000Y-80100000D02*
X135300000Y-79400000D01*
D50*
X130250000Y-79900000D02*
X130026000Y-80123700D01*
X133090000Y-79141400D02*
X133373000Y-78858600D01*
D45*
X135488000Y-84715300D02*
X135488000Y-89811400D01*
D47*
X134100000Y-71400000D02*
X134400000Y-71400000D01*
D50*
X130026000Y-80573700D02*
X130526000Y-81073700D01*
D47*
X132675000Y-77293600D02*
X132675000Y-76675000D01*
D46*
X135000000Y-75400000D02*
X135000000Y-75700000D01*
D47*
X133810000Y-71110000D02*
X133100000Y-71110000D01*
D46*
X136025000Y-75500000D02*
X135100000Y-75500000D01*
D47*
X134100000Y-71400000D02*
X133810000Y-71110000D01*
%TO.N,/2.5V*%
X130651000Y-76602000D02*
X130651000Y-76501300D01*
D45*
X130651300Y-76601700D02*
X130651300Y-76501300D01*
D47*
X131393000Y-77444400D02*
X131392900Y-77444400D01*
X130651000Y-76702700D02*
X130651000Y-76602000D01*
D45*
X130651000Y-76602000D02*
X130651300Y-76601700D01*
D47*
X131392900Y-77444400D02*
X130651000Y-76702700D01*
D45*
%TO.N,/XO_48M*%
X127787500Y-79687500D02*
X127787500Y-79862500D01*
X130034000Y-79141400D02*
X129025000Y-80150000D01*
X127150000Y-79050000D02*
X127787500Y-79687500D01*
X127787500Y-79862500D02*
X128075000Y-80150000D01*
X125585000Y-79050000D02*
X127150000Y-79050000D01*
X128075000Y-81100000D02*
X127675000Y-81500000D01*
X130261500Y-79141400D02*
X130034000Y-79141400D01*
X129025000Y-80150000D02*
X128075000Y-80150000D01*
X130262000Y-79141400D02*
X130261500Y-79141400D01*
X127675000Y-81500000D02*
X127470000Y-81500000D01*
X127787500Y-79687500D02*
X128075000Y-79975000D01*
X128075000Y-80150000D02*
X128075000Y-81100000D01*
X125050000Y-79585000D02*
X125585000Y-79050000D01*
D46*
%TO.N,/VSYS*%
X125800000Y-84350000D02*
X125475000Y-84350000D01*
X137438000Y-69625000D02*
X137200000Y-69862500D01*
X126500000Y-69850000D02*
X126500000Y-72600000D01*
X126500000Y-72600000D02*
X127450000Y-72600000D01*
X137000000Y-68000000D02*
X137000000Y-69662500D01*
D45*
X125300000Y-84330000D02*
X125300000Y-84525000D01*
D46*
X126962000Y-84350000D02*
X125800000Y-84350000D01*
X127450000Y-69900000D02*
X127500000Y-69850000D01*
X126500000Y-69850000D02*
X127500000Y-69850000D01*
X138700000Y-69625000D02*
X137438000Y-69625000D01*
X137320000Y-67680000D02*
X137000000Y-68000000D01*
D45*
X125401600Y-84228400D02*
X125300000Y-84330000D01*
D46*
X127450000Y-72600000D02*
X127450000Y-69900000D01*
X125900000Y-83600000D02*
X125900000Y-84250000D01*
X125900000Y-84250000D02*
X125800000Y-84350000D01*
X137000000Y-69662500D02*
X137200000Y-69862500D01*
D45*
%TO.N,/RST_N*%
X131000000Y-80100000D02*
X131000000Y-81215700D01*
X131000000Y-81215700D02*
X130016000Y-82200000D01*
X136700000Y-86175000D02*
X136700000Y-85220000D01*
X130016000Y-82200000D02*
X125100000Y-82200000D01*
X133902000Y-84110000D02*
X133575000Y-83783100D01*
X131110000Y-79989900D02*
X131000000Y-80100000D01*
X133575000Y-83783100D02*
X133575000Y-82545000D01*
X133250000Y-89250000D02*
X133725000Y-88775000D01*
X133575000Y-82545000D02*
X133900000Y-82220000D01*
X133725000Y-84385000D02*
X133902000Y-84208100D01*
X131110100Y-79989900D02*
X131110000Y-79989900D01*
X125100000Y-82200000D02*
X124800000Y-81900000D01*
X134000000Y-85700000D02*
X133725000Y-85425000D01*
X133725000Y-88775000D02*
X133725000Y-85975000D01*
X125200000Y-90300000D02*
X129400000Y-90300000D01*
X133725000Y-85425000D02*
X133725000Y-84385000D01*
X133902000Y-84208100D02*
X133902000Y-84110000D01*
X133725000Y-85975000D02*
X134000000Y-85700000D01*
D46*
%TO.N,VBUS*%
X134900000Y-66402800D02*
X134900000Y-68000000D01*
X135099000Y-62241600D02*
X135099000Y-63714800D01*
X135099000Y-63714800D02*
X135200000Y-63816400D01*
X129612400Y-61174800D02*
X134032000Y-61174800D01*
X135200000Y-66102400D02*
X134900000Y-66402800D01*
X128144000Y-57820000D02*
X128144000Y-60009400D01*
X128144000Y-60009400D02*
X129310000Y-61174800D01*
X135200000Y-63816400D02*
X135200000Y-65324800D01*
X135200000Y-65324800D02*
X135200000Y-66102400D01*
D45*
X134860000Y-64984800D02*
X135200000Y-65324800D01*
D46*
X134032000Y-61174800D02*
X135099000Y-62241600D01*
X129310000Y-61174800D02*
X129612400Y-61174800D01*
D45*
X128144400Y-57820000D02*
X128144000Y-57820000D01*
X129612400Y-61479600D02*
X129612400Y-61174800D01*
D46*
%TO.N,Net-(U3-SW)*%
X137862000Y-73898200D02*
X137862000Y-73900000D01*
D45*
X137862500Y-73898700D02*
X137862000Y-73898200D01*
X137862500Y-73900000D02*
X137862500Y-73898700D01*
D46*
X137200000Y-72137500D02*
X137862000Y-72800000D01*
X137862000Y-72800000D02*
X137862000Y-73898200D01*
D45*
%TO.N,/EN*%
X130222000Y-91959600D02*
X130933000Y-91959600D01*
X128800000Y-87200000D02*
X128600000Y-87400000D01*
X139478000Y-68500000D02*
X139479000Y-68501200D01*
X138620000Y-68500000D02*
X139478000Y-68500000D01*
X128600000Y-87400000D02*
X128600000Y-88700000D01*
X128944300Y-86543200D02*
X128800000Y-86543200D01*
X132093000Y-90800000D02*
X135650000Y-90800000D01*
X135300000Y-72137500D02*
X135300000Y-71400000D01*
X135300000Y-71400000D02*
X136100000Y-70600000D01*
X136100000Y-68000000D02*
X136877000Y-67223200D01*
X130933000Y-91959600D02*
X132093000Y-90800000D01*
X129237500Y-86250000D02*
X128944300Y-86543200D01*
X136877000Y-67223200D02*
X136877000Y-66559600D01*
X128800000Y-86543200D02*
X128800000Y-87200000D01*
X128800000Y-86250000D02*
X128800000Y-86543200D01*
X136100000Y-70600000D02*
X136100000Y-68000000D01*
%TO.N,CMD*%
X132711200Y-101967200D02*
X132711200Y-101215500D01*
X132751100Y-101175600D02*
X132751100Y-97520500D01*
X132711200Y-101215500D02*
X132751100Y-101175600D01*
%TO.N,data0*%
X131151100Y-97781300D02*
X128311200Y-100621200D01*
X128311200Y-100621200D02*
X128311200Y-101967200D01*
X131151100Y-97520500D02*
X131151100Y-97781300D01*
D47*
%TO.N,/PC13*%
X133230000Y-70180000D02*
X133100000Y-70310000D01*
D45*
X126125000Y-67800000D02*
X125222000Y-67800000D01*
X126125000Y-73800000D02*
X125150000Y-73800000D01*
X125222000Y-67800000D02*
X125142000Y-67880400D01*
X128843000Y-75460000D02*
X126490000Y-75460000D01*
X126100000Y-68850000D02*
X126125000Y-68825000D01*
X126125000Y-68825000D02*
X126125000Y-67800000D01*
X131110000Y-77727200D02*
X128843000Y-75460000D01*
X126490000Y-75460000D02*
X125150000Y-74120000D01*
D47*
X133550000Y-69950000D02*
X133320000Y-70180000D01*
D45*
X125150000Y-67888400D02*
X125150000Y-73800000D01*
X125142000Y-67880400D02*
X125150000Y-67888400D01*
D47*
X133100000Y-70310000D02*
X133100000Y-70710000D01*
D45*
X125150000Y-74120000D02*
X125150000Y-73800000D01*
D47*
X133320000Y-70180000D02*
X133230000Y-70180000D01*
%TO.N,/USBC_N*%
X131676000Y-77161500D02*
X131808000Y-77029700D01*
X131808000Y-77029700D02*
X131808000Y-75546100D01*
D45*
X132150000Y-72241600D02*
X132150000Y-71960000D01*
D47*
X132150000Y-71960000D02*
X132100000Y-71910000D01*
X131610000Y-75348500D02*
X131610000Y-73064300D01*
X131610000Y-73064300D02*
X132149000Y-72525300D01*
D45*
X132100000Y-71710000D02*
X132100000Y-71910000D01*
X132149000Y-72242600D02*
X132150000Y-72241600D01*
D47*
X132149000Y-72242600D02*
X132149000Y-71960000D01*
X132149000Y-72525300D02*
X132149000Y-72242600D01*
D45*
X131675700Y-77161500D02*
X131676000Y-77161500D01*
D47*
X131808000Y-75546100D02*
X131610000Y-75348500D01*
%TO.N,+0.9V*%
X132273000Y-84473300D02*
X132273000Y-84150000D01*
X132519000Y-82393800D02*
X132519000Y-83156200D01*
X132425000Y-82300000D02*
X132519000Y-82393800D01*
D46*
X129375000Y-87800000D02*
X130162000Y-87800000D01*
D47*
X132911600Y-77622700D02*
X133330000Y-77204700D01*
D50*
X129375000Y-87800000D02*
X129375000Y-88725000D01*
D47*
X133349000Y-76559200D02*
X133349000Y-76551300D01*
X132273000Y-84176700D02*
X132123000Y-84326700D01*
D45*
X133348700Y-76551300D02*
X133348700Y-76558900D01*
X132911600Y-77622700D02*
X132807100Y-77727200D01*
X131526300Y-82348700D02*
X131576100Y-82398500D01*
D47*
X131576100Y-82398600D02*
X131551000Y-82423700D01*
X132378000Y-83200000D02*
X132273000Y-83095700D01*
X131675000Y-82300000D02*
X131576100Y-82398600D01*
X132370000Y-82300000D02*
X132050000Y-82619800D01*
X132519000Y-83156200D02*
X132475000Y-83200000D01*
X131551000Y-82423700D02*
X132051000Y-82923700D01*
D45*
X132241000Y-79989500D02*
X132241000Y-79707100D01*
D50*
X129375000Y-88725000D02*
X128900000Y-89200000D01*
D47*
X132450000Y-84525000D02*
X132300000Y-84675000D01*
X132123000Y-84326700D02*
X132123000Y-84623300D01*
D46*
X130162000Y-87800000D02*
X131000000Y-86962500D01*
D47*
X132273000Y-84150000D02*
X132273000Y-83095700D01*
X132273000Y-83095700D02*
X132026000Y-82848700D01*
X132450000Y-83225000D02*
X132450000Y-84525000D01*
D45*
X131958600Y-79707100D02*
X132241000Y-79707100D01*
X133348700Y-76558900D02*
X133349000Y-76559200D01*
D46*
X132370000Y-82300000D02*
X132370000Y-81744800D01*
D45*
X132241400Y-79424300D02*
X132241000Y-79424700D01*
D47*
X133349000Y-77185600D02*
X133349000Y-76559200D01*
D45*
X131576100Y-82398500D02*
X131576100Y-82398600D01*
D47*
X132273000Y-84150000D02*
X132273000Y-84176700D01*
X132370000Y-82300000D02*
X131675000Y-82300000D01*
D50*
X128900000Y-89200000D02*
X126600000Y-89200000D01*
D47*
X132370000Y-82300000D02*
X132425000Y-82300000D01*
X133330000Y-77204700D02*
X133349000Y-77185600D01*
D45*
X132026300Y-82848700D02*
X132050000Y-82825000D01*
D46*
X132370000Y-81744800D02*
X132300000Y-81675000D01*
D47*
X132475000Y-83200000D02*
X132450000Y-83225000D01*
D50*
X125880000Y-88480000D02*
X125880000Y-88100000D01*
D47*
X132807000Y-77727200D02*
X132911600Y-77622700D01*
D50*
X126600000Y-89200000D02*
X125880000Y-88480000D01*
D45*
X132524300Y-79707100D02*
X132241000Y-79707100D01*
X132241400Y-79989900D02*
X132241000Y-79989500D01*
D47*
X132050000Y-82619800D02*
X132050000Y-82825000D01*
D45*
X132241000Y-79424700D02*
X132241000Y-79707100D01*
D47*
X132475000Y-83200000D02*
X132378000Y-83200000D01*
%TO.N,/USBC_P*%
X132109000Y-77028700D02*
X132109000Y-75421400D01*
X132450000Y-71960000D02*
X132500000Y-71910000D01*
X132450000Y-72650000D02*
X132450000Y-71960000D01*
X131911000Y-73189000D02*
X132450000Y-72650000D01*
X131911000Y-75223900D02*
X131911000Y-73189000D01*
X132109000Y-75421400D02*
X131911000Y-75223900D01*
D45*
X132241400Y-77161500D02*
X132241000Y-77161500D01*
D47*
X132241000Y-77161500D02*
X132109000Y-77028700D01*
D45*
X132500000Y-71710000D02*
X132500000Y-71910000D01*
D47*
%TO.N,/USBCONN_P*%
X132196000Y-61937500D02*
X132196000Y-61961200D01*
X132451000Y-69225300D02*
X132451000Y-70511000D01*
X132196000Y-61961200D02*
X132159000Y-61998200D01*
X132356000Y-60311200D02*
X132356000Y-58108800D01*
X132160000Y-68934300D02*
X132451000Y-69225300D01*
X132346000Y-61787600D02*
X132196000Y-61937500D01*
X132356000Y-58108800D02*
X132644000Y-57820000D01*
X132451000Y-70511000D02*
X132500000Y-70560000D01*
D45*
X132644400Y-57820000D02*
X132644000Y-57820000D01*
D47*
X132159000Y-61998200D02*
X132159000Y-66589000D01*
X132160000Y-66590000D02*
X132160000Y-68934300D01*
X132159000Y-66589000D02*
X132160000Y-66590000D01*
%TO.N,/USBCONN_N*%
X131746000Y-61774800D02*
X131859000Y-61887800D01*
X131746000Y-60311200D02*
X131746000Y-58921600D01*
X132150000Y-69350000D02*
X132150000Y-70460000D01*
X131195000Y-58370800D02*
X130644000Y-57820000D01*
X131746000Y-58921600D02*
X131195000Y-58370800D01*
X131859000Y-61887800D02*
X131859000Y-69059000D01*
X132150000Y-70460000D02*
X132100000Y-70510000D01*
D45*
X131195000Y-58370800D02*
X130644400Y-57820200D01*
X130644400Y-57820200D02*
X130644400Y-57820000D01*
D47*
X131859000Y-69059000D02*
X132150000Y-69350000D01*
D46*
%TO.N,Net-(U4-SW)*%
X130513000Y-84350000D02*
X131000000Y-84837500D01*
X129238000Y-84350000D02*
X129445200Y-84350000D01*
D45*
X129237500Y-84350000D02*
X129445200Y-84350000D01*
D46*
X129445200Y-84350000D02*
X130513000Y-84350000D01*
D45*
%TO.N,/FB_3.3V*%
X135182500Y-69980000D02*
X135300000Y-69862500D01*
X134766700Y-69980000D02*
X135182500Y-69980000D01*
D47*
X134100000Y-69280000D02*
X133920000Y-69100000D01*
X134100000Y-69980000D02*
X134100000Y-69280000D01*
X134100000Y-69980000D02*
X134766700Y-69980000D01*
X134766700Y-69980000D02*
X135183000Y-69980000D01*
D50*
%TO.N,/FB_0.85V*%
X126520000Y-86692500D02*
X126962000Y-86250000D01*
X126520000Y-87400000D02*
X126520000Y-86692500D01*
D45*
X126962500Y-86250000D02*
X126962000Y-86250000D01*
D50*
X126520000Y-88100000D02*
X126520000Y-87400000D01*
D45*
%TO.N,DAT3*%
X133151100Y-97923100D02*
X133811200Y-98583200D01*
X133811200Y-98583200D02*
X133811200Y-101967200D01*
X133151100Y-97520500D02*
X133151100Y-97923100D01*
%TO.N,SDclock*%
X130511200Y-98889500D02*
X131551100Y-97849600D01*
X130511200Y-101967200D02*
X130511200Y-98889500D01*
X131551100Y-97849600D02*
X131551100Y-97520500D01*
%TO.N,MISO*%
X129782700Y-92391200D02*
X129782700Y-90766300D01*
X129956700Y-82968000D02*
X130162500Y-82762200D01*
X131771195Y-80651095D02*
X131675700Y-80555600D01*
X131796800Y-81444000D02*
X131796800Y-81051466D01*
X131693579Y-80728711D02*
X131771195Y-80651095D01*
X131151100Y-96095500D02*
X131151100Y-93759600D01*
X129782700Y-90766300D02*
X132097600Y-88451400D01*
X131151100Y-93759600D02*
X129782700Y-92391200D01*
X131693579Y-80948245D02*
X131693579Y-80728711D01*
X130478600Y-82762200D02*
X131796800Y-81444000D01*
X130162500Y-82762200D02*
X130478600Y-82762200D01*
X131796800Y-81051466D02*
X131693579Y-80948245D01*
%TO.N,CS*%
X133151100Y-94275000D02*
X136158300Y-91267800D01*
X137207900Y-86251400D02*
X137207900Y-79228600D01*
X137796200Y-78640300D02*
X137796200Y-76685100D01*
X136158300Y-91267800D02*
X136158300Y-87301000D01*
X136158300Y-87301000D02*
X137207900Y-86251400D01*
X137207900Y-79228600D02*
X137796200Y-78640300D01*
X129114000Y-77751400D02*
X129437200Y-77751400D01*
X133151100Y-96095500D02*
X133151100Y-94275000D01*
X129437200Y-77751400D02*
X130261500Y-78575700D01*
%TO.N,SCK*%
X130544400Y-78219100D02*
X130128900Y-77803600D01*
X131551100Y-92562300D02*
X131966800Y-92146600D01*
X131966800Y-92146600D02*
X131966800Y-92089400D01*
X130544400Y-78292900D02*
X130544400Y-78219100D01*
X131551100Y-96095500D02*
X131551100Y-92562300D01*
%TO.N,MOSI*%
X130827200Y-77877600D02*
X130827200Y-78010100D01*
X129603400Y-76845600D02*
X129795200Y-76845600D01*
X129795200Y-76845600D02*
X130827200Y-77877600D01*
%TO.N,Net-(U5-Data1)*%
X133551100Y-96095500D02*
X133551100Y-94475500D01*
X133551100Y-94475500D02*
X133932400Y-94094200D01*
X130751100Y-94927300D02*
X130751100Y-96095500D01*
X129993300Y-94169500D02*
X130751100Y-94927300D01*
%TD*%
%TA.AperFunction,Conductor*%
%TO.N,+3.3V*%
G36*
X135834131Y-72883674D02*
G01*
X135853283Y-72916846D01*
X135866401Y-72965804D01*
X135876793Y-73004588D01*
X135876795Y-73004592D01*
X135929517Y-73095909D01*
X135929518Y-73095910D01*
X135929520Y-73095913D01*
X136377826Y-73544219D01*
X136399500Y-73596544D01*
X136399500Y-73947273D01*
X136399500Y-74672273D01*
X136399500Y-74777727D01*
X136404155Y-74795100D01*
X136426793Y-74879588D01*
X136426795Y-74879592D01*
X136479517Y-74970909D01*
X136479518Y-74970910D01*
X136479520Y-74970913D01*
X136734305Y-75225697D01*
X136952826Y-75444218D01*
X136974500Y-75496544D01*
X136974500Y-75785640D01*
X136985134Y-75858625D01*
X136985134Y-75858626D01*
X137040173Y-75971210D01*
X137040174Y-75971211D01*
X137128789Y-76059826D01*
X137241375Y-76114866D01*
X137314364Y-76125500D01*
X137314370Y-76125500D01*
X137835630Y-76125500D01*
X137835636Y-76125500D01*
X137908625Y-76114866D01*
X138021211Y-76059826D01*
X138109826Y-75971211D01*
X138109826Y-75971210D01*
X138109827Y-75971210D01*
X138109827Y-75971209D01*
X138124107Y-75942000D01*
X138166560Y-75904510D01*
X138190588Y-75900500D01*
X138252726Y-75900500D01*
X138252727Y-75900500D01*
X138354588Y-75873207D01*
X138445913Y-75820480D01*
X138820480Y-75445913D01*
X138820480Y-75445912D01*
X138935503Y-75330887D01*
X138935507Y-75330885D01*
X138945912Y-75320480D01*
X138945913Y-75320480D01*
X139020480Y-75245913D01*
X139073207Y-75154587D01*
X139075167Y-75147273D01*
X139100500Y-75052729D01*
X139100501Y-75052729D01*
X139100501Y-74942744D01*
X139100500Y-74942726D01*
X139100500Y-72936000D01*
X139122174Y-72883674D01*
X139174500Y-72862000D01*
X139426000Y-72862000D01*
X139478326Y-72883674D01*
X139500000Y-72936000D01*
X139500000Y-77369348D01*
X139478326Y-77421674D01*
X138101992Y-78798007D01*
X138049666Y-78819681D01*
X137997340Y-78798007D01*
X137975666Y-78745681D01*
X137981298Y-78717365D01*
X137996700Y-78680182D01*
X137996700Y-78600418D01*
X137996700Y-77074523D01*
X138018374Y-77022197D01*
X138033700Y-77010437D01*
X138042113Y-77005580D01*
X138116680Y-76931013D01*
X138169407Y-76839687D01*
X138196699Y-76737829D01*
X138196700Y-76737829D01*
X138196700Y-76632371D01*
X138196699Y-76632370D01*
X138190408Y-76608893D01*
X138169407Y-76530513D01*
X138116680Y-76439187D01*
X138042113Y-76364620D01*
X138018554Y-76351018D01*
X137950791Y-76311895D01*
X137950782Y-76311891D01*
X137848929Y-76284600D01*
X137848927Y-76284600D01*
X137743473Y-76284600D01*
X137743471Y-76284600D01*
X137641617Y-76311891D01*
X137641608Y-76311895D01*
X137550286Y-76364620D01*
X137475720Y-76439186D01*
X137422995Y-76530508D01*
X137422991Y-76530517D01*
X137395700Y-76632370D01*
X137395700Y-76737829D01*
X137422991Y-76839682D01*
X137422995Y-76839691D01*
X137475177Y-76930072D01*
X137475720Y-76931013D01*
X137550287Y-77005580D01*
X137558700Y-77010437D01*
X137593178Y-77055370D01*
X137595700Y-77074523D01*
X137595700Y-78526599D01*
X137593361Y-78532245D01*
X137574026Y-78578924D01*
X137574025Y-78578924D01*
X137529558Y-78623390D01*
X137477232Y-78645064D01*
X137424907Y-78623389D01*
X137413147Y-78608064D01*
X137391982Y-78571405D01*
X137371798Y-78536445D01*
X137301087Y-78465734D01*
X137299481Y-78464807D01*
X137228601Y-78423884D01*
X137201515Y-78396798D01*
X137159665Y-78324312D01*
X137088955Y-78253602D01*
X137019247Y-78213356D01*
X137019246Y-78213356D01*
X136938754Y-78213356D01*
X136938752Y-78213356D01*
X136869044Y-78253602D01*
X136798334Y-78324312D01*
X136758088Y-78394020D01*
X136758088Y-78412481D01*
X136736414Y-78464807D01*
X136554774Y-78646447D01*
X136554774Y-78646448D01*
X136736414Y-78828088D01*
X136758088Y-78880414D01*
X136758088Y-78898779D01*
X136773470Y-78925421D01*
X136798334Y-78968487D01*
X136869045Y-79039198D01*
X136938754Y-79079444D01*
X136938755Y-79079444D01*
X136941914Y-79079444D01*
X136947700Y-79081840D01*
X136948164Y-79081965D01*
X136948147Y-79082026D01*
X136994240Y-79101118D01*
X137015914Y-79153444D01*
X137010281Y-79181762D01*
X137007400Y-79188716D01*
X137007400Y-84726000D01*
X136985726Y-84778326D01*
X136933400Y-84800000D01*
X135474000Y-84800000D01*
X135421674Y-84778326D01*
X135400000Y-84726000D01*
X135400000Y-82400000D01*
X135399999Y-82399999D01*
X134323778Y-82389498D01*
X134271666Y-82367315D01*
X134250500Y-82315502D01*
X134250500Y-82065327D01*
X134247352Y-82049500D01*
X134235966Y-81992260D01*
X134201789Y-81941110D01*
X134190741Y-81885563D01*
X134201790Y-81858889D01*
X134235966Y-81807740D01*
X134250500Y-81734674D01*
X134250500Y-81425326D01*
X134235966Y-81352260D01*
X134180851Y-81269774D01*
X134169803Y-81214226D01*
X134190054Y-81176338D01*
X134220480Y-81145913D01*
X134273207Y-81054587D01*
X134300499Y-80952729D01*
X134300500Y-80952729D01*
X134300500Y-80847271D01*
X134300499Y-80847270D01*
X134294652Y-80825450D01*
X134273207Y-80745413D01*
X134220480Y-80654087D01*
X134145913Y-80579520D01*
X134127198Y-80568715D01*
X134054591Y-80526795D01*
X134054582Y-80526791D01*
X133952729Y-80499500D01*
X133952727Y-80499500D01*
X133847273Y-80499500D01*
X133847271Y-80499500D01*
X133745417Y-80526791D01*
X133745408Y-80526795D01*
X133654086Y-80579520D01*
X133579520Y-80654086D01*
X133526795Y-80745408D01*
X133526791Y-80745417D01*
X133499500Y-80847270D01*
X133499500Y-80952729D01*
X133526791Y-81054582D01*
X133526795Y-81054591D01*
X133579520Y-81145913D01*
X133609944Y-81176337D01*
X133631618Y-81228663D01*
X133619147Y-81269774D01*
X133564034Y-81352258D01*
X133559154Y-81376793D01*
X133549730Y-81424173D01*
X133549500Y-81425327D01*
X133549500Y-81734672D01*
X133564034Y-81807741D01*
X133598209Y-81858889D01*
X133609258Y-81914438D01*
X133598209Y-81941111D01*
X133564034Y-81992258D01*
X133549500Y-82065327D01*
X133549500Y-82256297D01*
X133527826Y-82308623D01*
X133527825Y-82308623D01*
X133477395Y-82359052D01*
X133425069Y-82380726D01*
X133424349Y-82380722D01*
X133268201Y-82379200D01*
X133268200Y-82379200D01*
X132843778Y-82375058D01*
X132791666Y-82352875D01*
X132770500Y-82301062D01*
X132770500Y-81797239D01*
X132770576Y-81796954D01*
X132770500Y-81743878D01*
X132770500Y-81692073D01*
X132770500Y-81692068D01*
X132770425Y-81691507D01*
X132770425Y-81691501D01*
X132756761Y-81640801D01*
X132743207Y-81590213D01*
X132743192Y-81590176D01*
X132743054Y-81589937D01*
X132742985Y-81589679D01*
X132716937Y-81544711D01*
X132716749Y-81544386D01*
X132716696Y-81544295D01*
X132690479Y-81498886D01*
X132690129Y-81498430D01*
X132653085Y-81461492D01*
X132623784Y-81432191D01*
X132615159Y-81411370D01*
X132599999Y-81400000D01*
X132600000Y-81400000D01*
X132569780Y-81377335D01*
X132561854Y-81370461D01*
X132545908Y-81354515D01*
X132545462Y-81354173D01*
X132521147Y-81340180D01*
X132513657Y-81335242D01*
X132503544Y-81327657D01*
X132474689Y-81278922D01*
X132479577Y-81240144D01*
X132506921Y-81174131D01*
X132506921Y-81174127D01*
X132508343Y-81166982D01*
X132511237Y-81167557D01*
X132528595Y-81125652D01*
X132570501Y-81108293D01*
X132569926Y-81105400D01*
X132577074Y-81103978D01*
X132577075Y-81103978D01*
X132674657Y-81063558D01*
X132749344Y-80988871D01*
X132789764Y-80891289D01*
X132789764Y-80891288D01*
X132791186Y-80884140D01*
X132794079Y-80884715D01*
X132811438Y-80842809D01*
X132853344Y-80825450D01*
X132852769Y-80822557D01*
X132859917Y-80821135D01*
X132859918Y-80821135D01*
X132957500Y-80780715D01*
X133032187Y-80706028D01*
X133072607Y-80608446D01*
X133072607Y-80608445D01*
X133074029Y-80601297D01*
X133076922Y-80601872D01*
X133094281Y-80559966D01*
X133136186Y-80542608D01*
X133135611Y-80539714D01*
X133142759Y-80538292D01*
X133142760Y-80538292D01*
X133240342Y-80497872D01*
X133315029Y-80423185D01*
X133355449Y-80325603D01*
X133355449Y-80325602D01*
X133356871Y-80318454D01*
X133359764Y-80319029D01*
X133377123Y-80277123D01*
X133419029Y-80259764D01*
X133418454Y-80256871D01*
X133425602Y-80255449D01*
X133425603Y-80255449D01*
X133523185Y-80215029D01*
X133597872Y-80140342D01*
X133638292Y-80042760D01*
X133638292Y-80042759D01*
X133639714Y-80035611D01*
X133642608Y-80036186D01*
X133659966Y-79994281D01*
X133701872Y-79976922D01*
X133701297Y-79974029D01*
X133708445Y-79972607D01*
X133708446Y-79972607D01*
X133806028Y-79932187D01*
X133880715Y-79857500D01*
X133921135Y-79759918D01*
X133921135Y-79759917D01*
X133922557Y-79752769D01*
X133925450Y-79753344D01*
X133942809Y-79711438D01*
X133984715Y-79694079D01*
X133984140Y-79691186D01*
X133991288Y-79689764D01*
X133991289Y-79689764D01*
X134088871Y-79649344D01*
X134163558Y-79574657D01*
X134203978Y-79477075D01*
X134203978Y-79477074D01*
X134205400Y-79469926D01*
X134208293Y-79470501D01*
X134225652Y-79428595D01*
X134267557Y-79411237D01*
X134266982Y-79408343D01*
X134274130Y-79406921D01*
X134274131Y-79406921D01*
X134371713Y-79366501D01*
X134446400Y-79291814D01*
X134486820Y-79194232D01*
X134486820Y-79088610D01*
X134446400Y-78991028D01*
X134371713Y-78916341D01*
X134371712Y-78916340D01*
X134274130Y-78875920D01*
X134266982Y-78874499D01*
X134267557Y-78871604D01*
X134225652Y-78854247D01*
X134208294Y-78812341D01*
X134205400Y-78812917D01*
X134203978Y-78805768D01*
X134163558Y-78708186D01*
X134088870Y-78633498D01*
X133991288Y-78593078D01*
X133984140Y-78591657D01*
X133984715Y-78588763D01*
X133942809Y-78571405D01*
X133925450Y-78529498D01*
X133922557Y-78530074D01*
X133921135Y-78522925D01*
X133880715Y-78425343D01*
X133806027Y-78350655D01*
X133708445Y-78310235D01*
X133701297Y-78308814D01*
X133701872Y-78305920D01*
X133659966Y-78288562D01*
X133642607Y-78246655D01*
X133639714Y-78247231D01*
X133638292Y-78240082D01*
X133597872Y-78142500D01*
X133523184Y-78067812D01*
X133425602Y-78027392D01*
X133418454Y-78025971D01*
X133419029Y-78023077D01*
X133377123Y-78005719D01*
X133359765Y-77963813D01*
X133356871Y-77964389D01*
X133355449Y-77957240D01*
X133315029Y-77859658D01*
X133240343Y-77784972D01*
X133234283Y-77780923D01*
X133236428Y-77777711D01*
X133235634Y-77776917D01*
X133222018Y-77771269D01*
X133216399Y-77757686D01*
X133206007Y-77747296D01*
X133206004Y-77732555D01*
X133200370Y-77718933D01*
X133206001Y-77705357D01*
X133205999Y-77690659D01*
X133222068Y-77666618D01*
X133261878Y-77626847D01*
X133314178Y-77605200D01*
X133382729Y-77605200D01*
X133382729Y-77605199D01*
X133484587Y-77577907D01*
X133575913Y-77525180D01*
X133650480Y-77450613D01*
X133703207Y-77359287D01*
X133730499Y-77257429D01*
X133730500Y-77257429D01*
X133730500Y-77151971D01*
X133730499Y-77151970D01*
X133722792Y-77123208D01*
X133703207Y-77050113D01*
X133650480Y-76958787D01*
X133621174Y-76929481D01*
X133599500Y-76877155D01*
X133599500Y-76826834D01*
X133621174Y-76774508D01*
X133663513Y-76732169D01*
X133705938Y-76689744D01*
X133747326Y-76627801D01*
X133759328Y-76567466D01*
X133790793Y-76520376D01*
X133817464Y-76509328D01*
X133877801Y-76497326D01*
X133939744Y-76455938D01*
X134097674Y-76298008D01*
X134150000Y-76276334D01*
X134202326Y-76298008D01*
X134584788Y-76680470D01*
X134664712Y-76726614D01*
X134664713Y-76726614D01*
X134664715Y-76726615D01*
X134685447Y-76732170D01*
X134753853Y-76750499D01*
X134753854Y-76750500D01*
X134753856Y-76750500D01*
X134753857Y-76750500D01*
X134846144Y-76750500D01*
X134879902Y-76750500D01*
X134932228Y-76772174D01*
X134953902Y-76824500D01*
X134932228Y-76876826D01*
X134921018Y-76886025D01*
X134915703Y-76889576D01*
X134912802Y-76891515D01*
X134694064Y-77110253D01*
X134694064Y-77110254D01*
X134694062Y-77110256D01*
X134685411Y-77123204D01*
X134652674Y-77172198D01*
X134633231Y-77269939D01*
X134652673Y-77367679D01*
X134692325Y-77427022D01*
X134694062Y-77429622D01*
X134870378Y-77605938D01*
X134932320Y-77647326D01*
X135030061Y-77666769D01*
X135127801Y-77647326D01*
X135189744Y-77605938D01*
X135408486Y-77387196D01*
X135449874Y-77325253D01*
X135469317Y-77227513D01*
X135469317Y-77227512D01*
X135469317Y-77224500D01*
X135470469Y-77221716D01*
X135470739Y-77220364D01*
X135471008Y-77220417D01*
X135490991Y-77172174D01*
X135543317Y-77150500D01*
X135602729Y-77150500D01*
X135602729Y-77150499D01*
X135704587Y-77123207D01*
X135795913Y-77070480D01*
X135870480Y-76995913D01*
X135923207Y-76904587D01*
X135950499Y-76802729D01*
X135950500Y-76802729D01*
X135950500Y-76697271D01*
X135950499Y-76697270D01*
X135948822Y-76691013D01*
X135923207Y-76595413D01*
X135870480Y-76504087D01*
X135795913Y-76429520D01*
X135766955Y-76412801D01*
X135704588Y-76376793D01*
X135704584Y-76376792D01*
X135679872Y-76370170D01*
X135646700Y-76351018D01*
X135415212Y-76119530D01*
X135335289Y-76073386D01*
X135335284Y-76073384D01*
X135246146Y-76049500D01*
X135246144Y-76049500D01*
X134975834Y-76049500D01*
X134923508Y-76027826D01*
X134771174Y-75875492D01*
X134749500Y-75823166D01*
X134749500Y-75653854D01*
X134749499Y-75653853D01*
X134748500Y-75650126D01*
X134725614Y-75564712D01*
X134723392Y-75560864D01*
X134679471Y-75484791D01*
X134679470Y-75484790D01*
X134679469Y-75484788D01*
X134614212Y-75419531D01*
X134614209Y-75419529D01*
X134614208Y-75419528D01*
X134566117Y-75391763D01*
X134550752Y-75379964D01*
X134460135Y-75289211D01*
X134438500Y-75236924D01*
X134438500Y-74595074D01*
X134438515Y-74594831D01*
X134438513Y-74590124D01*
X134438515Y-74590120D01*
X134438500Y-74535575D01*
X134438500Y-74484773D01*
X134438487Y-74484723D01*
X134438487Y-74484683D01*
X134438486Y-74484676D01*
X134438486Y-74484667D01*
X134429322Y-74450500D01*
X134424308Y-74431805D01*
X134424304Y-74431789D01*
X134411206Y-74382908D01*
X134411169Y-74382820D01*
X134411166Y-74382816D01*
X134411166Y-74382813D01*
X134384690Y-74336984D01*
X134358480Y-74291587D01*
X134358479Y-74291586D01*
X134358478Y-74291584D01*
X134358420Y-74291508D01*
X134322785Y-74255892D01*
X134283913Y-74217020D01*
X134283863Y-74216991D01*
X133883363Y-73816704D01*
X133882405Y-73815612D01*
X133860778Y-73793985D01*
X133804913Y-73738120D01*
X133804910Y-73738118D01*
X133802167Y-73735375D01*
X133800725Y-73734111D01*
X133522188Y-73455721D01*
X133522183Y-73455711D01*
X133522174Y-73455707D01*
X133511398Y-73429692D01*
X133500500Y-73403401D01*
X133500500Y-73340357D01*
X133522174Y-73288031D01*
X133542968Y-73273412D01*
X134384163Y-72877292D01*
X134414906Y-72870245D01*
X134908658Y-72865059D01*
X134961206Y-72886182D01*
X134961759Y-72886729D01*
X134977236Y-72902206D01*
X135080010Y-72947585D01*
X135105136Y-72950500D01*
X135494865Y-72950499D01*
X135519992Y-72947585D01*
X135622766Y-72902206D01*
X135641298Y-72883674D01*
X135693624Y-72862000D01*
X135781805Y-72862000D01*
X135834131Y-72883674D01*
G37*
%TD.AperFunction*%
%TA.AperFunction,Conductor*%
G36*
X130138202Y-79378869D02*
G01*
X130140559Y-79378767D01*
X130142063Y-79379314D01*
X130208711Y-79406921D01*
X130217914Y-79406921D01*
X130230174Y-79411383D01*
X130271931Y-79449646D01*
X130276470Y-79470119D01*
X130277443Y-79469926D01*
X130278864Y-79477074D01*
X130319284Y-79574656D01*
X130319285Y-79574657D01*
X130393972Y-79649344D01*
X130491554Y-79689764D01*
X130597175Y-79689764D01*
X130597176Y-79689764D01*
X130694758Y-79649344D01*
X130769445Y-79574657D01*
X130774599Y-79569503D01*
X130777499Y-79572403D01*
X130812735Y-79548834D01*
X130868289Y-79559856D01*
X130879534Y-79569079D01*
X130884871Y-79574416D01*
X130884971Y-79574657D01*
X130959658Y-79649344D01*
X130959897Y-79649443D01*
X130965234Y-79654780D01*
X130973494Y-79674723D01*
X130985487Y-79692673D01*
X130984008Y-79700105D01*
X130986908Y-79707106D01*
X130978647Y-79727048D01*
X130974435Y-79748221D01*
X130966646Y-79756022D01*
X130965234Y-79759432D01*
X130964735Y-79759638D01*
X130964812Y-79759715D01*
X130884972Y-79839555D01*
X130884970Y-79839556D01*
X130844551Y-79937138D01*
X130844551Y-79942179D01*
X130832397Y-79982812D01*
X130830311Y-79985987D01*
X130829983Y-79986477D01*
X130814957Y-80022799D01*
X130814946Y-80022827D01*
X130799499Y-80060120D01*
X130799482Y-80060208D01*
X130799500Y-80100091D01*
X130799500Y-81102022D01*
X130777834Y-81154340D01*
X130557160Y-81375080D01*
X130504837Y-81396762D01*
X130452508Y-81375096D01*
X130443298Y-81363875D01*
X130430940Y-81345381D01*
X130430937Y-81345377D01*
X130254621Y-81169061D01*
X130192679Y-81127673D01*
X130094939Y-81108231D01*
X130094937Y-81108231D01*
X130074771Y-81112242D01*
X130019222Y-81101192D01*
X129987757Y-81054100D01*
X129987757Y-81025228D01*
X129991769Y-81005061D01*
X129972326Y-80907320D01*
X129930938Y-80845378D01*
X129754622Y-80669062D01*
X129696808Y-80630432D01*
X129665343Y-80583341D01*
X129663922Y-80568715D01*
X129665948Y-79823251D01*
X129687630Y-79771125D01*
X130062936Y-79395968D01*
X130075087Y-79390937D01*
X130083975Y-79381239D01*
X130100231Y-79380528D01*
X130115265Y-79374305D01*
X130138202Y-79378869D01*
G37*
%TD.AperFunction*%
%TA.AperFunction,Conductor*%
G36*
X133392719Y-78707131D02*
G01*
X133413873Y-78711328D01*
X133421666Y-78719121D01*
X133425118Y-78720551D01*
X133430455Y-78725888D01*
X133430555Y-78726129D01*
X133505242Y-78800816D01*
X133505481Y-78800915D01*
X133510818Y-78806252D01*
X133532492Y-78858578D01*
X133510818Y-78910904D01*
X133510036Y-78911546D01*
X133430556Y-78991027D01*
X133430554Y-78991028D01*
X133390134Y-79088610D01*
X133388713Y-79095759D01*
X133385819Y-79095183D01*
X133368461Y-79137090D01*
X133326554Y-79154448D01*
X133327130Y-79157342D01*
X133319981Y-79158763D01*
X133222399Y-79199183D01*
X133222398Y-79199185D01*
X133147713Y-79273870D01*
X133147711Y-79273871D01*
X133107291Y-79371453D01*
X133105870Y-79378602D01*
X133102976Y-79378026D01*
X133085618Y-79419933D01*
X133043711Y-79437291D01*
X133044287Y-79440185D01*
X133037138Y-79441606D01*
X132939556Y-79482026D01*
X132939555Y-79482028D01*
X132859715Y-79561868D01*
X132856835Y-79558988D01*
X132821420Y-79582566D01*
X132765890Y-79571423D01*
X132755425Y-79560940D01*
X132754498Y-79561868D01*
X132674656Y-79482026D01*
X132577074Y-79441606D01*
X132569926Y-79440185D01*
X132570501Y-79437291D01*
X132528595Y-79419933D01*
X132511236Y-79378026D01*
X132508343Y-79378602D01*
X132506921Y-79371453D01*
X132466501Y-79273871D01*
X132386660Y-79194030D01*
X132389549Y-79191140D01*
X132365976Y-79155815D01*
X132377058Y-79100273D01*
X132387597Y-79089750D01*
X132386660Y-79088813D01*
X132466500Y-79008973D01*
X132466501Y-79008972D01*
X132501108Y-78925420D01*
X132517162Y-78901400D01*
X132519785Y-78898778D01*
X132563537Y-78855047D01*
X132563648Y-78854958D01*
X132567156Y-78851449D01*
X132572311Y-78848002D01*
X132576052Y-78845000D01*
X132576110Y-78844963D01*
X132576334Y-78845314D01*
X132591174Y-78835395D01*
X132674657Y-78800816D01*
X132749344Y-78726129D01*
X132754498Y-78720975D01*
X132757403Y-78723880D01*
X132792593Y-78700315D01*
X132848154Y-78711306D01*
X132858777Y-78721912D01*
X132859715Y-78720975D01*
X132864869Y-78726129D01*
X132939556Y-78800816D01*
X133037138Y-78841236D01*
X133142759Y-78841236D01*
X133142760Y-78841236D01*
X133240342Y-78800816D01*
X133315029Y-78726129D01*
X133320183Y-78720975D01*
X133320258Y-78721050D01*
X133320466Y-78720551D01*
X133340393Y-78712297D01*
X133358319Y-78700306D01*
X133365772Y-78701784D01*
X133372792Y-78698877D01*
X133392719Y-78707131D01*
G37*
%TD.AperFunction*%
%TA.AperFunction,Conductor*%
G36*
X133004128Y-74070421D02*
G01*
X133615812Y-74681778D01*
X133637500Y-74734098D01*
X133637500Y-75218192D01*
X133615826Y-75270518D01*
X133563500Y-75292192D01*
X133511174Y-75270518D01*
X133457169Y-75216513D01*
X133395227Y-75175125D01*
X133297487Y-75155683D01*
X133199746Y-75175126D01*
X133168669Y-75195890D01*
X133137804Y-75216514D01*
X133137802Y-75216516D01*
X133137801Y-75216516D01*
X132919064Y-75435253D01*
X132919064Y-75435254D01*
X132919062Y-75435256D01*
X132898592Y-75465892D01*
X132877674Y-75497198D01*
X132858231Y-75594939D01*
X132877673Y-75692679D01*
X132877674Y-75692680D01*
X132919062Y-75754622D01*
X133095378Y-75930938D01*
X133157320Y-75972326D01*
X133255061Y-75991769D01*
X133255063Y-75991769D01*
X133275121Y-75987778D01*
X133286949Y-75985425D01*
X133294384Y-75986903D01*
X133301389Y-75984002D01*
X133321329Y-75992261D01*
X133342498Y-75996471D01*
X133353715Y-76005676D01*
X133364904Y-76016865D01*
X133386578Y-76069191D01*
X133364904Y-76121517D01*
X133327016Y-76141769D01*
X133272198Y-76152674D01*
X133241121Y-76173438D01*
X133210256Y-76194062D01*
X133210254Y-76194064D01*
X133210253Y-76194064D01*
X132991516Y-76412801D01*
X132991516Y-76412802D01*
X132991514Y-76412804D01*
X132980345Y-76429520D01*
X132950126Y-76474746D01*
X132930683Y-76572487D01*
X132950125Y-76670227D01*
X132991513Y-76732169D01*
X133061499Y-76802155D01*
X133083173Y-76854481D01*
X133061499Y-76906806D01*
X133009521Y-76958784D01*
X132956795Y-77050108D01*
X132956791Y-77050117D01*
X132929500Y-77151970D01*
X132929500Y-77220052D01*
X132907826Y-77272378D01*
X132907801Y-77272403D01*
X132759385Y-77420677D01*
X132759384Y-77420678D01*
X132703232Y-77476776D01*
X132679252Y-77492791D01*
X132656718Y-77502125D01*
X132656715Y-77502127D01*
X132576873Y-77581969D01*
X132573983Y-77579079D01*
X132538658Y-77602653D01*
X132483116Y-77591571D01*
X132471890Y-77582343D01*
X132466592Y-77577035D01*
X132466501Y-77576815D01*
X132397120Y-77507434D01*
X132386475Y-77481668D01*
X132375494Y-77455157D01*
X132375508Y-77455122D01*
X132375494Y-77455088D01*
X132386254Y-77429179D01*
X132397167Y-77402832D01*
X132600000Y-77200000D01*
X132547826Y-77173913D01*
X132510718Y-77131127D01*
X132507788Y-77113072D01*
X132506921Y-77108711D01*
X132466501Y-77011129D01*
X132386660Y-76931288D01*
X132387875Y-76930072D01*
X132360921Y-76889729D01*
X132359500Y-76875296D01*
X132359500Y-75471063D01*
X132359563Y-75470911D01*
X132359500Y-75421083D01*
X132359500Y-75371572D01*
X132359499Y-75371571D01*
X132359491Y-75371528D01*
X132359480Y-75371475D01*
X132359437Y-75371259D01*
X132359437Y-75371256D01*
X132340464Y-75325615D01*
X132333902Y-75309773D01*
X132321365Y-75279504D01*
X132321186Y-75279237D01*
X132286327Y-75244466D01*
X132246087Y-75204226D01*
X132245513Y-75203755D01*
X132183240Y-75141639D01*
X132161500Y-75089340D01*
X132161500Y-74491969D01*
X132183174Y-74439643D01*
X132235500Y-74417969D01*
X132258855Y-74421751D01*
X132265986Y-74424122D01*
X132307241Y-74447941D01*
X132337597Y-74447941D01*
X132348968Y-74451723D01*
X132362004Y-74463014D01*
X132377939Y-74469615D01*
X132453553Y-74545229D01*
X132529167Y-74469615D01*
X132581493Y-74447941D01*
X132599864Y-74447941D01*
X132599865Y-74447941D01*
X132669574Y-74407695D01*
X132740285Y-74336984D01*
X132780531Y-74267275D01*
X132780531Y-74248903D01*
X132802205Y-74196577D01*
X132877818Y-74120964D01*
X132877817Y-74120963D01*
X132879089Y-74119692D01*
X132899492Y-74070436D01*
X132951818Y-74048762D01*
X133004128Y-74070421D01*
G37*
%TD.AperFunction*%
%TD*%
%TA.AperFunction,Conductor*%
%TO.N,/VSYS*%
G36*
X126658484Y-83346669D02*
G01*
X126708337Y-83360026D01*
X126720151Y-83364920D01*
X126764848Y-83390726D01*
X126774995Y-83398512D01*
X126811486Y-83435003D01*
X126819273Y-83445151D01*
X126845078Y-83489847D01*
X126849973Y-83501664D01*
X126863330Y-83551509D01*
X126865000Y-83564192D01*
X126865000Y-83615803D01*
X126863330Y-83628486D01*
X126849971Y-83678340D01*
X126845078Y-83690154D01*
X126833184Y-83710756D01*
X126817652Y-83748258D01*
X126807740Y-83785247D01*
X126807735Y-83785266D01*
X126803770Y-83805199D01*
X126803770Y-83805204D01*
X126814276Y-83885005D01*
X126814276Y-83885007D01*
X126814277Y-83885008D01*
X126835951Y-83937334D01*
X126856248Y-83972490D01*
X126909754Y-84013546D01*
X126920107Y-84021490D01*
X126972433Y-84043164D01*
X126972442Y-84043166D01*
X127031934Y-84055000D01*
X127031940Y-84055001D01*
X127187718Y-84055001D01*
X127222366Y-84069353D01*
X127236718Y-84104001D01*
X127236703Y-84105196D01*
X127231160Y-84332409D01*
X127215968Y-84366697D01*
X127182396Y-84380214D01*
X125068728Y-84389735D01*
X125034015Y-84375539D01*
X125019511Y-84341355D01*
X125018924Y-84295037D01*
X125016830Y-84129618D01*
X125030742Y-84094793D01*
X125065206Y-84080004D01*
X125065826Y-84080000D01*
X125425500Y-84080000D01*
X125485007Y-84068163D01*
X125537333Y-84046489D01*
X125572489Y-84026192D01*
X125621489Y-83962333D01*
X125643163Y-83910007D01*
X125655000Y-83850500D01*
X125655000Y-83574194D01*
X125656669Y-83561513D01*
X125657530Y-83558299D01*
X125670027Y-83511656D01*
X125674918Y-83499848D01*
X125700728Y-83455145D01*
X125708508Y-83445006D01*
X125745006Y-83408508D01*
X125755145Y-83400728D01*
X125799848Y-83374918D01*
X125811657Y-83370027D01*
X125861514Y-83356669D01*
X125874195Y-83355000D01*
X125925803Y-83355000D01*
X125938484Y-83356669D01*
X125988337Y-83370026D01*
X126000151Y-83374920D01*
X126044848Y-83400726D01*
X126054995Y-83408512D01*
X126092719Y-83446236D01*
X126092723Y-83446239D01*
X126106060Y-83455150D01*
X126143167Y-83479944D01*
X126195493Y-83501618D01*
X126234703Y-83512125D01*
X126314507Y-83501618D01*
X126366833Y-83479944D01*
X126417282Y-83446235D01*
X126465004Y-83398510D01*
X126475148Y-83390726D01*
X126519848Y-83364919D01*
X126531657Y-83360027D01*
X126581514Y-83346669D01*
X126594195Y-83345000D01*
X126645803Y-83345000D01*
X126658484Y-83346669D01*
G37*
%TD.AperFunction*%
%TD*%
%TA.AperFunction,Conductor*%
%TO.N,/VSYS*%
G36*
X127693039Y-69619685D02*
G01*
X127738794Y-69672489D01*
X127750000Y-69724000D01*
X127750000Y-72726000D01*
X127730315Y-72793039D01*
X127677511Y-72838794D01*
X127626000Y-72850000D01*
X126374000Y-72850000D01*
X126306961Y-72830315D01*
X126261206Y-72777511D01*
X126250000Y-72726000D01*
X126250000Y-69724000D01*
X126269685Y-69656961D01*
X126322489Y-69611206D01*
X126374000Y-69600000D01*
X127626000Y-69600000D01*
X127693039Y-69619685D01*
G37*
%TD.AperFunction*%
%TD*%
%TA.AperFunction,Conductor*%
%TO.N,GND*%
G36*
X142065900Y-84847600D02*
G01*
X137408400Y-84847600D01*
X137408400Y-79668711D01*
X137428924Y-79617561D01*
X138028850Y-78990365D01*
X138072663Y-78968150D01*
X138109173Y-78963344D01*
X138161499Y-78941670D01*
X138211947Y-78907962D01*
X139588281Y-77531629D01*
X139621989Y-77481181D01*
X139643663Y-77428855D01*
X139655500Y-77369348D01*
X139655500Y-72936000D01*
X139643663Y-72876493D01*
X139621989Y-72824167D01*
X139601692Y-72789011D01*
X139598150Y-72786293D01*
X139569833Y-72737244D01*
X139569200Y-72727586D01*
X139569200Y-72655600D01*
X139569200Y-71944400D01*
X142065900Y-71944400D01*
X142065900Y-84847600D01*
G37*
%TD.AperFunction*%
%TD*%
%TA.AperFunction,Conductor*%
%TO.N,GND*%
G36*
X131249822Y-98539079D02*
G01*
X131267532Y-98569753D01*
X131267639Y-98569709D01*
X131267973Y-98570517D01*
X131268973Y-98572248D01*
X131269491Y-98574181D01*
X131269495Y-98574191D01*
X131322220Y-98665513D01*
X131389026Y-98732319D01*
X131410700Y-98784645D01*
X131410700Y-100990300D01*
X131389026Y-101042626D01*
X131336700Y-101064300D01*
X131281580Y-101064300D01*
X131259629Y-101068666D01*
X131237677Y-101073033D01*
X131187896Y-101106295D01*
X131187895Y-101106296D01*
X131157929Y-101151145D01*
X131110837Y-101182611D01*
X131055288Y-101171562D01*
X131034871Y-101151145D01*
X131004904Y-101106296D01*
X131004903Y-101106295D01*
X130955122Y-101073033D01*
X130911220Y-101064300D01*
X130911219Y-101064300D01*
X130785700Y-101064300D01*
X130733374Y-101042626D01*
X130711700Y-100990300D01*
X130711700Y-99003202D01*
X130733374Y-98950876D01*
X130936138Y-98748112D01*
X131145171Y-98539078D01*
X131197496Y-98517405D01*
X131249822Y-98539079D01*
G37*
%TD.AperFunction*%
%TA.AperFunction,Conductor*%
G36*
X132192211Y-97951381D02*
G01*
X132222869Y-97971867D01*
X132281352Y-97983500D01*
X132281354Y-97983500D01*
X132420845Y-97983500D01*
X132420848Y-97983500D01*
X132462164Y-97975281D01*
X132517711Y-97986330D01*
X132549178Y-98033421D01*
X132550600Y-98047859D01*
X132550600Y-100990300D01*
X132528926Y-101042626D01*
X132476600Y-101064300D01*
X132381580Y-101064300D01*
X132359629Y-101068666D01*
X132337677Y-101073033D01*
X132287896Y-101106295D01*
X132287895Y-101106296D01*
X132257929Y-101151145D01*
X132210837Y-101182611D01*
X132155288Y-101171562D01*
X132134871Y-101151145D01*
X132104904Y-101106296D01*
X132104903Y-101106295D01*
X132055122Y-101073033D01*
X132011220Y-101064300D01*
X132011219Y-101064300D01*
X131885700Y-101064300D01*
X131833374Y-101042626D01*
X131811700Y-100990300D01*
X131811700Y-98827209D01*
X131833374Y-98774883D01*
X131848701Y-98763123D01*
X131858215Y-98757629D01*
X131888613Y-98740080D01*
X131963180Y-98665513D01*
X132015907Y-98574187D01*
X132043199Y-98472329D01*
X132043200Y-98472329D01*
X132043200Y-98366871D01*
X132043199Y-98366870D01*
X132015908Y-98265017D01*
X132015907Y-98265013D01*
X131963180Y-98173687D01*
X131899319Y-98109826D01*
X131877645Y-98057500D01*
X131899319Y-98005174D01*
X131951645Y-97983500D01*
X132020846Y-97983500D01*
X132020848Y-97983500D01*
X132079331Y-97971867D01*
X132109987Y-97951382D01*
X132165535Y-97940333D01*
X132192211Y-97951381D01*
G37*
%TD.AperFunction*%
%TA.AperFunction,Conductor*%
G36*
X133077924Y-98133474D02*
G01*
X133311321Y-98366870D01*
X133589026Y-98644575D01*
X133610700Y-98696901D01*
X133610700Y-100990300D01*
X133589026Y-101042626D01*
X133536700Y-101064300D01*
X133481580Y-101064300D01*
X133459629Y-101068666D01*
X133437677Y-101073033D01*
X133387896Y-101106295D01*
X133387895Y-101106296D01*
X133357929Y-101151145D01*
X133310837Y-101182611D01*
X133255288Y-101171562D01*
X133234871Y-101151145D01*
X133204904Y-101106296D01*
X133204903Y-101106295D01*
X133155122Y-101073033D01*
X133111220Y-101064300D01*
X133111219Y-101064300D01*
X133025600Y-101064300D01*
X132973274Y-101042626D01*
X132951600Y-100990300D01*
X132951600Y-98185801D01*
X132973274Y-98133475D01*
X133025600Y-98111801D01*
X133077924Y-98133474D01*
G37*
%TD.AperFunction*%
%TA.AperFunction,Conductor*%
G36*
X142044226Y-52502174D02*
G01*
X142065900Y-52554500D01*
X142065900Y-71944400D01*
X139569200Y-71944400D01*
X139569200Y-72655600D01*
X138283813Y-72655600D01*
X138274575Y-72651773D01*
X138264662Y-72653079D01*
X138249334Y-72641318D01*
X138231487Y-72633926D01*
X138219728Y-72618602D01*
X138209088Y-72600174D01*
X138209073Y-72600148D01*
X138182572Y-72554206D01*
X138182480Y-72554087D01*
X138145461Y-72517068D01*
X137672152Y-72043401D01*
X137650498Y-71991095D01*
X137650498Y-71580136D01*
X137647584Y-71555013D01*
X137647584Y-71555011D01*
X137647584Y-71555009D01*
X137602205Y-71452235D01*
X137522764Y-71372794D01*
X137419990Y-71327415D01*
X137419989Y-71327414D01*
X137419987Y-71327414D01*
X137398658Y-71324940D01*
X137394864Y-71324500D01*
X137394863Y-71324500D01*
X137005135Y-71324500D01*
X136980012Y-71327414D01*
X136980006Y-71327415D01*
X136877233Y-71372794D01*
X136797793Y-71452234D01*
X136752413Y-71555011D01*
X136749499Y-71580135D01*
X136749499Y-72092098D01*
X136749500Y-72581600D01*
X136727826Y-72633926D01*
X136675500Y-72655600D01*
X135824501Y-72655600D01*
X135772175Y-72633926D01*
X135750501Y-72581600D01*
X135750500Y-71580136D01*
X135747586Y-71555013D01*
X135747586Y-71555011D01*
X135747586Y-71555009D01*
X135702207Y-71452235D01*
X135669086Y-71419114D01*
X135647412Y-71366788D01*
X135669085Y-71314463D01*
X136269976Y-70713574D01*
X136300500Y-70639882D01*
X136300500Y-70560118D01*
X136300500Y-68113721D01*
X136300501Y-68113716D01*
X136300500Y-68113712D01*
X136310305Y-68090047D01*
X136322173Y-68061395D01*
X136361406Y-68022174D01*
X136423181Y-67960414D01*
X136475509Y-67938746D01*
X136527832Y-67960427D01*
X136549500Y-68012745D01*
X136549500Y-68138399D01*
X136564760Y-68215117D01*
X136564760Y-68215118D01*
X136587028Y-68248443D01*
X136599500Y-68289556D01*
X136599500Y-69609773D01*
X136599500Y-69715227D01*
X136626793Y-69817088D01*
X136626795Y-69817092D01*
X136679517Y-69908409D01*
X136679518Y-69908410D01*
X136679520Y-69908413D01*
X136727825Y-69956718D01*
X136749499Y-70009043D01*
X136749499Y-70419863D01*
X136752413Y-70444986D01*
X136752414Y-70444992D01*
X136775659Y-70497636D01*
X136797793Y-70547765D01*
X136877234Y-70627206D01*
X136980008Y-70672585D01*
X137005134Y-70675500D01*
X137394863Y-70675499D01*
X137419990Y-70672585D01*
X137522764Y-70627206D01*
X137602205Y-70547765D01*
X137647584Y-70444991D01*
X137650499Y-70419865D01*
X137650499Y-70099500D01*
X137672173Y-70047174D01*
X137724499Y-70025500D01*
X138071634Y-70025500D01*
X138123960Y-70047174D01*
X138138115Y-70067000D01*
X138140174Y-70071211D01*
X138228789Y-70159826D01*
X138341375Y-70214866D01*
X138414364Y-70225500D01*
X138414370Y-70225500D01*
X138985630Y-70225500D01*
X138985636Y-70225500D01*
X139058625Y-70214866D01*
X139171211Y-70159826D01*
X139259826Y-70071211D01*
X139314866Y-69958625D01*
X139325500Y-69885636D01*
X139325500Y-69364364D01*
X139314866Y-69291375D01*
X139259826Y-69178789D01*
X139171211Y-69090174D01*
X139171210Y-69090173D01*
X139058626Y-69035134D01*
X138985640Y-69024500D01*
X138985636Y-69024500D01*
X138414364Y-69024500D01*
X138414359Y-69024500D01*
X138341374Y-69035134D01*
X138341373Y-69035134D01*
X138228789Y-69090173D01*
X138140174Y-69178788D01*
X138138116Y-69182999D01*
X138095664Y-69220490D01*
X138071634Y-69224500D01*
X137671293Y-69224500D01*
X137618967Y-69202826D01*
X137603599Y-69180391D01*
X137602205Y-69177235D01*
X137522763Y-69097793D01*
X137444609Y-69063284D01*
X137405497Y-69022321D01*
X137400500Y-68995590D01*
X137400500Y-68289556D01*
X137412972Y-68248443D01*
X137422980Y-68233465D01*
X137435240Y-68215117D01*
X137450500Y-68138401D01*
X137450499Y-68138399D01*
X137451209Y-68134835D01*
X137452577Y-68135107D01*
X137471680Y-68094712D01*
X137640480Y-67925913D01*
X137641414Y-67924294D01*
X137642161Y-67923721D01*
X137643435Y-67922062D01*
X137643879Y-67922403D01*
X137649347Y-67918207D01*
X137653174Y-67908969D01*
X137671022Y-67901576D01*
X137686347Y-67889817D01*
X137696260Y-67891122D01*
X137705500Y-67887295D01*
X137723347Y-67894687D01*
X137742500Y-67897209D01*
X137748587Y-67905142D01*
X137757826Y-67908969D01*
X137765218Y-67926817D01*
X137776978Y-67942142D01*
X137779500Y-67961295D01*
X137779500Y-68106278D01*
X137757826Y-68158604D01*
X137746612Y-68167807D01*
X137669399Y-68219398D01*
X137669398Y-68219399D01*
X137614034Y-68302259D01*
X137606767Y-68338793D01*
X137599500Y-68375326D01*
X137599500Y-68624674D01*
X137614034Y-68697740D01*
X137669399Y-68780601D01*
X137752260Y-68835966D01*
X137825326Y-68850500D01*
X137825328Y-68850500D01*
X138134672Y-68850500D01*
X138134674Y-68850500D01*
X138207740Y-68835966D01*
X138258889Y-68801789D01*
X138314437Y-68790741D01*
X138341109Y-68801789D01*
X138392260Y-68835966D01*
X138465326Y-68850500D01*
X138465328Y-68850500D01*
X138774672Y-68850500D01*
X138774674Y-68850500D01*
X138847740Y-68835966D01*
X138930601Y-68780601D01*
X138962147Y-68733389D01*
X138968448Y-68729177D01*
X138971350Y-68722174D01*
X138991292Y-68713913D01*
X139009238Y-68701922D01*
X139023676Y-68700500D01*
X139088884Y-68700500D01*
X139141210Y-68722174D01*
X139152969Y-68737499D01*
X139158520Y-68747113D01*
X139233087Y-68821680D01*
X139324413Y-68874407D01*
X139426270Y-68901699D01*
X139426271Y-68901700D01*
X139426273Y-68901700D01*
X139531729Y-68901700D01*
X139531729Y-68901699D01*
X139633587Y-68874407D01*
X139724913Y-68821680D01*
X139799480Y-68747113D01*
X139852207Y-68655787D01*
X139879499Y-68553929D01*
X139879500Y-68553929D01*
X139879500Y-68448471D01*
X139879499Y-68448470D01*
X139866645Y-68400499D01*
X139852207Y-68346613D01*
X139799480Y-68255287D01*
X139724913Y-68180720D01*
X139686607Y-68158604D01*
X139633591Y-68127995D01*
X139633582Y-68127991D01*
X139531729Y-68100700D01*
X139531727Y-68100700D01*
X139426273Y-68100700D01*
X139426271Y-68100700D01*
X139324417Y-68127991D01*
X139324408Y-68127995D01*
X139233086Y-68180720D01*
X139158521Y-68255285D01*
X139158520Y-68255287D01*
X139154355Y-68262500D01*
X139146422Y-68268587D01*
X139142596Y-68277826D01*
X139124749Y-68285218D01*
X139109424Y-68296978D01*
X139090270Y-68299500D01*
X139023676Y-68299500D01*
X138971350Y-68277826D01*
X138962147Y-68266611D01*
X138930603Y-68219401D01*
X138930600Y-68219398D01*
X138847740Y-68164034D01*
X138820497Y-68158615D01*
X138774674Y-68149500D01*
X138465326Y-68149500D01*
X138428793Y-68156767D01*
X138392258Y-68164034D01*
X138341111Y-68198209D01*
X138326675Y-68201080D01*
X138314437Y-68209258D01*
X138299999Y-68206386D01*
X138285562Y-68209258D01*
X138258888Y-68198209D01*
X138213388Y-68167807D01*
X138181922Y-68120715D01*
X138180500Y-68106278D01*
X138180500Y-67660118D01*
X138180499Y-67660116D01*
X138168115Y-67630219D01*
X138161755Y-67614863D01*
X138149977Y-67586428D01*
X138149975Y-67586425D01*
X138073575Y-67510025D01*
X138073571Y-67510022D01*
X137999882Y-67479500D01*
X137794500Y-67479500D01*
X137742174Y-67457826D01*
X137720500Y-67405500D01*
X137720500Y-67286506D01*
X137730415Y-67249505D01*
X137763907Y-67191495D01*
X137773207Y-67175388D01*
X137800500Y-67073527D01*
X137800500Y-67068639D01*
X137810414Y-67031639D01*
X137850207Y-66962716D01*
X137877499Y-66860858D01*
X137877500Y-66860858D01*
X137877500Y-66258342D01*
X137877499Y-66258341D01*
X137877136Y-66256988D01*
X137850207Y-66156484D01*
X137797480Y-66065158D01*
X137797282Y-66064960D01*
X137797141Y-66064716D01*
X137794527Y-66061309D01*
X137794975Y-66060964D01*
X137778130Y-66031787D01*
X137773207Y-66013412D01*
X137731927Y-65941913D01*
X137720482Y-65922090D01*
X137720481Y-65922089D01*
X137720480Y-65922087D01*
X137350174Y-65551781D01*
X137328500Y-65499455D01*
X137328500Y-65287671D01*
X137328499Y-65287670D01*
X137301208Y-65185817D01*
X137301207Y-65185813D01*
X137248480Y-65094487D01*
X137173913Y-65019920D01*
X137082591Y-64967195D01*
X137082582Y-64967191D01*
X136980729Y-64939900D01*
X136980727Y-64939900D01*
X136875273Y-64939900D01*
X136875271Y-64939900D01*
X136773417Y-64967191D01*
X136773408Y-64967195D01*
X136682086Y-65019920D01*
X136607520Y-65094486D01*
X136554795Y-65185808D01*
X136554791Y-65185817D01*
X136527500Y-65287670D01*
X136527500Y-65287673D01*
X136527500Y-65643273D01*
X136527500Y-65748727D01*
X136554793Y-65850588D01*
X136554795Y-65850592D01*
X136607517Y-65941909D01*
X136607518Y-65941910D01*
X136607520Y-65941913D01*
X136679014Y-66013407D01*
X136736375Y-66070768D01*
X136758049Y-66123094D01*
X136736375Y-66175420D01*
X136721049Y-66187180D01*
X136631086Y-66239120D01*
X136556520Y-66313686D01*
X136503795Y-66405008D01*
X136503791Y-66405017D01*
X136476500Y-66506870D01*
X136476500Y-66612329D01*
X136503791Y-66714182D01*
X136503792Y-66714185D01*
X136503793Y-66714187D01*
X136556520Y-66805513D01*
X136631087Y-66880080D01*
X136639500Y-66884937D01*
X136673978Y-66929870D01*
X136676500Y-66949023D01*
X136676500Y-67109476D01*
X136654826Y-67161802D01*
X136654819Y-67161809D01*
X135990663Y-67825793D01*
X135990662Y-67825792D01*
X135986432Y-67830020D01*
X135986426Y-67830024D01*
X135965796Y-67850652D01*
X135964256Y-67852193D01*
X135957300Y-67859149D01*
X135930028Y-67886414D01*
X135914616Y-67923621D01*
X135914614Y-67923626D01*
X135899502Y-67960096D01*
X135899500Y-67960107D01*
X135899500Y-67960118D01*
X135899500Y-67999974D01*
X135899495Y-68039856D01*
X135899500Y-68039868D01*
X135899500Y-70486298D01*
X135877826Y-70538624D01*
X135877825Y-70538625D01*
X135850499Y-70565950D01*
X135798173Y-70587623D01*
X135745847Y-70565948D01*
X135724174Y-70513622D01*
X135730477Y-70483737D01*
X135747586Y-70444991D01*
X135750501Y-70419865D01*
X135750500Y-69305136D01*
X135747586Y-69280009D01*
X135702207Y-69177235D01*
X135622766Y-69097794D01*
X135519992Y-69052415D01*
X135519991Y-69052414D01*
X135519989Y-69052414D01*
X135498660Y-69049940D01*
X135494866Y-69049500D01*
X135494865Y-69049500D01*
X135105137Y-69049500D01*
X135080014Y-69052414D01*
X135080008Y-69052415D01*
X134977235Y-69097794D01*
X134897795Y-69177234D01*
X134852415Y-69280011D01*
X134849501Y-69305135D01*
X134849501Y-69655500D01*
X134827827Y-69707826D01*
X134775501Y-69729500D01*
X134460313Y-69729500D01*
X134455925Y-69727682D01*
X134451350Y-69728955D01*
X134435596Y-69719262D01*
X134407987Y-69707826D01*
X134402034Y-69701103D01*
X134400328Y-69698923D01*
X134380601Y-69669399D01*
X134373527Y-69664672D01*
X134366221Y-69655335D01*
X134361566Y-69638598D01*
X134351919Y-69624153D01*
X134350500Y-69609732D01*
X134350500Y-69230172D01*
X134350499Y-69230170D01*
X134348150Y-69224500D01*
X134328573Y-69177235D01*
X134309575Y-69131369D01*
X134310531Y-69130972D01*
X134300500Y-69097899D01*
X134300500Y-68975327D01*
X134300500Y-68975326D01*
X134285966Y-68902260D01*
X134230601Y-68819399D01*
X134147740Y-68764034D01*
X134074674Y-68749500D01*
X133765326Y-68749500D01*
X133716615Y-68759189D01*
X133692259Y-68764034D01*
X133609399Y-68819398D01*
X133609398Y-68819399D01*
X133554034Y-68902259D01*
X133554034Y-68902260D01*
X133539500Y-68975326D01*
X133539500Y-69224674D01*
X133550508Y-69280013D01*
X133554034Y-69297740D01*
X133609398Y-69380600D01*
X133609399Y-69380601D01*
X133663197Y-69416547D01*
X133694663Y-69463639D01*
X133683614Y-69519188D01*
X133636522Y-69550654D01*
X133607593Y-69549708D01*
X133607538Y-69550133D01*
X133603226Y-69549565D01*
X133602936Y-69549556D01*
X133602727Y-69549500D01*
X133497273Y-69549500D01*
X133497271Y-69549500D01*
X133395417Y-69576791D01*
X133395408Y-69576795D01*
X133304086Y-69629520D01*
X133229520Y-69704086D01*
X133176795Y-69795408D01*
X133176791Y-69795417D01*
X133149500Y-69897270D01*
X133148867Y-69902080D01*
X133145805Y-69901677D01*
X133127826Y-69945084D01*
X133123234Y-69949304D01*
X133114444Y-69956723D01*
X133088103Y-69967636D01*
X133017636Y-70038103D01*
X133017635Y-70038104D01*
X133015436Y-70040302D01*
X133015430Y-70040308D01*
X132887637Y-70168101D01*
X132887634Y-70168105D01*
X132868367Y-70214622D01*
X132848686Y-70234302D01*
X132829262Y-70254273D01*
X132828709Y-70254280D01*
X132828319Y-70254671D01*
X132800476Y-70254671D01*
X132772630Y-70255056D01*
X132772240Y-70254671D01*
X132771682Y-70254671D01*
X132732031Y-70215566D01*
X132731838Y-70215118D01*
X132712364Y-70168103D01*
X132711017Y-70166756D01*
X132707531Y-70158658D01*
X132707395Y-70148830D01*
X132701500Y-70129396D01*
X132701500Y-69175472D01*
X132701499Y-69175470D01*
X132663365Y-69083405D01*
X132663363Y-69083402D01*
X132432174Y-68852213D01*
X132410500Y-68799887D01*
X132410500Y-66538017D01*
X132409500Y-66527856D01*
X132409500Y-62241995D01*
X132431174Y-62189669D01*
X132464344Y-62170517D01*
X132500587Y-62160807D01*
X132591913Y-62108080D01*
X132666480Y-62033513D01*
X132719207Y-61942187D01*
X132746499Y-61840329D01*
X132746500Y-61840329D01*
X132746500Y-61734871D01*
X132746499Y-61734870D01*
X132728703Y-61668453D01*
X132736095Y-61612300D01*
X132781028Y-61577822D01*
X132800181Y-61575300D01*
X133835481Y-61575300D01*
X133887802Y-61596969D01*
X134676821Y-62385839D01*
X134698500Y-62438163D01*
X134698500Y-63714119D01*
X134698345Y-63766341D01*
X134698500Y-63766926D01*
X134698500Y-63767527D01*
X134711960Y-63817763D01*
X134725337Y-63868282D01*
X134725338Y-63868284D01*
X134725340Y-63868290D01*
X134725549Y-63868801D01*
X134725551Y-63868804D01*
X134725629Y-63868993D01*
X134725785Y-63869373D01*
X134751749Y-63914345D01*
X134751807Y-63914561D01*
X134751857Y-63914533D01*
X134777795Y-63959766D01*
X134778142Y-63960220D01*
X134778323Y-63960456D01*
X134778431Y-63960599D01*
X134780562Y-63963392D01*
X134780660Y-63963504D01*
X134781454Y-63964538D01*
X134780121Y-63965561D01*
X134799500Y-64012345D01*
X134799500Y-64560300D01*
X134777826Y-64612626D01*
X134725500Y-64634300D01*
X134705326Y-64634300D01*
X134656615Y-64643989D01*
X134632259Y-64648834D01*
X134549399Y-64704198D01*
X134549398Y-64704199D01*
X134494034Y-64787059D01*
X134494034Y-64787060D01*
X134479500Y-64860126D01*
X134479500Y-65109474D01*
X134494034Y-65182540D01*
X134549399Y-65265401D01*
X134632260Y-65320766D01*
X134705326Y-65335300D01*
X134725500Y-65335300D01*
X134777826Y-65356974D01*
X134799500Y-65409300D01*
X134799500Y-65906039D01*
X134777861Y-65958330D01*
X134616955Y-66119449D01*
X134616882Y-66119524D01*
X134579520Y-66156887D01*
X134579451Y-66157004D01*
X134579356Y-66157101D01*
X134579278Y-66157235D01*
X134579277Y-66157237D01*
X134552971Y-66202866D01*
X134552972Y-66202867D01*
X134552936Y-66202930D01*
X134526793Y-66248213D01*
X134526758Y-66248342D01*
X134526690Y-66248461D01*
X134526674Y-66248517D01*
X134526673Y-66248521D01*
X134513088Y-66299356D01*
X134513076Y-66299405D01*
X134499500Y-66350073D01*
X134499500Y-66350209D01*
X134499465Y-66350340D01*
X134499500Y-66403067D01*
X134499500Y-67710442D01*
X134487029Y-67751553D01*
X134464760Y-67784881D01*
X134456622Y-67825793D01*
X134449988Y-67859149D01*
X134449500Y-67861600D01*
X134449500Y-68138399D01*
X134464760Y-68215117D01*
X134521142Y-68299500D01*
X134522888Y-68302112D01*
X134609883Y-68360240D01*
X134686599Y-68375500D01*
X134744229Y-68375499D01*
X134763382Y-68378021D01*
X134847270Y-68400499D01*
X134847271Y-68400500D01*
X134847273Y-68400500D01*
X134952727Y-68400500D01*
X135036624Y-68378020D01*
X135055776Y-68375499D01*
X135113399Y-68375499D01*
X135113400Y-68375499D01*
X135190117Y-68360240D01*
X135277112Y-68302112D01*
X135335240Y-68215117D01*
X135350500Y-68138401D01*
X135350499Y-67861600D01*
X135335240Y-67784883D01*
X135335238Y-67784881D01*
X135335238Y-67784879D01*
X135312971Y-67751553D01*
X135300500Y-67710442D01*
X135300500Y-66599159D01*
X135322139Y-66546868D01*
X135331238Y-66537757D01*
X135483117Y-66385675D01*
X135520480Y-66348313D01*
X135520548Y-66348195D01*
X135520644Y-66348099D01*
X135522678Y-66344569D01*
X135522680Y-66344568D01*
X135547064Y-66302269D01*
X135547074Y-66302274D01*
X135547087Y-66302227D01*
X135573207Y-66256987D01*
X135573207Y-66256983D01*
X135573308Y-66256743D01*
X135573308Y-66256741D01*
X135573310Y-66256739D01*
X135586923Y-66205794D01*
X135586928Y-66205795D01*
X135586934Y-66205751D01*
X135600500Y-66155127D01*
X135600500Y-66154990D01*
X135600535Y-66154860D01*
X135600500Y-66102133D01*
X135600500Y-65272073D01*
X135600500Y-63816909D01*
X135600654Y-63764859D01*
X135600653Y-63764855D01*
X135600600Y-63764442D01*
X135600577Y-63764263D01*
X135600547Y-63764031D01*
X135600501Y-63763680D01*
X135600500Y-63763676D01*
X135600500Y-63763673D01*
X135586997Y-63713279D01*
X135586997Y-63713278D01*
X135586996Y-63713273D01*
X135586945Y-63713083D01*
X135573663Y-63662918D01*
X135573370Y-63662409D01*
X135573217Y-63661835D01*
X135573211Y-63661821D01*
X135573207Y-63661814D01*
X135573207Y-63661813D01*
X135547109Y-63616610D01*
X135547091Y-63616578D01*
X135521208Y-63571439D01*
X135520616Y-63570664D01*
X135520603Y-63570647D01*
X135518392Y-63567749D01*
X135518305Y-63567650D01*
X135517514Y-63566618D01*
X135518857Y-63565588D01*
X135499500Y-63518855D01*
X135499500Y-62294307D01*
X135499505Y-62294289D01*
X135499500Y-62241562D01*
X135499500Y-62188873D01*
X135499495Y-62188836D01*
X135494584Y-62170516D01*
X135485949Y-62138300D01*
X135472207Y-62087013D01*
X135472201Y-62087003D01*
X135472194Y-62086984D01*
X135472192Y-62086977D01*
X135445582Y-62040898D01*
X135445582Y-62040897D01*
X135445577Y-62040890D01*
X135419479Y-61995685D01*
X135419456Y-61995656D01*
X135382115Y-61958321D01*
X135382111Y-61958317D01*
X135382110Y-61958317D01*
X135376321Y-61952528D01*
X135344913Y-61921120D01*
X135344899Y-61921112D01*
X135341570Y-61917783D01*
X135341561Y-61917775D01*
X134859935Y-61436239D01*
X134810501Y-61386814D01*
X137079500Y-61386814D01*
X137079500Y-61563185D01*
X137107089Y-61737381D01*
X137107092Y-61737394D01*
X137161589Y-61905117D01*
X137241661Y-62062270D01*
X137345326Y-62204952D01*
X137345330Y-62204957D01*
X137470043Y-62329670D01*
X137470046Y-62329672D01*
X137470047Y-62329673D01*
X137612729Y-62433338D01*
X137688474Y-62471931D01*
X137769877Y-62513408D01*
X137769879Y-62513408D01*
X137769882Y-62513410D01*
X137937605Y-62567907D01*
X137937611Y-62567908D01*
X137937616Y-62567910D01*
X138053748Y-62586303D01*
X138111814Y-62595500D01*
X138111815Y-62595500D01*
X138288186Y-62595500D01*
X138331734Y-62588602D01*
X138462384Y-62567910D01*
X138462391Y-62567907D01*
X138462394Y-62567907D01*
X138630117Y-62513410D01*
X138630117Y-62513409D01*
X138630123Y-62513408D01*
X138787270Y-62433338D01*
X138929957Y-62329670D01*
X139054670Y-62204957D01*
X139158338Y-62062270D01*
X139238408Y-61905123D01*
X139291982Y-61740240D01*
X139292907Y-61737394D01*
X139292907Y-61737391D01*
X139292910Y-61737384D01*
X139320500Y-61563185D01*
X139320500Y-61386815D01*
X139292910Y-61212616D01*
X139292908Y-61212611D01*
X139292907Y-61212605D01*
X139238410Y-61044882D01*
X139238408Y-61044879D01*
X139238408Y-61044877D01*
X139196931Y-60963474D01*
X139158338Y-60887729D01*
X139054673Y-60745047D01*
X139054672Y-60745046D01*
X139054670Y-60745043D01*
X138929957Y-60620330D01*
X138929954Y-60620327D01*
X138929952Y-60620326D01*
X138787270Y-60516661D01*
X138630117Y-60436589D01*
X138462394Y-60382092D01*
X138462381Y-60382089D01*
X138288186Y-60354500D01*
X138288185Y-60354500D01*
X138111815Y-60354500D01*
X138111814Y-60354500D01*
X137937618Y-60382089D01*
X137937605Y-60382092D01*
X137769882Y-60436589D01*
X137612729Y-60516661D01*
X137470047Y-60620326D01*
X137345326Y-60745047D01*
X137241661Y-60887729D01*
X137161589Y-61044882D01*
X137107092Y-61212605D01*
X137107089Y-61212618D01*
X137079500Y-61386814D01*
X134810501Y-61386814D01*
X134313327Y-60889734D01*
X134311322Y-60887729D01*
X134277913Y-60854320D01*
X134277898Y-60854311D01*
X134277884Y-60854297D01*
X134254118Y-60840579D01*
X134232017Y-60827822D01*
X134211255Y-60815835D01*
X134186805Y-60801718D01*
X134186804Y-60801716D01*
X134186595Y-60801593D01*
X134186567Y-60801582D01*
X134137103Y-60788333D01*
X134137099Y-60788330D01*
X134137099Y-60788332D01*
X134084722Y-60774298D01*
X134084697Y-60774295D01*
X134084689Y-60774295D01*
X134037820Y-60774299D01*
X134031961Y-60774300D01*
X132631060Y-60774300D01*
X132578734Y-60752626D01*
X132557060Y-60700300D01*
X132578734Y-60647974D01*
X132594059Y-60636215D01*
X132597698Y-60634113D01*
X132601913Y-60631680D01*
X132676480Y-60557113D01*
X132729207Y-60465787D01*
X132756499Y-60363929D01*
X132756500Y-60363929D01*
X132756500Y-60258471D01*
X132756499Y-60258470D01*
X132731208Y-60164083D01*
X132729207Y-60156613D01*
X132676480Y-60065287D01*
X132628174Y-60016981D01*
X132606500Y-59964655D01*
X132606500Y-59294500D01*
X132628174Y-59242174D01*
X132680500Y-59220500D01*
X133209219Y-59220500D01*
X133209220Y-59220500D01*
X133253122Y-59211767D01*
X133302904Y-59178504D01*
X133336167Y-59128722D01*
X133344900Y-59084820D01*
X133344900Y-56555180D01*
X133336167Y-56511278D01*
X133302904Y-56461496D01*
X133253122Y-56428233D01*
X133209220Y-56419500D01*
X132079580Y-56419500D01*
X132057629Y-56423866D01*
X132035677Y-56428233D01*
X131985896Y-56461495D01*
X131985895Y-56461496D01*
X131952633Y-56511277D01*
X131943900Y-56555180D01*
X131943900Y-58586627D01*
X131922226Y-58638953D01*
X131869900Y-58660627D01*
X131817584Y-58638962D01*
X131366584Y-58188125D01*
X131344900Y-58135803D01*
X131344900Y-56555180D01*
X131336167Y-56511278D01*
X131302904Y-56461496D01*
X131253122Y-56428233D01*
X131209220Y-56419500D01*
X130079580Y-56419500D01*
X130057629Y-56423866D01*
X130035677Y-56428233D01*
X129985896Y-56461495D01*
X129985895Y-56461496D01*
X129952633Y-56511277D01*
X129952633Y-56511278D01*
X129943900Y-56555180D01*
X129943900Y-59084820D01*
X129952633Y-59128722D01*
X129985896Y-59178504D01*
X130035678Y-59211767D01*
X130079580Y-59220500D01*
X130079581Y-59220500D01*
X131209219Y-59220500D01*
X131209220Y-59220500D01*
X131253122Y-59211767D01*
X131302904Y-59178504D01*
X131336167Y-59128722D01*
X131344900Y-59084820D01*
X131344900Y-59053447D01*
X131355677Y-59027428D01*
X131366564Y-59001131D01*
X131366571Y-59001128D01*
X131366574Y-59001121D01*
X131392857Y-58990234D01*
X131418886Y-58979447D01*
X131418893Y-58979449D01*
X131418900Y-58979447D01*
X131471214Y-59001110D01*
X131473816Y-59003711D01*
X131495500Y-59056032D01*
X131495500Y-59964655D01*
X131473826Y-60016981D01*
X131425520Y-60065286D01*
X131372795Y-60156608D01*
X131372791Y-60156617D01*
X131345500Y-60258470D01*
X131345500Y-60363929D01*
X131372791Y-60465782D01*
X131372795Y-60465791D01*
X131425520Y-60557113D01*
X131500087Y-60631680D01*
X131507941Y-60636215D01*
X131542419Y-60681148D01*
X131535025Y-60737301D01*
X131490092Y-60771779D01*
X131470940Y-60774300D01*
X129506472Y-60774300D01*
X129454160Y-60752639D01*
X128566188Y-59865123D01*
X128544500Y-59812803D01*
X128544500Y-59294500D01*
X128566174Y-59242174D01*
X128618500Y-59220500D01*
X128709219Y-59220500D01*
X128709220Y-59220500D01*
X128753122Y-59211767D01*
X128802904Y-59178504D01*
X128836167Y-59128722D01*
X128844900Y-59084820D01*
X128844900Y-56555180D01*
X128836167Y-56511278D01*
X128802904Y-56461496D01*
X128753122Y-56428233D01*
X128709220Y-56419500D01*
X127579580Y-56419500D01*
X127557629Y-56423866D01*
X127535677Y-56428233D01*
X127485896Y-56461495D01*
X127485895Y-56461496D01*
X127452633Y-56511277D01*
X127452633Y-56511278D01*
X127443900Y-56555180D01*
X127443900Y-59084820D01*
X127452633Y-59128722D01*
X127485896Y-59178504D01*
X127535678Y-59211767D01*
X127579580Y-59220500D01*
X127669500Y-59220500D01*
X127721826Y-59242174D01*
X127743500Y-59294500D01*
X127743500Y-59956723D01*
X127743486Y-59956776D01*
X127743500Y-60011455D01*
X127743500Y-60062143D01*
X127743511Y-60062222D01*
X127757449Y-60114186D01*
X127757451Y-60114205D01*
X127757453Y-60114205D01*
X127770791Y-60163983D01*
X127770832Y-60164083D01*
X127770833Y-60164084D01*
X127797495Y-60210237D01*
X127823520Y-60255313D01*
X127823557Y-60255350D01*
X127823583Y-60255395D01*
X127860456Y-60292249D01*
X127860463Y-60292267D01*
X127860469Y-60292262D01*
X127860470Y-60292263D01*
X127898087Y-60329880D01*
X127898089Y-60329881D01*
X127901427Y-60333219D01*
X127901586Y-60333358D01*
X128340233Y-60771779D01*
X128965212Y-61396435D01*
X128986900Y-61448755D01*
X128986900Y-61740240D01*
X128997534Y-61813225D01*
X128997534Y-61813226D01*
X129052573Y-61925810D01*
X129052574Y-61925811D01*
X129141189Y-62014426D01*
X129253775Y-62069466D01*
X129326764Y-62080100D01*
X129326770Y-62080100D01*
X129898030Y-62080100D01*
X129898036Y-62080100D01*
X129971025Y-62069466D01*
X130083611Y-62014426D01*
X130172226Y-61925811D01*
X130227266Y-61813225D01*
X130237900Y-61740236D01*
X130237900Y-61649300D01*
X130259574Y-61596974D01*
X130311900Y-61575300D01*
X131288389Y-61575300D01*
X131340715Y-61596974D01*
X131362389Y-61649300D01*
X131359867Y-61668453D01*
X131345500Y-61722070D01*
X131345500Y-61827529D01*
X131372791Y-61929382D01*
X131372795Y-61929391D01*
X131411053Y-61995656D01*
X131425520Y-62020713D01*
X131500087Y-62095280D01*
X131571499Y-62136510D01*
X131605978Y-62181442D01*
X131608500Y-62200595D01*
X131608500Y-69108829D01*
X131646634Y-69200894D01*
X131646637Y-69200898D01*
X131877826Y-69432087D01*
X131899500Y-69484413D01*
X131899500Y-70127900D01*
X131889469Y-70160972D01*
X131890426Y-70161369D01*
X131849501Y-70260170D01*
X131849501Y-70260172D01*
X131849501Y-70460169D01*
X131849500Y-70460172D01*
X131849500Y-70559828D01*
X131849501Y-70559830D01*
X131849501Y-70759829D01*
X131887635Y-70851894D01*
X131887638Y-70851898D01*
X131958103Y-70922363D01*
X131958106Y-70922365D01*
X131977990Y-70930601D01*
X132050173Y-70960500D01*
X132050174Y-70960500D01*
X132149827Y-70960500D01*
X132149829Y-70960500D01*
X132207676Y-70936539D01*
X132264312Y-70936539D01*
X132288316Y-70952577D01*
X132358103Y-71022364D01*
X132450172Y-71060500D01*
X132450173Y-71060500D01*
X132549827Y-71060500D01*
X132549828Y-71060500D01*
X132549828Y-71060499D01*
X132556976Y-71059078D01*
X132557477Y-71061597D01*
X132557510Y-71061597D01*
X132566510Y-71056511D01*
X132584813Y-71061595D01*
X132603810Y-71061593D01*
X132611121Y-71068902D01*
X132621081Y-71071669D01*
X132627919Y-71085697D01*
X132643863Y-71101637D01*
X132648951Y-71120974D01*
X132649499Y-71125452D01*
X132649499Y-71159828D01*
X132655469Y-71174242D01*
X132656695Y-71184255D01*
X132651609Y-71202562D01*
X132651609Y-71221565D01*
X132644302Y-71228871D01*
X132641537Y-71238826D01*
X132624996Y-71248175D01*
X132611559Y-71261612D01*
X132601226Y-71261612D01*
X132592232Y-71266696D01*
X132573929Y-71261612D01*
X132554927Y-71261612D01*
X132549828Y-71259500D01*
X132549827Y-71259500D01*
X132450171Y-71259500D01*
X132358104Y-71297634D01*
X132352326Y-71303412D01*
X132300000Y-71325086D01*
X132247674Y-71303412D01*
X132241899Y-71297637D01*
X132241895Y-71297634D01*
X132149829Y-71259500D01*
X132050173Y-71259500D01*
X131958106Y-71297634D01*
X131887635Y-71368105D01*
X131849501Y-71460170D01*
X131849501Y-71854200D01*
X131849500Y-71854214D01*
X131849500Y-71959829D01*
X131890425Y-72058632D01*
X131888981Y-72059229D01*
X131898500Y-72090604D01*
X131898500Y-72390887D01*
X131876826Y-72443213D01*
X131397634Y-72922405D01*
X131359500Y-73014470D01*
X131359500Y-73014472D01*
X131359500Y-75298802D01*
X131359449Y-75298926D01*
X131359500Y-75349246D01*
X131359500Y-75398334D01*
X131359503Y-75398349D01*
X131359502Y-75398349D01*
X131359548Y-75398578D01*
X131378567Y-75444359D01*
X131378596Y-75444430D01*
X131397635Y-75490396D01*
X131397777Y-75490608D01*
X131432462Y-75525223D01*
X131472989Y-75565750D01*
X131473445Y-75566124D01*
X131502320Y-75594940D01*
X131535773Y-75628325D01*
X131557500Y-75680629D01*
X131557500Y-76875401D01*
X131536586Y-76926956D01*
X131528740Y-76935034D01*
X131525343Y-76936442D01*
X131450656Y-77011129D01*
X131447543Y-77018643D01*
X131437680Y-77028800D01*
X131423682Y-77034839D01*
X131412903Y-77045616D01*
X131398709Y-77045613D01*
X131385677Y-77051237D01*
X131371509Y-77045610D01*
X131356266Y-77045608D01*
X131333933Y-77030686D01*
X131333039Y-77030331D01*
X131332891Y-77029990D01*
X131332275Y-77029578D01*
X131041943Y-76739325D01*
X131020262Y-76687002D01*
X131032733Y-76645880D01*
X131049874Y-76620228D01*
X131069317Y-76522487D01*
X131049874Y-76424747D01*
X131008486Y-76362804D01*
X130789744Y-76144062D01*
X130727801Y-76102674D01*
X130630061Y-76083231D01*
X130630060Y-76083231D01*
X130532320Y-76102673D01*
X130470378Y-76144061D01*
X130470377Y-76144063D01*
X130294063Y-76320377D01*
X130294061Y-76320378D01*
X130252674Y-76382319D01*
X130245852Y-76416612D01*
X130214384Y-76463703D01*
X130158835Y-76474751D01*
X130120946Y-76454497D01*
X130091198Y-76424746D01*
X129012977Y-75346429D01*
X129012976Y-75346426D01*
X128988152Y-75321602D01*
X128956582Y-75290029D01*
X128956578Y-75290027D01*
X128956575Y-75290025D01*
X128956574Y-75290024D01*
X128915975Y-75273207D01*
X128915974Y-75273206D01*
X128915974Y-75273207D01*
X128882891Y-75259502D01*
X128882886Y-75259501D01*
X128882888Y-75259501D01*
X128882883Y-75259500D01*
X128882882Y-75259500D01*
X128843009Y-75259500D01*
X128803127Y-75259498D01*
X128803122Y-75259500D01*
X126603702Y-75259500D01*
X126551376Y-75237826D01*
X125890376Y-74576826D01*
X125868702Y-74524500D01*
X125890376Y-74472174D01*
X125942702Y-74450500D01*
X126514819Y-74450500D01*
X126514820Y-74450500D01*
X126558722Y-74441767D01*
X126608504Y-74408504D01*
X126641767Y-74358722D01*
X126650500Y-74314820D01*
X126650500Y-73285180D01*
X126641767Y-73241278D01*
X126608504Y-73191496D01*
X126558722Y-73158233D01*
X126527778Y-73152077D01*
X126480687Y-73120612D01*
X126469638Y-73065063D01*
X126501104Y-73017971D01*
X126542216Y-73005500D01*
X127626001Y-73005500D01*
X127629209Y-73005154D01*
X127659055Y-73001946D01*
X127710566Y-72990740D01*
X127779342Y-72956313D01*
X127832146Y-72910558D01*
X127837621Y-72905580D01*
X127879516Y-72836850D01*
X127899201Y-72769811D01*
X127905500Y-72726000D01*
X127905500Y-69724000D01*
X127905499Y-69723995D01*
X127904557Y-69715227D01*
X127901946Y-69690945D01*
X127890740Y-69639434D01*
X127856313Y-69570658D01*
X127847162Y-69560097D01*
X127810562Y-69517858D01*
X127805581Y-69512380D01*
X127805580Y-69512379D01*
X127736850Y-69470484D01*
X127736846Y-69470483D01*
X127736845Y-69470482D01*
X127669812Y-69450799D01*
X127626004Y-69444500D01*
X127626000Y-69444500D01*
X126374000Y-69444500D01*
X126373999Y-69444500D01*
X126340944Y-69448054D01*
X126289435Y-69459259D01*
X126220657Y-69493687D01*
X126167858Y-69539437D01*
X126162380Y-69544418D01*
X126158579Y-69550654D01*
X126122543Y-69609773D01*
X126120482Y-69613154D01*
X126100799Y-69680187D01*
X126094500Y-69723995D01*
X126094500Y-72726000D01*
X126098054Y-72759055D01*
X126109259Y-72810564D01*
X126143687Y-72879342D01*
X126189437Y-72932141D01*
X126189442Y-72932146D01*
X126194420Y-72937621D01*
X126263150Y-72979516D01*
X126330189Y-72999201D01*
X126349274Y-73001945D01*
X126351416Y-73002253D01*
X126400125Y-73031153D01*
X126414132Y-73086031D01*
X126385232Y-73134740D01*
X126340885Y-73149500D01*
X125735180Y-73149500D01*
X125722220Y-73152078D01*
X125691277Y-73158233D01*
X125641496Y-73191495D01*
X125641495Y-73191496D01*
X125608233Y-73241277D01*
X125599500Y-73285180D01*
X125599500Y-73525500D01*
X125577826Y-73577826D01*
X125525500Y-73599500D01*
X125424500Y-73599500D01*
X125372174Y-73577826D01*
X125350500Y-73525500D01*
X125350500Y-68074500D01*
X125372174Y-68022174D01*
X125424500Y-68000500D01*
X125525500Y-68000500D01*
X125577826Y-68022174D01*
X125599500Y-68074500D01*
X125599500Y-68314819D01*
X125608233Y-68358722D01*
X125619443Y-68375500D01*
X125641496Y-68408504D01*
X125691278Y-68441767D01*
X125735180Y-68450500D01*
X125754455Y-68450500D01*
X125806781Y-68472174D01*
X125828455Y-68524500D01*
X125806781Y-68576826D01*
X125779520Y-68604086D01*
X125726795Y-68695408D01*
X125726791Y-68695417D01*
X125699500Y-68797270D01*
X125699500Y-68902729D01*
X125726791Y-69004582D01*
X125726795Y-69004591D01*
X125776206Y-69090173D01*
X125779520Y-69095913D01*
X125854087Y-69170480D01*
X125945413Y-69223207D01*
X126047270Y-69250499D01*
X126047271Y-69250500D01*
X126047273Y-69250500D01*
X126152729Y-69250500D01*
X126152729Y-69250499D01*
X126254587Y-69223207D01*
X126345913Y-69170480D01*
X126420480Y-69095913D01*
X126473207Y-69004587D01*
X126500499Y-68902729D01*
X126500500Y-68902729D01*
X126500500Y-68797271D01*
X126500499Y-68797270D01*
X126496032Y-68780600D01*
X126473207Y-68695413D01*
X126420480Y-68604087D01*
X126393219Y-68576826D01*
X126371545Y-68524500D01*
X126393219Y-68472174D01*
X126445545Y-68450500D01*
X126514819Y-68450500D01*
X126514820Y-68450500D01*
X126558722Y-68441767D01*
X126608504Y-68408504D01*
X126641767Y-68358722D01*
X126650500Y-68314820D01*
X126650500Y-67285180D01*
X126641767Y-67241278D01*
X126608504Y-67191496D01*
X126584405Y-67175394D01*
X126558722Y-67158233D01*
X126514820Y-67149500D01*
X125735180Y-67149500D01*
X125713229Y-67153866D01*
X125691277Y-67158233D01*
X125641496Y-67191495D01*
X125641495Y-67191496D01*
X125608233Y-67241277D01*
X125599500Y-67285180D01*
X125599500Y-67525500D01*
X125577826Y-67577826D01*
X125525500Y-67599500D01*
X125261623Y-67599500D01*
X125261382Y-67599401D01*
X125221700Y-67599500D01*
X125182105Y-67599500D01*
X125181848Y-67599551D01*
X125181849Y-67599552D01*
X125181623Y-67599597D01*
X125145194Y-67614793D01*
X125145026Y-67614862D01*
X125108425Y-67630023D01*
X125108130Y-67630219D01*
X125108059Y-67630268D01*
X125108009Y-67630301D01*
X125108002Y-67630307D01*
X125108002Y-67630308D01*
X125080030Y-67658419D01*
X125047442Y-67691007D01*
X125046688Y-67691928D01*
X125000264Y-67738582D01*
X125000265Y-67738583D01*
X125000112Y-67738737D01*
X124972024Y-67766826D01*
X124971924Y-67767066D01*
X124971742Y-67767250D01*
X124971725Y-67767290D01*
X124971724Y-67767292D01*
X124956761Y-67803670D01*
X124956693Y-67803836D01*
X124941498Y-67840522D01*
X124941471Y-67840660D01*
X124941401Y-67841010D01*
X124941500Y-67880501D01*
X124941500Y-67920285D01*
X124941517Y-67920373D01*
X124941540Y-67920485D01*
X124941585Y-67920713D01*
X124941597Y-67920775D01*
X124941600Y-67920782D01*
X124943740Y-67925913D01*
X124943796Y-67926046D01*
X124949500Y-67954535D01*
X124949500Y-74159883D01*
X124980022Y-74233571D01*
X124980023Y-74233573D01*
X124980024Y-74233574D01*
X126376426Y-75629976D01*
X126450118Y-75660500D01*
X126529882Y-75660500D01*
X128729290Y-75660500D01*
X128781616Y-75682174D01*
X128781618Y-75682176D01*
X128850567Y-75751131D01*
X129450232Y-76350848D01*
X129458578Y-76359194D01*
X129480250Y-76411521D01*
X129458574Y-76463846D01*
X129443250Y-76475604D01*
X129357486Y-76525120D01*
X129282920Y-76599686D01*
X129230195Y-76691008D01*
X129230191Y-76691017D01*
X129202900Y-76792870D01*
X129202900Y-76898329D01*
X129230191Y-77000182D01*
X129230195Y-77000191D01*
X129250199Y-77034839D01*
X129282920Y-77091513D01*
X129357487Y-77166080D01*
X129448813Y-77218807D01*
X129550670Y-77246099D01*
X129550671Y-77246100D01*
X129550673Y-77246100D01*
X129656126Y-77246100D01*
X129656127Y-77246100D01*
X129757987Y-77218807D01*
X129789243Y-77200760D01*
X129808395Y-77198239D01*
X129826244Y-77190846D01*
X129835481Y-77194672D01*
X129845395Y-77193367D01*
X129878570Y-77212520D01*
X129983547Y-77317497D01*
X130005221Y-77369823D01*
X129983547Y-77422149D01*
X129968222Y-77433908D01*
X129882987Y-77483119D01*
X129808420Y-77557686D01*
X129753646Y-77652558D01*
X129708712Y-77687037D01*
X129652560Y-77679644D01*
X129637234Y-77667884D01*
X129550775Y-77581425D01*
X129550771Y-77581422D01*
X129478758Y-77551594D01*
X129442990Y-77520227D01*
X129434479Y-77505486D01*
X129359913Y-77430920D01*
X129268591Y-77378195D01*
X129268582Y-77378191D01*
X129166729Y-77350900D01*
X129166727Y-77350900D01*
X129061273Y-77350900D01*
X129061271Y-77350900D01*
X128959417Y-77378191D01*
X128959408Y-77378195D01*
X128868086Y-77430920D01*
X128793520Y-77505486D01*
X128740795Y-77596808D01*
X128740791Y-77596817D01*
X128713500Y-77698670D01*
X128713500Y-77804129D01*
X128740791Y-77905982D01*
X128740795Y-77905991D01*
X128767525Y-77952288D01*
X128793520Y-77997313D01*
X128868087Y-78071880D01*
X128959413Y-78124607D01*
X129061270Y-78151899D01*
X129061271Y-78151900D01*
X129061273Y-78151900D01*
X129166729Y-78151900D01*
X129166729Y-78151899D01*
X129268587Y-78124607D01*
X129359913Y-78071880D01*
X129364693Y-78067099D01*
X129417016Y-78045423D01*
X129469344Y-78067094D01*
X129879834Y-78477584D01*
X129901508Y-78529910D01*
X129879834Y-78582236D01*
X129879833Y-78582236D01*
X129834282Y-78627786D01*
X129832699Y-78629086D01*
X129753601Y-78708185D01*
X129753599Y-78708186D01*
X129724343Y-78778819D01*
X129684295Y-78818867D01*
X129655976Y-78824500D01*
X127563702Y-78824500D01*
X127511376Y-78802826D01*
X127147174Y-78438624D01*
X127125500Y-78386298D01*
X127125500Y-77235180D01*
X127122243Y-77218807D01*
X127116767Y-77191278D01*
X127083504Y-77141496D01*
X127033722Y-77108233D01*
X126989820Y-77099500D01*
X126989819Y-77099500D01*
X126879500Y-77099500D01*
X126827174Y-77077826D01*
X126805500Y-77025500D01*
X126805500Y-76993721D01*
X126827174Y-76941395D01*
X126838388Y-76932192D01*
X126915601Y-76880601D01*
X126970966Y-76797740D01*
X126985500Y-76724674D01*
X126985500Y-76475326D01*
X126970966Y-76402260D01*
X126915601Y-76319399D01*
X126832740Y-76264034D01*
X126759674Y-76249500D01*
X126450326Y-76249500D01*
X126401615Y-76259189D01*
X126377259Y-76264034D01*
X126294399Y-76319398D01*
X126294398Y-76319399D01*
X126239034Y-76402259D01*
X126239034Y-76402260D01*
X126224500Y-76475326D01*
X126224500Y-76724674D01*
X126232520Y-76764993D01*
X126239034Y-76797740D01*
X126290924Y-76875401D01*
X126294399Y-76880601D01*
X126363775Y-76926956D01*
X126371612Y-76932192D01*
X126375823Y-76938494D01*
X126382826Y-76941395D01*
X126391086Y-76961337D01*
X126403078Y-76979284D01*
X126404500Y-76993721D01*
X126404500Y-77025500D01*
X126382826Y-77077826D01*
X126330500Y-77099500D01*
X125760180Y-77099500D01*
X125738229Y-77103866D01*
X125716277Y-77108233D01*
X125666496Y-77141495D01*
X125666495Y-77141496D01*
X125633233Y-77191277D01*
X125624500Y-77235180D01*
X125624500Y-78254516D01*
X125602826Y-78306842D01*
X125550500Y-78328516D01*
X125498174Y-78306842D01*
X125482806Y-78284407D01*
X125474616Y-78265860D01*
X125399142Y-78190386D01*
X125399141Y-78190385D01*
X125301498Y-78147271D01*
X125277623Y-78144501D01*
X125277619Y-78144501D01*
X124822377Y-78144501D01*
X124798504Y-78147270D01*
X124700858Y-78190385D01*
X124625385Y-78265858D01*
X124607289Y-78306842D01*
X124582270Y-78363503D01*
X124579626Y-78386298D01*
X124579500Y-78387381D01*
X124579500Y-78742623D01*
X124582269Y-78766496D01*
X124582269Y-78766498D01*
X124582270Y-78766499D01*
X124625384Y-78864142D01*
X124700859Y-78939617D01*
X124798502Y-78982731D01*
X124822377Y-78985501D01*
X125187296Y-78985500D01*
X125239622Y-79007174D01*
X125261296Y-79059500D01*
X125239622Y-79111826D01*
X125208623Y-79142825D01*
X125156297Y-79164499D01*
X124822377Y-79164499D01*
X124798504Y-79167268D01*
X124700858Y-79210383D01*
X124625385Y-79285856D01*
X124587590Y-79371453D01*
X124582270Y-79383501D01*
X124580470Y-79399020D01*
X124579500Y-79407379D01*
X124579500Y-79762621D01*
X124582269Y-79786494D01*
X124582269Y-79786496D01*
X124582270Y-79786497D01*
X124625384Y-79884140D01*
X124700859Y-79959615D01*
X124798502Y-80002729D01*
X124822377Y-80005499D01*
X125277622Y-80005498D01*
X125301498Y-80002729D01*
X125399141Y-79959615D01*
X125474616Y-79884140D01*
X125517730Y-79786497D01*
X125520500Y-79762622D01*
X125520499Y-79428701D01*
X125542173Y-79376376D01*
X125646376Y-79272174D01*
X125698702Y-79250500D01*
X127036298Y-79250500D01*
X127088624Y-79272174D01*
X127302826Y-79486376D01*
X127324500Y-79538702D01*
X127324500Y-80864820D01*
X127325082Y-80867747D01*
X127333233Y-80908722D01*
X127357139Y-80944501D01*
X127366496Y-80958504D01*
X127416278Y-80991767D01*
X127460180Y-81000500D01*
X127712297Y-81000500D01*
X127764623Y-81022174D01*
X127786297Y-81074500D01*
X127764623Y-81126826D01*
X127764621Y-81126828D01*
X127750458Y-81140990D01*
X127698131Y-81162662D01*
X127683698Y-81161240D01*
X127624674Y-81149500D01*
X127315326Y-81149500D01*
X127266615Y-81159189D01*
X127242259Y-81164034D01*
X127159399Y-81219398D01*
X127159398Y-81219399D01*
X127104034Y-81302259D01*
X127104034Y-81302260D01*
X127089500Y-81375326D01*
X127089500Y-81624674D01*
X127091585Y-81635155D01*
X127104034Y-81697740D01*
X127153985Y-81772499D01*
X127159399Y-81780601D01*
X127242260Y-81835966D01*
X127315326Y-81850500D01*
X127315328Y-81850500D01*
X127624672Y-81850500D01*
X127624674Y-81850500D01*
X127697740Y-81835966D01*
X127780601Y-81780601D01*
X127835966Y-81697740D01*
X127850248Y-81625936D01*
X127870498Y-81588050D01*
X128178165Y-81280382D01*
X128178168Y-81280381D01*
X128188573Y-81269976D01*
X128188574Y-81269976D01*
X128244976Y-81213574D01*
X128275068Y-81140925D01*
X128275500Y-81139883D01*
X128275500Y-81072138D01*
X128275652Y-81069767D01*
X128287173Y-81046318D01*
X128297174Y-81022174D01*
X128299511Y-81021205D01*
X128300628Y-81018934D01*
X128325358Y-81010499D01*
X128349500Y-81000500D01*
X128689819Y-81000500D01*
X128689820Y-81000500D01*
X128733722Y-80991767D01*
X128783504Y-80958504D01*
X128816767Y-80908722D01*
X128825500Y-80864820D01*
X128825500Y-80424500D01*
X128847174Y-80372174D01*
X128899500Y-80350500D01*
X129024959Y-80350500D01*
X129024967Y-80350500D01*
X129064842Y-80350508D01*
X129064848Y-80350505D01*
X129064874Y-80350500D01*
X129064882Y-80350500D01*
X129103135Y-80334655D01*
X129103146Y-80334651D01*
X129137844Y-80320286D01*
X129138500Y-80320024D01*
X129138534Y-80320000D01*
X129138540Y-80319998D01*
X129138544Y-80319993D01*
X129138563Y-80319979D01*
X129138574Y-80319976D01*
X129138584Y-80319965D01*
X129138662Y-80319912D01*
X129139324Y-80319225D01*
X129168764Y-80289785D01*
X129383307Y-80075327D01*
X129435634Y-80053665D01*
X129487955Y-80075349D01*
X129509619Y-80127680D01*
X129509619Y-80127866D01*
X129508423Y-80568285D01*
X129508424Y-80568312D01*
X129509149Y-80583734D01*
X129509150Y-80583748D01*
X129510572Y-80598379D01*
X129536049Y-80669733D01*
X129536051Y-80669737D01*
X129567511Y-80716820D01*
X129610417Y-80759726D01*
X129649437Y-80785798D01*
X129660651Y-80795001D01*
X129804997Y-80939347D01*
X129814203Y-80950565D01*
X129817673Y-80955759D01*
X129828718Y-80982426D01*
X129831762Y-80997724D01*
X129832829Y-81019416D01*
X129832257Y-81025225D01*
X129832257Y-81054112D01*
X129832589Y-81064265D01*
X129832590Y-81064269D01*
X129858461Y-81140488D01*
X129858464Y-81140494D01*
X129889919Y-81187571D01*
X129889939Y-81187597D01*
X129916690Y-81218100D01*
X129916693Y-81218103D01*
X129970340Y-81244559D01*
X129988884Y-81253704D01*
X130044433Y-81264754D01*
X130077479Y-81264754D01*
X130091915Y-81266176D01*
X130117566Y-81271278D01*
X130144238Y-81282324D01*
X130149435Y-81285796D01*
X130160650Y-81295000D01*
X130305001Y-81439351D01*
X130313395Y-81449574D01*
X130313477Y-81449517D01*
X130313994Y-81450250D01*
X130314008Y-81450271D01*
X130321812Y-81460794D01*
X130323106Y-81462538D01*
X130332310Y-81473751D01*
X130335885Y-81476402D01*
X130365007Y-81524978D01*
X130351251Y-81579920D01*
X130344143Y-81588162D01*
X129954608Y-81977818D01*
X129902285Y-81999500D01*
X125274500Y-81999500D01*
X125222174Y-81977826D01*
X125200500Y-81925500D01*
X125200500Y-81847271D01*
X125200499Y-81847270D01*
X125199393Y-81843144D01*
X125173207Y-81745413D01*
X125120480Y-81654087D01*
X125045913Y-81579520D01*
X124954591Y-81526795D01*
X124954582Y-81526791D01*
X124852729Y-81499500D01*
X124852727Y-81499500D01*
X124747273Y-81499500D01*
X124747271Y-81499500D01*
X124645417Y-81526791D01*
X124645408Y-81526795D01*
X124554086Y-81579520D01*
X124479520Y-81654086D01*
X124426795Y-81745408D01*
X124426791Y-81745417D01*
X124399500Y-81847270D01*
X124399500Y-81952729D01*
X124426791Y-82054582D01*
X124426792Y-82054585D01*
X124426793Y-82054587D01*
X124479520Y-82145913D01*
X124554087Y-82220480D01*
X124645413Y-82273207D01*
X124747270Y-82300499D01*
X124747271Y-82300500D01*
X124747273Y-82300500D01*
X124852726Y-82300500D01*
X124852727Y-82300500D01*
X124862108Y-82297986D01*
X124918259Y-82305376D01*
X124933588Y-82317138D01*
X124986425Y-82369975D01*
X124986428Y-82369977D01*
X124987978Y-82370619D01*
X125060118Y-82400500D01*
X125139882Y-82400500D01*
X129976134Y-82400500D01*
X129976148Y-82400506D01*
X130016030Y-82400500D01*
X130055882Y-82400500D01*
X130055884Y-82400500D01*
X130055912Y-82400494D01*
X130055913Y-82400494D01*
X130091735Y-82385649D01*
X130128030Y-82370615D01*
X130129513Y-82370043D01*
X130129596Y-82369959D01*
X130129600Y-82369958D01*
X130155855Y-82343694D01*
X130185976Y-82313574D01*
X130185976Y-82313572D01*
X130191542Y-82308007D01*
X130191591Y-82307947D01*
X130194162Y-82305376D01*
X131141105Y-81358145D01*
X131168863Y-81330386D01*
X131169948Y-81329351D01*
X131169989Y-81329251D01*
X131169993Y-81329248D01*
X131179771Y-81305630D01*
X131186304Y-81289856D01*
X131186306Y-81289849D01*
X131186307Y-81289847D01*
X131200500Y-81255582D01*
X131200500Y-81255577D01*
X131200503Y-81255557D01*
X131200506Y-81255552D01*
X131200500Y-81213574D01*
X131200500Y-80653049D01*
X131220515Y-80602437D01*
X131224320Y-80598379D01*
X131234920Y-80587072D01*
X131286520Y-80563722D01*
X131339517Y-80583699D01*
X131342792Y-80586967D01*
X131438068Y-80688197D01*
X131445958Y-80700402D01*
X131446607Y-80699969D01*
X131450654Y-80706026D01*
X131471405Y-80726777D01*
X131493079Y-80779103D01*
X131493079Y-80988128D01*
X131523601Y-81061816D01*
X131523604Y-81061820D01*
X131574626Y-81112842D01*
X131596300Y-81165168D01*
X131596300Y-81330298D01*
X131574626Y-81382624D01*
X130417224Y-82540026D01*
X130364898Y-82561700D01*
X130122616Y-82561700D01*
X130092860Y-82574025D01*
X130045392Y-82577136D01*
X130009427Y-82567500D01*
X129903973Y-82567500D01*
X129903971Y-82567500D01*
X129802117Y-82594791D01*
X129802108Y-82594795D01*
X129710786Y-82647520D01*
X129636220Y-82722086D01*
X129583495Y-82813408D01*
X129583491Y-82813417D01*
X129556200Y-82915270D01*
X129556200Y-83020729D01*
X129583491Y-83122582D01*
X129583495Y-83122591D01*
X129622125Y-83189500D01*
X129636220Y-83213913D01*
X129710787Y-83288480D01*
X129802113Y-83341207D01*
X129903970Y-83368499D01*
X129903971Y-83368500D01*
X129903973Y-83368500D01*
X130009429Y-83368500D01*
X130009429Y-83368499D01*
X130111287Y-83341207D01*
X130202613Y-83288480D01*
X130277180Y-83213913D01*
X130329907Y-83122587D01*
X130354817Y-83029622D01*
X130358053Y-83017547D01*
X130392531Y-82972614D01*
X130429531Y-82962700D01*
X130518481Y-82962700D01*
X130518482Y-82962700D01*
X130592174Y-82932176D01*
X131035474Y-82488874D01*
X131087800Y-82467201D01*
X131140126Y-82488875D01*
X131149328Y-82500087D01*
X131155923Y-82509959D01*
X131169061Y-82529621D01*
X131345378Y-82705938D01*
X131407320Y-82747326D01*
X131505061Y-82766769D01*
X131509157Y-82766769D01*
X131561483Y-82788443D01*
X131586557Y-82813517D01*
X131608231Y-82865843D01*
X131608231Y-82869939D01*
X131627673Y-82967679D01*
X131663119Y-83020727D01*
X131669062Y-83029622D01*
X131845378Y-83205938D01*
X131907320Y-83247326D01*
X131962938Y-83258389D01*
X132010029Y-83289855D01*
X132022500Y-83330967D01*
X132022500Y-83498792D01*
X132000826Y-83551118D01*
X131948500Y-83572792D01*
X131928564Y-83570056D01*
X131919579Y-83567542D01*
X131892759Y-83552058D01*
X131864227Y-83552058D01*
X131854447Y-83549322D01*
X131839552Y-83537630D01*
X131822057Y-83530384D01*
X131746447Y-83454774D01*
X131670837Y-83530384D01*
X131618511Y-83552058D01*
X131600133Y-83552058D01*
X131530425Y-83592304D01*
X131459715Y-83663014D01*
X131419469Y-83732722D01*
X131419469Y-83751098D01*
X131397795Y-83803424D01*
X131322183Y-83879036D01*
X131397795Y-83954648D01*
X131419469Y-84006974D01*
X131419469Y-84025349D01*
X131459715Y-84095057D01*
X131490193Y-84125535D01*
X131511867Y-84177861D01*
X131490193Y-84230187D01*
X131437867Y-84251861D01*
X131427201Y-84251088D01*
X131416307Y-84249501D01*
X131416298Y-84249500D01*
X131416295Y-84249500D01*
X131416289Y-84249500D01*
X131009379Y-84249500D01*
X130957053Y-84227826D01*
X130957026Y-84227799D01*
X130937403Y-84208156D01*
X130833532Y-84104178D01*
X130833480Y-84104087D01*
X130796058Y-84066665D01*
X130796030Y-84066637D01*
X130796030Y-84066636D01*
X130759076Y-84029644D01*
X130759067Y-84029637D01*
X130759067Y-84029638D01*
X130758911Y-84029518D01*
X130713087Y-84003062D01*
X130667779Y-83976873D01*
X130667679Y-83976846D01*
X130667587Y-83976793D01*
X130667573Y-83976789D01*
X130667571Y-83976788D01*
X130628401Y-83966293D01*
X130616327Y-83963057D01*
X130615775Y-83962909D01*
X130565932Y-83949527D01*
X130565827Y-83949526D01*
X130565727Y-83949500D01*
X130565606Y-83949500D01*
X130513207Y-83949500D01*
X130513123Y-83949499D01*
X130460479Y-83949473D01*
X130460477Y-83949473D01*
X130455888Y-83949471D01*
X130455447Y-83949500D01*
X129942236Y-83949500D01*
X129912347Y-83943195D01*
X129819991Y-83902416D01*
X129819990Y-83902415D01*
X129819988Y-83902415D01*
X129798659Y-83899941D01*
X129794865Y-83899501D01*
X129794864Y-83899501D01*
X128680136Y-83899501D01*
X128655013Y-83902415D01*
X128655007Y-83902416D01*
X128552234Y-83947795D01*
X128472794Y-84027235D01*
X128427414Y-84130012D01*
X128424500Y-84155136D01*
X128424500Y-84544864D01*
X128427414Y-84569987D01*
X128427415Y-84569992D01*
X128472794Y-84672766D01*
X128552235Y-84752207D01*
X128655009Y-84797586D01*
X128680135Y-84800501D01*
X129794864Y-84800500D01*
X129819991Y-84797586D01*
X129912351Y-84756804D01*
X129942241Y-84750500D01*
X130175500Y-84750500D01*
X130227826Y-84772174D01*
X130249500Y-84824500D01*
X130249500Y-85091294D01*
X130259955Y-85163061D01*
X130259957Y-85163068D01*
X130314080Y-85273779D01*
X130314081Y-85273780D01*
X130401220Y-85360919D01*
X130511933Y-85415043D01*
X130583705Y-85425500D01*
X131416294Y-85425499D01*
X131488061Y-85415044D01*
X131488061Y-85415043D01*
X131488067Y-85415043D01*
X131598780Y-85360919D01*
X131598782Y-85360916D01*
X131603772Y-85357355D01*
X131605437Y-85359687D01*
X131648500Y-85341851D01*
X131700826Y-85363525D01*
X131722500Y-85415851D01*
X131722500Y-86384149D01*
X131700826Y-86436475D01*
X131648500Y-86458149D01*
X131605437Y-86440312D01*
X131603772Y-86442645D01*
X131598779Y-86439080D01*
X131488068Y-86384957D01*
X131452181Y-86379728D01*
X131416295Y-86374500D01*
X131416294Y-86374500D01*
X130583705Y-86374500D01*
X130511938Y-86384955D01*
X130511931Y-86384957D01*
X130401220Y-86439080D01*
X130314080Y-86526220D01*
X130259957Y-86636931D01*
X130259957Y-86636932D01*
X130249500Y-86708700D01*
X130249500Y-87115664D01*
X130227826Y-87167988D01*
X130149856Y-87245913D01*
X130034676Y-87361024D01*
X129982344Y-87382682D01*
X129930024Y-87360992D01*
X129915885Y-87341182D01*
X129909827Y-87328790D01*
X129821210Y-87240173D01*
X129708626Y-87185134D01*
X129635640Y-87174500D01*
X129635636Y-87174500D01*
X129114364Y-87174500D01*
X129114359Y-87174500D01*
X129114354Y-87174501D01*
X129085167Y-87178753D01*
X129030264Y-87164848D01*
X129001273Y-87116193D01*
X129000500Y-87105526D01*
X129000500Y-86786386D01*
X129005389Y-86774582D01*
X129004695Y-86761825D01*
X129015320Y-86750605D01*
X129022174Y-86734060D01*
X129042508Y-86719659D01*
X129044323Y-86718788D01*
X129057874Y-86713176D01*
X129059572Y-86711477D01*
X129067303Y-86707771D01*
X129077073Y-86707239D01*
X129099295Y-86700498D01*
X129794863Y-86700498D01*
X129794864Y-86700498D01*
X129819991Y-86697584D01*
X129922765Y-86652205D01*
X130002206Y-86572764D01*
X130047585Y-86469990D01*
X130050500Y-86444864D01*
X130050499Y-86055135D01*
X130047585Y-86030008D01*
X130002206Y-85927234D01*
X129922765Y-85847793D01*
X129819991Y-85802414D01*
X129819990Y-85802413D01*
X129819988Y-85802413D01*
X129798659Y-85799939D01*
X129794865Y-85799499D01*
X129794864Y-85799499D01*
X128680136Y-85799499D01*
X128655013Y-85802413D01*
X128655007Y-85802414D01*
X128552234Y-85847793D01*
X128472794Y-85927233D01*
X128427414Y-86030010D01*
X128424500Y-86055134D01*
X128424500Y-86444862D01*
X128427414Y-86469985D01*
X128427415Y-86469990D01*
X128472794Y-86572764D01*
X128552235Y-86652205D01*
X128555386Y-86653596D01*
X128557506Y-86655816D01*
X128557891Y-86656080D01*
X128557835Y-86656161D01*
X128594501Y-86694555D01*
X128599500Y-86721292D01*
X128599500Y-87086298D01*
X128577826Y-87138624D01*
X128430022Y-87286428D01*
X128399500Y-87360116D01*
X128399500Y-88310577D01*
X128377826Y-88362903D01*
X128362501Y-88374662D01*
X128354090Y-88379518D01*
X128354088Y-88379519D01*
X128279520Y-88454086D01*
X128226795Y-88545408D01*
X128226791Y-88545417D01*
X128199500Y-88647270D01*
X128199500Y-88752729D01*
X128226791Y-88854582D01*
X128226796Y-88854593D01*
X128231938Y-88863499D01*
X128239332Y-88919652D01*
X128204854Y-88964585D01*
X128167853Y-88974500D01*
X126724057Y-88974500D01*
X126671731Y-88952826D01*
X126293252Y-88574347D01*
X126271578Y-88522021D01*
X126293252Y-88469695D01*
X126345578Y-88448021D01*
X126360007Y-88449442D01*
X126365326Y-88450500D01*
X126365330Y-88450500D01*
X126674672Y-88450500D01*
X126674674Y-88450500D01*
X126747740Y-88435966D01*
X126830601Y-88380601D01*
X126885966Y-88297740D01*
X126900500Y-88224674D01*
X126900500Y-87975326D01*
X126885966Y-87902260D01*
X126830601Y-87819399D01*
X126818822Y-87811528D01*
X126787356Y-87764438D01*
X126798404Y-87708889D01*
X126818820Y-87688472D01*
X126830601Y-87680601D01*
X126885966Y-87597740D01*
X126900500Y-87524674D01*
X126900500Y-87275326D01*
X126885966Y-87202260D01*
X126830601Y-87119399D01*
X126825011Y-87115664D01*
X126778388Y-87084512D01*
X126746922Y-87037420D01*
X126745500Y-87022983D01*
X126745500Y-86816457D01*
X126767145Y-86764160D01*
X126769478Y-86761825D01*
X126789229Y-86742050D01*
X126809057Y-86722201D01*
X126861371Y-86700498D01*
X127519863Y-86700498D01*
X127519864Y-86700498D01*
X127544991Y-86697584D01*
X127647765Y-86652205D01*
X127727206Y-86572764D01*
X127772585Y-86469990D01*
X127775500Y-86444864D01*
X127775499Y-86055135D01*
X127772585Y-86030008D01*
X127727206Y-85927234D01*
X127647765Y-85847793D01*
X127544991Y-85802414D01*
X127544990Y-85802413D01*
X127544988Y-85802413D01*
X127523659Y-85799939D01*
X127519865Y-85799499D01*
X127519864Y-85799499D01*
X126405136Y-85799499D01*
X126380013Y-85802413D01*
X126380007Y-85802414D01*
X126277234Y-85847793D01*
X126197794Y-85927233D01*
X126152414Y-86030010D01*
X126149500Y-86055134D01*
X126149500Y-86444862D01*
X126152414Y-86469985D01*
X126152415Y-86469991D01*
X126197794Y-86572764D01*
X126272826Y-86647796D01*
X126294500Y-86700122D01*
X126294500Y-87022983D01*
X126272826Y-87075309D01*
X126261612Y-87084512D01*
X126209399Y-87119398D01*
X126209398Y-87119399D01*
X126154034Y-87202259D01*
X126154034Y-87202260D01*
X126139500Y-87275326D01*
X126139500Y-87524674D01*
X126144637Y-87550497D01*
X126154034Y-87597741D01*
X126190021Y-87651601D01*
X126201070Y-87707150D01*
X126169603Y-87754241D01*
X126114055Y-87765290D01*
X126091813Y-87760866D01*
X126034674Y-87749500D01*
X125725326Y-87749500D01*
X125676615Y-87759189D01*
X125652259Y-87764034D01*
X125569399Y-87819398D01*
X125569398Y-87819399D01*
X125514034Y-87902259D01*
X125514034Y-87902260D01*
X125499500Y-87975326D01*
X125499500Y-88224674D01*
X125508757Y-88271209D01*
X125514034Y-88297740D01*
X125569398Y-88380600D01*
X125569401Y-88380603D01*
X125621610Y-88415487D01*
X125653077Y-88462578D01*
X125654499Y-88477016D01*
X125654499Y-88524855D01*
X125663015Y-88545413D01*
X125675063Y-88574500D01*
X125688105Y-88605987D01*
X125688830Y-88607736D01*
X125752264Y-88671170D01*
X125762671Y-88681577D01*
X125762673Y-88681578D01*
X126404609Y-89323514D01*
X126404612Y-89323518D01*
X126408830Y-89327736D01*
X126472264Y-89391170D01*
X126504656Y-89404587D01*
X126555146Y-89425501D01*
X126555147Y-89425501D01*
X126653467Y-89425501D01*
X126653475Y-89425500D01*
X128846525Y-89425500D01*
X128846533Y-89425501D01*
X128855145Y-89425501D01*
X128944854Y-89425501D01*
X128944855Y-89425501D01*
X129003460Y-89401225D01*
X129027736Y-89391170D01*
X129091170Y-89327736D01*
X129091170Y-89327735D01*
X129101575Y-89317330D01*
X129101576Y-89317327D01*
X129566170Y-88852736D01*
X129600500Y-88769855D01*
X129600500Y-88680146D01*
X129600500Y-88494618D01*
X129622174Y-88442292D01*
X129663829Y-88421392D01*
X129708625Y-88414866D01*
X129821211Y-88359826D01*
X129909826Y-88271211D01*
X129909826Y-88271210D01*
X129909827Y-88271210D01*
X129909827Y-88271209D01*
X129924107Y-88242000D01*
X129966560Y-88204510D01*
X129990588Y-88200500D01*
X130109273Y-88200500D01*
X130160180Y-88200500D01*
X130214607Y-88200516D01*
X130214667Y-88200500D01*
X130247273Y-88200500D01*
X130352727Y-88200500D01*
X130454588Y-88173207D01*
X130545913Y-88120480D01*
X131094219Y-87572172D01*
X131146545Y-87550499D01*
X131416287Y-87550499D01*
X131416294Y-87550499D01*
X131478653Y-87541414D01*
X131488061Y-87540044D01*
X131488061Y-87540043D01*
X131488067Y-87540043D01*
X131598780Y-87485919D01*
X131662525Y-87422174D01*
X131714851Y-87400500D01*
X132175729Y-87400500D01*
X132175729Y-87400499D01*
X132277587Y-87373207D01*
X132368913Y-87320480D01*
X132443480Y-87245913D01*
X132496207Y-87154587D01*
X132523499Y-87052729D01*
X132523500Y-87052729D01*
X132523500Y-86984411D01*
X132545172Y-86932087D01*
X132581487Y-86895771D01*
X132581490Y-86895770D01*
X132591896Y-86885364D01*
X132591897Y-86885364D01*
X132662364Y-86814897D01*
X132700500Y-86722828D01*
X132700500Y-84475172D01*
X132700500Y-83359731D01*
X132719902Y-83309780D01*
X132721055Y-83308518D01*
X132731040Y-83298580D01*
X132731153Y-83298307D01*
X132731364Y-83298097D01*
X132750356Y-83252245D01*
X132769386Y-83206598D01*
X132769386Y-83206589D01*
X132769497Y-83206033D01*
X132769500Y-83206028D01*
X132769500Y-83156550D01*
X132769613Y-83106943D01*
X132769500Y-83106668D01*
X132769500Y-82737200D01*
X132791174Y-82684874D01*
X132843500Y-82663200D01*
X133300500Y-82663200D01*
X133352826Y-82684874D01*
X133374500Y-82737200D01*
X133374500Y-83743233D01*
X133374494Y-83743248D01*
X133374500Y-83781750D01*
X133374500Y-83822998D01*
X133374505Y-83823012D01*
X133374506Y-83823013D01*
X133389346Y-83858826D01*
X133389348Y-83858835D01*
X133389350Y-83858835D01*
X133405024Y-83896675D01*
X133405027Y-83896680D01*
X133405038Y-83896697D01*
X133431258Y-83922909D01*
X133431266Y-83922916D01*
X133466706Y-83958356D01*
X133466762Y-83958401D01*
X133603459Y-84095057D01*
X133615094Y-84106688D01*
X133615096Y-84106694D01*
X133615103Y-84106697D01*
X133624518Y-84129429D01*
X133636776Y-84159011D01*
X133636773Y-84159017D01*
X133636776Y-84159023D01*
X133626447Y-84183958D01*
X133615110Y-84211340D01*
X133615101Y-84211349D01*
X133583362Y-84243087D01*
X133583349Y-84243100D01*
X133555050Y-84271383D01*
X133555026Y-84271419D01*
X133540087Y-84307486D01*
X133540080Y-84307504D01*
X133524508Y-84345067D01*
X133524500Y-84345108D01*
X133524500Y-84345118D01*
X133524500Y-84384943D01*
X133524489Y-84424826D01*
X133524500Y-84424852D01*
X133524500Y-85464883D01*
X133555022Y-85538571D01*
X133555025Y-85538575D01*
X133582861Y-85566411D01*
X133604535Y-85618737D01*
X133602015Y-85637885D01*
X133599500Y-85647273D01*
X133599500Y-85752729D01*
X133602014Y-85762112D01*
X133594620Y-85818264D01*
X133582862Y-85833587D01*
X133555025Y-85861424D01*
X133555022Y-85861428D01*
X133524500Y-85935116D01*
X133524500Y-88661297D01*
X133502826Y-88713623D01*
X133383587Y-88832861D01*
X133331261Y-88854535D01*
X133312110Y-88852014D01*
X133302727Y-88849500D01*
X133197273Y-88849500D01*
X133197271Y-88849500D01*
X133095417Y-88876791D01*
X133095408Y-88876795D01*
X133004086Y-88929520D01*
X132929520Y-89004086D01*
X132876795Y-89095408D01*
X132876791Y-89095417D01*
X132849500Y-89197270D01*
X132849500Y-89302729D01*
X132876791Y-89404582D01*
X132876795Y-89404591D01*
X132905959Y-89455104D01*
X132929520Y-89495913D01*
X133004087Y-89570480D01*
X133095413Y-89623207D01*
X133197270Y-89650499D01*
X133197271Y-89650500D01*
X133197273Y-89650500D01*
X133302729Y-89650500D01*
X133302729Y-89650499D01*
X133404587Y-89623207D01*
X133495913Y-89570480D01*
X133570480Y-89495913D01*
X133623207Y-89404587D01*
X133650499Y-89302729D01*
X133650500Y-89302729D01*
X133650500Y-89197274D01*
X133647985Y-89187888D01*
X133655378Y-89131736D01*
X133667135Y-89116413D01*
X133828165Y-88955382D01*
X133828168Y-88955381D01*
X133838573Y-88944976D01*
X133838574Y-88944976D01*
X133894976Y-88888574D01*
X133925500Y-88814882D01*
X133925500Y-86174500D01*
X133947174Y-86122174D01*
X133999500Y-86100500D01*
X134052729Y-86100500D01*
X134052729Y-86100499D01*
X134154587Y-86073207D01*
X134245913Y-86020480D01*
X134320480Y-85945913D01*
X134373207Y-85854587D01*
X134400499Y-85752729D01*
X134400500Y-85752729D01*
X134400500Y-85647271D01*
X134400499Y-85647270D01*
X134397984Y-85637885D01*
X134373207Y-85545413D01*
X134320480Y-85454087D01*
X134245913Y-85379520D01*
X134154591Y-85326795D01*
X134154582Y-85326791D01*
X134052729Y-85299500D01*
X134052727Y-85299500D01*
X133999500Y-85299500D01*
X133947174Y-85277826D01*
X133925500Y-85225500D01*
X133925500Y-84498746D01*
X133925504Y-84498736D01*
X133925500Y-84498726D01*
X133936398Y-84472434D01*
X133947173Y-84446421D01*
X134010141Y-84383488D01*
X134010243Y-84383406D01*
X134015572Y-84378076D01*
X134015574Y-84378076D01*
X134043650Y-84349999D01*
X134071944Y-84321722D01*
X134071944Y-84321720D01*
X134071962Y-84321703D01*
X134071973Y-84321676D01*
X134071976Y-84321674D01*
X134086912Y-84285613D01*
X134102489Y-84248039D01*
X134102489Y-84248034D01*
X134102500Y-84247981D01*
X134102500Y-84208156D01*
X134102511Y-84168274D01*
X134102500Y-84168247D01*
X134102500Y-84157393D01*
X134102506Y-84157324D01*
X134102505Y-84149853D01*
X134102506Y-84149851D01*
X134102500Y-84109969D01*
X134102500Y-84070118D01*
X134102494Y-84070103D01*
X134102494Y-84070087D01*
X134087649Y-84034264D01*
X134072199Y-83996965D01*
X134071991Y-83996443D01*
X134071970Y-83996412D01*
X134045741Y-83970191D01*
X134045741Y-83970190D01*
X134045735Y-83970184D01*
X134045734Y-83970184D01*
X134041843Y-83966293D01*
X134015574Y-83940024D01*
X134015560Y-83940018D01*
X134010664Y-83935123D01*
X134010658Y-83935118D01*
X133797182Y-83721707D01*
X133775500Y-83669384D01*
X133775500Y-82737200D01*
X133797174Y-82684874D01*
X133849500Y-82663200D01*
X135170500Y-82663200D01*
X135222826Y-82684874D01*
X135244500Y-82737200D01*
X135244500Y-84725998D01*
X135256335Y-84785501D01*
X135256338Y-84785511D01*
X135278008Y-84837827D01*
X135279084Y-84840009D01*
X135278447Y-84840322D01*
X135287500Y-84874097D01*
X135287500Y-89430472D01*
X135265826Y-89482798D01*
X135250500Y-89494558D01*
X135221986Y-89511020D01*
X135147420Y-89585586D01*
X135094695Y-89676908D01*
X135094691Y-89676917D01*
X135067400Y-89778770D01*
X135067400Y-89884229D01*
X135094691Y-89986082D01*
X135094695Y-89986091D01*
X135126389Y-90040987D01*
X135147420Y-90077413D01*
X135221987Y-90151980D01*
X135313313Y-90204707D01*
X135415170Y-90231999D01*
X135415171Y-90232000D01*
X135415173Y-90232000D01*
X135520629Y-90232000D01*
X135520629Y-90231999D01*
X135622487Y-90204707D01*
X135713813Y-90151980D01*
X135788380Y-90077413D01*
X135819714Y-90023139D01*
X135864647Y-89988662D01*
X135920800Y-89996054D01*
X135955278Y-90040987D01*
X135957800Y-90060140D01*
X135957800Y-90387078D01*
X135936126Y-90439404D01*
X135883800Y-90461078D01*
X135846801Y-90451164D01*
X135804595Y-90426796D01*
X135804582Y-90426791D01*
X135702729Y-90399500D01*
X135702727Y-90399500D01*
X135597273Y-90399500D01*
X135597271Y-90399500D01*
X135495417Y-90426791D01*
X135495408Y-90426795D01*
X135404086Y-90479520D01*
X135329520Y-90554086D01*
X135324663Y-90562500D01*
X135279730Y-90596978D01*
X135260577Y-90599500D01*
X132093035Y-90599500D01*
X132053152Y-90599493D01*
X132053135Y-90599500D01*
X132053118Y-90599500D01*
X132039172Y-90605276D01*
X132016062Y-90614848D01*
X132016054Y-90614851D01*
X131979454Y-90630004D01*
X131979429Y-90630020D01*
X131950430Y-90659018D01*
X131950423Y-90659026D01*
X130871643Y-91737435D01*
X130819326Y-91759100D01*
X130611423Y-91759100D01*
X130559097Y-91737426D01*
X130547337Y-91722100D01*
X130542479Y-91713686D01*
X130467913Y-91639120D01*
X130376591Y-91586395D01*
X130376582Y-91586391D01*
X130274729Y-91559100D01*
X130274727Y-91559100D01*
X130169273Y-91559100D01*
X130076351Y-91583997D01*
X130020200Y-91576605D01*
X129985721Y-91531671D01*
X129983200Y-91512519D01*
X129983200Y-90880001D01*
X130004873Y-90827676D01*
X131964011Y-88868537D01*
X132016336Y-88846864D01*
X132035485Y-88849384D01*
X132044873Y-88851900D01*
X132044874Y-88851900D01*
X132150329Y-88851900D01*
X132150329Y-88851899D01*
X132252187Y-88824607D01*
X132343513Y-88771880D01*
X132418080Y-88697313D01*
X132470807Y-88605987D01*
X132498099Y-88504129D01*
X132498100Y-88504129D01*
X132498100Y-88398671D01*
X132498099Y-88398670D01*
X132488515Y-88362903D01*
X132470807Y-88296813D01*
X132418080Y-88205487D01*
X132343513Y-88130920D01*
X132325430Y-88120480D01*
X132252191Y-88078195D01*
X132252182Y-88078191D01*
X132150329Y-88050900D01*
X132150327Y-88050900D01*
X132044873Y-88050900D01*
X132044871Y-88050900D01*
X131943017Y-88078191D01*
X131943008Y-88078195D01*
X131851686Y-88130920D01*
X131777120Y-88205486D01*
X131724395Y-88296808D01*
X131724391Y-88296817D01*
X131697100Y-88398670D01*
X131697100Y-88504127D01*
X131699614Y-88513510D01*
X131692220Y-88569662D01*
X131680461Y-88584987D01*
X129926826Y-90338623D01*
X129874500Y-90360297D01*
X129822174Y-90338623D01*
X129800500Y-90286297D01*
X129800500Y-90247271D01*
X129800499Y-90247270D01*
X129796407Y-90232000D01*
X129773207Y-90145413D01*
X129720480Y-90054087D01*
X129645913Y-89979520D01*
X129554591Y-89926795D01*
X129554582Y-89926791D01*
X129452729Y-89899500D01*
X129452727Y-89899500D01*
X129347273Y-89899500D01*
X129347271Y-89899500D01*
X129245417Y-89926791D01*
X129245408Y-89926795D01*
X129154086Y-89979520D01*
X129079520Y-90054086D01*
X129074663Y-90062500D01*
X129029730Y-90096978D01*
X129010577Y-90099500D01*
X125589423Y-90099500D01*
X125537097Y-90077826D01*
X125525337Y-90062500D01*
X125520480Y-90054087D01*
X125445913Y-89979520D01*
X125354591Y-89926795D01*
X125354582Y-89926791D01*
X125252729Y-89899500D01*
X125252727Y-89899500D01*
X125147273Y-89899500D01*
X125147271Y-89899500D01*
X125045417Y-89926791D01*
X125045408Y-89926795D01*
X124954086Y-89979520D01*
X124879520Y-90054086D01*
X124826795Y-90145408D01*
X124826791Y-90145417D01*
X124799500Y-90247270D01*
X124799500Y-90352729D01*
X124826791Y-90454582D01*
X124826795Y-90454591D01*
X124841188Y-90479520D01*
X124879520Y-90545913D01*
X124954087Y-90620480D01*
X125045413Y-90673207D01*
X125147270Y-90700499D01*
X125147271Y-90700500D01*
X125147273Y-90700500D01*
X125252729Y-90700500D01*
X125252729Y-90700499D01*
X125354587Y-90673207D01*
X125445913Y-90620480D01*
X125520480Y-90545913D01*
X125525337Y-90537499D01*
X125570270Y-90503022D01*
X125589423Y-90500500D01*
X129010577Y-90500500D01*
X129062903Y-90522174D01*
X129074662Y-90537498D01*
X129079520Y-90545913D01*
X129154087Y-90620480D01*
X129245413Y-90673207D01*
X129347270Y-90700499D01*
X129347271Y-90700500D01*
X129347273Y-90700500D01*
X129452728Y-90700500D01*
X129466060Y-90696927D01*
X129489047Y-90690768D01*
X129545199Y-90698159D01*
X129579678Y-90743092D01*
X129582200Y-90762246D01*
X129582200Y-92431083D01*
X129612722Y-92504771D01*
X129612725Y-92504775D01*
X130928926Y-93820976D01*
X130950600Y-93873302D01*
X130950600Y-94664598D01*
X130928926Y-94716924D01*
X130876600Y-94738598D01*
X130824274Y-94716924D01*
X130410438Y-94303088D01*
X130388764Y-94250762D01*
X130391285Y-94231612D01*
X130393800Y-94222227D01*
X130393800Y-94116773D01*
X130393800Y-94116771D01*
X130393799Y-94116770D01*
X130366508Y-94014917D01*
X130366507Y-94014913D01*
X130313780Y-93923587D01*
X130239213Y-93849020D01*
X130228180Y-93842650D01*
X130147891Y-93796295D01*
X130147882Y-93796291D01*
X130046029Y-93769000D01*
X130046027Y-93769000D01*
X129940573Y-93769000D01*
X129940571Y-93769000D01*
X129838717Y-93796291D01*
X129838708Y-93796295D01*
X129747386Y-93849020D01*
X129672820Y-93923586D01*
X129620095Y-94014908D01*
X129620091Y-94014917D01*
X129592800Y-94116770D01*
X129592800Y-94222229D01*
X129620091Y-94324082D01*
X129620095Y-94324091D01*
X129641939Y-94361926D01*
X129672820Y-94415413D01*
X129747387Y-94489980D01*
X129838713Y-94542707D01*
X129940570Y-94569999D01*
X129940571Y-94570000D01*
X129940573Y-94570000D01*
X130046026Y-94570000D01*
X130046027Y-94570000D01*
X130055408Y-94567486D01*
X130111559Y-94574876D01*
X130126888Y-94586638D01*
X130528926Y-94988676D01*
X130550600Y-95041002D01*
X130550600Y-95674901D01*
X130538129Y-95716013D01*
X130512233Y-95754768D01*
X130500600Y-95813253D01*
X130500600Y-96377746D01*
X130512233Y-96436232D01*
X130541708Y-96480343D01*
X130556548Y-96502552D01*
X130575676Y-96515333D01*
X130622867Y-96546866D01*
X130622868Y-96546866D01*
X130622869Y-96546867D01*
X130681352Y-96558500D01*
X130681354Y-96558500D01*
X130820846Y-96558500D01*
X130820848Y-96558500D01*
X130879331Y-96546867D01*
X130909987Y-96526382D01*
X130965535Y-96515333D01*
X130992211Y-96526381D01*
X131022869Y-96546867D01*
X131081352Y-96558500D01*
X131081354Y-96558500D01*
X131220846Y-96558500D01*
X131220848Y-96558500D01*
X131279331Y-96546867D01*
X131309987Y-96526382D01*
X131365535Y-96515333D01*
X131392211Y-96526381D01*
X131422869Y-96546867D01*
X131481352Y-96558500D01*
X131481354Y-96558500D01*
X131620846Y-96558500D01*
X131620848Y-96558500D01*
X131679331Y-96546867D01*
X131709987Y-96526382D01*
X131765535Y-96515333D01*
X131792211Y-96526381D01*
X131822869Y-96546867D01*
X131881352Y-96558500D01*
X131881354Y-96558500D01*
X132020846Y-96558500D01*
X132020848Y-96558500D01*
X132079331Y-96546867D01*
X132109987Y-96526382D01*
X132165535Y-96515333D01*
X132192211Y-96526381D01*
X132222869Y-96546867D01*
X132281352Y-96558500D01*
X132281354Y-96558500D01*
X132420846Y-96558500D01*
X132420848Y-96558500D01*
X132479331Y-96546867D01*
X132509987Y-96526382D01*
X132565535Y-96515333D01*
X132592211Y-96526381D01*
X132622869Y-96546867D01*
X132681352Y-96558500D01*
X132681354Y-96558500D01*
X132820846Y-96558500D01*
X132820848Y-96558500D01*
X132879331Y-96546867D01*
X132909987Y-96526382D01*
X132965535Y-96515333D01*
X132992211Y-96526381D01*
X133022869Y-96546867D01*
X133081352Y-96558500D01*
X133081354Y-96558500D01*
X133220846Y-96558500D01*
X133220848Y-96558500D01*
X133279331Y-96546867D01*
X133309987Y-96526382D01*
X133365535Y-96515333D01*
X133392211Y-96526381D01*
X133422869Y-96546867D01*
X133481352Y-96558500D01*
X133481354Y-96558500D01*
X133620846Y-96558500D01*
X133620848Y-96558500D01*
X133679331Y-96546867D01*
X133745652Y-96502552D01*
X133789967Y-96436231D01*
X133801600Y-96377748D01*
X133801600Y-95813252D01*
X133789967Y-95754769D01*
X133764071Y-95716013D01*
X133751600Y-95674901D01*
X133751600Y-94589201D01*
X133773273Y-94536876D01*
X133798811Y-94511337D01*
X133851137Y-94489664D01*
X133870290Y-94492185D01*
X133879673Y-94494700D01*
X133985129Y-94494700D01*
X133985129Y-94494699D01*
X134086987Y-94467407D01*
X134178313Y-94414680D01*
X134252880Y-94340113D01*
X134305607Y-94248787D01*
X134332899Y-94146929D01*
X134332900Y-94146929D01*
X134332900Y-94041471D01*
X134332899Y-94041470D01*
X134305608Y-93939617D01*
X134305607Y-93939613D01*
X134252880Y-93848287D01*
X134178313Y-93773720D01*
X134136363Y-93749500D01*
X134108166Y-93733220D01*
X134073687Y-93688286D01*
X134081080Y-93632134D01*
X134092836Y-93616812D01*
X136328276Y-91381374D01*
X136358800Y-91307682D01*
X136358800Y-91227918D01*
X136358800Y-87414702D01*
X136380474Y-87362376D01*
X137377875Y-86364975D01*
X137377876Y-86364974D01*
X137408400Y-86291282D01*
X137408400Y-86211517D01*
X137408400Y-84847600D01*
X142065900Y-84847600D01*
X142065900Y-118454000D01*
X142044226Y-118506326D01*
X141991900Y-118528000D01*
X122109700Y-118528000D01*
X122057374Y-118506326D01*
X122035700Y-118454000D01*
X122035700Y-111899980D01*
X124695900Y-111899980D01*
X124695900Y-112729620D01*
X124704633Y-112773522D01*
X124737896Y-112823304D01*
X124787678Y-112856567D01*
X124831580Y-112865300D01*
X124831581Y-112865300D01*
X125861219Y-112865300D01*
X125861220Y-112865300D01*
X125905122Y-112856567D01*
X125931289Y-112839082D01*
X125986836Y-112828034D01*
X126033929Y-112859499D01*
X126046400Y-112900612D01*
X126046400Y-114878987D01*
X126024726Y-114931313D01*
X125972400Y-114952987D01*
X125931289Y-114940516D01*
X125905123Y-114923033D01*
X125883171Y-114918666D01*
X125861220Y-114914300D01*
X124831580Y-114914300D01*
X124809629Y-114918666D01*
X124787677Y-114923033D01*
X124737896Y-114956295D01*
X124737895Y-114956296D01*
X124704633Y-115006077D01*
X124704633Y-115006078D01*
X124695900Y-115049980D01*
X124695900Y-117879620D01*
X124704633Y-117923522D01*
X124737896Y-117973304D01*
X124787678Y-118006567D01*
X124831580Y-118015300D01*
X124831581Y-118015300D01*
X125861219Y-118015300D01*
X125861220Y-118015300D01*
X125905122Y-118006567D01*
X125954904Y-117973304D01*
X125988167Y-117923522D01*
X125996900Y-117879620D01*
X125996900Y-117864800D01*
X135096400Y-117864800D01*
X137646400Y-117864800D01*
X137646400Y-116514800D01*
X135096400Y-116514800D01*
X135096400Y-117864800D01*
X125996900Y-117864800D01*
X125996900Y-115949980D01*
X138045900Y-115949980D01*
X138045900Y-117879620D01*
X138054633Y-117923522D01*
X138087896Y-117973304D01*
X138137678Y-118006567D01*
X138181580Y-118015300D01*
X138181581Y-118015300D01*
X139511219Y-118015300D01*
X139511220Y-118015300D01*
X139555122Y-118006567D01*
X139604904Y-117973304D01*
X139638167Y-117923522D01*
X139646900Y-117879620D01*
X139646900Y-115949980D01*
X139638167Y-115906078D01*
X139604904Y-115856296D01*
X139555122Y-115823033D01*
X139511220Y-115814300D01*
X138181580Y-115814300D01*
X138159629Y-115818666D01*
X138137677Y-115823033D01*
X138087896Y-115856295D01*
X138087895Y-115856296D01*
X138054633Y-115906077D01*
X138054633Y-115906078D01*
X138045900Y-115949980D01*
X125996900Y-115949980D01*
X125996900Y-115788800D01*
X126018574Y-115736474D01*
X126070900Y-115714800D01*
X126746400Y-115714800D01*
X126746400Y-108488800D01*
X126768074Y-108436474D01*
X126820400Y-108414800D01*
X135446400Y-108414800D01*
X135446400Y-106814800D01*
X126746400Y-106814800D01*
X126746400Y-108040800D01*
X126724726Y-108093126D01*
X126672400Y-108114800D01*
X126046400Y-108114800D01*
X126046400Y-111728987D01*
X126024726Y-111781313D01*
X125972400Y-111802987D01*
X125931289Y-111790516D01*
X125905123Y-111773033D01*
X125883171Y-111768666D01*
X125861220Y-111764300D01*
X124831580Y-111764300D01*
X124809629Y-111768666D01*
X124787677Y-111773033D01*
X124737896Y-111806295D01*
X124737895Y-111806296D01*
X124704633Y-111856077D01*
X124704633Y-111856078D01*
X124695900Y-111899980D01*
X122035700Y-111899980D01*
X122035700Y-105499980D01*
X124695900Y-105499980D01*
X124695900Y-106729620D01*
X124704633Y-106773522D01*
X124737896Y-106823304D01*
X124787678Y-106856567D01*
X124831580Y-106865300D01*
X124872400Y-106865300D01*
X124924726Y-106886974D01*
X124946400Y-106939300D01*
X124946400Y-110314800D01*
X125696400Y-110314800D01*
X125696400Y-106939300D01*
X125718074Y-106886974D01*
X125770400Y-106865300D01*
X125861219Y-106865300D01*
X125861220Y-106865300D01*
X125905122Y-106856567D01*
X125954904Y-106823304D01*
X125988167Y-106773522D01*
X125996900Y-106729620D01*
X125996900Y-105499980D01*
X125988167Y-105456078D01*
X125954904Y-105406296D01*
X125905122Y-105373033D01*
X125861220Y-105364300D01*
X125861219Y-105364300D01*
X125770400Y-105364300D01*
X125718074Y-105342626D01*
X125696400Y-105290300D01*
X125696400Y-102264800D01*
X124946400Y-102264800D01*
X124946400Y-105290300D01*
X124924726Y-105342626D01*
X124872400Y-105364300D01*
X124831580Y-105364300D01*
X124809629Y-105368666D01*
X124787677Y-105373033D01*
X124737896Y-105406295D01*
X124737895Y-105406296D01*
X124704633Y-105456077D01*
X124704633Y-105456078D01*
X124695900Y-105499980D01*
X122035700Y-105499980D01*
X122035700Y-101199980D01*
X126745900Y-101199980D01*
X126745900Y-102429620D01*
X126754633Y-102473522D01*
X126787896Y-102523304D01*
X126837678Y-102556567D01*
X126881580Y-102565300D01*
X126881581Y-102565300D01*
X127611219Y-102565300D01*
X127611220Y-102565300D01*
X127655122Y-102556567D01*
X127704904Y-102523304D01*
X127734871Y-102478455D01*
X127781962Y-102446988D01*
X127837511Y-102458037D01*
X127857929Y-102478455D01*
X127887893Y-102523301D01*
X127887895Y-102523303D01*
X127887896Y-102523304D01*
X127937678Y-102556567D01*
X127981580Y-102565300D01*
X127981581Y-102565300D01*
X128711219Y-102565300D01*
X128711220Y-102565300D01*
X128755122Y-102556567D01*
X128804904Y-102523304D01*
X128838167Y-102473522D01*
X128846900Y-102429620D01*
X128846900Y-101199980D01*
X128838167Y-101156078D01*
X128804904Y-101106296D01*
X128755122Y-101073033D01*
X128711220Y-101064300D01*
X128711219Y-101064300D01*
X128585700Y-101064300D01*
X128533374Y-101042626D01*
X128511700Y-100990300D01*
X128511700Y-100734902D01*
X128533374Y-100682576D01*
X130184374Y-99031576D01*
X130236700Y-99009902D01*
X130289026Y-99031576D01*
X130310700Y-99083902D01*
X130310700Y-100990300D01*
X130289026Y-101042626D01*
X130236700Y-101064300D01*
X130181580Y-101064300D01*
X130159629Y-101068666D01*
X130137677Y-101073033D01*
X130087896Y-101106295D01*
X130087895Y-101106296D01*
X130054633Y-101156077D01*
X130054633Y-101156078D01*
X130045900Y-101199980D01*
X130045900Y-102429620D01*
X130054633Y-102473522D01*
X130087896Y-102523304D01*
X130137678Y-102556567D01*
X130181580Y-102565300D01*
X130181581Y-102565300D01*
X130911219Y-102565300D01*
X130911220Y-102565300D01*
X130955122Y-102556567D01*
X131004904Y-102523304D01*
X131034871Y-102478455D01*
X131081962Y-102446988D01*
X131137511Y-102458037D01*
X131157929Y-102478455D01*
X131187893Y-102523301D01*
X131187895Y-102523303D01*
X131187896Y-102523304D01*
X131237678Y-102556567D01*
X131281580Y-102565300D01*
X131281581Y-102565300D01*
X132011219Y-102565300D01*
X132011220Y-102565300D01*
X132055122Y-102556567D01*
X132104904Y-102523304D01*
X132134871Y-102478455D01*
X132181962Y-102446988D01*
X132237511Y-102458037D01*
X132257929Y-102478455D01*
X132287893Y-102523301D01*
X132287895Y-102523303D01*
X132287896Y-102523304D01*
X132337678Y-102556567D01*
X132381580Y-102565300D01*
X132381581Y-102565300D01*
X133111219Y-102565300D01*
X133111220Y-102565300D01*
X133155122Y-102556567D01*
X133204904Y-102523304D01*
X133234871Y-102478455D01*
X133281962Y-102446988D01*
X133337511Y-102458037D01*
X133357929Y-102478455D01*
X133387893Y-102523301D01*
X133387895Y-102523303D01*
X133387896Y-102523304D01*
X133437678Y-102556567D01*
X133481580Y-102565300D01*
X133481581Y-102565300D01*
X134211219Y-102565300D01*
X134211220Y-102565300D01*
X134255122Y-102556567D01*
X134304904Y-102523304D01*
X134334871Y-102478455D01*
X134381962Y-102446988D01*
X134437511Y-102458037D01*
X134457929Y-102478455D01*
X134487893Y-102523301D01*
X134487895Y-102523303D01*
X134487896Y-102523304D01*
X134537678Y-102556567D01*
X134581580Y-102565300D01*
X134581581Y-102565300D01*
X135311219Y-102565300D01*
X135311220Y-102565300D01*
X135355122Y-102556567D01*
X135404904Y-102523304D01*
X135438167Y-102473522D01*
X135446900Y-102429620D01*
X135446900Y-101199980D01*
X135845900Y-101199980D01*
X135845900Y-102429620D01*
X135854633Y-102473522D01*
X135887896Y-102523304D01*
X135937678Y-102556567D01*
X135981580Y-102565300D01*
X135981581Y-102565300D01*
X137011219Y-102565300D01*
X137011220Y-102565300D01*
X137055122Y-102556567D01*
X137104904Y-102523304D01*
X137138167Y-102473522D01*
X137146900Y-102429620D01*
X137146900Y-101199980D01*
X137138167Y-101156078D01*
X137104904Y-101106296D01*
X137055122Y-101073033D01*
X137011220Y-101064300D01*
X135981580Y-101064300D01*
X135959629Y-101068666D01*
X135937677Y-101073033D01*
X135887896Y-101106295D01*
X135887895Y-101106296D01*
X135854633Y-101156077D01*
X135854633Y-101156078D01*
X135845900Y-101199980D01*
X135446900Y-101199980D01*
X135438167Y-101156078D01*
X135404904Y-101106296D01*
X135355122Y-101073033D01*
X135311220Y-101064300D01*
X134581580Y-101064300D01*
X134559629Y-101068666D01*
X134537677Y-101073033D01*
X134487896Y-101106295D01*
X134487895Y-101106296D01*
X134457929Y-101151145D01*
X134410837Y-101182611D01*
X134355288Y-101171562D01*
X134334871Y-101151145D01*
X134304904Y-101106296D01*
X134304903Y-101106295D01*
X134255122Y-101073033D01*
X134211220Y-101064300D01*
X134211219Y-101064300D01*
X134085700Y-101064300D01*
X134033374Y-101042626D01*
X134011700Y-100990300D01*
X134011700Y-98543318D01*
X134011699Y-98543316D01*
X133981177Y-98469628D01*
X133981175Y-98469625D01*
X133923364Y-98411814D01*
X137079500Y-98411814D01*
X137079500Y-98588185D01*
X137107089Y-98762381D01*
X137107092Y-98762394D01*
X137161589Y-98930117D01*
X137241661Y-99087270D01*
X137345326Y-99229952D01*
X137345330Y-99229957D01*
X137470043Y-99354670D01*
X137470046Y-99354672D01*
X137470047Y-99354673D01*
X137612729Y-99458338D01*
X137688474Y-99496931D01*
X137769877Y-99538408D01*
X137769879Y-99538408D01*
X137769882Y-99538410D01*
X137937605Y-99592907D01*
X137937611Y-99592908D01*
X137937616Y-99592910D01*
X138053748Y-99611303D01*
X138111814Y-99620500D01*
X138111815Y-99620500D01*
X138288186Y-99620500D01*
X138331734Y-99613602D01*
X138462384Y-99592910D01*
X138462391Y-99592907D01*
X138462394Y-99592907D01*
X138630117Y-99538410D01*
X138630117Y-99538409D01*
X138630123Y-99538408D01*
X138787270Y-99458338D01*
X138929957Y-99354670D01*
X139054670Y-99229957D01*
X139158338Y-99087270D01*
X139238408Y-98930123D01*
X139292910Y-98762384D01*
X139320500Y-98588185D01*
X139320500Y-98411815D01*
X139292910Y-98237616D01*
X139292908Y-98237611D01*
X139292907Y-98237605D01*
X139238410Y-98069882D01*
X139238408Y-98069879D01*
X139238408Y-98069877D01*
X139193044Y-97980845D01*
X139158338Y-97912729D01*
X139054673Y-97770047D01*
X139054672Y-97770046D01*
X139054670Y-97770043D01*
X138929957Y-97645330D01*
X138929954Y-97645327D01*
X138929952Y-97645326D01*
X138787270Y-97541661D01*
X138630117Y-97461589D01*
X138462394Y-97407092D01*
X138462381Y-97407089D01*
X138288186Y-97379500D01*
X138288185Y-97379500D01*
X138111815Y-97379500D01*
X138111814Y-97379500D01*
X137937618Y-97407089D01*
X137937605Y-97407092D01*
X137769882Y-97461589D01*
X137612729Y-97541661D01*
X137470047Y-97645326D01*
X137345326Y-97770047D01*
X137241661Y-97912729D01*
X137161589Y-98069882D01*
X137107092Y-98237605D01*
X137107089Y-98237618D01*
X137079500Y-98411814D01*
X133923364Y-98411814D01*
X133920559Y-98409009D01*
X133920552Y-98409003D01*
X133613815Y-98102265D01*
X133592141Y-98049939D01*
X133613815Y-97997613D01*
X133651701Y-97977362D01*
X133679331Y-97971867D01*
X133745652Y-97927552D01*
X133789967Y-97861231D01*
X133801600Y-97802748D01*
X133801600Y-97238252D01*
X133789967Y-97179769D01*
X133745652Y-97113448D01*
X133709987Y-97089617D01*
X133679332Y-97069133D01*
X133679333Y-97069133D01*
X133650089Y-97063316D01*
X133620848Y-97057500D01*
X133481352Y-97057500D01*
X133452110Y-97063316D01*
X133422867Y-97069133D01*
X133392212Y-97089617D01*
X133336664Y-97100666D01*
X133309988Y-97089617D01*
X133279331Y-97069133D01*
X133279333Y-97069133D01*
X133250089Y-97063316D01*
X133220848Y-97057500D01*
X133081352Y-97057500D01*
X133052110Y-97063316D01*
X133022867Y-97069133D01*
X132992212Y-97089617D01*
X132936664Y-97100666D01*
X132909988Y-97089617D01*
X132879331Y-97069133D01*
X132879333Y-97069133D01*
X132850089Y-97063316D01*
X132820848Y-97057500D01*
X132681352Y-97057500D01*
X132652110Y-97063316D01*
X132622867Y-97069133D01*
X132592212Y-97089617D01*
X132536664Y-97100666D01*
X132509988Y-97089617D01*
X132479331Y-97069133D01*
X132479333Y-97069133D01*
X132450089Y-97063316D01*
X132420848Y-97057500D01*
X132281352Y-97057500D01*
X132252110Y-97063316D01*
X132222867Y-97069133D01*
X132192212Y-97089617D01*
X132136664Y-97100666D01*
X132109988Y-97089617D01*
X132079331Y-97069133D01*
X132079333Y-97069133D01*
X132050089Y-97063316D01*
X132020848Y-97057500D01*
X131881352Y-97057500D01*
X131852110Y-97063316D01*
X131822867Y-97069133D01*
X131792212Y-97089617D01*
X131736664Y-97100666D01*
X131709988Y-97089617D01*
X131679331Y-97069133D01*
X131679333Y-97069133D01*
X131650089Y-97063316D01*
X131620848Y-97057500D01*
X131481352Y-97057500D01*
X131452110Y-97063316D01*
X131422867Y-97069133D01*
X131392212Y-97089617D01*
X131336664Y-97100666D01*
X131309988Y-97089617D01*
X131279331Y-97069133D01*
X131279333Y-97069133D01*
X131250089Y-97063316D01*
X131220848Y-97057500D01*
X131081352Y-97057500D01*
X131052110Y-97063316D01*
X131022867Y-97069133D01*
X130992212Y-97089617D01*
X130936664Y-97100666D01*
X130909988Y-97089617D01*
X130879331Y-97069133D01*
X130879333Y-97069133D01*
X130850089Y-97063316D01*
X130820848Y-97057500D01*
X130681352Y-97057500D01*
X130652110Y-97063316D01*
X130622867Y-97069133D01*
X130556549Y-97113447D01*
X130556547Y-97113449D01*
X130512233Y-97179767D01*
X130500600Y-97238253D01*
X130500600Y-97802746D01*
X130512233Y-97861232D01*
X130541708Y-97905343D01*
X130556548Y-97927552D01*
X130575676Y-97940333D01*
X130580335Y-97943446D01*
X130611800Y-97990538D01*
X130600750Y-98046087D01*
X130591548Y-98057300D01*
X128197626Y-100451224D01*
X128141222Y-100507628D01*
X128110700Y-100581316D01*
X128110700Y-100990300D01*
X128089026Y-101042626D01*
X128036700Y-101064300D01*
X127981580Y-101064300D01*
X127959629Y-101068666D01*
X127937677Y-101073033D01*
X127887896Y-101106295D01*
X127887895Y-101106296D01*
X127857929Y-101151145D01*
X127810837Y-101182611D01*
X127755288Y-101171562D01*
X127734871Y-101151145D01*
X127704904Y-101106296D01*
X127704903Y-101106295D01*
X127655122Y-101073033D01*
X127611220Y-101064300D01*
X126881580Y-101064300D01*
X126859629Y-101068666D01*
X126837677Y-101073033D01*
X126787896Y-101106295D01*
X126787895Y-101106296D01*
X126754633Y-101156077D01*
X126754633Y-101156078D01*
X126745900Y-101199980D01*
X122035700Y-101199980D01*
X122035700Y-98411814D01*
X124679500Y-98411814D01*
X124679500Y-98588185D01*
X124707089Y-98762381D01*
X124707092Y-98762394D01*
X124761589Y-98930117D01*
X124841661Y-99087270D01*
X124945326Y-99229952D01*
X124945330Y-99229957D01*
X125070043Y-99354670D01*
X125070046Y-99354672D01*
X125070047Y-99354673D01*
X125212729Y-99458338D01*
X125288474Y-99496931D01*
X125369877Y-99538408D01*
X125369879Y-99538408D01*
X125369882Y-99538410D01*
X125537605Y-99592907D01*
X125537611Y-99592908D01*
X125537616Y-99592910D01*
X125653748Y-99611303D01*
X125711814Y-99620500D01*
X125711815Y-99620500D01*
X125888186Y-99620500D01*
X125931734Y-99613602D01*
X126062384Y-99592910D01*
X126062391Y-99592907D01*
X126062394Y-99592907D01*
X126230117Y-99538410D01*
X126230117Y-99538409D01*
X126230123Y-99538408D01*
X126387270Y-99458338D01*
X126529957Y-99354670D01*
X126654670Y-99229957D01*
X126758338Y-99087270D01*
X126838408Y-98930123D01*
X126892910Y-98762384D01*
X126920500Y-98588185D01*
X126920500Y-98411815D01*
X126892910Y-98237616D01*
X126892908Y-98237611D01*
X126892907Y-98237605D01*
X126838410Y-98069882D01*
X126838408Y-98069879D01*
X126838408Y-98069877D01*
X126793044Y-97980845D01*
X126758338Y-97912729D01*
X126654673Y-97770047D01*
X126654672Y-97770046D01*
X126654670Y-97770043D01*
X126529957Y-97645330D01*
X126529954Y-97645327D01*
X126529952Y-97645326D01*
X126387270Y-97541661D01*
X126230117Y-97461589D01*
X126062394Y-97407092D01*
X126062381Y-97407089D01*
X125888186Y-97379500D01*
X125888185Y-97379500D01*
X125711815Y-97379500D01*
X125711814Y-97379500D01*
X125537618Y-97407089D01*
X125537605Y-97407092D01*
X125369882Y-97461589D01*
X125212729Y-97541661D01*
X125070047Y-97645326D01*
X124945326Y-97770047D01*
X124841661Y-97912729D01*
X124761589Y-98069882D01*
X124707092Y-98237605D01*
X124707089Y-98237618D01*
X124679500Y-98411814D01*
X122035700Y-98411814D01*
X122035700Y-84264359D01*
X124674500Y-84264359D01*
X124674500Y-84785640D01*
X124685134Y-84858625D01*
X124685134Y-84858626D01*
X124740173Y-84971210D01*
X124740174Y-84971211D01*
X124828789Y-85059826D01*
X124941375Y-85114866D01*
X125014364Y-85125500D01*
X125014370Y-85125500D01*
X125585630Y-85125500D01*
X125585636Y-85125500D01*
X125658625Y-85114866D01*
X125771211Y-85059826D01*
X125859826Y-84971211D01*
X125914866Y-84858625D01*
X125921392Y-84813830D01*
X125950384Y-84765177D01*
X125994619Y-84750500D01*
X126257759Y-84750500D01*
X126287648Y-84756804D01*
X126380009Y-84797586D01*
X126405135Y-84800501D01*
X127519864Y-84800500D01*
X127544991Y-84797586D01*
X127647765Y-84752207D01*
X127727206Y-84672766D01*
X127772585Y-84569992D01*
X127775500Y-84544866D01*
X127775499Y-84155137D01*
X127772585Y-84130010D01*
X127727206Y-84027236D01*
X127647765Y-83947795D01*
X127544991Y-83902416D01*
X127544990Y-83902415D01*
X127544988Y-83902415D01*
X127519865Y-83899501D01*
X127031940Y-83899501D01*
X126979614Y-83877827D01*
X126957940Y-83825501D01*
X126967854Y-83788502D01*
X126993203Y-83744595D01*
X126993204Y-83744591D01*
X126993207Y-83744587D01*
X127020499Y-83642729D01*
X127020500Y-83642729D01*
X127020500Y-83537271D01*
X127020499Y-83537270D01*
X126995887Y-83445417D01*
X126993207Y-83435413D01*
X126940480Y-83344087D01*
X126865913Y-83269520D01*
X126791908Y-83226793D01*
X126774591Y-83216795D01*
X126774582Y-83216791D01*
X126672729Y-83189500D01*
X126672727Y-83189500D01*
X126567273Y-83189500D01*
X126567271Y-83189500D01*
X126465417Y-83216791D01*
X126465408Y-83216795D01*
X126374086Y-83269520D01*
X126307326Y-83336281D01*
X126255000Y-83357955D01*
X126202674Y-83336281D01*
X126145913Y-83279520D01*
X126054591Y-83226795D01*
X126054582Y-83226791D01*
X125952729Y-83199500D01*
X125952727Y-83199500D01*
X125847273Y-83199500D01*
X125847271Y-83199500D01*
X125745417Y-83226791D01*
X125745408Y-83226795D01*
X125654086Y-83279520D01*
X125579520Y-83354086D01*
X125526795Y-83445408D01*
X125526791Y-83445417D01*
X125499500Y-83547270D01*
X125499500Y-83850500D01*
X125477826Y-83902826D01*
X125425500Y-83924500D01*
X125014359Y-83924500D01*
X124941374Y-83935134D01*
X124941373Y-83935134D01*
X124828789Y-83990173D01*
X124740173Y-84078789D01*
X124685134Y-84191373D01*
X124685134Y-84191374D01*
X124674500Y-84264359D01*
X122035700Y-84264359D01*
X122035700Y-61386814D01*
X124679500Y-61386814D01*
X124679500Y-61563185D01*
X124707089Y-61737381D01*
X124707092Y-61737394D01*
X124761589Y-61905117D01*
X124841661Y-62062270D01*
X124945326Y-62204952D01*
X124945330Y-62204957D01*
X125070043Y-62329670D01*
X125070046Y-62329672D01*
X125070047Y-62329673D01*
X125212729Y-62433338D01*
X125288474Y-62471931D01*
X125369877Y-62513408D01*
X125369879Y-62513408D01*
X125369882Y-62513410D01*
X125537605Y-62567907D01*
X125537611Y-62567908D01*
X125537616Y-62567910D01*
X125653748Y-62586303D01*
X125711814Y-62595500D01*
X125711815Y-62595500D01*
X125888186Y-62595500D01*
X125931734Y-62588602D01*
X126062384Y-62567910D01*
X126062391Y-62567907D01*
X126062394Y-62567907D01*
X126230117Y-62513410D01*
X126230117Y-62513409D01*
X126230123Y-62513408D01*
X126387270Y-62433338D01*
X126529957Y-62329670D01*
X126654670Y-62204957D01*
X126758338Y-62062270D01*
X126838408Y-61905123D01*
X126891982Y-61740240D01*
X126892907Y-61737394D01*
X126892907Y-61737391D01*
X126892910Y-61737384D01*
X126920500Y-61563185D01*
X126920500Y-61386815D01*
X126892910Y-61212616D01*
X126892908Y-61212611D01*
X126892907Y-61212605D01*
X126838410Y-61044882D01*
X126838408Y-61044879D01*
X126838408Y-61044877D01*
X126796931Y-60963474D01*
X126758338Y-60887729D01*
X126654673Y-60745047D01*
X126654672Y-60745046D01*
X126654670Y-60745043D01*
X126529957Y-60620330D01*
X126529954Y-60620327D01*
X126529952Y-60620326D01*
X126387270Y-60516661D01*
X126230117Y-60436589D01*
X126062394Y-60382092D01*
X126062381Y-60382089D01*
X125888186Y-60354500D01*
X125888185Y-60354500D01*
X125711815Y-60354500D01*
X125711814Y-60354500D01*
X125537618Y-60382089D01*
X125537605Y-60382092D01*
X125369882Y-60436589D01*
X125212729Y-60516661D01*
X125070047Y-60620326D01*
X124945326Y-60745047D01*
X124841661Y-60887729D01*
X124761589Y-61044882D01*
X124707092Y-61212605D01*
X124707089Y-61212618D01*
X124679500Y-61386814D01*
X122035700Y-61386814D01*
X122035700Y-54994892D01*
X128773900Y-54994892D01*
X128773900Y-55145108D01*
X128812778Y-55290205D01*
X128812780Y-55290209D01*
X128887883Y-55420291D01*
X128887884Y-55420292D01*
X128887886Y-55420295D01*
X128994105Y-55526514D01*
X129124195Y-55601622D01*
X129269292Y-55640500D01*
X129269293Y-55640500D01*
X129419507Y-55640500D01*
X129419508Y-55640500D01*
X129564605Y-55601622D01*
X129694695Y-55526514D01*
X129800914Y-55420295D01*
X129876022Y-55290205D01*
X129914900Y-55145108D01*
X129914900Y-54994892D01*
X133373900Y-54994892D01*
X133373900Y-55145108D01*
X133412778Y-55290205D01*
X133412780Y-55290209D01*
X133487883Y-55420291D01*
X133487884Y-55420292D01*
X133487886Y-55420295D01*
X133594105Y-55526514D01*
X133724195Y-55601622D01*
X133869292Y-55640500D01*
X133869293Y-55640500D01*
X134019507Y-55640500D01*
X134019508Y-55640500D01*
X134164605Y-55601622D01*
X134294695Y-55526514D01*
X134400914Y-55420295D01*
X134476022Y-55290205D01*
X134514900Y-55145108D01*
X134514900Y-54994892D01*
X134476022Y-54849795D01*
X134400914Y-54719705D01*
X134294695Y-54613486D01*
X134294692Y-54613484D01*
X134294691Y-54613483D01*
X134164609Y-54538380D01*
X134164605Y-54538378D01*
X134019508Y-54499500D01*
X133869292Y-54499500D01*
X133796743Y-54518939D01*
X133724194Y-54538378D01*
X133724190Y-54538380D01*
X133594108Y-54613483D01*
X133487883Y-54719708D01*
X133412780Y-54849790D01*
X133412778Y-54849794D01*
X133412778Y-54849795D01*
X133373900Y-54994892D01*
X129914900Y-54994892D01*
X129876022Y-54849795D01*
X129800914Y-54719705D01*
X129694695Y-54613486D01*
X129694692Y-54613484D01*
X129694691Y-54613483D01*
X129564609Y-54538380D01*
X129564605Y-54538378D01*
X129419508Y-54499500D01*
X129269292Y-54499500D01*
X129196743Y-54518939D01*
X129124194Y-54538378D01*
X129124190Y-54538380D01*
X128994108Y-54613483D01*
X128887883Y-54719708D01*
X128812780Y-54849790D01*
X128812778Y-54849794D01*
X128812778Y-54849795D01*
X128773900Y-54994892D01*
X122035700Y-54994892D01*
X122035700Y-52554500D01*
X122057374Y-52502174D01*
X122109700Y-52480500D01*
X141991900Y-52480500D01*
X142044226Y-52502174D01*
G37*
%TD.AperFunction*%
%TA.AperFunction,Conductor*%
G36*
X135269816Y-91004327D02*
G01*
X135279730Y-91003022D01*
X135295054Y-91014781D01*
X135312903Y-91022174D01*
X135324662Y-91037498D01*
X135329520Y-91045913D01*
X135404087Y-91120480D01*
X135495413Y-91173207D01*
X135597270Y-91200499D01*
X135597271Y-91200500D01*
X135597273Y-91200500D01*
X135702728Y-91200500D01*
X135716618Y-91196777D01*
X135762887Y-91184380D01*
X135819038Y-91191772D01*
X135853517Y-91236704D01*
X135846125Y-91292857D01*
X135834365Y-91308184D01*
X133037526Y-94105024D01*
X132981122Y-94161428D01*
X132950600Y-94235116D01*
X132950600Y-95568140D01*
X132947865Y-95574741D01*
X132949341Y-95581733D01*
X132937339Y-95600153D01*
X132928926Y-95620466D01*
X132922324Y-95623200D01*
X132918424Y-95629187D01*
X132897535Y-95633468D01*
X132876600Y-95642140D01*
X132863007Y-95640881D01*
X132862596Y-95640804D01*
X132820848Y-95632500D01*
X132818156Y-95632500D01*
X132812007Y-95631351D01*
X132790756Y-95617505D01*
X132768395Y-95605552D01*
X132767175Y-95602142D01*
X132764553Y-95600434D01*
X132761661Y-95586732D01*
X132751600Y-95558610D01*
X132751600Y-95185175D01*
X132751599Y-95185173D01*
X132721077Y-95111485D01*
X132721075Y-95111482D01*
X132622174Y-95012581D01*
X132600500Y-94960255D01*
X132600500Y-94311570D01*
X132601000Y-94306496D01*
X132601000Y-93885915D01*
X132600500Y-93880833D01*
X132600500Y-93066288D01*
X132622174Y-93013962D01*
X132659775Y-92976361D01*
X132659776Y-92976360D01*
X132690300Y-92902668D01*
X132690300Y-92491532D01*
X132659776Y-92417840D01*
X132622174Y-92380238D01*
X132600500Y-92327912D01*
X132600500Y-91899418D01*
X132600499Y-91899416D01*
X132569977Y-91825728D01*
X132569975Y-91825725D01*
X132259175Y-91514925D01*
X132259171Y-91514922D01*
X132185482Y-91484400D01*
X131870657Y-91484400D01*
X131818331Y-91462726D01*
X131796657Y-91410400D01*
X131818331Y-91358074D01*
X131818340Y-91358065D01*
X131868238Y-91308184D01*
X132154356Y-91022164D01*
X132206673Y-91000500D01*
X135260577Y-91000500D01*
X135269816Y-91004327D01*
G37*
%TD.AperFunction*%
%TA.AperFunction,Conductor*%
G36*
X130845626Y-92181774D02*
G01*
X130867300Y-92234100D01*
X130867300Y-92330229D01*
X130894591Y-92432082D01*
X130894595Y-92432091D01*
X130936557Y-92504771D01*
X130947320Y-92523413D01*
X131021887Y-92597980D01*
X131113213Y-92650707D01*
X131215070Y-92677999D01*
X131215071Y-92678000D01*
X131276600Y-92678000D01*
X131328926Y-92699674D01*
X131350600Y-92752000D01*
X131350600Y-93496898D01*
X131328926Y-93549224D01*
X131276600Y-93570898D01*
X131224274Y-93549224D01*
X130161476Y-92486426D01*
X130139802Y-92434100D01*
X130161476Y-92381774D01*
X130213802Y-92360100D01*
X130274729Y-92360100D01*
X130274729Y-92360099D01*
X130376587Y-92332807D01*
X130467913Y-92280080D01*
X130542480Y-92205513D01*
X130547337Y-92197099D01*
X130592270Y-92162622D01*
X130611423Y-92160100D01*
X130793300Y-92160100D01*
X130845626Y-92181774D01*
G37*
%TD.AperFunction*%
%TA.AperFunction,Conductor*%
G36*
X136288179Y-84958400D02*
G01*
X136295614Y-84956922D01*
X136313560Y-84968913D01*
X136333503Y-84977174D01*
X136336403Y-84984176D01*
X136342706Y-84988388D01*
X136346916Y-85009558D01*
X136355177Y-85029500D01*
X136353755Y-85043933D01*
X136349500Y-85065326D01*
X136349500Y-85374674D01*
X136364034Y-85447740D01*
X136419399Y-85530601D01*
X136466612Y-85562146D01*
X136498078Y-85609237D01*
X136499500Y-85623675D01*
X136499500Y-85785577D01*
X136477826Y-85837903D01*
X136462501Y-85849662D01*
X136454090Y-85854518D01*
X136454088Y-85854519D01*
X136379520Y-85929086D01*
X136326795Y-86020408D01*
X136326791Y-86020417D01*
X136299500Y-86122270D01*
X136299500Y-86227729D01*
X136326791Y-86329582D01*
X136326795Y-86329591D01*
X136347224Y-86364975D01*
X136379520Y-86420913D01*
X136454087Y-86495480D01*
X136507330Y-86526220D01*
X136513961Y-86530048D01*
X136548440Y-86574981D01*
X136541048Y-86631133D01*
X136529288Y-86646460D01*
X136044726Y-87131024D01*
X135988322Y-87187428D01*
X135957800Y-87261116D01*
X135957800Y-89602859D01*
X135936126Y-89655185D01*
X135883800Y-89676859D01*
X135831474Y-89655185D01*
X135819714Y-89639859D01*
X135788379Y-89585586D01*
X135773272Y-89570479D01*
X135713813Y-89511020D01*
X135713810Y-89511018D01*
X135710383Y-89507591D01*
X135712561Y-89505412D01*
X135689115Y-89464624D01*
X135688500Y-89455104D01*
X135688500Y-85029500D01*
X135710174Y-84977174D01*
X135762500Y-84955500D01*
X136281177Y-84955500D01*
X136288179Y-84958400D01*
G37*
%TD.AperFunction*%
%TA.AperFunction,Conductor*%
G36*
X129539884Y-79247174D02*
G01*
X129561558Y-79299500D01*
X129539884Y-79351826D01*
X129539874Y-79351836D01*
X129237295Y-79654296D01*
X129016004Y-79875500D01*
X128963647Y-79927836D01*
X128911331Y-79949500D01*
X128899500Y-79949500D01*
X128847174Y-79927826D01*
X128825500Y-79875500D01*
X128825500Y-79435180D01*
X128824211Y-79428702D01*
X128816767Y-79391278D01*
X128783504Y-79341496D01*
X128783503Y-79341495D01*
X128782913Y-79340612D01*
X128771864Y-79285063D01*
X128803330Y-79237971D01*
X128844442Y-79225500D01*
X129487558Y-79225500D01*
X129539884Y-79247174D01*
G37*
%TD.AperFunction*%
%TA.AperFunction,Conductor*%
G36*
X132850171Y-71360500D02*
G01*
X133050172Y-71360500D01*
X133675500Y-71360500D01*
X133727826Y-71382174D01*
X133749500Y-71434500D01*
X133749500Y-71554674D01*
X133764034Y-71627740D01*
X133819399Y-71710601D01*
X133902260Y-71765966D01*
X133975326Y-71780500D01*
X133975328Y-71780500D01*
X134224672Y-71780500D01*
X134224674Y-71780500D01*
X134297740Y-71765966D01*
X134315560Y-71754058D01*
X134336729Y-71749846D01*
X134356673Y-71741586D01*
X134363674Y-71744485D01*
X134371107Y-71743007D01*
X134408999Y-71763260D01*
X134427826Y-71782087D01*
X134449500Y-71834413D01*
X134449500Y-72609826D01*
X134427826Y-72662152D01*
X134426110Y-72663813D01*
X134377800Y-72709101D01*
X134351119Y-72724563D01*
X134351296Y-72725075D01*
X134349421Y-72725722D01*
X134349420Y-72725723D01*
X134348607Y-72726004D01*
X134317923Y-72736606D01*
X134317921Y-72736607D01*
X133948521Y-72910558D01*
X133575890Y-73086031D01*
X133476714Y-73132733D01*
X133453551Y-73146192D01*
X133453527Y-73146208D01*
X133432757Y-73160810D01*
X133427509Y-73164666D01*
X133378512Y-73228521D01*
X133378510Y-73228525D01*
X133356838Y-73280845D01*
X133356835Y-73280855D01*
X133345000Y-73340358D01*
X133345000Y-73403404D01*
X133356851Y-73462945D01*
X133367735Y-73489200D01*
X133367741Y-73489216D01*
X133372349Y-73500340D01*
X133372481Y-73504014D01*
X133383100Y-73525252D01*
X133383100Y-73525253D01*
X133383105Y-73525263D01*
X133383276Y-73525500D01*
X133385300Y-73528307D01*
X133389827Y-73535405D01*
X133399848Y-73553285D01*
X133406523Y-73609527D01*
X133386441Y-73642944D01*
X133116680Y-73900931D01*
X133063883Y-73921433D01*
X133037226Y-73915822D01*
X133011311Y-73905092D01*
X133011307Y-73905091D01*
X133011305Y-73905090D01*
X132972115Y-73894592D01*
X132972113Y-73894592D01*
X132892312Y-73905098D01*
X132892308Y-73905099D01*
X132839993Y-73926769D01*
X132839980Y-73926775D01*
X132838692Y-73927519D01*
X132838393Y-73927558D01*
X132837816Y-73927843D01*
X132837719Y-73927646D01*
X132782538Y-73934901D01*
X132742996Y-73908475D01*
X132740284Y-73904941D01*
X132669574Y-73834231D01*
X132599866Y-73793985D01*
X132599865Y-73793985D01*
X132581491Y-73793985D01*
X132529165Y-73772311D01*
X132453553Y-73696699D01*
X132377941Y-73772311D01*
X132348969Y-73790203D01*
X132337598Y-73793985D01*
X132307241Y-73793985D01*
X132265991Y-73817800D01*
X132258854Y-73820174D01*
X132237535Y-73818644D01*
X132216346Y-73821434D01*
X132210150Y-73816679D01*
X132202362Y-73816121D01*
X132188369Y-73799966D01*
X132171414Y-73786955D01*
X132168866Y-73777448D01*
X132165282Y-73773310D01*
X132165804Y-73766021D01*
X132161500Y-73749956D01*
X132161500Y-73323413D01*
X132183174Y-73271087D01*
X132662363Y-72791898D01*
X132662364Y-72791897D01*
X132700500Y-72699828D01*
X132700500Y-72600172D01*
X132700500Y-72092098D01*
X132710534Y-72059026D01*
X132709575Y-72058629D01*
X132750500Y-71959829D01*
X132750501Y-71959827D01*
X132750501Y-71860172D01*
X132750501Y-71853122D01*
X132750499Y-71853100D01*
X132750499Y-71460172D01*
X132748387Y-71455074D01*
X132748387Y-71398437D01*
X132788435Y-71358388D01*
X132845072Y-71358388D01*
X132850171Y-71360500D01*
G37*
%TD.AperFunction*%
%TA.AperFunction,Conductor*%
G36*
X134827828Y-70252174D02*
G01*
X134849502Y-70304500D01*
X134849502Y-70419863D01*
X134852415Y-70444986D01*
X134852416Y-70444992D01*
X134875661Y-70497636D01*
X134897795Y-70547765D01*
X134977236Y-70627206D01*
X135080010Y-70672585D01*
X135105136Y-70675500D01*
X135494865Y-70675499D01*
X135519992Y-70672585D01*
X135558735Y-70655477D01*
X135615355Y-70654170D01*
X135656319Y-70693282D01*
X135657627Y-70749904D01*
X135640950Y-70775499D01*
X135187547Y-71228902D01*
X135187535Y-71228914D01*
X135186426Y-71230024D01*
X135130024Y-71286426D01*
X135126133Y-71295816D01*
X135117291Y-71305452D01*
X135102566Y-71312303D01*
X135091080Y-71323787D01*
X135082200Y-71326819D01*
X135080012Y-71327414D01*
X134977235Y-71372794D01*
X134904471Y-71445558D01*
X134852145Y-71467232D01*
X134799819Y-71445558D01*
X134541898Y-71187637D01*
X134541894Y-71187634D01*
X134449825Y-71149498D01*
X134446363Y-71148810D01*
X134402473Y-71121770D01*
X134400790Y-71119614D01*
X134380601Y-71089399D01*
X134373493Y-71084650D01*
X134366170Y-71075269D01*
X134361544Y-71058565D01*
X134351919Y-71044153D01*
X134350500Y-71029732D01*
X134350500Y-70990267D01*
X134372174Y-70937941D01*
X134378229Y-70932972D01*
X134380597Y-70930603D01*
X134380601Y-70930601D01*
X134435966Y-70847740D01*
X134450500Y-70774674D01*
X134450500Y-70465326D01*
X134435966Y-70392260D01*
X134404796Y-70345611D01*
X134393748Y-70290063D01*
X134425214Y-70242971D01*
X134466326Y-70230500D01*
X134716872Y-70230500D01*
X134775502Y-70230500D01*
X134827828Y-70252174D01*
G37*
%TD.AperFunction*%
%TD*%
M02*
