%TF.GenerationSoftware,KiCad,Pcbnew,9.0.9-9.0.9~ubuntu24.04.1*%
%TF.CreationDate,2026-06-18T12:35:29+02:00*%
%TF.ProjectId,dabao_v3c,64616261-6f5f-4763-9363-2e6b69636164,rev?*%
%TF.SameCoordinates,Original*%
%TF.FileFunction,Legend,Top*%
%TF.FilePolarity,Positive*%
%FSLAX46Y46*%
G04 Gerber Fmt 4.6, Leading zero omitted, Abs format (unit mm)*
G04 Created by KiCad (PCBNEW 9.0.9-9.0.9~ubuntu24.04.1) date 2026-06-18 12:35:29*
%MOMM*%
%LPD*%
G01*
G04 APERTURE LIST*
%ADD10C,0.150000*%
%ADD11C,0.120000*%
%ADD12C,0.000000*%
%ADD13C,0.200000*%
G04 APERTURE END LIST*
D10*
X126941541Y-74518771D02*
X126941541Y-73918771D01*
X126941541Y-73918771D02*
X127170112Y-73918771D01*
X127170112Y-73918771D02*
X127227255Y-73947342D01*
X127227255Y-73947342D02*
X127255826Y-73975914D01*
X127255826Y-73975914D02*
X127284398Y-74033057D01*
X127284398Y-74033057D02*
X127284398Y-74118771D01*
X127284398Y-74118771D02*
X127255826Y-74175914D01*
X127255826Y-74175914D02*
X127227255Y-74204485D01*
X127227255Y-74204485D02*
X127170112Y-74233057D01*
X127170112Y-74233057D02*
X126941541Y-74233057D01*
X127884398Y-74518771D02*
X127684398Y-74233057D01*
X127541541Y-74518771D02*
X127541541Y-73918771D01*
X127541541Y-73918771D02*
X127770112Y-73918771D01*
X127770112Y-73918771D02*
X127827255Y-73947342D01*
X127827255Y-73947342D02*
X127855826Y-73975914D01*
X127855826Y-73975914D02*
X127884398Y-74033057D01*
X127884398Y-74033057D02*
X127884398Y-74118771D01*
X127884398Y-74118771D02*
X127855826Y-74175914D01*
X127855826Y-74175914D02*
X127827255Y-74204485D01*
X127827255Y-74204485D02*
X127770112Y-74233057D01*
X127770112Y-74233057D02*
X127541541Y-74233057D01*
X128255826Y-73918771D02*
X128370112Y-73918771D01*
X128370112Y-73918771D02*
X128427255Y-73947342D01*
X128427255Y-73947342D02*
X128484398Y-74004485D01*
X128484398Y-74004485D02*
X128512969Y-74118771D01*
X128512969Y-74118771D02*
X128512969Y-74318771D01*
X128512969Y-74318771D02*
X128484398Y-74433057D01*
X128484398Y-74433057D02*
X128427255Y-74490200D01*
X128427255Y-74490200D02*
X128370112Y-74518771D01*
X128370112Y-74518771D02*
X128255826Y-74518771D01*
X128255826Y-74518771D02*
X128198684Y-74490200D01*
X128198684Y-74490200D02*
X128141541Y-74433057D01*
X128141541Y-74433057D02*
X128112969Y-74318771D01*
X128112969Y-74318771D02*
X128112969Y-74118771D01*
X128112969Y-74118771D02*
X128141541Y-74004485D01*
X128141541Y-74004485D02*
X128198684Y-73947342D01*
X128198684Y-73947342D02*
X128255826Y-73918771D01*
X129084397Y-73947342D02*
X129027255Y-73918771D01*
X129027255Y-73918771D02*
X128941540Y-73918771D01*
X128941540Y-73918771D02*
X128855826Y-73947342D01*
X128855826Y-73947342D02*
X128798683Y-74004485D01*
X128798683Y-74004485D02*
X128770112Y-74061628D01*
X128770112Y-74061628D02*
X128741540Y-74175914D01*
X128741540Y-74175914D02*
X128741540Y-74261628D01*
X128741540Y-74261628D02*
X128770112Y-74375914D01*
X128770112Y-74375914D02*
X128798683Y-74433057D01*
X128798683Y-74433057D02*
X128855826Y-74490200D01*
X128855826Y-74490200D02*
X128941540Y-74518771D01*
X128941540Y-74518771D02*
X128998683Y-74518771D01*
X128998683Y-74518771D02*
X129084397Y-74490200D01*
X129084397Y-74490200D02*
X129112969Y-74461628D01*
X129112969Y-74461628D02*
X129112969Y-74261628D01*
X129112969Y-74261628D02*
X128998683Y-74261628D01*
X131401980Y-62897457D02*
X131449600Y-62945076D01*
X131449600Y-62945076D02*
X131497219Y-63087933D01*
X131497219Y-63087933D02*
X131497219Y-63183171D01*
X131497219Y-63183171D02*
X131449600Y-63326028D01*
X131449600Y-63326028D02*
X131354361Y-63421266D01*
X131354361Y-63421266D02*
X131259123Y-63468885D01*
X131259123Y-63468885D02*
X131068647Y-63516504D01*
X131068647Y-63516504D02*
X130925790Y-63516504D01*
X130925790Y-63516504D02*
X130735314Y-63468885D01*
X130735314Y-63468885D02*
X130640076Y-63421266D01*
X130640076Y-63421266D02*
X130544838Y-63326028D01*
X130544838Y-63326028D02*
X130497219Y-63183171D01*
X130497219Y-63183171D02*
X130497219Y-63087933D01*
X130497219Y-63087933D02*
X130544838Y-62945076D01*
X130544838Y-62945076D02*
X130592457Y-62897457D01*
X131497219Y-61945076D02*
X131497219Y-62516504D01*
X131497219Y-62230790D02*
X130497219Y-62230790D01*
X130497219Y-62230790D02*
X130640076Y-62326028D01*
X130640076Y-62326028D02*
X130735314Y-62421266D01*
X130735314Y-62421266D02*
X130782933Y-62516504D01*
X130497219Y-61611742D02*
X130497219Y-60945076D01*
X130497219Y-60945076D02*
X131497219Y-61373647D01*
X132469771Y-85999999D02*
X132469771Y-86285713D01*
X132469771Y-86285713D02*
X131869771Y-86285713D01*
X131926914Y-85828571D02*
X131898342Y-85799999D01*
X131898342Y-85799999D02*
X131869771Y-85742857D01*
X131869771Y-85742857D02*
X131869771Y-85599999D01*
X131869771Y-85599999D02*
X131898342Y-85542857D01*
X131898342Y-85542857D02*
X131926914Y-85514285D01*
X131926914Y-85514285D02*
X131984057Y-85485714D01*
X131984057Y-85485714D02*
X132041200Y-85485714D01*
X132041200Y-85485714D02*
X132126914Y-85514285D01*
X132126914Y-85514285D02*
X132469771Y-85857142D01*
X132469771Y-85857142D02*
X132469771Y-85485714D01*
X134854641Y-75521061D02*
X134854641Y-75561467D01*
X134854641Y-75561467D02*
X134814235Y-75642279D01*
X134814235Y-75642279D02*
X134773829Y-75682685D01*
X134773829Y-75682685D02*
X134693017Y-75723092D01*
X134693017Y-75723092D02*
X134612205Y-75723092D01*
X134612205Y-75723092D02*
X134551595Y-75702889D01*
X134551595Y-75702889D02*
X134450580Y-75642279D01*
X134450580Y-75642279D02*
X134389971Y-75581670D01*
X134389971Y-75581670D02*
X134329362Y-75480655D01*
X134329362Y-75480655D02*
X134309159Y-75420046D01*
X134309159Y-75420046D02*
X134309159Y-75339234D01*
X134309159Y-75339234D02*
X134349565Y-75258421D01*
X134349565Y-75258421D02*
X134389971Y-75218015D01*
X134389971Y-75218015D02*
X134470783Y-75177609D01*
X134470783Y-75177609D02*
X134511189Y-75177609D01*
X134854641Y-74753345D02*
X134652611Y-74955376D01*
X134652611Y-74955376D02*
X134834438Y-75177609D01*
X134834438Y-75177609D02*
X134834438Y-75137203D01*
X134834438Y-75137203D02*
X134854641Y-75076594D01*
X134854641Y-75076594D02*
X134955656Y-74975579D01*
X134955656Y-74975579D02*
X135016266Y-74955376D01*
X135016266Y-74955376D02*
X135056672Y-74955376D01*
X135056672Y-74955376D02*
X135117281Y-74975579D01*
X135117281Y-74975579D02*
X135218296Y-75076594D01*
X135218296Y-75076594D02*
X135238499Y-75137203D01*
X135238499Y-75137203D02*
X135238499Y-75177609D01*
X135238499Y-75177609D02*
X135218296Y-75238218D01*
X135218296Y-75238218D02*
X135117281Y-75339234D01*
X135117281Y-75339234D02*
X135056672Y-75359437D01*
X135056672Y-75359437D02*
X135016266Y-75359437D01*
X130727609Y-82598092D02*
X130727609Y-82638498D01*
X130727609Y-82638498D02*
X130687203Y-82719310D01*
X130687203Y-82719310D02*
X130646797Y-82759717D01*
X130646797Y-82759717D02*
X130565985Y-82800123D01*
X130565985Y-82800123D02*
X130485173Y-82800123D01*
X130485173Y-82800123D02*
X130424563Y-82779920D01*
X130424563Y-82779920D02*
X130323548Y-82719310D01*
X130323548Y-82719310D02*
X130262939Y-82658701D01*
X130262939Y-82658701D02*
X130202330Y-82557686D01*
X130202330Y-82557686D02*
X130182127Y-82497077D01*
X130182127Y-82497077D02*
X130182127Y-82416265D01*
X130182127Y-82416265D02*
X130222533Y-82335452D01*
X130222533Y-82335452D02*
X130262939Y-82295046D01*
X130262939Y-82295046D02*
X130343751Y-82254640D01*
X130343751Y-82254640D02*
X130384157Y-82254640D01*
X131172076Y-82234437D02*
X130929640Y-82476874D01*
X131050858Y-82355655D02*
X130626594Y-81931391D01*
X130626594Y-81931391D02*
X130646797Y-82032407D01*
X130646797Y-82032407D02*
X130646797Y-82113219D01*
X130646797Y-82113219D02*
X130626594Y-82173828D01*
X131010452Y-81547533D02*
X131050858Y-81507127D01*
X131050858Y-81507127D02*
X131111467Y-81486924D01*
X131111467Y-81486924D02*
X131151873Y-81486924D01*
X131151873Y-81486924D02*
X131212483Y-81507127D01*
X131212483Y-81507127D02*
X131313498Y-81567736D01*
X131313498Y-81567736D02*
X131414513Y-81668751D01*
X131414513Y-81668751D02*
X131475122Y-81769767D01*
X131475122Y-81769767D02*
X131495325Y-81830376D01*
X131495325Y-81830376D02*
X131495325Y-81870782D01*
X131495325Y-81870782D02*
X131475122Y-81931391D01*
X131475122Y-81931391D02*
X131434716Y-81971797D01*
X131434716Y-81971797D02*
X131374107Y-81992000D01*
X131374107Y-81992000D02*
X131333701Y-81992000D01*
X131333701Y-81992000D02*
X131273092Y-81971797D01*
X131273092Y-81971797D02*
X131172077Y-81911188D01*
X131172077Y-81911188D02*
X131071061Y-81810173D01*
X131071061Y-81810173D02*
X131010452Y-81709158D01*
X131010452Y-81709158D02*
X130990249Y-81648548D01*
X130990249Y-81648548D02*
X130990249Y-81608142D01*
X130990249Y-81608142D02*
X131010452Y-81547533D01*
X138400000Y-67769771D02*
X138200000Y-67484057D01*
X138057143Y-67769771D02*
X138057143Y-67169771D01*
X138057143Y-67169771D02*
X138285714Y-67169771D01*
X138285714Y-67169771D02*
X138342857Y-67198342D01*
X138342857Y-67198342D02*
X138371428Y-67226914D01*
X138371428Y-67226914D02*
X138400000Y-67284057D01*
X138400000Y-67284057D02*
X138400000Y-67369771D01*
X138400000Y-67369771D02*
X138371428Y-67426914D01*
X138371428Y-67426914D02*
X138342857Y-67455485D01*
X138342857Y-67455485D02*
X138285714Y-67484057D01*
X138285714Y-67484057D02*
X138057143Y-67484057D01*
X138600000Y-67169771D02*
X138971428Y-67169771D01*
X138971428Y-67169771D02*
X138771428Y-67398342D01*
X138771428Y-67398342D02*
X138857143Y-67398342D01*
X138857143Y-67398342D02*
X138914286Y-67426914D01*
X138914286Y-67426914D02*
X138942857Y-67455485D01*
X138942857Y-67455485D02*
X138971428Y-67512628D01*
X138971428Y-67512628D02*
X138971428Y-67655485D01*
X138971428Y-67655485D02*
X138942857Y-67712628D01*
X138942857Y-67712628D02*
X138914286Y-67741200D01*
X138914286Y-67741200D02*
X138857143Y-67769771D01*
X138857143Y-67769771D02*
X138685714Y-67769771D01*
X138685714Y-67769771D02*
X138628571Y-67741200D01*
X138628571Y-67741200D02*
X138600000Y-67712628D01*
X133712628Y-73785714D02*
X133741200Y-73814286D01*
X133741200Y-73814286D02*
X133769771Y-73900000D01*
X133769771Y-73900000D02*
X133769771Y-73957143D01*
X133769771Y-73957143D02*
X133741200Y-74042857D01*
X133741200Y-74042857D02*
X133684057Y-74100000D01*
X133684057Y-74100000D02*
X133626914Y-74128571D01*
X133626914Y-74128571D02*
X133512628Y-74157143D01*
X133512628Y-74157143D02*
X133426914Y-74157143D01*
X133426914Y-74157143D02*
X133312628Y-74128571D01*
X133312628Y-74128571D02*
X133255485Y-74100000D01*
X133255485Y-74100000D02*
X133198342Y-74042857D01*
X133198342Y-74042857D02*
X133169771Y-73957143D01*
X133169771Y-73957143D02*
X133169771Y-73900000D01*
X133169771Y-73900000D02*
X133198342Y-73814286D01*
X133198342Y-73814286D02*
X133226914Y-73785714D01*
X133769771Y-73214286D02*
X133769771Y-73557143D01*
X133769771Y-73385714D02*
X133169771Y-73385714D01*
X133169771Y-73385714D02*
X133255485Y-73442857D01*
X133255485Y-73442857D02*
X133312628Y-73500000D01*
X133312628Y-73500000D02*
X133341200Y-73557143D01*
X133169771Y-73014285D02*
X133169771Y-72642857D01*
X133169771Y-72642857D02*
X133398342Y-72842857D01*
X133398342Y-72842857D02*
X133398342Y-72757142D01*
X133398342Y-72757142D02*
X133426914Y-72700000D01*
X133426914Y-72700000D02*
X133455485Y-72671428D01*
X133455485Y-72671428D02*
X133512628Y-72642857D01*
X133512628Y-72642857D02*
X133655485Y-72642857D01*
X133655485Y-72642857D02*
X133712628Y-72671428D01*
X133712628Y-72671428D02*
X133741200Y-72700000D01*
X133741200Y-72700000D02*
X133769771Y-72757142D01*
X133769771Y-72757142D02*
X133769771Y-72928571D01*
X133769771Y-72928571D02*
X133741200Y-72985714D01*
X133741200Y-72985714D02*
X133712628Y-73014285D01*
X126700000Y-76012628D02*
X126671428Y-76041200D01*
X126671428Y-76041200D02*
X126585714Y-76069771D01*
X126585714Y-76069771D02*
X126528571Y-76069771D01*
X126528571Y-76069771D02*
X126442857Y-76041200D01*
X126442857Y-76041200D02*
X126385714Y-75984057D01*
X126385714Y-75984057D02*
X126357143Y-75926914D01*
X126357143Y-75926914D02*
X126328571Y-75812628D01*
X126328571Y-75812628D02*
X126328571Y-75726914D01*
X126328571Y-75726914D02*
X126357143Y-75612628D01*
X126357143Y-75612628D02*
X126385714Y-75555485D01*
X126385714Y-75555485D02*
X126442857Y-75498342D01*
X126442857Y-75498342D02*
X126528571Y-75469771D01*
X126528571Y-75469771D02*
X126585714Y-75469771D01*
X126585714Y-75469771D02*
X126671428Y-75498342D01*
X126671428Y-75498342D02*
X126700000Y-75526914D01*
X127271428Y-76069771D02*
X126928571Y-76069771D01*
X127100000Y-76069771D02*
X127100000Y-75469771D01*
X127100000Y-75469771D02*
X127042857Y-75555485D01*
X127042857Y-75555485D02*
X126985714Y-75612628D01*
X126985714Y-75612628D02*
X126928571Y-75641200D01*
X126190000Y-89219771D02*
X125990000Y-88934057D01*
X125847143Y-89219771D02*
X125847143Y-88619771D01*
X125847143Y-88619771D02*
X126075714Y-88619771D01*
X126075714Y-88619771D02*
X126132857Y-88648342D01*
X126132857Y-88648342D02*
X126161428Y-88676914D01*
X126161428Y-88676914D02*
X126190000Y-88734057D01*
X126190000Y-88734057D02*
X126190000Y-88819771D01*
X126190000Y-88819771D02*
X126161428Y-88876914D01*
X126161428Y-88876914D02*
X126132857Y-88905485D01*
X126132857Y-88905485D02*
X126075714Y-88934057D01*
X126075714Y-88934057D02*
X125847143Y-88934057D01*
X126390000Y-88619771D02*
X126790000Y-88619771D01*
X126790000Y-88619771D02*
X126532857Y-89219771D01*
X123099219Y-55403333D02*
X123813504Y-55403333D01*
X123813504Y-55403333D02*
X123956361Y-55450952D01*
X123956361Y-55450952D02*
X124051600Y-55546190D01*
X124051600Y-55546190D02*
X124099219Y-55689047D01*
X124099219Y-55689047D02*
X124099219Y-55784285D01*
X124099219Y-54403333D02*
X124099219Y-54974761D01*
X124099219Y-54689047D02*
X123099219Y-54689047D01*
X123099219Y-54689047D02*
X123242076Y-54784285D01*
X123242076Y-54784285D02*
X123337314Y-54879523D01*
X123337314Y-54879523D02*
X123384933Y-54974761D01*
X127225000Y-82512628D02*
X127196428Y-82541200D01*
X127196428Y-82541200D02*
X127110714Y-82569771D01*
X127110714Y-82569771D02*
X127053571Y-82569771D01*
X127053571Y-82569771D02*
X126967857Y-82541200D01*
X126967857Y-82541200D02*
X126910714Y-82484057D01*
X126910714Y-82484057D02*
X126882143Y-82426914D01*
X126882143Y-82426914D02*
X126853571Y-82312628D01*
X126853571Y-82312628D02*
X126853571Y-82226914D01*
X126853571Y-82226914D02*
X126882143Y-82112628D01*
X126882143Y-82112628D02*
X126910714Y-82055485D01*
X126910714Y-82055485D02*
X126967857Y-81998342D01*
X126967857Y-81998342D02*
X127053571Y-81969771D01*
X127053571Y-81969771D02*
X127110714Y-81969771D01*
X127110714Y-81969771D02*
X127196428Y-81998342D01*
X127196428Y-81998342D02*
X127225000Y-82026914D01*
X127510714Y-82569771D02*
X127625000Y-82569771D01*
X127625000Y-82569771D02*
X127682143Y-82541200D01*
X127682143Y-82541200D02*
X127710714Y-82512628D01*
X127710714Y-82512628D02*
X127767857Y-82426914D01*
X127767857Y-82426914D02*
X127796428Y-82312628D01*
X127796428Y-82312628D02*
X127796428Y-82084057D01*
X127796428Y-82084057D02*
X127767857Y-82026914D01*
X127767857Y-82026914D02*
X127739286Y-81998342D01*
X127739286Y-81998342D02*
X127682143Y-81969771D01*
X127682143Y-81969771D02*
X127567857Y-81969771D01*
X127567857Y-81969771D02*
X127510714Y-81998342D01*
X127510714Y-81998342D02*
X127482143Y-82026914D01*
X127482143Y-82026914D02*
X127453571Y-82084057D01*
X127453571Y-82084057D02*
X127453571Y-82226914D01*
X127453571Y-82226914D02*
X127482143Y-82284057D01*
X127482143Y-82284057D02*
X127510714Y-82312628D01*
X127510714Y-82312628D02*
X127567857Y-82341200D01*
X127567857Y-82341200D02*
X127682143Y-82341200D01*
X127682143Y-82341200D02*
X127739286Y-82312628D01*
X127739286Y-82312628D02*
X127767857Y-82284057D01*
X127767857Y-82284057D02*
X127796428Y-82226914D01*
X133200000Y-70169771D02*
X133000000Y-69884057D01*
X132857143Y-70169771D02*
X132857143Y-69569771D01*
X132857143Y-69569771D02*
X133085714Y-69569771D01*
X133085714Y-69569771D02*
X133142857Y-69598342D01*
X133142857Y-69598342D02*
X133171428Y-69626914D01*
X133171428Y-69626914D02*
X133200000Y-69684057D01*
X133200000Y-69684057D02*
X133200000Y-69769771D01*
X133200000Y-69769771D02*
X133171428Y-69826914D01*
X133171428Y-69826914D02*
X133142857Y-69855485D01*
X133142857Y-69855485D02*
X133085714Y-69884057D01*
X133085714Y-69884057D02*
X132857143Y-69884057D01*
X133742857Y-69569771D02*
X133457143Y-69569771D01*
X133457143Y-69569771D02*
X133428571Y-69855485D01*
X133428571Y-69855485D02*
X133457143Y-69826914D01*
X133457143Y-69826914D02*
X133514286Y-69798342D01*
X133514286Y-69798342D02*
X133657143Y-69798342D01*
X133657143Y-69798342D02*
X133714286Y-69826914D01*
X133714286Y-69826914D02*
X133742857Y-69855485D01*
X133742857Y-69855485D02*
X133771428Y-69912628D01*
X133771428Y-69912628D02*
X133771428Y-70055485D01*
X133771428Y-70055485D02*
X133742857Y-70112628D01*
X133742857Y-70112628D02*
X133714286Y-70141200D01*
X133714286Y-70141200D02*
X133657143Y-70169771D01*
X133657143Y-70169771D02*
X133514286Y-70169771D01*
X133514286Y-70169771D02*
X133457143Y-70141200D01*
X133457143Y-70141200D02*
X133428571Y-70112628D01*
X135479639Y-78221061D02*
X135479639Y-78261467D01*
X135479639Y-78261467D02*
X135439233Y-78342279D01*
X135439233Y-78342279D02*
X135398827Y-78382685D01*
X135398827Y-78382685D02*
X135318015Y-78423092D01*
X135318015Y-78423092D02*
X135237203Y-78423092D01*
X135237203Y-78423092D02*
X135176593Y-78402889D01*
X135176593Y-78402889D02*
X135075578Y-78342279D01*
X135075578Y-78342279D02*
X135014969Y-78281670D01*
X135014969Y-78281670D02*
X134954360Y-78180655D01*
X134954360Y-78180655D02*
X134934157Y-78120046D01*
X134934157Y-78120046D02*
X134934157Y-78039234D01*
X134934157Y-78039234D02*
X134974563Y-77958421D01*
X134974563Y-77958421D02*
X135014969Y-77918015D01*
X135014969Y-77918015D02*
X135095781Y-77877609D01*
X135095781Y-77877609D02*
X135136187Y-77877609D01*
X135600857Y-77614970D02*
X135883700Y-77897812D01*
X135338218Y-77554360D02*
X135540248Y-77958421D01*
X135540248Y-77958421D02*
X135802888Y-77695782D01*
X136219771Y-84999999D02*
X135934057Y-85199999D01*
X136219771Y-85342856D02*
X135619771Y-85342856D01*
X135619771Y-85342856D02*
X135619771Y-85114285D01*
X135619771Y-85114285D02*
X135648342Y-85057142D01*
X135648342Y-85057142D02*
X135676914Y-85028571D01*
X135676914Y-85028571D02*
X135734057Y-84999999D01*
X135734057Y-84999999D02*
X135819771Y-84999999D01*
X135819771Y-84999999D02*
X135876914Y-85028571D01*
X135876914Y-85028571D02*
X135905485Y-85057142D01*
X135905485Y-85057142D02*
X135934057Y-85114285D01*
X135934057Y-85114285D02*
X135934057Y-85342856D01*
X135819771Y-84485714D02*
X136219771Y-84485714D01*
X135591200Y-84628571D02*
X136019771Y-84771428D01*
X136019771Y-84771428D02*
X136019771Y-84399999D01*
X129454640Y-82571061D02*
X129454640Y-82611467D01*
X129454640Y-82611467D02*
X129414234Y-82692279D01*
X129414234Y-82692279D02*
X129373828Y-82732685D01*
X129373828Y-82732685D02*
X129293016Y-82773092D01*
X129293016Y-82773092D02*
X129212204Y-82773092D01*
X129212204Y-82773092D02*
X129151594Y-82752889D01*
X129151594Y-82752889D02*
X129050579Y-82692279D01*
X129050579Y-82692279D02*
X128989970Y-82631670D01*
X128989970Y-82631670D02*
X128929361Y-82530655D01*
X128929361Y-82530655D02*
X128909158Y-82470046D01*
X128909158Y-82470046D02*
X128909158Y-82389234D01*
X128909158Y-82389234D02*
X128949564Y-82308421D01*
X128949564Y-82308421D02*
X128989970Y-82268015D01*
X128989970Y-82268015D02*
X129070782Y-82227609D01*
X129070782Y-82227609D02*
X129111188Y-82227609D01*
X129434437Y-81823548D02*
X129353625Y-81904360D01*
X129353625Y-81904360D02*
X129333422Y-81964970D01*
X129333422Y-81964970D02*
X129333422Y-82005376D01*
X129333422Y-82005376D02*
X129353625Y-82106391D01*
X129353625Y-82106391D02*
X129414234Y-82207406D01*
X129414234Y-82207406D02*
X129575858Y-82369031D01*
X129575858Y-82369031D02*
X129636468Y-82389234D01*
X129636468Y-82389234D02*
X129676874Y-82389234D01*
X129676874Y-82389234D02*
X129737483Y-82369031D01*
X129737483Y-82369031D02*
X129818295Y-82288218D01*
X129818295Y-82288218D02*
X129838498Y-82227609D01*
X129838498Y-82227609D02*
X129838498Y-82187203D01*
X129838498Y-82187203D02*
X129818295Y-82126594D01*
X129818295Y-82126594D02*
X129717280Y-82025579D01*
X129717280Y-82025579D02*
X129656671Y-82005376D01*
X129656671Y-82005376D02*
X129616265Y-82005376D01*
X129616265Y-82005376D02*
X129555655Y-82025579D01*
X129555655Y-82025579D02*
X129474843Y-82106391D01*
X129474843Y-82106391D02*
X129454640Y-82167000D01*
X129454640Y-82167000D02*
X129454640Y-82207406D01*
X129454640Y-82207406D02*
X129474843Y-82268015D01*
X124870000Y-87689771D02*
X124670000Y-87404057D01*
X124527143Y-87689771D02*
X124527143Y-87089771D01*
X124527143Y-87089771D02*
X124755714Y-87089771D01*
X124755714Y-87089771D02*
X124812857Y-87118342D01*
X124812857Y-87118342D02*
X124841428Y-87146914D01*
X124841428Y-87146914D02*
X124870000Y-87204057D01*
X124870000Y-87204057D02*
X124870000Y-87289771D01*
X124870000Y-87289771D02*
X124841428Y-87346914D01*
X124841428Y-87346914D02*
X124812857Y-87375485D01*
X124812857Y-87375485D02*
X124755714Y-87404057D01*
X124755714Y-87404057D02*
X124527143Y-87404057D01*
X125212857Y-87346914D02*
X125155714Y-87318342D01*
X125155714Y-87318342D02*
X125127143Y-87289771D01*
X125127143Y-87289771D02*
X125098571Y-87232628D01*
X125098571Y-87232628D02*
X125098571Y-87204057D01*
X125098571Y-87204057D02*
X125127143Y-87146914D01*
X125127143Y-87146914D02*
X125155714Y-87118342D01*
X125155714Y-87118342D02*
X125212857Y-87089771D01*
X125212857Y-87089771D02*
X125327143Y-87089771D01*
X125327143Y-87089771D02*
X125384286Y-87118342D01*
X125384286Y-87118342D02*
X125412857Y-87146914D01*
X125412857Y-87146914D02*
X125441428Y-87204057D01*
X125441428Y-87204057D02*
X125441428Y-87232628D01*
X125441428Y-87232628D02*
X125412857Y-87289771D01*
X125412857Y-87289771D02*
X125384286Y-87318342D01*
X125384286Y-87318342D02*
X125327143Y-87346914D01*
X125327143Y-87346914D02*
X125212857Y-87346914D01*
X125212857Y-87346914D02*
X125155714Y-87375485D01*
X125155714Y-87375485D02*
X125127143Y-87404057D01*
X125127143Y-87404057D02*
X125098571Y-87461200D01*
X125098571Y-87461200D02*
X125098571Y-87575485D01*
X125098571Y-87575485D02*
X125127143Y-87632628D01*
X125127143Y-87632628D02*
X125155714Y-87661200D01*
X125155714Y-87661200D02*
X125212857Y-87689771D01*
X125212857Y-87689771D02*
X125327143Y-87689771D01*
X125327143Y-87689771D02*
X125384286Y-87661200D01*
X125384286Y-87661200D02*
X125412857Y-87632628D01*
X125412857Y-87632628D02*
X125441428Y-87575485D01*
X125441428Y-87575485D02*
X125441428Y-87461200D01*
X125441428Y-87461200D02*
X125412857Y-87404057D01*
X125412857Y-87404057D02*
X125384286Y-87375485D01*
X125384286Y-87375485D02*
X125327143Y-87346914D01*
X136014285Y-76912628D02*
X135985713Y-76941200D01*
X135985713Y-76941200D02*
X135899999Y-76969771D01*
X135899999Y-76969771D02*
X135842856Y-76969771D01*
X135842856Y-76969771D02*
X135757142Y-76941200D01*
X135757142Y-76941200D02*
X135699999Y-76884057D01*
X135699999Y-76884057D02*
X135671428Y-76826914D01*
X135671428Y-76826914D02*
X135642856Y-76712628D01*
X135642856Y-76712628D02*
X135642856Y-76626914D01*
X135642856Y-76626914D02*
X135671428Y-76512628D01*
X135671428Y-76512628D02*
X135699999Y-76455485D01*
X135699999Y-76455485D02*
X135757142Y-76398342D01*
X135757142Y-76398342D02*
X135842856Y-76369771D01*
X135842856Y-76369771D02*
X135899999Y-76369771D01*
X135899999Y-76369771D02*
X135985713Y-76398342D01*
X135985713Y-76398342D02*
X136014285Y-76426914D01*
X136585713Y-76969771D02*
X136242856Y-76969771D01*
X136414285Y-76969771D02*
X136414285Y-76369771D01*
X136414285Y-76369771D02*
X136357142Y-76455485D01*
X136357142Y-76455485D02*
X136299999Y-76512628D01*
X136299999Y-76512628D02*
X136242856Y-76541200D01*
X137100000Y-76569771D02*
X137100000Y-76969771D01*
X136957142Y-76341200D02*
X136814285Y-76769771D01*
X136814285Y-76769771D02*
X137185714Y-76769771D01*
X132779640Y-83571060D02*
X132779640Y-83611466D01*
X132779640Y-83611466D02*
X132739234Y-83692278D01*
X132739234Y-83692278D02*
X132698828Y-83732684D01*
X132698828Y-83732684D02*
X132618016Y-83773091D01*
X132618016Y-83773091D02*
X132537204Y-83773091D01*
X132537204Y-83773091D02*
X132476594Y-83752888D01*
X132476594Y-83752888D02*
X132375579Y-83692278D01*
X132375579Y-83692278D02*
X132314970Y-83631669D01*
X132314970Y-83631669D02*
X132254361Y-83530654D01*
X132254361Y-83530654D02*
X132234158Y-83470045D01*
X132234158Y-83470045D02*
X132234158Y-83389233D01*
X132234158Y-83389233D02*
X132274564Y-83308420D01*
X132274564Y-83308420D02*
X132314970Y-83268014D01*
X132314970Y-83268014D02*
X132395782Y-83227608D01*
X132395782Y-83227608D02*
X132436188Y-83227608D01*
X132537204Y-83045781D02*
X132820046Y-82762938D01*
X132820046Y-82762938D02*
X133062483Y-83369030D01*
X135557143Y-68269771D02*
X135557143Y-67669771D01*
X135557143Y-67669771D02*
X135700000Y-67669771D01*
X135700000Y-67669771D02*
X135785714Y-67698342D01*
X135785714Y-67698342D02*
X135842857Y-67755485D01*
X135842857Y-67755485D02*
X135871428Y-67812628D01*
X135871428Y-67812628D02*
X135900000Y-67926914D01*
X135900000Y-67926914D02*
X135900000Y-68012628D01*
X135900000Y-68012628D02*
X135871428Y-68126914D01*
X135871428Y-68126914D02*
X135842857Y-68184057D01*
X135842857Y-68184057D02*
X135785714Y-68241200D01*
X135785714Y-68241200D02*
X135700000Y-68269771D01*
X135700000Y-68269771D02*
X135557143Y-68269771D01*
X136471428Y-68269771D02*
X136128571Y-68269771D01*
X136300000Y-68269771D02*
X136300000Y-67669771D01*
X136300000Y-67669771D02*
X136242857Y-67755485D01*
X136242857Y-67755485D02*
X136185714Y-67812628D01*
X136185714Y-67812628D02*
X136128571Y-67841200D01*
X128929640Y-82021061D02*
X128929640Y-82061467D01*
X128929640Y-82061467D02*
X128889234Y-82142279D01*
X128889234Y-82142279D02*
X128848828Y-82182685D01*
X128848828Y-82182685D02*
X128768016Y-82223092D01*
X128768016Y-82223092D02*
X128687204Y-82223092D01*
X128687204Y-82223092D02*
X128626594Y-82202889D01*
X128626594Y-82202889D02*
X128525579Y-82142279D01*
X128525579Y-82142279D02*
X128464970Y-82081670D01*
X128464970Y-82081670D02*
X128404361Y-81980655D01*
X128404361Y-81980655D02*
X128384158Y-81920046D01*
X128384158Y-81920046D02*
X128384158Y-81839234D01*
X128384158Y-81839234D02*
X128424564Y-81758421D01*
X128424564Y-81758421D02*
X128464970Y-81718015D01*
X128464970Y-81718015D02*
X128545782Y-81677609D01*
X128545782Y-81677609D02*
X128586188Y-81677609D01*
X128747813Y-81515985D02*
X128747813Y-81475579D01*
X128747813Y-81475579D02*
X128768016Y-81414970D01*
X128768016Y-81414970D02*
X128869031Y-81313954D01*
X128869031Y-81313954D02*
X128929640Y-81293751D01*
X128929640Y-81293751D02*
X128970046Y-81293751D01*
X128970046Y-81293751D02*
X129030655Y-81313954D01*
X129030655Y-81313954D02*
X129071061Y-81354360D01*
X129071061Y-81354360D02*
X129111468Y-81435173D01*
X129111468Y-81435173D02*
X129111468Y-81920046D01*
X129111468Y-81920046D02*
X129374107Y-81657406D01*
X127199999Y-71041200D02*
X127285714Y-71069771D01*
X127285714Y-71069771D02*
X127428571Y-71069771D01*
X127428571Y-71069771D02*
X127485714Y-71041200D01*
X127485714Y-71041200D02*
X127514285Y-71012628D01*
X127514285Y-71012628D02*
X127542856Y-70955485D01*
X127542856Y-70955485D02*
X127542856Y-70898342D01*
X127542856Y-70898342D02*
X127514285Y-70841200D01*
X127514285Y-70841200D02*
X127485714Y-70812628D01*
X127485714Y-70812628D02*
X127428571Y-70784057D01*
X127428571Y-70784057D02*
X127314285Y-70755485D01*
X127314285Y-70755485D02*
X127257142Y-70726914D01*
X127257142Y-70726914D02*
X127228571Y-70698342D01*
X127228571Y-70698342D02*
X127199999Y-70641200D01*
X127199999Y-70641200D02*
X127199999Y-70584057D01*
X127199999Y-70584057D02*
X127228571Y-70526914D01*
X127228571Y-70526914D02*
X127257142Y-70498342D01*
X127257142Y-70498342D02*
X127314285Y-70469771D01*
X127314285Y-70469771D02*
X127457142Y-70469771D01*
X127457142Y-70469771D02*
X127542856Y-70498342D01*
X127742857Y-70469771D02*
X127885714Y-71069771D01*
X127885714Y-71069771D02*
X128000000Y-70641200D01*
X128000000Y-70641200D02*
X128114285Y-71069771D01*
X128114285Y-71069771D02*
X128257143Y-70469771D01*
X128799999Y-71069771D02*
X128457142Y-71069771D01*
X128628571Y-71069771D02*
X128628571Y-70469771D01*
X128628571Y-70469771D02*
X128571428Y-70555485D01*
X128571428Y-70555485D02*
X128514285Y-70612628D01*
X128514285Y-70612628D02*
X128457142Y-70641200D01*
X128014285Y-89312628D02*
X127985713Y-89341200D01*
X127985713Y-89341200D02*
X127899999Y-89369771D01*
X127899999Y-89369771D02*
X127842856Y-89369771D01*
X127842856Y-89369771D02*
X127757142Y-89341200D01*
X127757142Y-89341200D02*
X127699999Y-89284057D01*
X127699999Y-89284057D02*
X127671428Y-89226914D01*
X127671428Y-89226914D02*
X127642856Y-89112628D01*
X127642856Y-89112628D02*
X127642856Y-89026914D01*
X127642856Y-89026914D02*
X127671428Y-88912628D01*
X127671428Y-88912628D02*
X127699999Y-88855485D01*
X127699999Y-88855485D02*
X127757142Y-88798342D01*
X127757142Y-88798342D02*
X127842856Y-88769771D01*
X127842856Y-88769771D02*
X127899999Y-88769771D01*
X127899999Y-88769771D02*
X127985713Y-88798342D01*
X127985713Y-88798342D02*
X128014285Y-88826914D01*
X128585713Y-89369771D02*
X128242856Y-89369771D01*
X128414285Y-89369771D02*
X128414285Y-88769771D01*
X128414285Y-88769771D02*
X128357142Y-88855485D01*
X128357142Y-88855485D02*
X128299999Y-88912628D01*
X128299999Y-88912628D02*
X128242856Y-88941200D01*
X129100000Y-88769771D02*
X128985714Y-88769771D01*
X128985714Y-88769771D02*
X128928571Y-88798342D01*
X128928571Y-88798342D02*
X128900000Y-88826914D01*
X128900000Y-88826914D02*
X128842857Y-88912628D01*
X128842857Y-88912628D02*
X128814285Y-89026914D01*
X128814285Y-89026914D02*
X128814285Y-89255485D01*
X128814285Y-89255485D02*
X128842857Y-89312628D01*
X128842857Y-89312628D02*
X128871428Y-89341200D01*
X128871428Y-89341200D02*
X128928571Y-89369771D01*
X128928571Y-89369771D02*
X129042857Y-89369771D01*
X129042857Y-89369771D02*
X129100000Y-89341200D01*
X129100000Y-89341200D02*
X129128571Y-89312628D01*
X129128571Y-89312628D02*
X129157142Y-89255485D01*
X129157142Y-89255485D02*
X129157142Y-89112628D01*
X129157142Y-89112628D02*
X129128571Y-89055485D01*
X129128571Y-89055485D02*
X129100000Y-89026914D01*
X129100000Y-89026914D02*
X129042857Y-88998342D01*
X129042857Y-88998342D02*
X128928571Y-88998342D01*
X128928571Y-88998342D02*
X128871428Y-89026914D01*
X128871428Y-89026914D02*
X128842857Y-89055485D01*
X128842857Y-89055485D02*
X128814285Y-89112628D01*
X135012628Y-82185714D02*
X135041200Y-82214286D01*
X135041200Y-82214286D02*
X135069771Y-82300000D01*
X135069771Y-82300000D02*
X135069771Y-82357143D01*
X135069771Y-82357143D02*
X135041200Y-82442857D01*
X135041200Y-82442857D02*
X134984057Y-82500000D01*
X134984057Y-82500000D02*
X134926914Y-82528571D01*
X134926914Y-82528571D02*
X134812628Y-82557143D01*
X134812628Y-82557143D02*
X134726914Y-82557143D01*
X134726914Y-82557143D02*
X134612628Y-82528571D01*
X134612628Y-82528571D02*
X134555485Y-82500000D01*
X134555485Y-82500000D02*
X134498342Y-82442857D01*
X134498342Y-82442857D02*
X134469771Y-82357143D01*
X134469771Y-82357143D02*
X134469771Y-82300000D01*
X134469771Y-82300000D02*
X134498342Y-82214286D01*
X134498342Y-82214286D02*
X134526914Y-82185714D01*
X135069771Y-81614286D02*
X135069771Y-81957143D01*
X135069771Y-81785714D02*
X134469771Y-81785714D01*
X134469771Y-81785714D02*
X134555485Y-81842857D01*
X134555485Y-81842857D02*
X134612628Y-81900000D01*
X134612628Y-81900000D02*
X134641200Y-81957143D01*
X134526914Y-81385714D02*
X134498342Y-81357142D01*
X134498342Y-81357142D02*
X134469771Y-81300000D01*
X134469771Y-81300000D02*
X134469771Y-81157142D01*
X134469771Y-81157142D02*
X134498342Y-81100000D01*
X134498342Y-81100000D02*
X134526914Y-81071428D01*
X134526914Y-81071428D02*
X134584057Y-81042857D01*
X134584057Y-81042857D02*
X134641200Y-81042857D01*
X134641200Y-81042857D02*
X134726914Y-81071428D01*
X134726914Y-81071428D02*
X135069771Y-81414285D01*
X135069771Y-81414285D02*
X135069771Y-81042857D01*
X130603938Y-75829640D02*
X130563532Y-75829640D01*
X130563532Y-75829640D02*
X130482720Y-75789234D01*
X130482720Y-75789234D02*
X130442314Y-75748828D01*
X130442314Y-75748828D02*
X130401907Y-75668016D01*
X130401907Y-75668016D02*
X130401907Y-75587204D01*
X130401907Y-75587204D02*
X130422110Y-75526594D01*
X130422110Y-75526594D02*
X130482720Y-75425579D01*
X130482720Y-75425579D02*
X130543329Y-75364970D01*
X130543329Y-75364970D02*
X130644344Y-75304361D01*
X130644344Y-75304361D02*
X130704953Y-75284158D01*
X130704953Y-75284158D02*
X130785765Y-75284158D01*
X130785765Y-75284158D02*
X130866578Y-75324564D01*
X130866578Y-75324564D02*
X130906984Y-75364970D01*
X130906984Y-75364970D02*
X130947390Y-75445782D01*
X130947390Y-75445782D02*
X130947390Y-75486188D01*
X131129217Y-75587204D02*
X131391857Y-75849843D01*
X131391857Y-75849843D02*
X131088811Y-75870046D01*
X131088811Y-75870046D02*
X131149420Y-75930655D01*
X131149420Y-75930655D02*
X131169623Y-75991265D01*
X131169623Y-75991265D02*
X131169623Y-76031671D01*
X131169623Y-76031671D02*
X131149420Y-76092280D01*
X131149420Y-76092280D02*
X131048405Y-76193295D01*
X131048405Y-76193295D02*
X130987796Y-76213498D01*
X130987796Y-76213498D02*
X130947390Y-76213498D01*
X130947390Y-76213498D02*
X130886781Y-76193295D01*
X130886781Y-76193295D02*
X130765562Y-76072077D01*
X130765562Y-76072077D02*
X130745359Y-76011468D01*
X130745359Y-76011468D02*
X130745359Y-75971061D01*
X134600000Y-73969771D02*
X134314286Y-73969771D01*
X134314286Y-73969771D02*
X134314286Y-73369771D01*
X135114285Y-73969771D02*
X134771428Y-73969771D01*
X134942857Y-73969771D02*
X134942857Y-73369771D01*
X134942857Y-73369771D02*
X134885714Y-73455485D01*
X134885714Y-73455485D02*
X134828571Y-73512628D01*
X134828571Y-73512628D02*
X134771428Y-73541200D01*
X134593244Y-79989741D02*
X134936696Y-80333193D01*
X134936696Y-80333193D02*
X134997305Y-80353396D01*
X134997305Y-80353396D02*
X135037711Y-80353396D01*
X135037711Y-80353396D02*
X135098320Y-80333193D01*
X135098320Y-80333193D02*
X135179132Y-80252381D01*
X135179132Y-80252381D02*
X135199335Y-80191772D01*
X135199335Y-80191772D02*
X135199335Y-80151366D01*
X135199335Y-80151366D02*
X135179132Y-80090757D01*
X135179132Y-80090757D02*
X134835680Y-79747305D01*
X135057914Y-79605884D02*
X135057914Y-79565478D01*
X135057914Y-79565478D02*
X135078117Y-79504869D01*
X135078117Y-79504869D02*
X135179132Y-79403853D01*
X135179132Y-79403853D02*
X135239741Y-79383650D01*
X135239741Y-79383650D02*
X135280147Y-79383650D01*
X135280147Y-79383650D02*
X135340756Y-79403853D01*
X135340756Y-79403853D02*
X135381163Y-79444259D01*
X135381163Y-79444259D02*
X135421569Y-79525072D01*
X135421569Y-79525072D02*
X135421569Y-80009945D01*
X135421569Y-80009945D02*
X135684208Y-79747305D01*
X128214285Y-76509057D02*
X128214285Y-76794771D01*
X128014285Y-76194771D02*
X128214285Y-76509057D01*
X128214285Y-76509057D02*
X128414285Y-76194771D01*
X128928571Y-76794771D02*
X128585714Y-76794771D01*
X128757143Y-76794771D02*
X128757143Y-76194771D01*
X128757143Y-76194771D02*
X128700000Y-76280485D01*
X128700000Y-76280485D02*
X128642857Y-76337628D01*
X128642857Y-76337628D02*
X128585714Y-76366200D01*
X125409771Y-77719999D02*
X125124057Y-77919999D01*
X125409771Y-78062856D02*
X124809771Y-78062856D01*
X124809771Y-78062856D02*
X124809771Y-77834285D01*
X124809771Y-77834285D02*
X124838342Y-77777142D01*
X124838342Y-77777142D02*
X124866914Y-77748571D01*
X124866914Y-77748571D02*
X124924057Y-77719999D01*
X124924057Y-77719999D02*
X125009771Y-77719999D01*
X125009771Y-77719999D02*
X125066914Y-77748571D01*
X125066914Y-77748571D02*
X125095485Y-77777142D01*
X125095485Y-77777142D02*
X125124057Y-77834285D01*
X125124057Y-77834285D02*
X125124057Y-78062856D01*
X124866914Y-77491428D02*
X124838342Y-77462856D01*
X124838342Y-77462856D02*
X124809771Y-77405714D01*
X124809771Y-77405714D02*
X124809771Y-77262856D01*
X124809771Y-77262856D02*
X124838342Y-77205714D01*
X124838342Y-77205714D02*
X124866914Y-77177142D01*
X124866914Y-77177142D02*
X124924057Y-77148571D01*
X124924057Y-77148571D02*
X124981200Y-77148571D01*
X124981200Y-77148571D02*
X125066914Y-77177142D01*
X125066914Y-77177142D02*
X125409771Y-77519999D01*
X125409771Y-77519999D02*
X125409771Y-77148571D01*
X134440000Y-65954571D02*
X134240000Y-65668857D01*
X134097143Y-65954571D02*
X134097143Y-65354571D01*
X134097143Y-65354571D02*
X134325714Y-65354571D01*
X134325714Y-65354571D02*
X134382857Y-65383142D01*
X134382857Y-65383142D02*
X134411428Y-65411714D01*
X134411428Y-65411714D02*
X134440000Y-65468857D01*
X134440000Y-65468857D02*
X134440000Y-65554571D01*
X134440000Y-65554571D02*
X134411428Y-65611714D01*
X134411428Y-65611714D02*
X134382857Y-65640285D01*
X134382857Y-65640285D02*
X134325714Y-65668857D01*
X134325714Y-65668857D02*
X134097143Y-65668857D01*
X135011428Y-65954571D02*
X134668571Y-65954571D01*
X134840000Y-65954571D02*
X134840000Y-65354571D01*
X134840000Y-65354571D02*
X134782857Y-65440285D01*
X134782857Y-65440285D02*
X134725714Y-65497428D01*
X134725714Y-65497428D02*
X134668571Y-65526000D01*
X127542857Y-85069771D02*
X127542857Y-85555485D01*
X127542857Y-85555485D02*
X127571428Y-85612628D01*
X127571428Y-85612628D02*
X127600000Y-85641200D01*
X127600000Y-85641200D02*
X127657142Y-85669771D01*
X127657142Y-85669771D02*
X127771428Y-85669771D01*
X127771428Y-85669771D02*
X127828571Y-85641200D01*
X127828571Y-85641200D02*
X127857142Y-85612628D01*
X127857142Y-85612628D02*
X127885714Y-85555485D01*
X127885714Y-85555485D02*
X127885714Y-85069771D01*
X128428571Y-85269771D02*
X128428571Y-85669771D01*
X128285713Y-85041200D02*
X128142856Y-85469771D01*
X128142856Y-85469771D02*
X128514285Y-85469771D01*
X132300000Y-69369771D02*
X132100000Y-69084057D01*
X131957143Y-69369771D02*
X131957143Y-68769771D01*
X131957143Y-68769771D02*
X132185714Y-68769771D01*
X132185714Y-68769771D02*
X132242857Y-68798342D01*
X132242857Y-68798342D02*
X132271428Y-68826914D01*
X132271428Y-68826914D02*
X132300000Y-68884057D01*
X132300000Y-68884057D02*
X132300000Y-68969771D01*
X132300000Y-68969771D02*
X132271428Y-69026914D01*
X132271428Y-69026914D02*
X132242857Y-69055485D01*
X132242857Y-69055485D02*
X132185714Y-69084057D01*
X132185714Y-69084057D02*
X131957143Y-69084057D01*
X132814286Y-68769771D02*
X132700000Y-68769771D01*
X132700000Y-68769771D02*
X132642857Y-68798342D01*
X132642857Y-68798342D02*
X132614286Y-68826914D01*
X132614286Y-68826914D02*
X132557143Y-68912628D01*
X132557143Y-68912628D02*
X132528571Y-69026914D01*
X132528571Y-69026914D02*
X132528571Y-69255485D01*
X132528571Y-69255485D02*
X132557143Y-69312628D01*
X132557143Y-69312628D02*
X132585714Y-69341200D01*
X132585714Y-69341200D02*
X132642857Y-69369771D01*
X132642857Y-69369771D02*
X132757143Y-69369771D01*
X132757143Y-69369771D02*
X132814286Y-69341200D01*
X132814286Y-69341200D02*
X132842857Y-69312628D01*
X132842857Y-69312628D02*
X132871428Y-69255485D01*
X132871428Y-69255485D02*
X132871428Y-69112628D01*
X132871428Y-69112628D02*
X132842857Y-69055485D01*
X132842857Y-69055485D02*
X132814286Y-69026914D01*
X132814286Y-69026914D02*
X132757143Y-68998342D01*
X132757143Y-68998342D02*
X132642857Y-68998342D01*
X132642857Y-68998342D02*
X132585714Y-69026914D01*
X132585714Y-69026914D02*
X132557143Y-69055485D01*
X132557143Y-69055485D02*
X132528571Y-69112628D01*
X134104641Y-75146061D02*
X134104641Y-75186467D01*
X134104641Y-75186467D02*
X134064235Y-75267279D01*
X134064235Y-75267279D02*
X134023829Y-75307685D01*
X134023829Y-75307685D02*
X133943017Y-75348092D01*
X133943017Y-75348092D02*
X133862205Y-75348092D01*
X133862205Y-75348092D02*
X133801595Y-75327889D01*
X133801595Y-75327889D02*
X133700580Y-75267279D01*
X133700580Y-75267279D02*
X133639971Y-75206670D01*
X133639971Y-75206670D02*
X133579362Y-75105655D01*
X133579362Y-75105655D02*
X133559159Y-75045046D01*
X133559159Y-75045046D02*
X133559159Y-74964234D01*
X133559159Y-74964234D02*
X133599565Y-74883421D01*
X133599565Y-74883421D02*
X133639971Y-74843015D01*
X133639971Y-74843015D02*
X133720783Y-74802609D01*
X133720783Y-74802609D02*
X133761189Y-74802609D01*
X134145047Y-74701594D02*
X134084438Y-74721797D01*
X134084438Y-74721797D02*
X134044032Y-74721797D01*
X134044032Y-74721797D02*
X133983423Y-74701594D01*
X133983423Y-74701594D02*
X133963220Y-74681391D01*
X133963220Y-74681391D02*
X133943017Y-74620782D01*
X133943017Y-74620782D02*
X133943017Y-74580376D01*
X133943017Y-74580376D02*
X133963220Y-74519767D01*
X133963220Y-74519767D02*
X134044032Y-74438954D01*
X134044032Y-74438954D02*
X134104641Y-74418751D01*
X134104641Y-74418751D02*
X134145047Y-74418751D01*
X134145047Y-74418751D02*
X134205656Y-74438954D01*
X134205656Y-74438954D02*
X134225859Y-74459157D01*
X134225859Y-74459157D02*
X134246062Y-74519767D01*
X134246062Y-74519767D02*
X134246062Y-74560173D01*
X134246062Y-74560173D02*
X134225859Y-74620782D01*
X134225859Y-74620782D02*
X134145047Y-74701594D01*
X134145047Y-74701594D02*
X134124844Y-74762203D01*
X134124844Y-74762203D02*
X134124844Y-74802609D01*
X134124844Y-74802609D02*
X134145047Y-74863218D01*
X134145047Y-74863218D02*
X134225859Y-74944031D01*
X134225859Y-74944031D02*
X134286469Y-74964234D01*
X134286469Y-74964234D02*
X134326875Y-74964234D01*
X134326875Y-74964234D02*
X134387484Y-74944031D01*
X134387484Y-74944031D02*
X134468296Y-74863218D01*
X134468296Y-74863218D02*
X134488499Y-74802609D01*
X134488499Y-74802609D02*
X134488499Y-74762203D01*
X134488499Y-74762203D02*
X134468296Y-74701594D01*
X134468296Y-74701594D02*
X134387484Y-74620782D01*
X134387484Y-74620782D02*
X134326875Y-74600579D01*
X134326875Y-74600579D02*
X134286469Y-74600579D01*
X134286469Y-74600579D02*
X134225859Y-74620782D01*
X131042857Y-72369771D02*
X131042857Y-72855485D01*
X131042857Y-72855485D02*
X131071428Y-72912628D01*
X131071428Y-72912628D02*
X131100000Y-72941200D01*
X131100000Y-72941200D02*
X131157142Y-72969771D01*
X131157142Y-72969771D02*
X131271428Y-72969771D01*
X131271428Y-72969771D02*
X131328571Y-72941200D01*
X131328571Y-72941200D02*
X131357142Y-72912628D01*
X131357142Y-72912628D02*
X131385714Y-72855485D01*
X131385714Y-72855485D02*
X131385714Y-72369771D01*
X131985713Y-72969771D02*
X131642856Y-72969771D01*
X131814285Y-72969771D02*
X131814285Y-72369771D01*
X131814285Y-72369771D02*
X131757142Y-72455485D01*
X131757142Y-72455485D02*
X131699999Y-72512628D01*
X131699999Y-72512628D02*
X131642856Y-72541200D01*
X135842857Y-70669771D02*
X135842857Y-71155485D01*
X135842857Y-71155485D02*
X135871428Y-71212628D01*
X135871428Y-71212628D02*
X135900000Y-71241200D01*
X135900000Y-71241200D02*
X135957142Y-71269771D01*
X135957142Y-71269771D02*
X136071428Y-71269771D01*
X136071428Y-71269771D02*
X136128571Y-71241200D01*
X136128571Y-71241200D02*
X136157142Y-71212628D01*
X136157142Y-71212628D02*
X136185714Y-71155485D01*
X136185714Y-71155485D02*
X136185714Y-70669771D01*
X136414285Y-70669771D02*
X136785713Y-70669771D01*
X136785713Y-70669771D02*
X136585713Y-70898342D01*
X136585713Y-70898342D02*
X136671428Y-70898342D01*
X136671428Y-70898342D02*
X136728571Y-70926914D01*
X136728571Y-70926914D02*
X136757142Y-70955485D01*
X136757142Y-70955485D02*
X136785713Y-71012628D01*
X136785713Y-71012628D02*
X136785713Y-71155485D01*
X136785713Y-71155485D02*
X136757142Y-71212628D01*
X136757142Y-71212628D02*
X136728571Y-71241200D01*
X136728571Y-71241200D02*
X136671428Y-71269771D01*
X136671428Y-71269771D02*
X136499999Y-71269771D01*
X136499999Y-71269771D02*
X136442856Y-71241200D01*
X136442856Y-71241200D02*
X136414285Y-71212628D01*
X138712628Y-72885714D02*
X138741200Y-72914286D01*
X138741200Y-72914286D02*
X138769771Y-73000000D01*
X138769771Y-73000000D02*
X138769771Y-73057143D01*
X138769771Y-73057143D02*
X138741200Y-73142857D01*
X138741200Y-73142857D02*
X138684057Y-73200000D01*
X138684057Y-73200000D02*
X138626914Y-73228571D01*
X138626914Y-73228571D02*
X138512628Y-73257143D01*
X138512628Y-73257143D02*
X138426914Y-73257143D01*
X138426914Y-73257143D02*
X138312628Y-73228571D01*
X138312628Y-73228571D02*
X138255485Y-73200000D01*
X138255485Y-73200000D02*
X138198342Y-73142857D01*
X138198342Y-73142857D02*
X138169771Y-73057143D01*
X138169771Y-73057143D02*
X138169771Y-73000000D01*
X138169771Y-73000000D02*
X138198342Y-72914286D01*
X138198342Y-72914286D02*
X138226914Y-72885714D01*
X138769771Y-72314286D02*
X138769771Y-72657143D01*
X138769771Y-72485714D02*
X138169771Y-72485714D01*
X138169771Y-72485714D02*
X138255485Y-72542857D01*
X138255485Y-72542857D02*
X138312628Y-72600000D01*
X138312628Y-72600000D02*
X138341200Y-72657143D01*
X138769771Y-71742857D02*
X138769771Y-72085714D01*
X138769771Y-71914285D02*
X138169771Y-71914285D01*
X138169771Y-71914285D02*
X138255485Y-71971428D01*
X138255485Y-71971428D02*
X138312628Y-72028571D01*
X138312628Y-72028571D02*
X138341200Y-72085714D01*
X125712628Y-83585714D02*
X125741200Y-83614286D01*
X125741200Y-83614286D02*
X125769771Y-83700000D01*
X125769771Y-83700000D02*
X125769771Y-83757143D01*
X125769771Y-83757143D02*
X125741200Y-83842857D01*
X125741200Y-83842857D02*
X125684057Y-83900000D01*
X125684057Y-83900000D02*
X125626914Y-83928571D01*
X125626914Y-83928571D02*
X125512628Y-83957143D01*
X125512628Y-83957143D02*
X125426914Y-83957143D01*
X125426914Y-83957143D02*
X125312628Y-83928571D01*
X125312628Y-83928571D02*
X125255485Y-83900000D01*
X125255485Y-83900000D02*
X125198342Y-83842857D01*
X125198342Y-83842857D02*
X125169771Y-83757143D01*
X125169771Y-83757143D02*
X125169771Y-83700000D01*
X125169771Y-83700000D02*
X125198342Y-83614286D01*
X125198342Y-83614286D02*
X125226914Y-83585714D01*
X125769771Y-83014286D02*
X125769771Y-83357143D01*
X125769771Y-83185714D02*
X125169771Y-83185714D01*
X125169771Y-83185714D02*
X125255485Y-83242857D01*
X125255485Y-83242857D02*
X125312628Y-83300000D01*
X125312628Y-83300000D02*
X125341200Y-83357143D01*
X125169771Y-82471428D02*
X125169771Y-82757142D01*
X125169771Y-82757142D02*
X125455485Y-82785714D01*
X125455485Y-82785714D02*
X125426914Y-82757142D01*
X125426914Y-82757142D02*
X125398342Y-82700000D01*
X125398342Y-82700000D02*
X125398342Y-82557142D01*
X125398342Y-82557142D02*
X125426914Y-82500000D01*
X125426914Y-82500000D02*
X125455485Y-82471428D01*
X125455485Y-82471428D02*
X125512628Y-82442857D01*
X125512628Y-82442857D02*
X125655485Y-82442857D01*
X125655485Y-82442857D02*
X125712628Y-82471428D01*
X125712628Y-82471428D02*
X125741200Y-82500000D01*
X125741200Y-82500000D02*
X125769771Y-82557142D01*
X125769771Y-82557142D02*
X125769771Y-82700000D01*
X125769771Y-82700000D02*
X125741200Y-82757142D01*
X125741200Y-82757142D02*
X125712628Y-82785714D01*
D11*
%TO.C,C17*%
X129102400Y-62114020D02*
X129102400Y-62395180D01*
X130122400Y-62114020D02*
X130122400Y-62395180D01*
%TO.C,L2*%
X130440000Y-85500378D02*
X130440000Y-86299622D01*
X131560000Y-85500378D02*
X131560000Y-86299622D01*
%TO.C,J1*%
X125499400Y-53020000D02*
X125499400Y-51970000D01*
X127244400Y-56190000D02*
X127244400Y-56945000D01*
X127244400Y-56190000D02*
X136044400Y-56190000D01*
X137789400Y-53020000D02*
X137789400Y-51970000D01*
D12*
%TO.C,G\u002A\u002A\u002A*%
G36*
X131151125Y-64167382D02*
G01*
X131214352Y-64193351D01*
X131269849Y-64224546D01*
X131299567Y-64256904D01*
X131296032Y-64279433D01*
X131275756Y-64283665D01*
X131256845Y-64306987D01*
X131235361Y-64366481D01*
X131224420Y-64410474D01*
X131200397Y-64504094D01*
X131165493Y-64619062D01*
X131133913Y-64711703D01*
X131100148Y-64814811D01*
X131088706Y-64879768D01*
X131098122Y-64915383D01*
X131099705Y-64917200D01*
X131113960Y-64947588D01*
X131095906Y-64960340D01*
X131086718Y-64975316D01*
X131079277Y-65015608D01*
X131073437Y-65085384D01*
X131069049Y-65188811D01*
X131065966Y-65330058D01*
X131064042Y-65513292D01*
X131063129Y-65742681D01*
X131063005Y-65891454D01*
X131063005Y-66810505D01*
X130931398Y-66810505D01*
X130799792Y-66810505D01*
X130799721Y-66106411D01*
X130799650Y-65402318D01*
X130700213Y-65517628D01*
X130600777Y-65632938D01*
X130529197Y-65524773D01*
X130487788Y-65459950D01*
X130461941Y-65415159D01*
X130457616Y-65404482D01*
X130471957Y-65379193D01*
X130510411Y-65321471D01*
X130566125Y-65241454D01*
X130599275Y-65194913D01*
X130761567Y-64926858D01*
X130887675Y-64624574D01*
X130962170Y-64361699D01*
X130989108Y-64247346D01*
X131011741Y-64177234D01*
X131039801Y-64144866D01*
X131083018Y-64143748D01*
X131151125Y-64167382D01*
G37*
G36*
X132800207Y-64744287D02*
G01*
X132800207Y-65231230D01*
X132680935Y-65231230D01*
X132592348Y-65223105D01*
X132549561Y-65197866D01*
X132546513Y-65191748D01*
X132517480Y-65166230D01*
X132450039Y-65154049D01*
X132389411Y-65152266D01*
X132247461Y-65152266D01*
X132247461Y-65310194D01*
X132247461Y-65468121D01*
X132668600Y-65468121D01*
X133089740Y-65468121D01*
X133089740Y-65586567D01*
X133089740Y-65705012D01*
X132678388Y-65705012D01*
X132267035Y-65705012D01*
X132332262Y-65790556D01*
X132422856Y-65890479D01*
X132546681Y-66001291D01*
X132689259Y-66111629D01*
X132836113Y-66210134D01*
X132946506Y-66272559D01*
X133048527Y-66326330D01*
X133109141Y-66369286D01*
X133134220Y-66413756D01*
X133129641Y-66472069D01*
X133101276Y-66556553D01*
X133092658Y-66579270D01*
X133072917Y-66623818D01*
X133048710Y-66637330D01*
X133002244Y-66624106D01*
X132967060Y-66609629D01*
X132796015Y-66520676D01*
X132614711Y-66395171D01*
X132437417Y-66243142D01*
X132415673Y-66222212D01*
X132247461Y-66058085D01*
X132247461Y-66434295D01*
X132247461Y-66810505D01*
X132115854Y-66810505D01*
X131984248Y-66810505D01*
X131984248Y-66431125D01*
X131984248Y-66051745D01*
X131820144Y-66222642D01*
X131722082Y-66318860D01*
X131615947Y-66413256D01*
X131510141Y-66499444D01*
X131413068Y-66571040D01*
X131333132Y-66621659D01*
X131278735Y-66644915D01*
X131264685Y-66644698D01*
X131240256Y-66617428D01*
X131208271Y-66560879D01*
X131176359Y-66492095D01*
X131152153Y-66428119D01*
X131143281Y-66385995D01*
X131145761Y-66379063D01*
X131171640Y-66363933D01*
X131232006Y-66330086D01*
X131315158Y-66284069D01*
X131339378Y-66270748D01*
X131496787Y-66166594D01*
X131668754Y-66020283D01*
X131747357Y-65943854D01*
X131971087Y-65718173D01*
X131556528Y-65710924D01*
X131141968Y-65703676D01*
X131141968Y-65585898D01*
X131141968Y-65468121D01*
X131563108Y-65468121D01*
X131984248Y-65468121D01*
X131984248Y-65310194D01*
X131984248Y-65152266D01*
X131813160Y-65152266D01*
X131717194Y-65154902D01*
X131663856Y-65164320D01*
X131643325Y-65182788D01*
X131642072Y-65191748D01*
X131626571Y-65217771D01*
X131573864Y-65229625D01*
X131523626Y-65231230D01*
X131405181Y-65231230D01*
X131405181Y-64889054D01*
X131639766Y-64889054D01*
X132088380Y-64889054D01*
X132536994Y-64889054D01*
X132536994Y-64691008D01*
X132536994Y-64492962D01*
X132096113Y-64500179D01*
X131655233Y-64507396D01*
X131647499Y-64698225D01*
X131639766Y-64889054D01*
X131405181Y-64889054D01*
X131405181Y-64744287D01*
X131405181Y-64257344D01*
X132102694Y-64257344D01*
X132800207Y-64257344D01*
X132800207Y-64744287D01*
G37*
D11*
%TO.C,C14*%
X136659419Y-74990000D02*
X136940581Y-74990000D01*
X136659419Y-76010000D02*
X136940581Y-76010000D01*
%TO.C,D1*%
X137560000Y-67150000D02*
X134900000Y-67150000D01*
X137560000Y-68850000D02*
X134900000Y-68850000D01*
X137560000Y-68850000D02*
X137560000Y-67150000D01*
%TO.C,SW1*%
X125250000Y-69500000D02*
X125250000Y-72100000D01*
X125700000Y-69050001D02*
X125250000Y-69500000D01*
X125700000Y-72549999D02*
X125250000Y-72100000D01*
X129000000Y-68050000D02*
X127000000Y-68050000D01*
X129000000Y-73550000D02*
X127000000Y-73550000D01*
X130300000Y-69050001D02*
X130750000Y-69500000D01*
X130300000Y-72549999D02*
X130750000Y-72100000D01*
X130750000Y-69500000D02*
X130750000Y-72100000D01*
D12*
%TO.C,G\u002A\u002A\u002A*%
G36*
X133709955Y-96201731D02*
G01*
X133709955Y-96513770D01*
X133634174Y-96513770D01*
X133558393Y-96513770D01*
X133558393Y-96201731D01*
X133558393Y-95889691D01*
X133634174Y-95889691D01*
X133709955Y-95889691D01*
X133709955Y-96201731D01*
G37*
G36*
X133664416Y-95610125D02*
G01*
X133694154Y-95624605D01*
X133715628Y-95643785D01*
X133718606Y-95648481D01*
X133728437Y-95684370D01*
X133723231Y-95721753D01*
X133703977Y-95754305D01*
X133701725Y-95756646D01*
X133680464Y-95773967D01*
X133657459Y-95781451D01*
X133634174Y-95782706D01*
X133604122Y-95780232D01*
X133582458Y-95770483D01*
X133566622Y-95756646D01*
X133546220Y-95724797D01*
X133539782Y-95687578D01*
X133548297Y-95651316D01*
X133549742Y-95648481D01*
X133568184Y-95628789D01*
X133596695Y-95612856D01*
X133627512Y-95604735D01*
X133634174Y-95604398D01*
X133664416Y-95610125D01*
G37*
G36*
X134303348Y-95885975D02*
G01*
X134374795Y-95904370D01*
X134436590Y-95936598D01*
X134487580Y-95981450D01*
X134526608Y-96037720D01*
X134552520Y-96104199D01*
X134564162Y-96179679D01*
X134563137Y-96238006D01*
X134548776Y-96312515D01*
X134519807Y-96377836D01*
X134477615Y-96432606D01*
X134423589Y-96475463D01*
X134359116Y-96505043D01*
X134285582Y-96519985D01*
X134275273Y-96520791D01*
X134200001Y-96519191D01*
X134135595Y-96504145D01*
X134084566Y-96477203D01*
X134048740Y-96451250D01*
X134048740Y-96593953D01*
X134048740Y-96736655D01*
X133972959Y-96736655D01*
X133897178Y-96736655D01*
X133897178Y-96313173D01*
X133897178Y-96203411D01*
X134046957Y-96203411D01*
X134054348Y-96263678D01*
X134076235Y-96313891D01*
X134112189Y-96353416D01*
X134161781Y-96381620D01*
X134169614Y-96384567D01*
X134201640Y-96394160D01*
X134229011Y-96396603D01*
X134259576Y-96391907D01*
X134285969Y-96384706D01*
X134332916Y-96362298D01*
X134369640Y-96327930D01*
X134395448Y-96284708D01*
X134409649Y-96235741D01*
X134411554Y-96184136D01*
X134400471Y-96133001D01*
X134375708Y-96085443D01*
X134357414Y-96063384D01*
X134314827Y-96028778D01*
X134268640Y-96011012D01*
X134216345Y-96009322D01*
X134192553Y-96013098D01*
X134138009Y-96032166D01*
X134095631Y-96064002D01*
X134066057Y-96107772D01*
X134049928Y-96162638D01*
X134046957Y-96203411D01*
X133897178Y-96203411D01*
X133897178Y-95889691D01*
X133968501Y-95889691D01*
X134039825Y-95889691D01*
X134039825Y-95927021D01*
X134039825Y-95964351D01*
X134064342Y-95941412D01*
X134100188Y-95913608D01*
X134139859Y-95895636D01*
X134188499Y-95885593D01*
X134223405Y-95882622D01*
X134303348Y-95885975D01*
G37*
G36*
X132907568Y-95791622D02*
G01*
X132907862Y-95841359D01*
X132908676Y-95884239D01*
X132909909Y-95917367D01*
X132911462Y-95937849D01*
X132912848Y-95943184D01*
X132922821Y-95938209D01*
X132939773Y-95926154D01*
X132940821Y-95925334D01*
X132980244Y-95903574D01*
X133031316Y-95888941D01*
X133089109Y-95881991D01*
X133148693Y-95883285D01*
X133205140Y-95893380D01*
X133210169Y-95894820D01*
X133250578Y-95911946D01*
X133288093Y-95940017D01*
X133300270Y-95951675D01*
X133320354Y-95972981D01*
X133336267Y-95993819D01*
X133348489Y-96016553D01*
X133357499Y-96043549D01*
X133363777Y-96077170D01*
X133367803Y-96119782D01*
X133370054Y-96173748D01*
X133371012Y-96241433D01*
X133371169Y-96301418D01*
X133371169Y-96513770D01*
X133295388Y-96513770D01*
X133219607Y-96513770D01*
X133219607Y-96317345D01*
X133219352Y-96246158D01*
X133218301Y-96190353D01*
X133216025Y-96147481D01*
X133212096Y-96115097D01*
X133206085Y-96090755D01*
X133197563Y-96072007D01*
X133186103Y-96056407D01*
X133171287Y-96041520D01*
X133154056Y-96028804D01*
X133132905Y-96021243D01*
X133102021Y-96017099D01*
X133086146Y-96016037D01*
X133049616Y-96015128D01*
X133023522Y-96018231D01*
X133000681Y-96026608D01*
X132988070Y-96033261D01*
X132960477Y-96053381D01*
X132936715Y-96078237D01*
X132931645Y-96085491D01*
X132925226Y-96096783D01*
X132920323Y-96109020D01*
X132916686Y-96124754D01*
X132914066Y-96146540D01*
X132912214Y-96176933D01*
X132910878Y-96218486D01*
X132909811Y-96273753D01*
X132909184Y-96315402D01*
X132906342Y-96513770D01*
X132831174Y-96513770D01*
X132756006Y-96513770D01*
X132756006Y-96076915D01*
X132756006Y-95640060D01*
X132831787Y-95640060D01*
X132907568Y-95640060D01*
X132907568Y-95791622D01*
G37*
G36*
X129867413Y-95796135D02*
G01*
X129867413Y-95952211D01*
X129902648Y-95926687D01*
X129948363Y-95900676D01*
X129999886Y-95885963D01*
X130061191Y-95881609D01*
X130089683Y-95882578D01*
X130165923Y-95894890D01*
X130232583Y-95921745D01*
X130288515Y-95962031D01*
X130332572Y-96014632D01*
X130363604Y-96078435D01*
X130380465Y-96152327D01*
X130381864Y-96166099D01*
X130380884Y-96244902D01*
X130364977Y-96317186D01*
X130335187Y-96381280D01*
X130292561Y-96435511D01*
X130238145Y-96478208D01*
X130172983Y-96507698D01*
X130167094Y-96509509D01*
X130115433Y-96519455D01*
X130057806Y-96521951D01*
X130001599Y-96517163D01*
X129954195Y-96505252D01*
X129952945Y-96504770D01*
X129921701Y-96489691D01*
X129893250Y-96471303D01*
X129883850Y-96463400D01*
X129858498Y-96439111D01*
X129858498Y-96476440D01*
X129858498Y-96513770D01*
X129787175Y-96513770D01*
X129715851Y-96513770D01*
X129715851Y-96203411D01*
X129865630Y-96203411D01*
X129873021Y-96263678D01*
X129894908Y-96313891D01*
X129930862Y-96353416D01*
X129980454Y-96381620D01*
X129988287Y-96384567D01*
X130020314Y-96394160D01*
X130047684Y-96396603D01*
X130078249Y-96391907D01*
X130104642Y-96384706D01*
X130151590Y-96362298D01*
X130188313Y-96327930D01*
X130214121Y-96284708D01*
X130228323Y-96235741D01*
X130230227Y-96184136D01*
X130219144Y-96133001D01*
X130194382Y-96085443D01*
X130176088Y-96063384D01*
X130133500Y-96028778D01*
X130087313Y-96011012D01*
X130035018Y-96009322D01*
X130011226Y-96013098D01*
X129956682Y-96032166D01*
X129914304Y-96064002D01*
X129884730Y-96107772D01*
X129868602Y-96162638D01*
X129865630Y-96203411D01*
X129715851Y-96203411D01*
X129715851Y-96076915D01*
X129715851Y-95640060D01*
X129791632Y-95640060D01*
X129867413Y-95640060D01*
X129867413Y-95796135D01*
G37*
G36*
X132413885Y-95884153D02*
G01*
X132479059Y-95897750D01*
X132536412Y-95923955D01*
X132549002Y-95931966D01*
X132572736Y-95950749D01*
X132596625Y-95974138D01*
X132616728Y-95997700D01*
X132629104Y-96017007D01*
X132631190Y-96024341D01*
X132623992Y-96031510D01*
X132605035Y-96044430D01*
X132578273Y-96060427D01*
X132575603Y-96061934D01*
X132520016Y-96093155D01*
X132482799Y-96058850D01*
X132436624Y-96026643D01*
X132387717Y-96010308D01*
X132338590Y-96008673D01*
X132291753Y-96020568D01*
X132249718Y-96044821D01*
X132214995Y-96080262D01*
X132190094Y-96125718D01*
X132177526Y-96180019D01*
X132176504Y-96201731D01*
X132183993Y-96258669D01*
X132204771Y-96307275D01*
X132236307Y-96346370D01*
X132276070Y-96374778D01*
X132321527Y-96391319D01*
X132370148Y-96394817D01*
X132419400Y-96384093D01*
X132466752Y-96357969D01*
X132483069Y-96344362D01*
X132520556Y-96309808D01*
X132575873Y-96340982D01*
X132603112Y-96357479D01*
X132622863Y-96371626D01*
X132631143Y-96380545D01*
X132631190Y-96380937D01*
X132624394Y-96395826D01*
X132606525Y-96417149D01*
X132581363Y-96441477D01*
X132552688Y-96465377D01*
X132524279Y-96485418D01*
X132503822Y-96496570D01*
X132462119Y-96509370D01*
X132409736Y-96517565D01*
X132353319Y-96520771D01*
X132299513Y-96518599D01*
X132256113Y-96510992D01*
X132189799Y-96483742D01*
X132130282Y-96442599D01*
X132081086Y-96390520D01*
X132048455Y-96336553D01*
X132039268Y-96313267D01*
X132033505Y-96288240D01*
X132030460Y-96256476D01*
X132029427Y-96212980D01*
X132029400Y-96201731D01*
X132029867Y-96157641D01*
X132031874Y-96126072D01*
X132036331Y-96101727D01*
X132044146Y-96079306D01*
X132054100Y-96057822D01*
X132093740Y-95996440D01*
X132145713Y-95947299D01*
X132208624Y-95911262D01*
X132281081Y-95889191D01*
X132337858Y-95882455D01*
X132413885Y-95884153D01*
G37*
G36*
X130831756Y-95886214D02*
G01*
X130876762Y-95893820D01*
X130906655Y-95904642D01*
X130931403Y-95919544D01*
X130950396Y-95933867D01*
X130954552Y-95938074D01*
X130969211Y-95950770D01*
X130978249Y-95946619D01*
X130981778Y-95925549D01*
X130981839Y-95920895D01*
X130981839Y-95889691D01*
X131053163Y-95889691D01*
X131124486Y-95889691D01*
X131124486Y-96201731D01*
X131124486Y-96513770D01*
X131053163Y-96513770D01*
X130981839Y-96513770D01*
X130981839Y-96482762D01*
X130981839Y-96451755D01*
X130939799Y-96478416D01*
X130909522Y-96495520D01*
X130879363Y-96509304D01*
X130866247Y-96513832D01*
X130827580Y-96520187D01*
X130779591Y-96521935D01*
X130729961Y-96519310D01*
X130686371Y-96512544D01*
X130669800Y-96507877D01*
X130603355Y-96476138D01*
X130549251Y-96431985D01*
X130508104Y-96376434D01*
X130480530Y-96310507D01*
X130467147Y-96235221D01*
X130466879Y-96179671D01*
X130616922Y-96179671D01*
X130619322Y-96232103D01*
X130632512Y-96282322D01*
X130655219Y-96325843D01*
X130686168Y-96358183D01*
X130692843Y-96362674D01*
X130737681Y-96385859D01*
X130778659Y-96395493D01*
X130822360Y-96392479D01*
X130853537Y-96384706D01*
X130900484Y-96362298D01*
X130937207Y-96327930D01*
X130963015Y-96284708D01*
X130977217Y-96235741D01*
X130979122Y-96184136D01*
X130968038Y-96133001D01*
X130943276Y-96085443D01*
X130924982Y-96063384D01*
X130881678Y-96029795D01*
X130833537Y-96011458D01*
X130783645Y-96007690D01*
X130735090Y-96017806D01*
X130690959Y-96041123D01*
X130654339Y-96076956D01*
X130628317Y-96124621D01*
X130626587Y-96129509D01*
X130616922Y-96179671D01*
X130466879Y-96179671D01*
X130466844Y-96172392D01*
X130479420Y-96096095D01*
X130506603Y-96028892D01*
X130547631Y-95971951D01*
X130601740Y-95926443D01*
X130641488Y-95904499D01*
X130679417Y-95892615D01*
X130727497Y-95885608D01*
X130780138Y-95883476D01*
X130831756Y-95886214D01*
G37*
G36*
X131646561Y-95885653D02*
G01*
X131679099Y-95887498D01*
X131704337Y-95891646D01*
X131727535Y-95898978D01*
X131753954Y-95910372D01*
X131755111Y-95910906D01*
X131810908Y-95944909D01*
X131861009Y-95990966D01*
X131900353Y-96044068D01*
X131911901Y-96066063D01*
X131921233Y-96089527D01*
X131927093Y-96114329D01*
X131930204Y-96145518D01*
X131931291Y-96188142D01*
X131931331Y-96201731D01*
X131930864Y-96245820D01*
X131928857Y-96277389D01*
X131924400Y-96301735D01*
X131916585Y-96324156D01*
X131906631Y-96345639D01*
X131869664Y-96402105D01*
X131819132Y-96451433D01*
X131758972Y-96489887D01*
X131750126Y-96494134D01*
X131720282Y-96506262D01*
X131690708Y-96513843D01*
X131655088Y-96518083D01*
X131614834Y-96519978D01*
X131558005Y-96519629D01*
X131513178Y-96515116D01*
X131492568Y-96510244D01*
X131424761Y-96479775D01*
X131365373Y-96436366D01*
X131317482Y-96382668D01*
X131290645Y-96336553D01*
X131278497Y-96297050D01*
X131271635Y-96246555D01*
X131270904Y-96220946D01*
X131419062Y-96220946D01*
X131430709Y-96274280D01*
X131455781Y-96321478D01*
X131493218Y-96359822D01*
X131541964Y-96386595D01*
X131550322Y-96389489D01*
X131588719Y-96394769D01*
X131633778Y-96390441D01*
X131677927Y-96377640D01*
X131699581Y-96367107D01*
X131738229Y-96334897D01*
X131765117Y-96292786D01*
X131780277Y-96244246D01*
X131783742Y-96192750D01*
X131775545Y-96141770D01*
X131755719Y-96094778D01*
X131724296Y-96055248D01*
X131696439Y-96034470D01*
X131645829Y-96013884D01*
X131593487Y-96008577D01*
X131542792Y-96017596D01*
X131497125Y-96039987D01*
X131459864Y-96074797D01*
X131440268Y-96106736D01*
X131421896Y-96164192D01*
X131419062Y-96220946D01*
X131270904Y-96220946D01*
X131270052Y-96191103D01*
X131273738Y-96136728D01*
X131282686Y-96089466D01*
X131291019Y-96066063D01*
X131324672Y-96011549D01*
X131371095Y-95962087D01*
X131425230Y-95922683D01*
X131447809Y-95910906D01*
X131474458Y-95899337D01*
X131497683Y-95891865D01*
X131522744Y-95887610D01*
X131554903Y-95885692D01*
X131599420Y-95885234D01*
X131601460Y-95885234D01*
X131646561Y-95885653D01*
G37*
G36*
X130741123Y-91609430D02*
G01*
X130741123Y-92143489D01*
X130801302Y-92118271D01*
X130889799Y-92089340D01*
X130987085Y-92071775D01*
X131087974Y-92065868D01*
X131187281Y-92071911D01*
X131279821Y-92090195D01*
X131283314Y-92091187D01*
X131390516Y-92130992D01*
X131489109Y-92185572D01*
X131577809Y-92253504D01*
X131655333Y-92333364D01*
X131720396Y-92423731D01*
X131771714Y-92523180D01*
X131808002Y-92630289D01*
X131820043Y-92685903D01*
X131828261Y-92764594D01*
X131827647Y-92851310D01*
X131818712Y-92938892D01*
X131801965Y-93020178D01*
X131794398Y-93045676D01*
X131750559Y-93152165D01*
X131691788Y-93249663D01*
X131619263Y-93336820D01*
X131534163Y-93412286D01*
X131437666Y-93474711D01*
X131405321Y-93491350D01*
X131353082Y-93515353D01*
X131306769Y-93532964D01*
X131261810Y-93545106D01*
X131213630Y-93552704D01*
X131157656Y-93556681D01*
X131089315Y-93557960D01*
X131075451Y-93557975D01*
X131015176Y-93557363D01*
X130966603Y-93554971D01*
X130924634Y-93549803D01*
X130884172Y-93540863D01*
X130840119Y-93527155D01*
X130787378Y-93507683D01*
X130756725Y-93495699D01*
X130746781Y-93494296D01*
X130742224Y-93503085D01*
X130741124Y-93525835D01*
X130741123Y-93526154D01*
X130741123Y-93562770D01*
X130536069Y-93562770D01*
X130331015Y-93562770D01*
X130331015Y-92828265D01*
X130717951Y-92828265D01*
X130721538Y-92864078D01*
X130743152Y-92944157D01*
X130779257Y-93014713D01*
X130828706Y-93074467D01*
X130890355Y-93122144D01*
X130963057Y-93156465D01*
X130991688Y-93165298D01*
X131052197Y-93176858D01*
X131108976Y-93176407D01*
X131164294Y-93165740D01*
X131241809Y-93137009D01*
X131308325Y-93094571D01*
X131362915Y-93039436D01*
X131404650Y-92972611D01*
X131432601Y-92895105D01*
X131438563Y-92867782D01*
X131442797Y-92798779D01*
X131431565Y-92727604D01*
X131406101Y-92658338D01*
X131367636Y-92595062D01*
X131349618Y-92573159D01*
X131291873Y-92521013D01*
X131227036Y-92483792D01*
X131157467Y-92461305D01*
X131085527Y-92453356D01*
X131013577Y-92459754D01*
X130943977Y-92480304D01*
X130879087Y-92514813D01*
X130821268Y-92563089D01*
X130775929Y-92620141D01*
X130742656Y-92685854D01*
X130722964Y-92756869D01*
X130717951Y-92828265D01*
X130331015Y-92828265D01*
X130331015Y-92319070D01*
X130331015Y-91075371D01*
X130536069Y-91075371D01*
X130741123Y-91075371D01*
X130741123Y-91609430D01*
G37*
G36*
X132974629Y-93954614D02*
G01*
X133085275Y-93979432D01*
X133189019Y-94019641D01*
X133284611Y-94074297D01*
X133370799Y-94142457D01*
X133446334Y-94223177D01*
X133509966Y-94315513D01*
X133560444Y-94418522D01*
X133587244Y-94496343D01*
X133599598Y-94555518D01*
X133606832Y-94625911D01*
X133608948Y-94701658D01*
X133605945Y-94776897D01*
X133597822Y-94845765D01*
X133587244Y-94893710D01*
X133547308Y-95001574D01*
X133493025Y-95100720D01*
X133425779Y-95189862D01*
X133346956Y-95267715D01*
X133257939Y-95332991D01*
X133160115Y-95384406D01*
X133054866Y-95420673D01*
X133008610Y-95431111D01*
X132953677Y-95438487D01*
X132889817Y-95442140D01*
X132823519Y-95442087D01*
X132761273Y-95438345D01*
X132709567Y-95430931D01*
X132706724Y-95430322D01*
X132596094Y-95397167D01*
X132493540Y-95348633D01*
X132400244Y-95285785D01*
X132317386Y-95209688D01*
X132246150Y-95121407D01*
X132187717Y-95022007D01*
X132148047Y-94926827D01*
X132137197Y-94894661D01*
X132129432Y-94868313D01*
X132124237Y-94843691D01*
X132121097Y-94816702D01*
X132119495Y-94783257D01*
X132118916Y-94739261D01*
X132118871Y-94711787D01*
X132499903Y-94711787D01*
X132511375Y-94782862D01*
X132537171Y-94851266D01*
X132575708Y-94913922D01*
X132625405Y-94967755D01*
X132684681Y-95009685D01*
X132697120Y-95016163D01*
X132765083Y-95043883D01*
X132828933Y-95057042D01*
X132893652Y-95056410D01*
X132925758Y-95051575D01*
X132998693Y-95029496D01*
X133064204Y-94993599D01*
X133120720Y-94946085D01*
X133166668Y-94889156D01*
X133200478Y-94825010D01*
X133220579Y-94755850D01*
X133225398Y-94683876D01*
X133220120Y-94639305D01*
X133198784Y-94563294D01*
X133165376Y-94498303D01*
X133118047Y-94440742D01*
X133117661Y-94440356D01*
X133056533Y-94390472D01*
X132990451Y-94356353D01*
X132921414Y-94337343D01*
X132851421Y-94332789D01*
X132782472Y-94342036D01*
X132716566Y-94364429D01*
X132655703Y-94399315D01*
X132601883Y-94446038D01*
X132557104Y-94503943D01*
X132523366Y-94572378D01*
X132504337Y-94641120D01*
X132499903Y-94711787D01*
X132118871Y-94711787D01*
X132118843Y-94695027D01*
X132118982Y-94639971D01*
X132119742Y-94598655D01*
X132121639Y-94566985D01*
X132125189Y-94540871D01*
X132130906Y-94516219D01*
X132139307Y-94488940D01*
X132148047Y-94463226D01*
X132194013Y-94355433D01*
X132253314Y-94258128D01*
X132324657Y-94172251D01*
X132406747Y-94098746D01*
X132498293Y-94038552D01*
X132598000Y-93992613D01*
X132704576Y-93961868D01*
X132816728Y-93947260D01*
X132858332Y-93946132D01*
X132974629Y-93954614D01*
G37*
G36*
X133611885Y-92813875D02*
G01*
X133611885Y-93571685D01*
X133406831Y-93571685D01*
X133201776Y-93571685D01*
X133201776Y-93530612D01*
X133200890Y-93505825D01*
X133197124Y-93495109D01*
X133188816Y-93494744D01*
X133186174Y-93495699D01*
X133117940Y-93521138D01*
X133059379Y-93539095D01*
X133004659Y-93550886D01*
X132947946Y-93557828D01*
X132897998Y-93560746D01*
X132791728Y-93559669D01*
X132696049Y-93547120D01*
X132607077Y-93522041D01*
X132520929Y-93483373D01*
X132443947Y-93436981D01*
X132354474Y-93367801D01*
X132279096Y-93288946D01*
X132216827Y-93199100D01*
X132166683Y-93096945D01*
X132144485Y-93036760D01*
X132135017Y-93007081D01*
X132128262Y-92981477D01*
X132123759Y-92955902D01*
X132121047Y-92926307D01*
X132119665Y-92888647D01*
X132119151Y-92838873D01*
X132119084Y-92813875D01*
X132119100Y-92792469D01*
X132500847Y-92792469D01*
X132509341Y-92867629D01*
X132534223Y-92941900D01*
X132539048Y-92952064D01*
X132566569Y-92995932D01*
X132604561Y-93040808D01*
X132647208Y-93080445D01*
X132680441Y-93103989D01*
X132742204Y-93131505D01*
X132812039Y-93147483D01*
X132883672Y-93150975D01*
X132941370Y-93143400D01*
X133013364Y-93118293D01*
X133077363Y-93079317D01*
X133131804Y-93028766D01*
X133175124Y-92968930D01*
X133205763Y-92902100D01*
X133222156Y-92830570D01*
X133222743Y-92756630D01*
X133219732Y-92735057D01*
X133197628Y-92655734D01*
X133161073Y-92586043D01*
X133110954Y-92527170D01*
X133048159Y-92480301D01*
X133017007Y-92463911D01*
X132951008Y-92441307D01*
X132879159Y-92430934D01*
X132807429Y-92433145D01*
X132743424Y-92447713D01*
X132672567Y-92481380D01*
X132612676Y-92527537D01*
X132564655Y-92583954D01*
X132529407Y-92648402D01*
X132507837Y-92718650D01*
X132500847Y-92792469D01*
X132119100Y-92792469D01*
X132119126Y-92758904D01*
X132119802Y-92717685D01*
X132121623Y-92686139D01*
X132125102Y-92660188D01*
X132130752Y-92635754D01*
X132139083Y-92608757D01*
X132148197Y-92582075D01*
X132168977Y-92525848D01*
X132189876Y-92478992D01*
X132214144Y-92435507D01*
X132245029Y-92389395D01*
X132273446Y-92350859D01*
X132340011Y-92276415D01*
X132420203Y-92209691D01*
X132510681Y-92152920D01*
X132608107Y-92108334D01*
X132664307Y-92089563D01*
X132696423Y-92081112D01*
X132727113Y-92075382D01*
X132761089Y-92071908D01*
X132803063Y-92070221D01*
X132857747Y-92069855D01*
X132862991Y-92069870D01*
X132934383Y-92071403D01*
X132993070Y-92076092D01*
X133044033Y-92084846D01*
X133092255Y-92098575D01*
X133142719Y-92118188D01*
X133153461Y-92122871D01*
X133201776Y-92144238D01*
X133201776Y-92100152D01*
X133201776Y-92056065D01*
X133406831Y-92056065D01*
X133611885Y-92056065D01*
X133611885Y-92813875D01*
G37*
G36*
X131151232Y-93977336D02*
G01*
X131151232Y-94026371D01*
X131235463Y-94026371D01*
X131319693Y-94026371D01*
X131322388Y-93979565D01*
X131325083Y-93932759D01*
X131396406Y-93932759D01*
X131467729Y-93932759D01*
X131470424Y-93979565D01*
X131473119Y-94026371D01*
X131532049Y-94026371D01*
X131590679Y-94033160D01*
X131637531Y-94053272D01*
X131672234Y-94086327D01*
X131694417Y-94131943D01*
X131703709Y-94189738D01*
X131703988Y-94203036D01*
X131703988Y-94258171D01*
X131748565Y-94258171D01*
X131793142Y-94258171D01*
X131793142Y-94329495D01*
X131793142Y-94400818D01*
X131748565Y-94400818D01*
X131703988Y-94400818D01*
X131703988Y-94489972D01*
X131703988Y-94579126D01*
X131748565Y-94579126D01*
X131793142Y-94579126D01*
X131793142Y-94650449D01*
X131793142Y-94721773D01*
X131748565Y-94721773D01*
X131703988Y-94721773D01*
X131703988Y-94806469D01*
X131703988Y-94891166D01*
X131748565Y-94891166D01*
X131793142Y-94891166D01*
X131793142Y-94962489D01*
X131793142Y-95033812D01*
X131749539Y-95033812D01*
X131705937Y-95033812D01*
X131702632Y-95099253D01*
X131693918Y-95159023D01*
X131674133Y-95204944D01*
X131642674Y-95237597D01*
X131598940Y-95257567D01*
X131542330Y-95265436D01*
X131531019Y-95265613D01*
X131472187Y-95265613D01*
X131472187Y-95314647D01*
X131472187Y-95363682D01*
X131396406Y-95363682D01*
X131320625Y-95363682D01*
X131320625Y-95314647D01*
X131320625Y-95265613D01*
X131235929Y-95265613D01*
X131151232Y-95265613D01*
X131151232Y-95314647D01*
X131151232Y-95363682D01*
X131079909Y-95363682D01*
X131008586Y-95363682D01*
X131008586Y-95314647D01*
X131008586Y-95265613D01*
X130923889Y-95265613D01*
X130839193Y-95265613D01*
X130839193Y-95314647D01*
X130839193Y-95363682D01*
X130763412Y-95363682D01*
X130687631Y-95363682D01*
X130687631Y-95314647D01*
X130687631Y-95265613D01*
X130628799Y-95265613D01*
X130570311Y-95260037D01*
X130524887Y-95242779D01*
X130491703Y-95213042D01*
X130469935Y-95170029D01*
X130458756Y-95112944D01*
X130457760Y-95100420D01*
X130453485Y-95033812D01*
X130410081Y-95033812D01*
X130366676Y-95033812D01*
X130366676Y-94962489D01*
X130366676Y-94891166D01*
X130411253Y-94891166D01*
X130455830Y-94891166D01*
X130455830Y-94806469D01*
X130455830Y-94721773D01*
X130411253Y-94721773D01*
X130366676Y-94721773D01*
X130366676Y-94650449D01*
X130366676Y-94579126D01*
X130411253Y-94579126D01*
X130455830Y-94579126D01*
X130455830Y-94489972D01*
X130455830Y-94400818D01*
X130411253Y-94400818D01*
X130366676Y-94400818D01*
X130366676Y-94329495D01*
X130366676Y-94258171D01*
X130410081Y-94258171D01*
X130453485Y-94258171D01*
X130457706Y-94192411D01*
X130467291Y-94132368D01*
X130487792Y-94086296D01*
X130519768Y-94053650D01*
X130563778Y-94033886D01*
X130620380Y-94026459D01*
X130628200Y-94026371D01*
X130686699Y-94026371D01*
X130689394Y-93979565D01*
X130692089Y-93932759D01*
X130763412Y-93932759D01*
X130834735Y-93932759D01*
X130837430Y-93979565D01*
X130840125Y-94026371D01*
X130924355Y-94026371D01*
X131008586Y-94026371D01*
X131008586Y-93977336D01*
X131008586Y-93928301D01*
X131079909Y-93928301D01*
X131151232Y-93928301D01*
X131151232Y-93977336D01*
G37*
D11*
%TO.C,C16*%
X128740581Y-87290000D02*
X128459419Y-87290000D01*
X128740581Y-88310000D02*
X128459419Y-88310000D01*
%TO.C,L1*%
X137199622Y-73340000D02*
X136400378Y-73340000D01*
X137199622Y-74460000D02*
X136400378Y-74460000D01*
%TO.C,U2*%
X129164093Y-78893934D02*
X129829127Y-78228900D01*
X129882160Y-79612001D02*
X129164093Y-78893934D01*
X131487999Y-81217840D02*
X132206066Y-81935907D01*
X132206066Y-81935907D02*
X132871100Y-81270873D01*
X132785894Y-76856052D02*
X131201974Y-76856052D01*
X134317840Y-78387999D02*
X135035907Y-79106066D01*
X135035907Y-79106066D02*
X134370873Y-79771100D01*
D13*
X132093934Y-76233798D02*
G75*
G02*
X131893934Y-76233798I-100000J0D01*
G01*
X131893934Y-76233798D02*
G75*
G02*
X132093934Y-76233798I100000J0D01*
G01*
D11*
%TO.C,Y1*%
X125575000Y-77050000D02*
X125575000Y-81050000D01*
X128875000Y-77050000D02*
X125575000Y-77050000D01*
%TO.C,R2*%
X124670000Y-79228641D02*
X124670000Y-78921359D01*
X125430000Y-79228641D02*
X125430000Y-78921359D01*
%TO.C,U4*%
X128100000Y-83739999D02*
X127300000Y-83740000D01*
X128100000Y-83739999D02*
X128900000Y-83740000D01*
X128100000Y-86860001D02*
X127300000Y-86860000D01*
X128100000Y-86860001D02*
X128900000Y-86860000D01*
X129640000Y-87140000D02*
X129160000Y-87140000D01*
X129400000Y-86810000D01*
X129640000Y-87140000D01*
G36*
X129640000Y-87140000D02*
G01*
X129160000Y-87140000D01*
X129400000Y-86810000D01*
X129640000Y-87140000D01*
G37*
%TO.C,U1*%
X131249999Y-70310000D02*
X131250000Y-70260000D01*
X131249999Y-71910000D02*
X131250000Y-71960000D01*
X131250000Y-70260000D02*
X131700000Y-70260000D01*
X131250000Y-71960000D02*
X131700000Y-71960000D01*
X133350000Y-71960000D02*
X132900000Y-71960000D01*
X133350001Y-70310000D02*
X133350000Y-70110000D01*
X133350001Y-71910000D02*
X133350000Y-71960000D01*
%TO.C,U3*%
X134690000Y-71000000D02*
X134690001Y-70200000D01*
X134690000Y-71000000D02*
X134690001Y-71800000D01*
X137810002Y-71000000D02*
X137810001Y-70200000D01*
X137810002Y-71000000D02*
X137810001Y-71800000D01*
X134740001Y-72300000D02*
X134410001Y-72540000D01*
X134410001Y-72060000D01*
X134740001Y-72300000D01*
G36*
X134740001Y-72300000D02*
G01*
X134410001Y-72540000D01*
X134410001Y-72060000D01*
X134740001Y-72300000D01*
G37*
%TO.C,C11*%
X138190000Y-70259419D02*
X138190000Y-70540581D01*
X139210000Y-70259419D02*
X139210000Y-70540581D01*
%TO.C,C15*%
X124790000Y-85159419D02*
X124790000Y-85440581D01*
X125810000Y-85159419D02*
X125810000Y-85440581D01*
%TD*%
M02*
