%TF.GenerationSoftware,KiCad,Pcbnew,9.0.9-9.0.9~ubuntu24.04.1*%
%TF.CreationDate,2026-06-18T12:35:29+02:00*%
%TF.ProjectId,dabao_v3c,64616261-6f5f-4763-9363-2e6b69636164,rev?*%
%TF.SameCoordinates,Original*%
%TF.FileFunction,AssemblyDrawing,Top*%
%FSLAX46Y46*%
G04 Gerber Fmt 4.6, Leading zero omitted, Abs format (unit mm)*
G04 Created by KiCad (PCBNEW 9.0.9-9.0.9~ubuntu24.04.1) date 2026-06-18 12:35:29*
%MOMM*%
%LPD*%
G01*
G04 APERTURE LIST*
%ADD10C,0.150000*%
%ADD11C,0.060000*%
%ADD12C,0.080000*%
%ADD13C,0.040000*%
%ADD14C,0.025000*%
%ADD15C,0.105000*%
%ADD16C,0.100000*%
G04 APERTURE END LIST*
D10*
X128637219Y-67873647D02*
X128637219Y-68445075D01*
X128637219Y-68159361D02*
X127637219Y-68159361D01*
X127637219Y-68159361D02*
X127780076Y-68254599D01*
X127780076Y-68254599D02*
X127875314Y-68349837D01*
X127875314Y-68349837D02*
X127922933Y-68445075D01*
X127637219Y-67254599D02*
X127637219Y-67159361D01*
X127637219Y-67159361D02*
X127684838Y-67064123D01*
X127684838Y-67064123D02*
X127732457Y-67016504D01*
X127732457Y-67016504D02*
X127827695Y-66968885D01*
X127827695Y-66968885D02*
X128018171Y-66921266D01*
X128018171Y-66921266D02*
X128256266Y-66921266D01*
X128256266Y-66921266D02*
X128446742Y-66968885D01*
X128446742Y-66968885D02*
X128541980Y-67016504D01*
X128541980Y-67016504D02*
X128589600Y-67064123D01*
X128589600Y-67064123D02*
X128637219Y-67159361D01*
X128637219Y-67159361D02*
X128637219Y-67254599D01*
X128637219Y-67254599D02*
X128589600Y-67349837D01*
X128589600Y-67349837D02*
X128541980Y-67397456D01*
X128541980Y-67397456D02*
X128446742Y-67445075D01*
X128446742Y-67445075D02*
X128256266Y-67492694D01*
X128256266Y-67492694D02*
X128018171Y-67492694D01*
X128018171Y-67492694D02*
X127827695Y-67445075D01*
X127827695Y-67445075D02*
X127732457Y-67397456D01*
X127732457Y-67397456D02*
X127684838Y-67349837D01*
X127684838Y-67349837D02*
X127637219Y-67254599D01*
X127637219Y-66302218D02*
X127637219Y-66206980D01*
X127637219Y-66206980D02*
X127684838Y-66111742D01*
X127684838Y-66111742D02*
X127732457Y-66064123D01*
X127732457Y-66064123D02*
X127827695Y-66016504D01*
X127827695Y-66016504D02*
X128018171Y-65968885D01*
X128018171Y-65968885D02*
X128256266Y-65968885D01*
X128256266Y-65968885D02*
X128446742Y-66016504D01*
X128446742Y-66016504D02*
X128541980Y-66064123D01*
X128541980Y-66064123D02*
X128589600Y-66111742D01*
X128589600Y-66111742D02*
X128637219Y-66206980D01*
X128637219Y-66206980D02*
X128637219Y-66302218D01*
X128637219Y-66302218D02*
X128589600Y-66397456D01*
X128589600Y-66397456D02*
X128541980Y-66445075D01*
X128541980Y-66445075D02*
X128446742Y-66492694D01*
X128446742Y-66492694D02*
X128256266Y-66540313D01*
X128256266Y-66540313D02*
X128018171Y-66540313D01*
X128018171Y-66540313D02*
X127827695Y-66492694D01*
X127827695Y-66492694D02*
X127732457Y-66445075D01*
X127732457Y-66445075D02*
X127684838Y-66397456D01*
X127684838Y-66397456D02*
X127637219Y-66302218D01*
X127970552Y-65540313D02*
X128637219Y-65540313D01*
X128065790Y-65540313D02*
X128018171Y-65492694D01*
X128018171Y-65492694D02*
X127970552Y-65397456D01*
X127970552Y-65397456D02*
X127970552Y-65254599D01*
X127970552Y-65254599D02*
X128018171Y-65159361D01*
X128018171Y-65159361D02*
X128113409Y-65111742D01*
X128113409Y-65111742D02*
X128637219Y-65111742D01*
X128113409Y-64302218D02*
X128113409Y-64635551D01*
X128637219Y-64635551D02*
X127637219Y-64635551D01*
X127637219Y-64635551D02*
X127637219Y-64159361D01*
X128589600Y-63730789D02*
X128637219Y-63730789D01*
X128637219Y-63730789D02*
X128732457Y-63778408D01*
X128732457Y-63778408D02*
X128780076Y-63826027D01*
X127732457Y-62587932D02*
X127684838Y-62540313D01*
X127684838Y-62540313D02*
X127637219Y-62445075D01*
X127637219Y-62445075D02*
X127637219Y-62206980D01*
X127637219Y-62206980D02*
X127684838Y-62111742D01*
X127684838Y-62111742D02*
X127732457Y-62064123D01*
X127732457Y-62064123D02*
X127827695Y-62016504D01*
X127827695Y-62016504D02*
X127922933Y-62016504D01*
X127922933Y-62016504D02*
X128065790Y-62064123D01*
X128065790Y-62064123D02*
X128637219Y-62635551D01*
X128637219Y-62635551D02*
X128637219Y-62016504D01*
X127637219Y-61111742D02*
X127637219Y-61587932D01*
X127637219Y-61587932D02*
X128113409Y-61635551D01*
X128113409Y-61635551D02*
X128065790Y-61587932D01*
X128065790Y-61587932D02*
X128018171Y-61492694D01*
X128018171Y-61492694D02*
X128018171Y-61254599D01*
X128018171Y-61254599D02*
X128065790Y-61159361D01*
X128065790Y-61159361D02*
X128113409Y-61111742D01*
X128113409Y-61111742D02*
X128208647Y-61064123D01*
X128208647Y-61064123D02*
X128446742Y-61064123D01*
X128446742Y-61064123D02*
X128541980Y-61111742D01*
X128541980Y-61111742D02*
X128589600Y-61159361D01*
X128589600Y-61159361D02*
X128637219Y-61254599D01*
X128637219Y-61254599D02*
X128637219Y-61492694D01*
X128637219Y-61492694D02*
X128589600Y-61587932D01*
X128589600Y-61587932D02*
X128541980Y-61635551D01*
X127637219Y-60778408D02*
X128637219Y-60445075D01*
X128637219Y-60445075D02*
X127637219Y-60111742D01*
X128589600Y-59730789D02*
X128637219Y-59730789D01*
X128637219Y-59730789D02*
X128732457Y-59778408D01*
X128732457Y-59778408D02*
X128780076Y-59826027D01*
X127637219Y-58635551D02*
X128637219Y-57968885D01*
X127637219Y-57968885D02*
X128637219Y-58635551D01*
X127637219Y-57111742D02*
X127637219Y-57587932D01*
X127637219Y-57587932D02*
X128113409Y-57635551D01*
X128113409Y-57635551D02*
X128065790Y-57587932D01*
X128065790Y-57587932D02*
X128018171Y-57492694D01*
X128018171Y-57492694D02*
X128018171Y-57254599D01*
X128018171Y-57254599D02*
X128065790Y-57159361D01*
X128065790Y-57159361D02*
X128113409Y-57111742D01*
X128113409Y-57111742D02*
X128208647Y-57064123D01*
X128208647Y-57064123D02*
X128446742Y-57064123D01*
X128446742Y-57064123D02*
X128541980Y-57111742D01*
X128541980Y-57111742D02*
X128589600Y-57159361D01*
X128589600Y-57159361D02*
X128637219Y-57254599D01*
X128637219Y-57254599D02*
X128637219Y-57492694D01*
X128637219Y-57492694D02*
X128589600Y-57587932D01*
X128589600Y-57587932D02*
X128541980Y-57635551D01*
X128637219Y-56064123D02*
X128161028Y-56397456D01*
X128637219Y-56635551D02*
X127637219Y-56635551D01*
X127637219Y-56635551D02*
X127637219Y-56254599D01*
X127637219Y-56254599D02*
X127684838Y-56159361D01*
X127684838Y-56159361D02*
X127732457Y-56111742D01*
X127732457Y-56111742D02*
X127827695Y-56064123D01*
X127827695Y-56064123D02*
X127970552Y-56064123D01*
X127970552Y-56064123D02*
X128065790Y-56111742D01*
X128065790Y-56111742D02*
X128113409Y-56159361D01*
X128113409Y-56159361D02*
X128161028Y-56254599D01*
X128161028Y-56254599D02*
X128161028Y-56635551D01*
D11*
X129756232Y-62511742D02*
X129775280Y-62530790D01*
X129775280Y-62530790D02*
X129794327Y-62587932D01*
X129794327Y-62587932D02*
X129794327Y-62626028D01*
X129794327Y-62626028D02*
X129775280Y-62683171D01*
X129775280Y-62683171D02*
X129737184Y-62721266D01*
X129737184Y-62721266D02*
X129699089Y-62740313D01*
X129699089Y-62740313D02*
X129622899Y-62759361D01*
X129622899Y-62759361D02*
X129565756Y-62759361D01*
X129565756Y-62759361D02*
X129489565Y-62740313D01*
X129489565Y-62740313D02*
X129451470Y-62721266D01*
X129451470Y-62721266D02*
X129413375Y-62683171D01*
X129413375Y-62683171D02*
X129394327Y-62626028D01*
X129394327Y-62626028D02*
X129394327Y-62587932D01*
X129394327Y-62587932D02*
X129413375Y-62530790D01*
X129413375Y-62530790D02*
X129432422Y-62511742D01*
X129794327Y-62130790D02*
X129794327Y-62359361D01*
X129794327Y-62245075D02*
X129394327Y-62245075D01*
X129394327Y-62245075D02*
X129451470Y-62283171D01*
X129451470Y-62283171D02*
X129489565Y-62321266D01*
X129489565Y-62321266D02*
X129508613Y-62359361D01*
X129394327Y-61997457D02*
X129394327Y-61730790D01*
X129394327Y-61730790D02*
X129794327Y-61902219D01*
D10*
X129000056Y-96352380D02*
X128952437Y-96304761D01*
X128952437Y-96304761D02*
X128904818Y-96209523D01*
X128904818Y-96209523D02*
X128904818Y-95971428D01*
X128904818Y-95971428D02*
X128952437Y-95876190D01*
X128952437Y-95876190D02*
X129000056Y-95828571D01*
X129000056Y-95828571D02*
X129095294Y-95780952D01*
X129095294Y-95780952D02*
X129190532Y-95780952D01*
X129190532Y-95780952D02*
X129333389Y-95828571D01*
X129333389Y-95828571D02*
X129904818Y-96399999D01*
X129904818Y-96399999D02*
X129904818Y-95780952D01*
X129809579Y-95352380D02*
X129857199Y-95304761D01*
X129857199Y-95304761D02*
X129904818Y-95352380D01*
X129904818Y-95352380D02*
X129857199Y-95399999D01*
X129857199Y-95399999D02*
X129809579Y-95352380D01*
X129809579Y-95352380D02*
X129904818Y-95352380D01*
X129000056Y-94923809D02*
X128952437Y-94876190D01*
X128952437Y-94876190D02*
X128904818Y-94780952D01*
X128904818Y-94780952D02*
X128904818Y-94542857D01*
X128904818Y-94542857D02*
X128952437Y-94447619D01*
X128952437Y-94447619D02*
X129000056Y-94400000D01*
X129000056Y-94400000D02*
X129095294Y-94352381D01*
X129095294Y-94352381D02*
X129190532Y-94352381D01*
X129190532Y-94352381D02*
X129333389Y-94400000D01*
X129333389Y-94400000D02*
X129904818Y-94971428D01*
X129904818Y-94971428D02*
X129904818Y-94352381D01*
X129238151Y-93495238D02*
X129904818Y-93495238D01*
X129238151Y-93923809D02*
X129761960Y-93923809D01*
X129761960Y-93923809D02*
X129857199Y-93876190D01*
X129857199Y-93876190D02*
X129904818Y-93780952D01*
X129904818Y-93780952D02*
X129904818Y-93638095D01*
X129904818Y-93638095D02*
X129857199Y-93542857D01*
X129857199Y-93542857D02*
X129809579Y-93495238D01*
X129904818Y-93019047D02*
X128904818Y-93019047D01*
X129381008Y-93019047D02*
X129381008Y-92447619D01*
X129904818Y-92447619D02*
X128904818Y-92447619D01*
X129904818Y-91209523D02*
X128904818Y-91209523D01*
X128904818Y-91209523D02*
X129619103Y-90876190D01*
X129619103Y-90876190D02*
X128904818Y-90542857D01*
X128904818Y-90542857D02*
X129904818Y-90542857D01*
X128952437Y-89542857D02*
X128904818Y-89638095D01*
X128904818Y-89638095D02*
X128904818Y-89780952D01*
X128904818Y-89780952D02*
X128952437Y-89923809D01*
X128952437Y-89923809D02*
X129047675Y-90019047D01*
X129047675Y-90019047D02*
X129142913Y-90066666D01*
X129142913Y-90066666D02*
X129333389Y-90114285D01*
X129333389Y-90114285D02*
X129476246Y-90114285D01*
X129476246Y-90114285D02*
X129666722Y-90066666D01*
X129666722Y-90066666D02*
X129761960Y-90019047D01*
X129761960Y-90019047D02*
X129857199Y-89923809D01*
X129857199Y-89923809D02*
X129904818Y-89780952D01*
X129904818Y-89780952D02*
X129904818Y-89685714D01*
X129904818Y-89685714D02*
X129857199Y-89542857D01*
X129857199Y-89542857D02*
X129809579Y-89495238D01*
X129809579Y-89495238D02*
X129476246Y-89495238D01*
X129476246Y-89495238D02*
X129476246Y-89685714D01*
X129381008Y-88733333D02*
X129381008Y-89066666D01*
X129904818Y-89066666D02*
X128904818Y-89066666D01*
X128904818Y-89066666D02*
X128904818Y-88590476D01*
X129904818Y-87733333D02*
X129904818Y-88209523D01*
X129904818Y-88209523D02*
X128904818Y-88209523D01*
X129000056Y-87447618D02*
X128952437Y-87399999D01*
X128952437Y-87399999D02*
X128904818Y-87304761D01*
X128904818Y-87304761D02*
X128904818Y-87066666D01*
X128904818Y-87066666D02*
X128952437Y-86971428D01*
X128952437Y-86971428D02*
X129000056Y-86923809D01*
X129000056Y-86923809D02*
X129095294Y-86876190D01*
X129095294Y-86876190D02*
X129190532Y-86876190D01*
X129190532Y-86876190D02*
X129333389Y-86923809D01*
X129333389Y-86923809D02*
X129904818Y-87495237D01*
X129904818Y-87495237D02*
X129904818Y-86876190D01*
X128904818Y-86257142D02*
X128904818Y-86161904D01*
X128904818Y-86161904D02*
X128952437Y-86066666D01*
X128952437Y-86066666D02*
X129000056Y-86019047D01*
X129000056Y-86019047D02*
X129095294Y-85971428D01*
X129095294Y-85971428D02*
X129285770Y-85923809D01*
X129285770Y-85923809D02*
X129523865Y-85923809D01*
X129523865Y-85923809D02*
X129714341Y-85971428D01*
X129714341Y-85971428D02*
X129809579Y-86019047D01*
X129809579Y-86019047D02*
X129857199Y-86066666D01*
X129857199Y-86066666D02*
X129904818Y-86161904D01*
X129904818Y-86161904D02*
X129904818Y-86257142D01*
X129904818Y-86257142D02*
X129857199Y-86352380D01*
X129857199Y-86352380D02*
X129809579Y-86399999D01*
X129809579Y-86399999D02*
X129714341Y-86447618D01*
X129714341Y-86447618D02*
X129523865Y-86495237D01*
X129523865Y-86495237D02*
X129285770Y-86495237D01*
X129285770Y-86495237D02*
X129095294Y-86447618D01*
X129095294Y-86447618D02*
X129000056Y-86399999D01*
X129000056Y-86399999D02*
X128952437Y-86352380D01*
X128952437Y-86352380D02*
X128904818Y-86257142D01*
X129904818Y-84971428D02*
X129904818Y-85542856D01*
X129904818Y-85257142D02*
X128904818Y-85257142D01*
X128904818Y-85257142D02*
X129047675Y-85352380D01*
X129047675Y-85352380D02*
X129142913Y-85447618D01*
X129142913Y-85447618D02*
X129190532Y-85542856D01*
X129000056Y-84590475D02*
X128952437Y-84542856D01*
X128952437Y-84542856D02*
X128904818Y-84447618D01*
X128904818Y-84447618D02*
X128904818Y-84209523D01*
X128904818Y-84209523D02*
X128952437Y-84114285D01*
X128952437Y-84114285D02*
X129000056Y-84066666D01*
X129000056Y-84066666D02*
X129095294Y-84019047D01*
X129095294Y-84019047D02*
X129190532Y-84019047D01*
X129190532Y-84019047D02*
X129333389Y-84066666D01*
X129333389Y-84066666D02*
X129904818Y-84638094D01*
X129904818Y-84638094D02*
X129904818Y-84019047D01*
X129381008Y-83257142D02*
X129381008Y-83590475D01*
X129904818Y-83590475D02*
X128904818Y-83590475D01*
X128904818Y-83590475D02*
X128904818Y-83114285D01*
X129000056Y-82780951D02*
X128952437Y-82733332D01*
X128952437Y-82733332D02*
X128904818Y-82638094D01*
X128904818Y-82638094D02*
X128904818Y-82399999D01*
X128904818Y-82399999D02*
X128952437Y-82304761D01*
X128952437Y-82304761D02*
X129000056Y-82257142D01*
X129000056Y-82257142D02*
X129095294Y-82209523D01*
X129095294Y-82209523D02*
X129190532Y-82209523D01*
X129190532Y-82209523D02*
X129333389Y-82257142D01*
X129333389Y-82257142D02*
X129904818Y-82828570D01*
X129904818Y-82828570D02*
X129904818Y-82209523D01*
X129904818Y-81209523D02*
X129428627Y-81542856D01*
X129904818Y-81780951D02*
X128904818Y-81780951D01*
X128904818Y-81780951D02*
X128904818Y-81399999D01*
X128904818Y-81399999D02*
X128952437Y-81304761D01*
X128952437Y-81304761D02*
X129000056Y-81257142D01*
X129000056Y-81257142D02*
X129095294Y-81209523D01*
X129095294Y-81209523D02*
X129238151Y-81209523D01*
X129238151Y-81209523D02*
X129333389Y-81257142D01*
X129333389Y-81257142D02*
X129381008Y-81304761D01*
X129381008Y-81304761D02*
X129428627Y-81399999D01*
X129428627Y-81399999D02*
X129428627Y-81780951D01*
X129000056Y-80828570D02*
X128952437Y-80780951D01*
X128952437Y-80780951D02*
X128904818Y-80685713D01*
X128904818Y-80685713D02*
X128904818Y-80447618D01*
X128904818Y-80447618D02*
X128952437Y-80352380D01*
X128952437Y-80352380D02*
X129000056Y-80304761D01*
X129000056Y-80304761D02*
X129095294Y-80257142D01*
X129095294Y-80257142D02*
X129190532Y-80257142D01*
X129190532Y-80257142D02*
X129333389Y-80304761D01*
X129333389Y-80304761D02*
X129904818Y-80876189D01*
X129904818Y-80876189D02*
X129904818Y-80257142D01*
X129904818Y-79828570D02*
X128904818Y-79828570D01*
X128904818Y-79828570D02*
X129619103Y-79495237D01*
X129619103Y-79495237D02*
X128904818Y-79161904D01*
X128904818Y-79161904D02*
X129904818Y-79161904D01*
X128904818Y-78828570D02*
X128904818Y-78257142D01*
X129904818Y-78542856D02*
X128904818Y-78542856D01*
X129523865Y-77923808D02*
X129523865Y-77161904D01*
X129904818Y-76209523D02*
X129904818Y-76685713D01*
X129904818Y-76685713D02*
X128904818Y-76685713D01*
X129381008Y-75542856D02*
X129381008Y-75876189D01*
X129904818Y-75876189D02*
X128904818Y-75876189D01*
X128904818Y-75876189D02*
X128904818Y-75399999D01*
D12*
X131227149Y-85983333D02*
X131227149Y-86221428D01*
X131227149Y-86221428D02*
X130727149Y-86221428D01*
X130774768Y-85840475D02*
X130750959Y-85816666D01*
X130750959Y-85816666D02*
X130727149Y-85769047D01*
X130727149Y-85769047D02*
X130727149Y-85649999D01*
X130727149Y-85649999D02*
X130750959Y-85602380D01*
X130750959Y-85602380D02*
X130774768Y-85578571D01*
X130774768Y-85578571D02*
X130822387Y-85554761D01*
X130822387Y-85554761D02*
X130870006Y-85554761D01*
X130870006Y-85554761D02*
X130941435Y-85578571D01*
X130941435Y-85578571D02*
X131227149Y-85864285D01*
X131227149Y-85864285D02*
X131227149Y-85554761D01*
D13*
X133609011Y-76417935D02*
X133609011Y-76434771D01*
X133609011Y-76434771D02*
X133592175Y-76468443D01*
X133592175Y-76468443D02*
X133575339Y-76485279D01*
X133575339Y-76485279D02*
X133541667Y-76502115D01*
X133541667Y-76502115D02*
X133507996Y-76502115D01*
X133507996Y-76502115D02*
X133482742Y-76493697D01*
X133482742Y-76493697D02*
X133440652Y-76468443D01*
X133440652Y-76468443D02*
X133415398Y-76443189D01*
X133415398Y-76443189D02*
X133390144Y-76401100D01*
X133390144Y-76401100D02*
X133381726Y-76375846D01*
X133381726Y-76375846D02*
X133381726Y-76342174D01*
X133381726Y-76342174D02*
X133398562Y-76308502D01*
X133398562Y-76308502D02*
X133415398Y-76291666D01*
X133415398Y-76291666D02*
X133449070Y-76274831D01*
X133449070Y-76274831D02*
X133465906Y-76274831D01*
X133609011Y-76098054D02*
X133524831Y-76182233D01*
X133524831Y-76182233D02*
X133600593Y-76274831D01*
X133600593Y-76274831D02*
X133600593Y-76257995D01*
X133600593Y-76257995D02*
X133609011Y-76232741D01*
X133609011Y-76232741D02*
X133651100Y-76190651D01*
X133651100Y-76190651D02*
X133676354Y-76182233D01*
X133676354Y-76182233D02*
X133693190Y-76182233D01*
X133693190Y-76182233D02*
X133718444Y-76190651D01*
X133718444Y-76190651D02*
X133760534Y-76232741D01*
X133760534Y-76232741D02*
X133768952Y-76257995D01*
X133768952Y-76257995D02*
X133768952Y-76274831D01*
X133768952Y-76274831D02*
X133760534Y-76300084D01*
X133760534Y-76300084D02*
X133718444Y-76342174D01*
X133718444Y-76342174D02*
X133693190Y-76350592D01*
X133693190Y-76350592D02*
X133676354Y-76350592D01*
X131249831Y-82752115D02*
X131249831Y-82768951D01*
X131249831Y-82768951D02*
X131232995Y-82802623D01*
X131232995Y-82802623D02*
X131216159Y-82819459D01*
X131216159Y-82819459D02*
X131182488Y-82836294D01*
X131182488Y-82836294D02*
X131148816Y-82836294D01*
X131148816Y-82836294D02*
X131123562Y-82827877D01*
X131123562Y-82827877D02*
X131081472Y-82802623D01*
X131081472Y-82802623D02*
X131056219Y-82777369D01*
X131056219Y-82777369D02*
X131030965Y-82735279D01*
X131030965Y-82735279D02*
X131022547Y-82710025D01*
X131022547Y-82710025D02*
X131022547Y-82676354D01*
X131022547Y-82676354D02*
X131039383Y-82642682D01*
X131039383Y-82642682D02*
X131056219Y-82625846D01*
X131056219Y-82625846D02*
X131089890Y-82609010D01*
X131089890Y-82609010D02*
X131106726Y-82609010D01*
X131435026Y-82600592D02*
X131334010Y-82701607D01*
X131384518Y-82651100D02*
X131207741Y-82474323D01*
X131207741Y-82474323D02*
X131216159Y-82516413D01*
X131216159Y-82516413D02*
X131216159Y-82550085D01*
X131216159Y-82550085D02*
X131207741Y-82575338D01*
X131367682Y-82314383D02*
X131384518Y-82297547D01*
X131384518Y-82297547D02*
X131409772Y-82289129D01*
X131409772Y-82289129D02*
X131426608Y-82289129D01*
X131426608Y-82289129D02*
X131451861Y-82297547D01*
X131451861Y-82297547D02*
X131493951Y-82322800D01*
X131493951Y-82322800D02*
X131536041Y-82364890D01*
X131536041Y-82364890D02*
X131561295Y-82406980D01*
X131561295Y-82406980D02*
X131569713Y-82432234D01*
X131569713Y-82432234D02*
X131569713Y-82449070D01*
X131569713Y-82449070D02*
X131561295Y-82474323D01*
X131561295Y-82474323D02*
X131544459Y-82491159D01*
X131544459Y-82491159D02*
X131519205Y-82499577D01*
X131519205Y-82499577D02*
X131502369Y-82499577D01*
X131502369Y-82499577D02*
X131477115Y-82491159D01*
X131477115Y-82491159D02*
X131435026Y-82465905D01*
X131435026Y-82465905D02*
X131392936Y-82423816D01*
X131392936Y-82423816D02*
X131367682Y-82381726D01*
X131367682Y-82381726D02*
X131359264Y-82356472D01*
X131359264Y-82356472D02*
X131359264Y-82339636D01*
X131359264Y-82339636D02*
X131367682Y-82314383D01*
D10*
X136038095Y-67904819D02*
X135466667Y-67904819D01*
X135752381Y-67904819D02*
X135752381Y-66904819D01*
X135752381Y-66904819D02*
X135657143Y-67047676D01*
X135657143Y-67047676D02*
X135561905Y-67142914D01*
X135561905Y-67142914D02*
X135466667Y-67190533D01*
X136657143Y-66904819D02*
X136752381Y-66904819D01*
X136752381Y-66904819D02*
X136847619Y-66952438D01*
X136847619Y-66952438D02*
X136895238Y-67000057D01*
X136895238Y-67000057D02*
X136942857Y-67095295D01*
X136942857Y-67095295D02*
X136990476Y-67285771D01*
X136990476Y-67285771D02*
X136990476Y-67523866D01*
X136990476Y-67523866D02*
X136942857Y-67714342D01*
X136942857Y-67714342D02*
X136895238Y-67809580D01*
X136895238Y-67809580D02*
X136847619Y-67857200D01*
X136847619Y-67857200D02*
X136752381Y-67904819D01*
X136752381Y-67904819D02*
X136657143Y-67904819D01*
X136657143Y-67904819D02*
X136561905Y-67857200D01*
X136561905Y-67857200D02*
X136514286Y-67809580D01*
X136514286Y-67809580D02*
X136466667Y-67714342D01*
X136466667Y-67714342D02*
X136419048Y-67523866D01*
X136419048Y-67523866D02*
X136419048Y-67285771D01*
X136419048Y-67285771D02*
X136466667Y-67095295D01*
X136466667Y-67095295D02*
X136514286Y-67000057D01*
X136514286Y-67000057D02*
X136561905Y-66952438D01*
X136561905Y-66952438D02*
X136657143Y-66904819D01*
X137419048Y-67904819D02*
X137419048Y-66904819D01*
X137514286Y-67523866D02*
X137800000Y-67904819D01*
X137800000Y-67238152D02*
X137419048Y-67619104D01*
X138276191Y-67857200D02*
X138276191Y-67904819D01*
X138276191Y-67904819D02*
X138228572Y-68000057D01*
X138228572Y-68000057D02*
X138180953Y-68047676D01*
X139990476Y-67904819D02*
X139419048Y-67904819D01*
X139704762Y-67904819D02*
X139704762Y-66904819D01*
X139704762Y-66904819D02*
X139609524Y-67047676D01*
X139609524Y-67047676D02*
X139514286Y-67142914D01*
X139514286Y-67142914D02*
X139419048Y-67190533D01*
X140371429Y-67904819D02*
X141133333Y-66904819D01*
X140514286Y-66904819D02*
X140609524Y-66952438D01*
X140609524Y-66952438D02*
X140657143Y-67047676D01*
X140657143Y-67047676D02*
X140609524Y-67142914D01*
X140609524Y-67142914D02*
X140514286Y-67190533D01*
X140514286Y-67190533D02*
X140419048Y-67142914D01*
X140419048Y-67142914D02*
X140371429Y-67047676D01*
X140371429Y-67047676D02*
X140419048Y-66952438D01*
X140419048Y-66952438D02*
X140514286Y-66904819D01*
X141085714Y-67857200D02*
X141133333Y-67761961D01*
X141133333Y-67761961D02*
X141085714Y-67666723D01*
X141085714Y-67666723D02*
X140990476Y-67619104D01*
X140990476Y-67619104D02*
X140895238Y-67666723D01*
X140895238Y-67666723D02*
X140847619Y-67761961D01*
X140847619Y-67761961D02*
X140895238Y-67857200D01*
X140895238Y-67857200D02*
X140990476Y-67904819D01*
X140990476Y-67904819D02*
X141085714Y-67857200D01*
D13*
X138258333Y-69293575D02*
X138175000Y-69174528D01*
X138115476Y-69293575D02*
X138115476Y-69043575D01*
X138115476Y-69043575D02*
X138210714Y-69043575D01*
X138210714Y-69043575D02*
X138234524Y-69055480D01*
X138234524Y-69055480D02*
X138246429Y-69067385D01*
X138246429Y-69067385D02*
X138258333Y-69091194D01*
X138258333Y-69091194D02*
X138258333Y-69126909D01*
X138258333Y-69126909D02*
X138246429Y-69150718D01*
X138246429Y-69150718D02*
X138234524Y-69162623D01*
X138234524Y-69162623D02*
X138210714Y-69174528D01*
X138210714Y-69174528D02*
X138115476Y-69174528D01*
X138341667Y-69043575D02*
X138496429Y-69043575D01*
X138496429Y-69043575D02*
X138413095Y-69138813D01*
X138413095Y-69138813D02*
X138448810Y-69138813D01*
X138448810Y-69138813D02*
X138472619Y-69150718D01*
X138472619Y-69150718D02*
X138484524Y-69162623D01*
X138484524Y-69162623D02*
X138496429Y-69186432D01*
X138496429Y-69186432D02*
X138496429Y-69245956D01*
X138496429Y-69245956D02*
X138484524Y-69269766D01*
X138484524Y-69269766D02*
X138472619Y-69281671D01*
X138472619Y-69281671D02*
X138448810Y-69293575D01*
X138448810Y-69293575D02*
X138377381Y-69293575D01*
X138377381Y-69293575D02*
X138353572Y-69281671D01*
X138353572Y-69281671D02*
X138341667Y-69269766D01*
X134189765Y-71880714D02*
X134201670Y-71892618D01*
X134201670Y-71892618D02*
X134213574Y-71928333D01*
X134213574Y-71928333D02*
X134213574Y-71952142D01*
X134213574Y-71952142D02*
X134201670Y-71987856D01*
X134201670Y-71987856D02*
X134177860Y-72011666D01*
X134177860Y-72011666D02*
X134154050Y-72023571D01*
X134154050Y-72023571D02*
X134106431Y-72035475D01*
X134106431Y-72035475D02*
X134070717Y-72035475D01*
X134070717Y-72035475D02*
X134023098Y-72023571D01*
X134023098Y-72023571D02*
X133999289Y-72011666D01*
X133999289Y-72011666D02*
X133975479Y-71987856D01*
X133975479Y-71987856D02*
X133963574Y-71952142D01*
X133963574Y-71952142D02*
X133963574Y-71928333D01*
X133963574Y-71928333D02*
X133975479Y-71892618D01*
X133975479Y-71892618D02*
X133987384Y-71880714D01*
X134213574Y-71642618D02*
X134213574Y-71785475D01*
X134213574Y-71714047D02*
X133963574Y-71714047D01*
X133963574Y-71714047D02*
X133999289Y-71737856D01*
X133999289Y-71737856D02*
X134023098Y-71761666D01*
X134023098Y-71761666D02*
X134035003Y-71785475D01*
X133963574Y-71559285D02*
X133963574Y-71404523D01*
X133963574Y-71404523D02*
X134058812Y-71487857D01*
X134058812Y-71487857D02*
X134058812Y-71452142D01*
X134058812Y-71452142D02*
X134070717Y-71428333D01*
X134070717Y-71428333D02*
X134082622Y-71416428D01*
X134082622Y-71416428D02*
X134106431Y-71404523D01*
X134106431Y-71404523D02*
X134165955Y-71404523D01*
X134165955Y-71404523D02*
X134189765Y-71416428D01*
X134189765Y-71416428D02*
X134201670Y-71428333D01*
X134201670Y-71428333D02*
X134213574Y-71452142D01*
X134213574Y-71452142D02*
X134213574Y-71523571D01*
X134213574Y-71523571D02*
X134201670Y-71547380D01*
X134201670Y-71547380D02*
X134189765Y-71559285D01*
X126883333Y-76689765D02*
X126871429Y-76701670D01*
X126871429Y-76701670D02*
X126835714Y-76713574D01*
X126835714Y-76713574D02*
X126811905Y-76713574D01*
X126811905Y-76713574D02*
X126776191Y-76701670D01*
X126776191Y-76701670D02*
X126752381Y-76677860D01*
X126752381Y-76677860D02*
X126740476Y-76654050D01*
X126740476Y-76654050D02*
X126728572Y-76606431D01*
X126728572Y-76606431D02*
X126728572Y-76570717D01*
X126728572Y-76570717D02*
X126740476Y-76523098D01*
X126740476Y-76523098D02*
X126752381Y-76499289D01*
X126752381Y-76499289D02*
X126776191Y-76475479D01*
X126776191Y-76475479D02*
X126811905Y-76463574D01*
X126811905Y-76463574D02*
X126835714Y-76463574D01*
X126835714Y-76463574D02*
X126871429Y-76475479D01*
X126871429Y-76475479D02*
X126883333Y-76487384D01*
X127121429Y-76713574D02*
X126978572Y-76713574D01*
X127050000Y-76713574D02*
X127050000Y-76463574D01*
X127050000Y-76463574D02*
X127026191Y-76499289D01*
X127026191Y-76499289D02*
X127002381Y-76523098D01*
X127002381Y-76523098D02*
X126978572Y-76535003D01*
D10*
X123128571Y-88938152D02*
X123128571Y-89604819D01*
X122890476Y-88557200D02*
X122652381Y-89271485D01*
X122652381Y-89271485D02*
X123271428Y-89271485D01*
X123557143Y-88604819D02*
X124176190Y-88604819D01*
X124176190Y-88604819D02*
X123842857Y-88985771D01*
X123842857Y-88985771D02*
X123985714Y-88985771D01*
X123985714Y-88985771D02*
X124080952Y-89033390D01*
X124080952Y-89033390D02*
X124128571Y-89081009D01*
X124128571Y-89081009D02*
X124176190Y-89176247D01*
X124176190Y-89176247D02*
X124176190Y-89414342D01*
X124176190Y-89414342D02*
X124128571Y-89509580D01*
X124128571Y-89509580D02*
X124080952Y-89557200D01*
X124080952Y-89557200D02*
X123985714Y-89604819D01*
X123985714Y-89604819D02*
X123700000Y-89604819D01*
X123700000Y-89604819D02*
X123604762Y-89557200D01*
X123604762Y-89557200D02*
X123557143Y-89509580D01*
X124604762Y-89509580D02*
X124652381Y-89557200D01*
X124652381Y-89557200D02*
X124604762Y-89604819D01*
X124604762Y-89604819D02*
X124557143Y-89557200D01*
X124557143Y-89557200D02*
X124604762Y-89509580D01*
X124604762Y-89509580D02*
X124604762Y-89604819D01*
X125033333Y-88700057D02*
X125080952Y-88652438D01*
X125080952Y-88652438D02*
X125176190Y-88604819D01*
X125176190Y-88604819D02*
X125414285Y-88604819D01*
X125414285Y-88604819D02*
X125509523Y-88652438D01*
X125509523Y-88652438D02*
X125557142Y-88700057D01*
X125557142Y-88700057D02*
X125604761Y-88795295D01*
X125604761Y-88795295D02*
X125604761Y-88890533D01*
X125604761Y-88890533D02*
X125557142Y-89033390D01*
X125557142Y-89033390D02*
X124985714Y-89604819D01*
X124985714Y-89604819D02*
X125604761Y-89604819D01*
X126033333Y-89604819D02*
X126033333Y-88604819D01*
X126128571Y-89223866D02*
X126414285Y-89604819D01*
X126414285Y-88938152D02*
X126033333Y-89319104D01*
X126890476Y-89557200D02*
X126890476Y-89604819D01*
X126890476Y-89604819D02*
X126842857Y-89700057D01*
X126842857Y-89700057D02*
X126795238Y-89747676D01*
X128604761Y-89604819D02*
X128033333Y-89604819D01*
X128319047Y-89604819D02*
X128319047Y-88604819D01*
X128319047Y-88604819D02*
X128223809Y-88747676D01*
X128223809Y-88747676D02*
X128128571Y-88842914D01*
X128128571Y-88842914D02*
X128033333Y-88890533D01*
X128985714Y-89604819D02*
X129747618Y-88604819D01*
X129128571Y-88604819D02*
X129223809Y-88652438D01*
X129223809Y-88652438D02*
X129271428Y-88747676D01*
X129271428Y-88747676D02*
X129223809Y-88842914D01*
X129223809Y-88842914D02*
X129128571Y-88890533D01*
X129128571Y-88890533D02*
X129033333Y-88842914D01*
X129033333Y-88842914D02*
X128985714Y-88747676D01*
X128985714Y-88747676D02*
X129033333Y-88652438D01*
X129033333Y-88652438D02*
X129128571Y-88604819D01*
X129699999Y-89557200D02*
X129747618Y-89461961D01*
X129747618Y-89461961D02*
X129699999Y-89366723D01*
X129699999Y-89366723D02*
X129604761Y-89319104D01*
X129604761Y-89319104D02*
X129509523Y-89366723D01*
X129509523Y-89366723D02*
X129461904Y-89461961D01*
X129461904Y-89461961D02*
X129509523Y-89557200D01*
X129509523Y-89557200D02*
X129604761Y-89604819D01*
X129604761Y-89604819D02*
X129699999Y-89557200D01*
D13*
X126158333Y-87533573D02*
X126075000Y-87414526D01*
X126015476Y-87533573D02*
X126015476Y-87283573D01*
X126015476Y-87283573D02*
X126110714Y-87283573D01*
X126110714Y-87283573D02*
X126134524Y-87295478D01*
X126134524Y-87295478D02*
X126146429Y-87307383D01*
X126146429Y-87307383D02*
X126158333Y-87331192D01*
X126158333Y-87331192D02*
X126158333Y-87366907D01*
X126158333Y-87366907D02*
X126146429Y-87390716D01*
X126146429Y-87390716D02*
X126134524Y-87402621D01*
X126134524Y-87402621D02*
X126110714Y-87414526D01*
X126110714Y-87414526D02*
X126015476Y-87414526D01*
X126241667Y-87283573D02*
X126408333Y-87283573D01*
X126408333Y-87283573D02*
X126301191Y-87533573D01*
D10*
X139099219Y-50241428D02*
X139908742Y-50241428D01*
X139908742Y-50241428D02*
X140003980Y-50193809D01*
X140003980Y-50193809D02*
X140051600Y-50146190D01*
X140051600Y-50146190D02*
X140099219Y-50050952D01*
X140099219Y-50050952D02*
X140099219Y-49860476D01*
X140099219Y-49860476D02*
X140051600Y-49765238D01*
X140051600Y-49765238D02*
X140003980Y-49717619D01*
X140003980Y-49717619D02*
X139908742Y-49670000D01*
X139908742Y-49670000D02*
X139099219Y-49670000D01*
X140051600Y-49241428D02*
X140099219Y-49098571D01*
X140099219Y-49098571D02*
X140099219Y-48860476D01*
X140099219Y-48860476D02*
X140051600Y-48765238D01*
X140051600Y-48765238D02*
X140003980Y-48717619D01*
X140003980Y-48717619D02*
X139908742Y-48670000D01*
X139908742Y-48670000D02*
X139813504Y-48670000D01*
X139813504Y-48670000D02*
X139718266Y-48717619D01*
X139718266Y-48717619D02*
X139670647Y-48765238D01*
X139670647Y-48765238D02*
X139623028Y-48860476D01*
X139623028Y-48860476D02*
X139575409Y-49050952D01*
X139575409Y-49050952D02*
X139527790Y-49146190D01*
X139527790Y-49146190D02*
X139480171Y-49193809D01*
X139480171Y-49193809D02*
X139384933Y-49241428D01*
X139384933Y-49241428D02*
X139289695Y-49241428D01*
X139289695Y-49241428D02*
X139194457Y-49193809D01*
X139194457Y-49193809D02*
X139146838Y-49146190D01*
X139146838Y-49146190D02*
X139099219Y-49050952D01*
X139099219Y-49050952D02*
X139099219Y-48812857D01*
X139099219Y-48812857D02*
X139146838Y-48670000D01*
X139575409Y-47908095D02*
X139623028Y-47765238D01*
X139623028Y-47765238D02*
X139670647Y-47717619D01*
X139670647Y-47717619D02*
X139765885Y-47670000D01*
X139765885Y-47670000D02*
X139908742Y-47670000D01*
X139908742Y-47670000D02*
X140003980Y-47717619D01*
X140003980Y-47717619D02*
X140051600Y-47765238D01*
X140051600Y-47765238D02*
X140099219Y-47860476D01*
X140099219Y-47860476D02*
X140099219Y-48241428D01*
X140099219Y-48241428D02*
X139099219Y-48241428D01*
X139099219Y-48241428D02*
X139099219Y-47908095D01*
X139099219Y-47908095D02*
X139146838Y-47812857D01*
X139146838Y-47812857D02*
X139194457Y-47765238D01*
X139194457Y-47765238D02*
X139289695Y-47717619D01*
X139289695Y-47717619D02*
X139384933Y-47717619D01*
X139384933Y-47717619D02*
X139480171Y-47765238D01*
X139480171Y-47765238D02*
X139527790Y-47812857D01*
X139527790Y-47812857D02*
X139575409Y-47908095D01*
X139575409Y-47908095D02*
X139575409Y-48241428D01*
X140194457Y-47479524D02*
X140194457Y-46717619D01*
X139813504Y-46527142D02*
X139813504Y-46050952D01*
X140099219Y-46622380D02*
X139099219Y-46289047D01*
X139099219Y-46289047D02*
X140099219Y-45955714D01*
X131311066Y-53624819D02*
X131311066Y-54339104D01*
X131311066Y-54339104D02*
X131263447Y-54481961D01*
X131263447Y-54481961D02*
X131168209Y-54577200D01*
X131168209Y-54577200D02*
X131025352Y-54624819D01*
X131025352Y-54624819D02*
X130930114Y-54624819D01*
X132311066Y-54624819D02*
X131739638Y-54624819D01*
X132025352Y-54624819D02*
X132025352Y-53624819D01*
X132025352Y-53624819D02*
X131930114Y-53767676D01*
X131930114Y-53767676D02*
X131834876Y-53862914D01*
X131834876Y-53862914D02*
X131739638Y-53910533D01*
D13*
X127108333Y-81589765D02*
X127096429Y-81601670D01*
X127096429Y-81601670D02*
X127060714Y-81613574D01*
X127060714Y-81613574D02*
X127036905Y-81613574D01*
X127036905Y-81613574D02*
X127001191Y-81601670D01*
X127001191Y-81601670D02*
X126977381Y-81577860D01*
X126977381Y-81577860D02*
X126965476Y-81554050D01*
X126965476Y-81554050D02*
X126953572Y-81506431D01*
X126953572Y-81506431D02*
X126953572Y-81470717D01*
X126953572Y-81470717D02*
X126965476Y-81423098D01*
X126965476Y-81423098D02*
X126977381Y-81399289D01*
X126977381Y-81399289D02*
X127001191Y-81375479D01*
X127001191Y-81375479D02*
X127036905Y-81363574D01*
X127036905Y-81363574D02*
X127060714Y-81363574D01*
X127060714Y-81363574D02*
X127096429Y-81375479D01*
X127096429Y-81375479D02*
X127108333Y-81387384D01*
X127227381Y-81613574D02*
X127275000Y-81613574D01*
X127275000Y-81613574D02*
X127298810Y-81601670D01*
X127298810Y-81601670D02*
X127310714Y-81589765D01*
X127310714Y-81589765D02*
X127334524Y-81554050D01*
X127334524Y-81554050D02*
X127346429Y-81506431D01*
X127346429Y-81506431D02*
X127346429Y-81411193D01*
X127346429Y-81411193D02*
X127334524Y-81387384D01*
X127334524Y-81387384D02*
X127322619Y-81375479D01*
X127322619Y-81375479D02*
X127298810Y-81363574D01*
X127298810Y-81363574D02*
X127251191Y-81363574D01*
X127251191Y-81363574D02*
X127227381Y-81375479D01*
X127227381Y-81375479D02*
X127215476Y-81387384D01*
X127215476Y-81387384D02*
X127203572Y-81411193D01*
X127203572Y-81411193D02*
X127203572Y-81470717D01*
X127203572Y-81470717D02*
X127215476Y-81494527D01*
X127215476Y-81494527D02*
X127227381Y-81506431D01*
X127227381Y-81506431D02*
X127251191Y-81518336D01*
X127251191Y-81518336D02*
X127298810Y-81518336D01*
X127298810Y-81518336D02*
X127322619Y-81506431D01*
X127322619Y-81506431D02*
X127334524Y-81494527D01*
X127334524Y-81494527D02*
X127346429Y-81470717D01*
D14*
X132372546Y-74191477D02*
X132348975Y-74215048D01*
X132386014Y-74252087D02*
X132315304Y-74181376D01*
X132315304Y-74181376D02*
X132348975Y-74147704D01*
X132446623Y-74191478D02*
X132375912Y-74120767D01*
X132480295Y-74157806D02*
X132409584Y-74087095D01*
X132409584Y-74087095D02*
X132426420Y-74070259D01*
X132426420Y-74070259D02*
X132439889Y-74063525D01*
X132439889Y-74063525D02*
X132453357Y-74063525D01*
X132453357Y-74063525D02*
X132463459Y-74066892D01*
X132463459Y-74066892D02*
X132480295Y-74076994D01*
X132480295Y-74076994D02*
X132490396Y-74087095D01*
X132490396Y-74087095D02*
X132500498Y-74103931D01*
X132500498Y-74103931D02*
X132503865Y-74114033D01*
X132503865Y-74114033D02*
X132503865Y-74127501D01*
X132503865Y-74127501D02*
X132497131Y-74140970D01*
X132497131Y-74140970D02*
X132480295Y-74157806D01*
X132483662Y-74026486D02*
X132483662Y-74019752D01*
X132483662Y-74019752D02*
X132487029Y-74009650D01*
X132487029Y-74009650D02*
X132503865Y-73992814D01*
X132503865Y-73992814D02*
X132513967Y-73989447D01*
X132513967Y-73989447D02*
X132520701Y-73989447D01*
X132520701Y-73989447D02*
X132530803Y-73992814D01*
X132530803Y-73992814D02*
X132537537Y-73999549D01*
X132537537Y-73999549D02*
X132544271Y-74013017D01*
X132544271Y-74013017D02*
X132544271Y-74093830D01*
X132544271Y-74093830D02*
X132588044Y-74050056D01*
D10*
X134938152Y-73133333D02*
X135604819Y-73133333D01*
X134557200Y-73371428D02*
X135271485Y-73609523D01*
X135271485Y-73609523D02*
X135271485Y-72990476D01*
X134604819Y-72133333D02*
X134604819Y-72609523D01*
X134604819Y-72609523D02*
X135081009Y-72657142D01*
X135081009Y-72657142D02*
X135033390Y-72609523D01*
X135033390Y-72609523D02*
X134985771Y-72514285D01*
X134985771Y-72514285D02*
X134985771Y-72276190D01*
X134985771Y-72276190D02*
X135033390Y-72180952D01*
X135033390Y-72180952D02*
X135081009Y-72133333D01*
X135081009Y-72133333D02*
X135176247Y-72085714D01*
X135176247Y-72085714D02*
X135414342Y-72085714D01*
X135414342Y-72085714D02*
X135509580Y-72133333D01*
X135509580Y-72133333D02*
X135557200Y-72180952D01*
X135557200Y-72180952D02*
X135604819Y-72276190D01*
X135604819Y-72276190D02*
X135604819Y-72514285D01*
X135604819Y-72514285D02*
X135557200Y-72609523D01*
X135557200Y-72609523D02*
X135509580Y-72657142D01*
X134604819Y-71752380D02*
X134604819Y-71133333D01*
X134604819Y-71133333D02*
X134985771Y-71466666D01*
X134985771Y-71466666D02*
X134985771Y-71323809D01*
X134985771Y-71323809D02*
X135033390Y-71228571D01*
X135033390Y-71228571D02*
X135081009Y-71180952D01*
X135081009Y-71180952D02*
X135176247Y-71133333D01*
X135176247Y-71133333D02*
X135414342Y-71133333D01*
X135414342Y-71133333D02*
X135509580Y-71180952D01*
X135509580Y-71180952D02*
X135557200Y-71228571D01*
X135557200Y-71228571D02*
X135604819Y-71323809D01*
X135604819Y-71323809D02*
X135604819Y-71609523D01*
X135604819Y-71609523D02*
X135557200Y-71704761D01*
X135557200Y-71704761D02*
X135509580Y-71752380D01*
X135604819Y-70704761D02*
X134604819Y-70704761D01*
X135223866Y-70609523D02*
X135604819Y-70323809D01*
X134938152Y-70323809D02*
X135319104Y-70704761D01*
X135557200Y-69847618D02*
X135604819Y-69847618D01*
X135604819Y-69847618D02*
X135700057Y-69895237D01*
X135700057Y-69895237D02*
X135747676Y-69942856D01*
X135604819Y-68133333D02*
X135604819Y-68704761D01*
X135604819Y-68419047D02*
X134604819Y-68419047D01*
X134604819Y-68419047D02*
X134747676Y-68514285D01*
X134747676Y-68514285D02*
X134842914Y-68609523D01*
X134842914Y-68609523D02*
X134890533Y-68704761D01*
X135604819Y-67752380D02*
X134604819Y-66990476D01*
X134604819Y-67609523D02*
X134652438Y-67514285D01*
X134652438Y-67514285D02*
X134747676Y-67466666D01*
X134747676Y-67466666D02*
X134842914Y-67514285D01*
X134842914Y-67514285D02*
X134890533Y-67609523D01*
X134890533Y-67609523D02*
X134842914Y-67704761D01*
X134842914Y-67704761D02*
X134747676Y-67752380D01*
X134747676Y-67752380D02*
X134652438Y-67704761D01*
X134652438Y-67704761D02*
X134604819Y-67609523D01*
X135557200Y-67038095D02*
X135461961Y-66990476D01*
X135461961Y-66990476D02*
X135366723Y-67038095D01*
X135366723Y-67038095D02*
X135319104Y-67133333D01*
X135319104Y-67133333D02*
X135366723Y-67228571D01*
X135366723Y-67228571D02*
X135461961Y-67276190D01*
X135461961Y-67276190D02*
X135557200Y-67228571D01*
X135557200Y-67228571D02*
X135604819Y-67133333D01*
X135604819Y-67133333D02*
X135557200Y-67038095D01*
D13*
X133533573Y-70341666D02*
X133414526Y-70424999D01*
X133533573Y-70484523D02*
X133283573Y-70484523D01*
X133283573Y-70484523D02*
X133283573Y-70389285D01*
X133283573Y-70389285D02*
X133295478Y-70365475D01*
X133295478Y-70365475D02*
X133307383Y-70353570D01*
X133307383Y-70353570D02*
X133331192Y-70341666D01*
X133331192Y-70341666D02*
X133366907Y-70341666D01*
X133366907Y-70341666D02*
X133390716Y-70353570D01*
X133390716Y-70353570D02*
X133402621Y-70365475D01*
X133402621Y-70365475D02*
X133414526Y-70389285D01*
X133414526Y-70389285D02*
X133414526Y-70484523D01*
X133283573Y-70115475D02*
X133283573Y-70234523D01*
X133283573Y-70234523D02*
X133402621Y-70246427D01*
X133402621Y-70246427D02*
X133390716Y-70234523D01*
X133390716Y-70234523D02*
X133378811Y-70210713D01*
X133378811Y-70210713D02*
X133378811Y-70151189D01*
X133378811Y-70151189D02*
X133390716Y-70127380D01*
X133390716Y-70127380D02*
X133402621Y-70115475D01*
X133402621Y-70115475D02*
X133426430Y-70103570D01*
X133426430Y-70103570D02*
X133485954Y-70103570D01*
X133485954Y-70103570D02*
X133509764Y-70115475D01*
X133509764Y-70115475D02*
X133521669Y-70127380D01*
X133521669Y-70127380D02*
X133533573Y-70151189D01*
X133533573Y-70151189D02*
X133533573Y-70210713D01*
X133533573Y-70210713D02*
X133521669Y-70234523D01*
X133521669Y-70234523D02*
X133509764Y-70246427D01*
D10*
X137438095Y-61929819D02*
X137438095Y-60929819D01*
X137438095Y-61406009D02*
X138009523Y-61406009D01*
X138009523Y-61929819D02*
X138009523Y-60929819D01*
X138438095Y-61025057D02*
X138485714Y-60977438D01*
X138485714Y-60977438D02*
X138580952Y-60929819D01*
X138580952Y-60929819D02*
X138819047Y-60929819D01*
X138819047Y-60929819D02*
X138914285Y-60977438D01*
X138914285Y-60977438D02*
X138961904Y-61025057D01*
X138961904Y-61025057D02*
X139009523Y-61120295D01*
X139009523Y-61120295D02*
X139009523Y-61215533D01*
X139009523Y-61215533D02*
X138961904Y-61358390D01*
X138961904Y-61358390D02*
X138390476Y-61929819D01*
X138390476Y-61929819D02*
X139009523Y-61929819D01*
D13*
X134859011Y-77567935D02*
X134859011Y-77584771D01*
X134859011Y-77584771D02*
X134842175Y-77618443D01*
X134842175Y-77618443D02*
X134825339Y-77635279D01*
X134825339Y-77635279D02*
X134791667Y-77652115D01*
X134791667Y-77652115D02*
X134757996Y-77652115D01*
X134757996Y-77652115D02*
X134732742Y-77643697D01*
X134732742Y-77643697D02*
X134690652Y-77618443D01*
X134690652Y-77618443D02*
X134665398Y-77593189D01*
X134665398Y-77593189D02*
X134640144Y-77551100D01*
X134640144Y-77551100D02*
X134631726Y-77525846D01*
X134631726Y-77525846D02*
X134631726Y-77492174D01*
X134631726Y-77492174D02*
X134648562Y-77458502D01*
X134648562Y-77458502D02*
X134665398Y-77441666D01*
X134665398Y-77441666D02*
X134699070Y-77424831D01*
X134699070Y-77424831D02*
X134715906Y-77424831D01*
X134909518Y-77315397D02*
X135027370Y-77433248D01*
X134800085Y-77290144D02*
X134884265Y-77458502D01*
X134884265Y-77458502D02*
X134993698Y-77349069D01*
X136813574Y-84941666D02*
X136694527Y-85024999D01*
X136813574Y-85084523D02*
X136563574Y-85084523D01*
X136563574Y-85084523D02*
X136563574Y-84989285D01*
X136563574Y-84989285D02*
X136575479Y-84965475D01*
X136575479Y-84965475D02*
X136587384Y-84953570D01*
X136587384Y-84953570D02*
X136611193Y-84941666D01*
X136611193Y-84941666D02*
X136646908Y-84941666D01*
X136646908Y-84941666D02*
X136670717Y-84953570D01*
X136670717Y-84953570D02*
X136682622Y-84965475D01*
X136682622Y-84965475D02*
X136694527Y-84989285D01*
X136694527Y-84989285D02*
X136694527Y-85084523D01*
X136646908Y-84727380D02*
X136813574Y-84727380D01*
X136551670Y-84786904D02*
X136730241Y-84846427D01*
X136730241Y-84846427D02*
X136730241Y-84691666D01*
D14*
X131665440Y-83949550D02*
X131641869Y-83973121D01*
X131678908Y-84010160D02*
X131608198Y-83939449D01*
X131608198Y-83939449D02*
X131641869Y-83905777D01*
X131739517Y-83949551D02*
X131668806Y-83878840D01*
X131773189Y-83915879D02*
X131702478Y-83845168D01*
X131702478Y-83845168D02*
X131719314Y-83828332D01*
X131719314Y-83828332D02*
X131732783Y-83821598D01*
X131732783Y-83821598D02*
X131746251Y-83821598D01*
X131746251Y-83821598D02*
X131756353Y-83824965D01*
X131756353Y-83824965D02*
X131773189Y-83835067D01*
X131773189Y-83835067D02*
X131783290Y-83845168D01*
X131783290Y-83845168D02*
X131793392Y-83862004D01*
X131793392Y-83862004D02*
X131796759Y-83872106D01*
X131796759Y-83872106D02*
X131796759Y-83885574D01*
X131796759Y-83885574D02*
X131790025Y-83899043D01*
X131790025Y-83899043D02*
X131773189Y-83915879D01*
X131880938Y-83808129D02*
X131840532Y-83848535D01*
X131860735Y-83828332D02*
X131790025Y-83757622D01*
X131790025Y-83757622D02*
X131793392Y-83774458D01*
X131793392Y-83774458D02*
X131793392Y-83787926D01*
X131793392Y-83787926D02*
X131790025Y-83798028D01*
X136898031Y-78716962D02*
X136874460Y-78740533D01*
X136911499Y-78777572D02*
X136840789Y-78706861D01*
X136840789Y-78706861D02*
X136874460Y-78673189D01*
X136972108Y-78716963D02*
X136901397Y-78646252D01*
X137005780Y-78683291D02*
X136935069Y-78612580D01*
X136935069Y-78612580D02*
X136951905Y-78595744D01*
X136951905Y-78595744D02*
X136965374Y-78589010D01*
X136965374Y-78589010D02*
X136978842Y-78589010D01*
X136978842Y-78589010D02*
X136988944Y-78592377D01*
X136988944Y-78592377D02*
X137005780Y-78602479D01*
X137005780Y-78602479D02*
X137015881Y-78612580D01*
X137015881Y-78612580D02*
X137025983Y-78629416D01*
X137025983Y-78629416D02*
X137029350Y-78639518D01*
X137029350Y-78639518D02*
X137029350Y-78652986D01*
X137029350Y-78652986D02*
X137022616Y-78666455D01*
X137022616Y-78666455D02*
X137005780Y-78683291D01*
X136999046Y-78548604D02*
X137042819Y-78504831D01*
X137042819Y-78504831D02*
X137046186Y-78555338D01*
X137046186Y-78555338D02*
X137056288Y-78545237D01*
X137056288Y-78545237D02*
X137066389Y-78541870D01*
X137066389Y-78541870D02*
X137073123Y-78541870D01*
X137073123Y-78541870D02*
X137083225Y-78545237D01*
X137083225Y-78545237D02*
X137100061Y-78562073D01*
X137100061Y-78562073D02*
X137103428Y-78572174D01*
X137103428Y-78572174D02*
X137103428Y-78578908D01*
X137103428Y-78578908D02*
X137100061Y-78589010D01*
X137100061Y-78589010D02*
X137079858Y-78609213D01*
X137079858Y-78609213D02*
X137069756Y-78612580D01*
X137069756Y-78612580D02*
X137063022Y-78612580D01*
D13*
X130334011Y-81392935D02*
X130334011Y-81409771D01*
X130334011Y-81409771D02*
X130317175Y-81443443D01*
X130317175Y-81443443D02*
X130300339Y-81460279D01*
X130300339Y-81460279D02*
X130266667Y-81477115D01*
X130266667Y-81477115D02*
X130232996Y-81477115D01*
X130232996Y-81477115D02*
X130207742Y-81468697D01*
X130207742Y-81468697D02*
X130165652Y-81443443D01*
X130165652Y-81443443D02*
X130140398Y-81418189D01*
X130140398Y-81418189D02*
X130115144Y-81376100D01*
X130115144Y-81376100D02*
X130106726Y-81350846D01*
X130106726Y-81350846D02*
X130106726Y-81317174D01*
X130106726Y-81317174D02*
X130123562Y-81283502D01*
X130123562Y-81283502D02*
X130140398Y-81266666D01*
X130140398Y-81266666D02*
X130174070Y-81249831D01*
X130174070Y-81249831D02*
X130190906Y-81249831D01*
X130325593Y-81081472D02*
X130291921Y-81115144D01*
X130291921Y-81115144D02*
X130283503Y-81140397D01*
X130283503Y-81140397D02*
X130283503Y-81157233D01*
X130283503Y-81157233D02*
X130291921Y-81199323D01*
X130291921Y-81199323D02*
X130317175Y-81241413D01*
X130317175Y-81241413D02*
X130384518Y-81308756D01*
X130384518Y-81308756D02*
X130409772Y-81317174D01*
X130409772Y-81317174D02*
X130426608Y-81317174D01*
X130426608Y-81317174D02*
X130451862Y-81308756D01*
X130451862Y-81308756D02*
X130485534Y-81275084D01*
X130485534Y-81275084D02*
X130493952Y-81249831D01*
X130493952Y-81249831D02*
X130493952Y-81232995D01*
X130493952Y-81232995D02*
X130485534Y-81207741D01*
X130485534Y-81207741D02*
X130443444Y-81165651D01*
X130443444Y-81165651D02*
X130418190Y-81157233D01*
X130418190Y-81157233D02*
X130401354Y-81157233D01*
X130401354Y-81157233D02*
X130376100Y-81165651D01*
X130376100Y-81165651D02*
X130342429Y-81199323D01*
X130342429Y-81199323D02*
X130334011Y-81224577D01*
X130334011Y-81224577D02*
X130334011Y-81241413D01*
X130334011Y-81241413D02*
X130342429Y-81266666D01*
D10*
X125038095Y-61929819D02*
X125038095Y-60929819D01*
X125038095Y-61406009D02*
X125609523Y-61406009D01*
X125609523Y-61929819D02*
X125609523Y-60929819D01*
X126609523Y-61929819D02*
X126038095Y-61929819D01*
X126323809Y-61929819D02*
X126323809Y-60929819D01*
X126323809Y-60929819D02*
X126228571Y-61072676D01*
X126228571Y-61072676D02*
X126133333Y-61167914D01*
X126133333Y-61167914D02*
X126038095Y-61215533D01*
X123461904Y-86804819D02*
X122890476Y-86804819D01*
X123176190Y-86804819D02*
X123176190Y-85804819D01*
X123176190Y-85804819D02*
X123080952Y-85947676D01*
X123080952Y-85947676D02*
X122985714Y-86042914D01*
X122985714Y-86042914D02*
X122890476Y-86090533D01*
X124080952Y-85804819D02*
X124176190Y-85804819D01*
X124176190Y-85804819D02*
X124271428Y-85852438D01*
X124271428Y-85852438D02*
X124319047Y-85900057D01*
X124319047Y-85900057D02*
X124366666Y-85995295D01*
X124366666Y-85995295D02*
X124414285Y-86185771D01*
X124414285Y-86185771D02*
X124414285Y-86423866D01*
X124414285Y-86423866D02*
X124366666Y-86614342D01*
X124366666Y-86614342D02*
X124319047Y-86709580D01*
X124319047Y-86709580D02*
X124271428Y-86757200D01*
X124271428Y-86757200D02*
X124176190Y-86804819D01*
X124176190Y-86804819D02*
X124080952Y-86804819D01*
X124080952Y-86804819D02*
X123985714Y-86757200D01*
X123985714Y-86757200D02*
X123938095Y-86709580D01*
X123938095Y-86709580D02*
X123890476Y-86614342D01*
X123890476Y-86614342D02*
X123842857Y-86423866D01*
X123842857Y-86423866D02*
X123842857Y-86185771D01*
X123842857Y-86185771D02*
X123890476Y-85995295D01*
X123890476Y-85995295D02*
X123938095Y-85900057D01*
X123938095Y-85900057D02*
X123985714Y-85852438D01*
X123985714Y-85852438D02*
X124080952Y-85804819D01*
X125033333Y-85804819D02*
X125128571Y-85804819D01*
X125128571Y-85804819D02*
X125223809Y-85852438D01*
X125223809Y-85852438D02*
X125271428Y-85900057D01*
X125271428Y-85900057D02*
X125319047Y-85995295D01*
X125319047Y-85995295D02*
X125366666Y-86185771D01*
X125366666Y-86185771D02*
X125366666Y-86423866D01*
X125366666Y-86423866D02*
X125319047Y-86614342D01*
X125319047Y-86614342D02*
X125271428Y-86709580D01*
X125271428Y-86709580D02*
X125223809Y-86757200D01*
X125223809Y-86757200D02*
X125128571Y-86804819D01*
X125128571Y-86804819D02*
X125033333Y-86804819D01*
X125033333Y-86804819D02*
X124938095Y-86757200D01*
X124938095Y-86757200D02*
X124890476Y-86709580D01*
X124890476Y-86709580D02*
X124842857Y-86614342D01*
X124842857Y-86614342D02*
X124795238Y-86423866D01*
X124795238Y-86423866D02*
X124795238Y-86185771D01*
X124795238Y-86185771D02*
X124842857Y-85995295D01*
X124842857Y-85995295D02*
X124890476Y-85900057D01*
X124890476Y-85900057D02*
X124938095Y-85852438D01*
X124938095Y-85852438D02*
X125033333Y-85804819D01*
X125795238Y-86804819D02*
X125795238Y-85804819D01*
X125890476Y-86423866D02*
X126176190Y-86804819D01*
X126176190Y-86138152D02*
X125795238Y-86519104D01*
X126652381Y-86757200D02*
X126652381Y-86804819D01*
X126652381Y-86804819D02*
X126604762Y-86900057D01*
X126604762Y-86900057D02*
X126557143Y-86947676D01*
X128366666Y-86804819D02*
X127795238Y-86804819D01*
X128080952Y-86804819D02*
X128080952Y-85804819D01*
X128080952Y-85804819D02*
X127985714Y-85947676D01*
X127985714Y-85947676D02*
X127890476Y-86042914D01*
X127890476Y-86042914D02*
X127795238Y-86090533D01*
X128747619Y-86804819D02*
X129509523Y-85804819D01*
X128890476Y-85804819D02*
X128985714Y-85852438D01*
X128985714Y-85852438D02*
X129033333Y-85947676D01*
X129033333Y-85947676D02*
X128985714Y-86042914D01*
X128985714Y-86042914D02*
X128890476Y-86090533D01*
X128890476Y-86090533D02*
X128795238Y-86042914D01*
X128795238Y-86042914D02*
X128747619Y-85947676D01*
X128747619Y-85947676D02*
X128795238Y-85852438D01*
X128795238Y-85852438D02*
X128890476Y-85804819D01*
X129461904Y-86757200D02*
X129509523Y-86661961D01*
X129509523Y-86661961D02*
X129461904Y-86566723D01*
X129461904Y-86566723D02*
X129366666Y-86519104D01*
X129366666Y-86519104D02*
X129271428Y-86566723D01*
X129271428Y-86566723D02*
X129223809Y-86661961D01*
X129223809Y-86661961D02*
X129271428Y-86757200D01*
X129271428Y-86757200D02*
X129366666Y-86804819D01*
X129366666Y-86804819D02*
X129461904Y-86757200D01*
D13*
X126158333Y-88193575D02*
X126075000Y-88074528D01*
X126015476Y-88193575D02*
X126015476Y-87943575D01*
X126015476Y-87943575D02*
X126110714Y-87943575D01*
X126110714Y-87943575D02*
X126134524Y-87955480D01*
X126134524Y-87955480D02*
X126146429Y-87967385D01*
X126146429Y-87967385D02*
X126158333Y-87991194D01*
X126158333Y-87991194D02*
X126158333Y-88026909D01*
X126158333Y-88026909D02*
X126146429Y-88050718D01*
X126146429Y-88050718D02*
X126134524Y-88062623D01*
X126134524Y-88062623D02*
X126110714Y-88074528D01*
X126110714Y-88074528D02*
X126015476Y-88074528D01*
X126301191Y-88050718D02*
X126277381Y-88038813D01*
X126277381Y-88038813D02*
X126265476Y-88026909D01*
X126265476Y-88026909D02*
X126253572Y-88003099D01*
X126253572Y-88003099D02*
X126253572Y-87991194D01*
X126253572Y-87991194D02*
X126265476Y-87967385D01*
X126265476Y-87967385D02*
X126277381Y-87955480D01*
X126277381Y-87955480D02*
X126301191Y-87943575D01*
X126301191Y-87943575D02*
X126348810Y-87943575D01*
X126348810Y-87943575D02*
X126372619Y-87955480D01*
X126372619Y-87955480D02*
X126384524Y-87967385D01*
X126384524Y-87967385D02*
X126396429Y-87991194D01*
X126396429Y-87991194D02*
X126396429Y-88003099D01*
X126396429Y-88003099D02*
X126384524Y-88026909D01*
X126384524Y-88026909D02*
X126372619Y-88038813D01*
X126372619Y-88038813D02*
X126348810Y-88050718D01*
X126348810Y-88050718D02*
X126301191Y-88050718D01*
X126301191Y-88050718D02*
X126277381Y-88062623D01*
X126277381Y-88062623D02*
X126265476Y-88074528D01*
X126265476Y-88074528D02*
X126253572Y-88098337D01*
X126253572Y-88098337D02*
X126253572Y-88145956D01*
X126253572Y-88145956D02*
X126265476Y-88169766D01*
X126265476Y-88169766D02*
X126277381Y-88181671D01*
X126277381Y-88181671D02*
X126301191Y-88193575D01*
X126301191Y-88193575D02*
X126348810Y-88193575D01*
X126348810Y-88193575D02*
X126372619Y-88181671D01*
X126372619Y-88181671D02*
X126384524Y-88169766D01*
X126384524Y-88169766D02*
X126396429Y-88145956D01*
X126396429Y-88145956D02*
X126396429Y-88098337D01*
X126396429Y-88098337D02*
X126384524Y-88074528D01*
X126384524Y-88074528D02*
X126372619Y-88062623D01*
X126372619Y-88062623D02*
X126348810Y-88050718D01*
D11*
X136542857Y-75643832D02*
X136523809Y-75662880D01*
X136523809Y-75662880D02*
X136466667Y-75681927D01*
X136466667Y-75681927D02*
X136428571Y-75681927D01*
X136428571Y-75681927D02*
X136371428Y-75662880D01*
X136371428Y-75662880D02*
X136333333Y-75624784D01*
X136333333Y-75624784D02*
X136314286Y-75586689D01*
X136314286Y-75586689D02*
X136295238Y-75510499D01*
X136295238Y-75510499D02*
X136295238Y-75453356D01*
X136295238Y-75453356D02*
X136314286Y-75377165D01*
X136314286Y-75377165D02*
X136333333Y-75339070D01*
X136333333Y-75339070D02*
X136371428Y-75300975D01*
X136371428Y-75300975D02*
X136428571Y-75281927D01*
X136428571Y-75281927D02*
X136466667Y-75281927D01*
X136466667Y-75281927D02*
X136523809Y-75300975D01*
X136523809Y-75300975D02*
X136542857Y-75320022D01*
X136923809Y-75681927D02*
X136695238Y-75681927D01*
X136809524Y-75681927D02*
X136809524Y-75281927D01*
X136809524Y-75281927D02*
X136771428Y-75339070D01*
X136771428Y-75339070D02*
X136733333Y-75377165D01*
X136733333Y-75377165D02*
X136695238Y-75396213D01*
X137266666Y-75415260D02*
X137266666Y-75681927D01*
X137171428Y-75262880D02*
X137076190Y-75548594D01*
X137076190Y-75548594D02*
X137323809Y-75548594D01*
D13*
X131834011Y-83167935D02*
X131834011Y-83184771D01*
X131834011Y-83184771D02*
X131817175Y-83218443D01*
X131817175Y-83218443D02*
X131800339Y-83235279D01*
X131800339Y-83235279D02*
X131766667Y-83252115D01*
X131766667Y-83252115D02*
X131732996Y-83252115D01*
X131732996Y-83252115D02*
X131707742Y-83243697D01*
X131707742Y-83243697D02*
X131665652Y-83218443D01*
X131665652Y-83218443D02*
X131640398Y-83193189D01*
X131640398Y-83193189D02*
X131615144Y-83151100D01*
X131615144Y-83151100D02*
X131606726Y-83125846D01*
X131606726Y-83125846D02*
X131606726Y-83092174D01*
X131606726Y-83092174D02*
X131623562Y-83058502D01*
X131623562Y-83058502D02*
X131640398Y-83041666D01*
X131640398Y-83041666D02*
X131674070Y-83024831D01*
X131674070Y-83024831D02*
X131690906Y-83024831D01*
X131732996Y-82949069D02*
X131850847Y-82831218D01*
X131850847Y-82831218D02*
X131951862Y-83083756D01*
D10*
X135234405Y-68454819D02*
X135234405Y-67454819D01*
X135234405Y-67454819D02*
X135472500Y-67454819D01*
X135472500Y-67454819D02*
X135615357Y-67502438D01*
X135615357Y-67502438D02*
X135710595Y-67597676D01*
X135710595Y-67597676D02*
X135758214Y-67692914D01*
X135758214Y-67692914D02*
X135805833Y-67883390D01*
X135805833Y-67883390D02*
X135805833Y-68026247D01*
X135805833Y-68026247D02*
X135758214Y-68216723D01*
X135758214Y-68216723D02*
X135710595Y-68311961D01*
X135710595Y-68311961D02*
X135615357Y-68407200D01*
X135615357Y-68407200D02*
X135472500Y-68454819D01*
X135472500Y-68454819D02*
X135234405Y-68454819D01*
X136758214Y-68454819D02*
X136186786Y-68454819D01*
X136472500Y-68454819D02*
X136472500Y-67454819D01*
X136472500Y-67454819D02*
X136377262Y-67597676D01*
X136377262Y-67597676D02*
X136282024Y-67692914D01*
X136282024Y-67692914D02*
X136186786Y-67740533D01*
D13*
X129834011Y-80892935D02*
X129834011Y-80909771D01*
X129834011Y-80909771D02*
X129817175Y-80943443D01*
X129817175Y-80943443D02*
X129800339Y-80960279D01*
X129800339Y-80960279D02*
X129766667Y-80977115D01*
X129766667Y-80977115D02*
X129732996Y-80977115D01*
X129732996Y-80977115D02*
X129707742Y-80968697D01*
X129707742Y-80968697D02*
X129665652Y-80943443D01*
X129665652Y-80943443D02*
X129640398Y-80918189D01*
X129640398Y-80918189D02*
X129615144Y-80876100D01*
X129615144Y-80876100D02*
X129606726Y-80850846D01*
X129606726Y-80850846D02*
X129606726Y-80817174D01*
X129606726Y-80817174D02*
X129623562Y-80783502D01*
X129623562Y-80783502D02*
X129640398Y-80766666D01*
X129640398Y-80766666D02*
X129674070Y-80749831D01*
X129674070Y-80749831D02*
X129690906Y-80749831D01*
X129758249Y-80682487D02*
X129758249Y-80665651D01*
X129758249Y-80665651D02*
X129766667Y-80640397D01*
X129766667Y-80640397D02*
X129808757Y-80598308D01*
X129808757Y-80598308D02*
X129834011Y-80589890D01*
X129834011Y-80589890D02*
X129850847Y-80589890D01*
X129850847Y-80589890D02*
X129876100Y-80598308D01*
X129876100Y-80598308D02*
X129892936Y-80615144D01*
X129892936Y-80615144D02*
X129909772Y-80648815D01*
X129909772Y-80648815D02*
X129909772Y-80850846D01*
X129909772Y-80850846D02*
X130019205Y-80741413D01*
D10*
X128407200Y-72133332D02*
X128454819Y-71990475D01*
X128454819Y-71990475D02*
X128454819Y-71752380D01*
X128454819Y-71752380D02*
X128407200Y-71657142D01*
X128407200Y-71657142D02*
X128359580Y-71609523D01*
X128359580Y-71609523D02*
X128264342Y-71561904D01*
X128264342Y-71561904D02*
X128169104Y-71561904D01*
X128169104Y-71561904D02*
X128073866Y-71609523D01*
X128073866Y-71609523D02*
X128026247Y-71657142D01*
X128026247Y-71657142D02*
X127978628Y-71752380D01*
X127978628Y-71752380D02*
X127931009Y-71942856D01*
X127931009Y-71942856D02*
X127883390Y-72038094D01*
X127883390Y-72038094D02*
X127835771Y-72085713D01*
X127835771Y-72085713D02*
X127740533Y-72133332D01*
X127740533Y-72133332D02*
X127645295Y-72133332D01*
X127645295Y-72133332D02*
X127550057Y-72085713D01*
X127550057Y-72085713D02*
X127502438Y-72038094D01*
X127502438Y-72038094D02*
X127454819Y-71942856D01*
X127454819Y-71942856D02*
X127454819Y-71704761D01*
X127454819Y-71704761D02*
X127502438Y-71561904D01*
X127454819Y-71228570D02*
X128454819Y-70990475D01*
X128454819Y-70990475D02*
X127740533Y-70799999D01*
X127740533Y-70799999D02*
X128454819Y-70609523D01*
X128454819Y-70609523D02*
X127454819Y-70371428D01*
X128454819Y-69466666D02*
X128454819Y-70038094D01*
X128454819Y-69752380D02*
X127454819Y-69752380D01*
X127454819Y-69752380D02*
X127597676Y-69847618D01*
X127597676Y-69847618D02*
X127692914Y-69942856D01*
X127692914Y-69942856D02*
X127740533Y-70038094D01*
X123457142Y-86824819D02*
X122885714Y-86824819D01*
X123171428Y-86824819D02*
X123171428Y-85824819D01*
X123171428Y-85824819D02*
X123076190Y-85967676D01*
X123076190Y-85967676D02*
X122980952Y-86062914D01*
X122980952Y-86062914D02*
X122885714Y-86110533D01*
X124076190Y-85824819D02*
X124171428Y-85824819D01*
X124171428Y-85824819D02*
X124266666Y-85872438D01*
X124266666Y-85872438D02*
X124314285Y-85920057D01*
X124314285Y-85920057D02*
X124361904Y-86015295D01*
X124361904Y-86015295D02*
X124409523Y-86205771D01*
X124409523Y-86205771D02*
X124409523Y-86443866D01*
X124409523Y-86443866D02*
X124361904Y-86634342D01*
X124361904Y-86634342D02*
X124314285Y-86729580D01*
X124314285Y-86729580D02*
X124266666Y-86777200D01*
X124266666Y-86777200D02*
X124171428Y-86824819D01*
X124171428Y-86824819D02*
X124076190Y-86824819D01*
X124076190Y-86824819D02*
X123980952Y-86777200D01*
X123980952Y-86777200D02*
X123933333Y-86729580D01*
X123933333Y-86729580D02*
X123885714Y-86634342D01*
X123885714Y-86634342D02*
X123838095Y-86443866D01*
X123838095Y-86443866D02*
X123838095Y-86205771D01*
X123838095Y-86205771D02*
X123885714Y-86015295D01*
X123885714Y-86015295D02*
X123933333Y-85920057D01*
X123933333Y-85920057D02*
X123980952Y-85872438D01*
X123980952Y-85872438D02*
X124076190Y-85824819D01*
X125266666Y-86158152D02*
X125266666Y-86824819D01*
X124838095Y-86158152D02*
X124838095Y-86681961D01*
X124838095Y-86681961D02*
X124885714Y-86777200D01*
X124885714Y-86777200D02*
X124980952Y-86824819D01*
X124980952Y-86824819D02*
X125123809Y-86824819D01*
X125123809Y-86824819D02*
X125219047Y-86777200D01*
X125219047Y-86777200D02*
X125266666Y-86729580D01*
X126076190Y-86301009D02*
X125742857Y-86301009D01*
X125742857Y-86824819D02*
X125742857Y-85824819D01*
X125742857Y-85824819D02*
X126219047Y-85824819D01*
X126647619Y-86777200D02*
X126647619Y-86824819D01*
X126647619Y-86824819D02*
X126600000Y-86920057D01*
X126600000Y-86920057D02*
X126552381Y-86967676D01*
X127790476Y-85920057D02*
X127838095Y-85872438D01*
X127838095Y-85872438D02*
X127933333Y-85824819D01*
X127933333Y-85824819D02*
X128171428Y-85824819D01*
X128171428Y-85824819D02*
X128266666Y-85872438D01*
X128266666Y-85872438D02*
X128314285Y-85920057D01*
X128314285Y-85920057D02*
X128361904Y-86015295D01*
X128361904Y-86015295D02*
X128361904Y-86110533D01*
X128361904Y-86110533D02*
X128314285Y-86253390D01*
X128314285Y-86253390D02*
X127742857Y-86824819D01*
X127742857Y-86824819D02*
X128361904Y-86824819D01*
X129266666Y-85824819D02*
X128790476Y-85824819D01*
X128790476Y-85824819D02*
X128742857Y-86301009D01*
X128742857Y-86301009D02*
X128790476Y-86253390D01*
X128790476Y-86253390D02*
X128885714Y-86205771D01*
X128885714Y-86205771D02*
X129123809Y-86205771D01*
X129123809Y-86205771D02*
X129219047Y-86253390D01*
X129219047Y-86253390D02*
X129266666Y-86301009D01*
X129266666Y-86301009D02*
X129314285Y-86396247D01*
X129314285Y-86396247D02*
X129314285Y-86634342D01*
X129314285Y-86634342D02*
X129266666Y-86729580D01*
X129266666Y-86729580D02*
X129219047Y-86777200D01*
X129219047Y-86777200D02*
X129123809Y-86824819D01*
X129123809Y-86824819D02*
X128885714Y-86824819D01*
X128885714Y-86824819D02*
X128790476Y-86777200D01*
X128790476Y-86777200D02*
X128742857Y-86729580D01*
X129600000Y-85824819D02*
X129933333Y-86824819D01*
X129933333Y-86824819D02*
X130266666Y-85824819D01*
X130647619Y-86777200D02*
X130647619Y-86824819D01*
X130647619Y-86824819D02*
X130600000Y-86920057D01*
X130600000Y-86920057D02*
X130552381Y-86967676D01*
X131742857Y-85824819D02*
X132409523Y-86824819D01*
X132409523Y-85824819D02*
X131742857Y-86824819D01*
X133266666Y-85824819D02*
X132790476Y-85824819D01*
X132790476Y-85824819D02*
X132742857Y-86301009D01*
X132742857Y-86301009D02*
X132790476Y-86253390D01*
X132790476Y-86253390D02*
X132885714Y-86205771D01*
X132885714Y-86205771D02*
X133123809Y-86205771D01*
X133123809Y-86205771D02*
X133219047Y-86253390D01*
X133219047Y-86253390D02*
X133266666Y-86301009D01*
X133266666Y-86301009D02*
X133314285Y-86396247D01*
X133314285Y-86396247D02*
X133314285Y-86634342D01*
X133314285Y-86634342D02*
X133266666Y-86729580D01*
X133266666Y-86729580D02*
X133219047Y-86777200D01*
X133219047Y-86777200D02*
X133123809Y-86824819D01*
X133123809Y-86824819D02*
X132885714Y-86824819D01*
X132885714Y-86824819D02*
X132790476Y-86777200D01*
X132790476Y-86777200D02*
X132742857Y-86729580D01*
X134314285Y-86824819D02*
X133980952Y-86348628D01*
X133742857Y-86824819D02*
X133742857Y-85824819D01*
X133742857Y-85824819D02*
X134123809Y-85824819D01*
X134123809Y-85824819D02*
X134219047Y-85872438D01*
X134219047Y-85872438D02*
X134266666Y-85920057D01*
X134266666Y-85920057D02*
X134314285Y-86015295D01*
X134314285Y-86015295D02*
X134314285Y-86158152D01*
X134314285Y-86158152D02*
X134266666Y-86253390D01*
X134266666Y-86253390D02*
X134219047Y-86301009D01*
X134219047Y-86301009D02*
X134123809Y-86348628D01*
X134123809Y-86348628D02*
X133742857Y-86348628D01*
D11*
X128342857Y-87943832D02*
X128323809Y-87962880D01*
X128323809Y-87962880D02*
X128266667Y-87981927D01*
X128266667Y-87981927D02*
X128228571Y-87981927D01*
X128228571Y-87981927D02*
X128171428Y-87962880D01*
X128171428Y-87962880D02*
X128133333Y-87924784D01*
X128133333Y-87924784D02*
X128114286Y-87886689D01*
X128114286Y-87886689D02*
X128095238Y-87810499D01*
X128095238Y-87810499D02*
X128095238Y-87753356D01*
X128095238Y-87753356D02*
X128114286Y-87677165D01*
X128114286Y-87677165D02*
X128133333Y-87639070D01*
X128133333Y-87639070D02*
X128171428Y-87600975D01*
X128171428Y-87600975D02*
X128228571Y-87581927D01*
X128228571Y-87581927D02*
X128266667Y-87581927D01*
X128266667Y-87581927D02*
X128323809Y-87600975D01*
X128323809Y-87600975D02*
X128342857Y-87620022D01*
X128723809Y-87981927D02*
X128495238Y-87981927D01*
X128609524Y-87981927D02*
X128609524Y-87581927D01*
X128609524Y-87581927D02*
X128571428Y-87639070D01*
X128571428Y-87639070D02*
X128533333Y-87677165D01*
X128533333Y-87677165D02*
X128495238Y-87696213D01*
X129066666Y-87581927D02*
X128990476Y-87581927D01*
X128990476Y-87581927D02*
X128952380Y-87600975D01*
X128952380Y-87600975D02*
X128933333Y-87620022D01*
X128933333Y-87620022D02*
X128895238Y-87677165D01*
X128895238Y-87677165D02*
X128876190Y-87753356D01*
X128876190Y-87753356D02*
X128876190Y-87905737D01*
X128876190Y-87905737D02*
X128895238Y-87943832D01*
X128895238Y-87943832D02*
X128914285Y-87962880D01*
X128914285Y-87962880D02*
X128952380Y-87981927D01*
X128952380Y-87981927D02*
X129028571Y-87981927D01*
X129028571Y-87981927D02*
X129066666Y-87962880D01*
X129066666Y-87962880D02*
X129085714Y-87943832D01*
X129085714Y-87943832D02*
X129104761Y-87905737D01*
X129104761Y-87905737D02*
X129104761Y-87810499D01*
X129104761Y-87810499D02*
X129085714Y-87772403D01*
X129085714Y-87772403D02*
X129066666Y-87753356D01*
X129066666Y-87753356D02*
X129028571Y-87734308D01*
X129028571Y-87734308D02*
X128952380Y-87734308D01*
X128952380Y-87734308D02*
X128914285Y-87753356D01*
X128914285Y-87753356D02*
X128895238Y-87772403D01*
X128895238Y-87772403D02*
X128876190Y-87810499D01*
D13*
X133989765Y-82060714D02*
X134001670Y-82072618D01*
X134001670Y-82072618D02*
X134013574Y-82108333D01*
X134013574Y-82108333D02*
X134013574Y-82132142D01*
X134013574Y-82132142D02*
X134001670Y-82167856D01*
X134001670Y-82167856D02*
X133977860Y-82191666D01*
X133977860Y-82191666D02*
X133954050Y-82203571D01*
X133954050Y-82203571D02*
X133906431Y-82215475D01*
X133906431Y-82215475D02*
X133870717Y-82215475D01*
X133870717Y-82215475D02*
X133823098Y-82203571D01*
X133823098Y-82203571D02*
X133799289Y-82191666D01*
X133799289Y-82191666D02*
X133775479Y-82167856D01*
X133775479Y-82167856D02*
X133763574Y-82132142D01*
X133763574Y-82132142D02*
X133763574Y-82108333D01*
X133763574Y-82108333D02*
X133775479Y-82072618D01*
X133775479Y-82072618D02*
X133787384Y-82060714D01*
X134013574Y-81822618D02*
X134013574Y-81965475D01*
X134013574Y-81894047D02*
X133763574Y-81894047D01*
X133763574Y-81894047D02*
X133799289Y-81917856D01*
X133799289Y-81917856D02*
X133823098Y-81941666D01*
X133823098Y-81941666D02*
X133835003Y-81965475D01*
X133787384Y-81727380D02*
X133775479Y-81715476D01*
X133775479Y-81715476D02*
X133763574Y-81691666D01*
X133763574Y-81691666D02*
X133763574Y-81632142D01*
X133763574Y-81632142D02*
X133775479Y-81608333D01*
X133775479Y-81608333D02*
X133787384Y-81596428D01*
X133787384Y-81596428D02*
X133811193Y-81584523D01*
X133811193Y-81584523D02*
X133835003Y-81584523D01*
X133835003Y-81584523D02*
X133870717Y-81596428D01*
X133870717Y-81596428D02*
X134013574Y-81739285D01*
X134013574Y-81739285D02*
X134013574Y-81584523D01*
X130332064Y-76309011D02*
X130315228Y-76309011D01*
X130315228Y-76309011D02*
X130281556Y-76292175D01*
X130281556Y-76292175D02*
X130264720Y-76275339D01*
X130264720Y-76275339D02*
X130247884Y-76241667D01*
X130247884Y-76241667D02*
X130247884Y-76207996D01*
X130247884Y-76207996D02*
X130256302Y-76182742D01*
X130256302Y-76182742D02*
X130281556Y-76140652D01*
X130281556Y-76140652D02*
X130306810Y-76115398D01*
X130306810Y-76115398D02*
X130348899Y-76090144D01*
X130348899Y-76090144D02*
X130374153Y-76081726D01*
X130374153Y-76081726D02*
X130407825Y-76081726D01*
X130407825Y-76081726D02*
X130441497Y-76098562D01*
X130441497Y-76098562D02*
X130458333Y-76115398D01*
X130458333Y-76115398D02*
X130475168Y-76149070D01*
X130475168Y-76149070D02*
X130475168Y-76165906D01*
X130550930Y-76207996D02*
X130660363Y-76317429D01*
X130660363Y-76317429D02*
X130534094Y-76325847D01*
X130534094Y-76325847D02*
X130559348Y-76351100D01*
X130559348Y-76351100D02*
X130567766Y-76376354D01*
X130567766Y-76376354D02*
X130567766Y-76393190D01*
X130567766Y-76393190D02*
X130559348Y-76418444D01*
X130559348Y-76418444D02*
X130517258Y-76460534D01*
X130517258Y-76460534D02*
X130492004Y-76468952D01*
X130492004Y-76468952D02*
X130475168Y-76468952D01*
X130475168Y-76468952D02*
X130449915Y-76460534D01*
X130449915Y-76460534D02*
X130399407Y-76410026D01*
X130399407Y-76410026D02*
X130390989Y-76384772D01*
X130390989Y-76384772D02*
X130390989Y-76367936D01*
D10*
X126347619Y-71900056D02*
X126395238Y-71852437D01*
X126395238Y-71852437D02*
X126490476Y-71804818D01*
X126490476Y-71804818D02*
X126728571Y-71804818D01*
X126728571Y-71804818D02*
X126823809Y-71852437D01*
X126823809Y-71852437D02*
X126871428Y-71900056D01*
X126871428Y-71900056D02*
X126919047Y-71995294D01*
X126919047Y-71995294D02*
X126919047Y-72090532D01*
X126919047Y-72090532D02*
X126871428Y-72233389D01*
X126871428Y-72233389D02*
X126300000Y-72804818D01*
X126300000Y-72804818D02*
X126919047Y-72804818D01*
X127347619Y-72709579D02*
X127395238Y-72757199D01*
X127395238Y-72757199D02*
X127347619Y-72804818D01*
X127347619Y-72804818D02*
X127300000Y-72757199D01*
X127300000Y-72757199D02*
X127347619Y-72709579D01*
X127347619Y-72709579D02*
X127347619Y-72804818D01*
X127776190Y-71900056D02*
X127823809Y-71852437D01*
X127823809Y-71852437D02*
X127919047Y-71804818D01*
X127919047Y-71804818D02*
X128157142Y-71804818D01*
X128157142Y-71804818D02*
X128252380Y-71852437D01*
X128252380Y-71852437D02*
X128299999Y-71900056D01*
X128299999Y-71900056D02*
X128347618Y-71995294D01*
X128347618Y-71995294D02*
X128347618Y-72090532D01*
X128347618Y-72090532D02*
X128299999Y-72233389D01*
X128299999Y-72233389D02*
X127728571Y-72804818D01*
X127728571Y-72804818D02*
X128347618Y-72804818D01*
X129204761Y-72138151D02*
X129204761Y-72804818D01*
X128776190Y-72138151D02*
X128776190Y-72661960D01*
X128776190Y-72661960D02*
X128823809Y-72757199D01*
X128823809Y-72757199D02*
X128919047Y-72804818D01*
X128919047Y-72804818D02*
X129061904Y-72804818D01*
X129061904Y-72804818D02*
X129157142Y-72757199D01*
X129157142Y-72757199D02*
X129204761Y-72709579D01*
X129680952Y-72804818D02*
X129680952Y-71804818D01*
X129680952Y-72281008D02*
X130252380Y-72281008D01*
X130252380Y-72804818D02*
X130252380Y-71804818D01*
X131490476Y-72804818D02*
X131490476Y-71804818D01*
X131490476Y-71804818D02*
X131823809Y-72519103D01*
X131823809Y-72519103D02*
X132157142Y-71804818D01*
X132157142Y-71804818D02*
X132157142Y-72804818D01*
X133157142Y-71852437D02*
X133061904Y-71804818D01*
X133061904Y-71804818D02*
X132919047Y-71804818D01*
X132919047Y-71804818D02*
X132776190Y-71852437D01*
X132776190Y-71852437D02*
X132680952Y-71947675D01*
X132680952Y-71947675D02*
X132633333Y-72042913D01*
X132633333Y-72042913D02*
X132585714Y-72233389D01*
X132585714Y-72233389D02*
X132585714Y-72376246D01*
X132585714Y-72376246D02*
X132633333Y-72566722D01*
X132633333Y-72566722D02*
X132680952Y-72661960D01*
X132680952Y-72661960D02*
X132776190Y-72757199D01*
X132776190Y-72757199D02*
X132919047Y-72804818D01*
X132919047Y-72804818D02*
X133014285Y-72804818D01*
X133014285Y-72804818D02*
X133157142Y-72757199D01*
X133157142Y-72757199D02*
X133204761Y-72709579D01*
X133204761Y-72709579D02*
X133204761Y-72376246D01*
X133204761Y-72376246D02*
X133014285Y-72376246D01*
X133966666Y-72281008D02*
X133633333Y-72281008D01*
X133633333Y-72804818D02*
X133633333Y-71804818D01*
X133633333Y-71804818D02*
X134109523Y-71804818D01*
X134966666Y-72804818D02*
X134490476Y-72804818D01*
X134490476Y-72804818D02*
X134490476Y-71804818D01*
X135252381Y-71900056D02*
X135300000Y-71852437D01*
X135300000Y-71852437D02*
X135395238Y-71804818D01*
X135395238Y-71804818D02*
X135633333Y-71804818D01*
X135633333Y-71804818D02*
X135728571Y-71852437D01*
X135728571Y-71852437D02*
X135776190Y-71900056D01*
X135776190Y-71900056D02*
X135823809Y-71995294D01*
X135823809Y-71995294D02*
X135823809Y-72090532D01*
X135823809Y-72090532D02*
X135776190Y-72233389D01*
X135776190Y-72233389D02*
X135204762Y-72804818D01*
X135204762Y-72804818D02*
X135823809Y-72804818D01*
X136442857Y-71804818D02*
X136538095Y-71804818D01*
X136538095Y-71804818D02*
X136633333Y-71852437D01*
X136633333Y-71852437D02*
X136680952Y-71900056D01*
X136680952Y-71900056D02*
X136728571Y-71995294D01*
X136728571Y-71995294D02*
X136776190Y-72185770D01*
X136776190Y-72185770D02*
X136776190Y-72423865D01*
X136776190Y-72423865D02*
X136728571Y-72614341D01*
X136728571Y-72614341D02*
X136680952Y-72709579D01*
X136680952Y-72709579D02*
X136633333Y-72757199D01*
X136633333Y-72757199D02*
X136538095Y-72804818D01*
X136538095Y-72804818D02*
X136442857Y-72804818D01*
X136442857Y-72804818D02*
X136347619Y-72757199D01*
X136347619Y-72757199D02*
X136300000Y-72709579D01*
X136300000Y-72709579D02*
X136252381Y-72614341D01*
X136252381Y-72614341D02*
X136204762Y-72423865D01*
X136204762Y-72423865D02*
X136204762Y-72185770D01*
X136204762Y-72185770D02*
X136252381Y-71995294D01*
X136252381Y-71995294D02*
X136300000Y-71900056D01*
X136300000Y-71900056D02*
X136347619Y-71852437D01*
X136347619Y-71852437D02*
X136442857Y-71804818D01*
X137728571Y-72804818D02*
X137157143Y-72804818D01*
X137442857Y-72804818D02*
X137442857Y-71804818D01*
X137442857Y-71804818D02*
X137347619Y-71947675D01*
X137347619Y-71947675D02*
X137252381Y-72042913D01*
X137252381Y-72042913D02*
X137157143Y-72090532D01*
X138109524Y-71900056D02*
X138157143Y-71852437D01*
X138157143Y-71852437D02*
X138252381Y-71804818D01*
X138252381Y-71804818D02*
X138490476Y-71804818D01*
X138490476Y-71804818D02*
X138585714Y-71852437D01*
X138585714Y-71852437D02*
X138633333Y-71900056D01*
X138633333Y-71900056D02*
X138680952Y-71995294D01*
X138680952Y-71995294D02*
X138680952Y-72090532D01*
X138680952Y-72090532D02*
X138633333Y-72233389D01*
X138633333Y-72233389D02*
X138061905Y-72804818D01*
X138061905Y-72804818D02*
X138680952Y-72804818D01*
X139442857Y-72281008D02*
X139109524Y-72281008D01*
X139109524Y-72804818D02*
X139109524Y-71804818D01*
X139109524Y-71804818D02*
X139585714Y-71804818D01*
X139919048Y-71900056D02*
X139966667Y-71852437D01*
X139966667Y-71852437D02*
X140061905Y-71804818D01*
X140061905Y-71804818D02*
X140300000Y-71804818D01*
X140300000Y-71804818D02*
X140395238Y-71852437D01*
X140395238Y-71852437D02*
X140442857Y-71900056D01*
X140442857Y-71900056D02*
X140490476Y-71995294D01*
X140490476Y-71995294D02*
X140490476Y-72090532D01*
X140490476Y-72090532D02*
X140442857Y-72233389D01*
X140442857Y-72233389D02*
X139871429Y-72804818D01*
X139871429Y-72804818D02*
X140490476Y-72804818D01*
X141490476Y-72804818D02*
X141157143Y-72328627D01*
X140919048Y-72804818D02*
X140919048Y-71804818D01*
X140919048Y-71804818D02*
X141300000Y-71804818D01*
X141300000Y-71804818D02*
X141395238Y-71852437D01*
X141395238Y-71852437D02*
X141442857Y-71900056D01*
X141442857Y-71900056D02*
X141490476Y-71995294D01*
X141490476Y-71995294D02*
X141490476Y-72138151D01*
X141490476Y-72138151D02*
X141442857Y-72233389D01*
X141442857Y-72233389D02*
X141395238Y-72281008D01*
X141395238Y-72281008D02*
X141300000Y-72328627D01*
X141300000Y-72328627D02*
X140919048Y-72328627D01*
X141871429Y-71900056D02*
X141919048Y-71852437D01*
X141919048Y-71852437D02*
X142014286Y-71804818D01*
X142014286Y-71804818D02*
X142252381Y-71804818D01*
X142252381Y-71804818D02*
X142347619Y-71852437D01*
X142347619Y-71852437D02*
X142395238Y-71900056D01*
X142395238Y-71900056D02*
X142442857Y-71995294D01*
X142442857Y-71995294D02*
X142442857Y-72090532D01*
X142442857Y-72090532D02*
X142395238Y-72233389D01*
X142395238Y-72233389D02*
X141823810Y-72804818D01*
X141823810Y-72804818D02*
X142442857Y-72804818D01*
X142871429Y-72804818D02*
X142871429Y-71804818D01*
X142871429Y-71804818D02*
X143204762Y-72519103D01*
X143204762Y-72519103D02*
X143538095Y-71804818D01*
X143538095Y-71804818D02*
X143538095Y-72804818D01*
X143871429Y-71804818D02*
X144442857Y-71804818D01*
X144157143Y-72804818D02*
X144157143Y-71804818D01*
X144776191Y-72423865D02*
X145538096Y-72423865D01*
X146490476Y-72804818D02*
X146014286Y-72804818D01*
X146014286Y-72804818D02*
X146014286Y-71804818D01*
X147157143Y-72281008D02*
X146823810Y-72281008D01*
X146823810Y-72804818D02*
X146823810Y-71804818D01*
X146823810Y-71804818D02*
X147300000Y-71804818D01*
D12*
X136716666Y-74127149D02*
X136478571Y-74127149D01*
X136478571Y-74127149D02*
X136478571Y-73627149D01*
X137145238Y-74127149D02*
X136859524Y-74127149D01*
X137002381Y-74127149D02*
X137002381Y-73627149D01*
X137002381Y-73627149D02*
X136954762Y-73698578D01*
X136954762Y-73698578D02*
X136907143Y-73746197D01*
X136907143Y-73746197D02*
X136859524Y-73770006D01*
D10*
X131946753Y-78075750D02*
X131374333Y-78648170D01*
X131374333Y-78648170D02*
X131340661Y-78749185D01*
X131340661Y-78749185D02*
X131340661Y-78816529D01*
X131340661Y-78816529D02*
X131374333Y-78917544D01*
X131374333Y-78917544D02*
X131509020Y-79052231D01*
X131509020Y-79052231D02*
X131610035Y-79085903D01*
X131610035Y-79085903D02*
X131677379Y-79085903D01*
X131677379Y-79085903D02*
X131778394Y-79052231D01*
X131778394Y-79052231D02*
X132350814Y-78479811D01*
X132586516Y-78850201D02*
X132653859Y-78850201D01*
X132653859Y-78850201D02*
X132754875Y-78883872D01*
X132754875Y-78883872D02*
X132923233Y-79052231D01*
X132923233Y-79052231D02*
X132956905Y-79153246D01*
X132956905Y-79153246D02*
X132956905Y-79220590D01*
X132956905Y-79220590D02*
X132923233Y-79321605D01*
X132923233Y-79321605D02*
X132855890Y-79388949D01*
X132855890Y-79388949D02*
X132721203Y-79456292D01*
X132721203Y-79456292D02*
X131913081Y-79456292D01*
X131913081Y-79456292D02*
X132350814Y-79894025D01*
D15*
X127210040Y-79383333D02*
X127543373Y-79383333D01*
X126843373Y-79616666D02*
X127210040Y-79383333D01*
X127210040Y-79383333D02*
X126843373Y-79149999D01*
X127543373Y-78549999D02*
X127543373Y-78949999D01*
X127543373Y-78749999D02*
X126843373Y-78749999D01*
X126843373Y-78749999D02*
X126943373Y-78816666D01*
X126943373Y-78816666D02*
X127010040Y-78883333D01*
X127010040Y-78883333D02*
X127043373Y-78949999D01*
D13*
X125168200Y-79118332D02*
X125044391Y-79204999D01*
X125168200Y-79266904D02*
X124908200Y-79266904D01*
X124908200Y-79266904D02*
X124908200Y-79167856D01*
X124908200Y-79167856D02*
X124920581Y-79143094D01*
X124920581Y-79143094D02*
X124932962Y-79130713D01*
X124932962Y-79130713D02*
X124957724Y-79118332D01*
X124957724Y-79118332D02*
X124994867Y-79118332D01*
X124994867Y-79118332D02*
X125019629Y-79130713D01*
X125019629Y-79130713D02*
X125032010Y-79143094D01*
X125032010Y-79143094D02*
X125044391Y-79167856D01*
X125044391Y-79167856D02*
X125044391Y-79266904D01*
X124932962Y-79019285D02*
X124920581Y-79006904D01*
X124920581Y-79006904D02*
X124908200Y-78982142D01*
X124908200Y-78982142D02*
X124908200Y-78920237D01*
X124908200Y-78920237D02*
X124920581Y-78895475D01*
X124920581Y-78895475D02*
X124932962Y-78883094D01*
X124932962Y-78883094D02*
X124957724Y-78870713D01*
X124957724Y-78870713D02*
X124982486Y-78870713D01*
X124982486Y-78870713D02*
X125019629Y-78883094D01*
X125019629Y-78883094D02*
X125168200Y-79031666D01*
X125168200Y-79031666D02*
X125168200Y-78870713D01*
X134498333Y-65098374D02*
X134415000Y-64979327D01*
X134355476Y-65098374D02*
X134355476Y-64848374D01*
X134355476Y-64848374D02*
X134450714Y-64848374D01*
X134450714Y-64848374D02*
X134474524Y-64860279D01*
X134474524Y-64860279D02*
X134486429Y-64872184D01*
X134486429Y-64872184D02*
X134498333Y-64895993D01*
X134498333Y-64895993D02*
X134498333Y-64931708D01*
X134498333Y-64931708D02*
X134486429Y-64955517D01*
X134486429Y-64955517D02*
X134474524Y-64967422D01*
X134474524Y-64967422D02*
X134450714Y-64979327D01*
X134450714Y-64979327D02*
X134355476Y-64979327D01*
X134736429Y-65098374D02*
X134593572Y-65098374D01*
X134665000Y-65098374D02*
X134665000Y-64848374D01*
X134665000Y-64848374D02*
X134641191Y-64884089D01*
X134641191Y-64884089D02*
X134617381Y-64907898D01*
X134617381Y-64907898D02*
X134593572Y-64919803D01*
D10*
X125480952Y-83354819D02*
X125480952Y-82354819D01*
X125480952Y-82354819D02*
X125814285Y-83069104D01*
X125814285Y-83069104D02*
X126147618Y-82354819D01*
X126147618Y-82354819D02*
X126147618Y-83354819D01*
X126480952Y-82354819D02*
X127052380Y-82354819D01*
X126766666Y-83354819D02*
X126766666Y-82354819D01*
X127290476Y-82354819D02*
X127909523Y-82354819D01*
X127909523Y-82354819D02*
X127576190Y-82735771D01*
X127576190Y-82735771D02*
X127719047Y-82735771D01*
X127719047Y-82735771D02*
X127814285Y-82783390D01*
X127814285Y-82783390D02*
X127861904Y-82831009D01*
X127861904Y-82831009D02*
X127909523Y-82926247D01*
X127909523Y-82926247D02*
X127909523Y-83164342D01*
X127909523Y-83164342D02*
X127861904Y-83259580D01*
X127861904Y-83259580D02*
X127814285Y-83307200D01*
X127814285Y-83307200D02*
X127719047Y-83354819D01*
X127719047Y-83354819D02*
X127433333Y-83354819D01*
X127433333Y-83354819D02*
X127338095Y-83307200D01*
X127338095Y-83307200D02*
X127290476Y-83259580D01*
X128766666Y-82688152D02*
X128766666Y-83354819D01*
X128528571Y-82307200D02*
X128290476Y-83021485D01*
X128290476Y-83021485D02*
X128909523Y-83021485D01*
X129480952Y-82354819D02*
X129576190Y-82354819D01*
X129576190Y-82354819D02*
X129671428Y-82402438D01*
X129671428Y-82402438D02*
X129719047Y-82450057D01*
X129719047Y-82450057D02*
X129766666Y-82545295D01*
X129766666Y-82545295D02*
X129814285Y-82735771D01*
X129814285Y-82735771D02*
X129814285Y-82973866D01*
X129814285Y-82973866D02*
X129766666Y-83164342D01*
X129766666Y-83164342D02*
X129719047Y-83259580D01*
X129719047Y-83259580D02*
X129671428Y-83307200D01*
X129671428Y-83307200D02*
X129576190Y-83354819D01*
X129576190Y-83354819D02*
X129480952Y-83354819D01*
X129480952Y-83354819D02*
X129385714Y-83307200D01*
X129385714Y-83307200D02*
X129338095Y-83259580D01*
X129338095Y-83259580D02*
X129290476Y-83164342D01*
X129290476Y-83164342D02*
X129242857Y-82973866D01*
X129242857Y-82973866D02*
X129242857Y-82735771D01*
X129242857Y-82735771D02*
X129290476Y-82545295D01*
X129290476Y-82545295D02*
X129338095Y-82450057D01*
X129338095Y-82450057D02*
X129385714Y-82402438D01*
X129385714Y-82402438D02*
X129480952Y-82354819D01*
X130671428Y-82354819D02*
X130480952Y-82354819D01*
X130480952Y-82354819D02*
X130385714Y-82402438D01*
X130385714Y-82402438D02*
X130338095Y-82450057D01*
X130338095Y-82450057D02*
X130242857Y-82592914D01*
X130242857Y-82592914D02*
X130195238Y-82783390D01*
X130195238Y-82783390D02*
X130195238Y-83164342D01*
X130195238Y-83164342D02*
X130242857Y-83259580D01*
X130242857Y-83259580D02*
X130290476Y-83307200D01*
X130290476Y-83307200D02*
X130385714Y-83354819D01*
X130385714Y-83354819D02*
X130576190Y-83354819D01*
X130576190Y-83354819D02*
X130671428Y-83307200D01*
X130671428Y-83307200D02*
X130719047Y-83259580D01*
X130719047Y-83259580D02*
X130766666Y-83164342D01*
X130766666Y-83164342D02*
X130766666Y-82926247D01*
X130766666Y-82926247D02*
X130719047Y-82831009D01*
X130719047Y-82831009D02*
X130671428Y-82783390D01*
X130671428Y-82783390D02*
X130576190Y-82735771D01*
X130576190Y-82735771D02*
X130385714Y-82735771D01*
X130385714Y-82735771D02*
X130290476Y-82783390D01*
X130290476Y-82783390D02*
X130242857Y-82831009D01*
X130242857Y-82831009D02*
X130195238Y-82926247D01*
D11*
X127795238Y-85081927D02*
X127795238Y-85405737D01*
X127795238Y-85405737D02*
X127814285Y-85443832D01*
X127814285Y-85443832D02*
X127833333Y-85462880D01*
X127833333Y-85462880D02*
X127871428Y-85481927D01*
X127871428Y-85481927D02*
X127947619Y-85481927D01*
X127947619Y-85481927D02*
X127985714Y-85462880D01*
X127985714Y-85462880D02*
X128004761Y-85443832D01*
X128004761Y-85443832D02*
X128023809Y-85405737D01*
X128023809Y-85405737D02*
X128023809Y-85081927D01*
X128385714Y-85215260D02*
X128385714Y-85481927D01*
X128290476Y-85062880D02*
X128195238Y-85348594D01*
X128195238Y-85348594D02*
X128442857Y-85348594D01*
D10*
X125038095Y-98954819D02*
X125038095Y-97954819D01*
X125038095Y-98431009D02*
X125609523Y-98431009D01*
X125609523Y-98954819D02*
X125609523Y-97954819D01*
X125990476Y-97954819D02*
X126609523Y-97954819D01*
X126609523Y-97954819D02*
X126276190Y-98335771D01*
X126276190Y-98335771D02*
X126419047Y-98335771D01*
X126419047Y-98335771D02*
X126514285Y-98383390D01*
X126514285Y-98383390D02*
X126561904Y-98431009D01*
X126561904Y-98431009D02*
X126609523Y-98526247D01*
X126609523Y-98526247D02*
X126609523Y-98764342D01*
X126609523Y-98764342D02*
X126561904Y-98859580D01*
X126561904Y-98859580D02*
X126514285Y-98907200D01*
X126514285Y-98907200D02*
X126419047Y-98954819D01*
X126419047Y-98954819D02*
X126133333Y-98954819D01*
X126133333Y-98954819D02*
X126038095Y-98907200D01*
X126038095Y-98907200D02*
X125990476Y-98859580D01*
D13*
X133558333Y-69213574D02*
X133475000Y-69094527D01*
X133415476Y-69213574D02*
X133415476Y-68963574D01*
X133415476Y-68963574D02*
X133510714Y-68963574D01*
X133510714Y-68963574D02*
X133534524Y-68975479D01*
X133534524Y-68975479D02*
X133546429Y-68987384D01*
X133546429Y-68987384D02*
X133558333Y-69011193D01*
X133558333Y-69011193D02*
X133558333Y-69046908D01*
X133558333Y-69046908D02*
X133546429Y-69070717D01*
X133546429Y-69070717D02*
X133534524Y-69082622D01*
X133534524Y-69082622D02*
X133510714Y-69094527D01*
X133510714Y-69094527D02*
X133415476Y-69094527D01*
X133772619Y-68963574D02*
X133725000Y-68963574D01*
X133725000Y-68963574D02*
X133701191Y-68975479D01*
X133701191Y-68975479D02*
X133689286Y-68987384D01*
X133689286Y-68987384D02*
X133665476Y-69023098D01*
X133665476Y-69023098D02*
X133653572Y-69070717D01*
X133653572Y-69070717D02*
X133653572Y-69165955D01*
X133653572Y-69165955D02*
X133665476Y-69189765D01*
X133665476Y-69189765D02*
X133677381Y-69201670D01*
X133677381Y-69201670D02*
X133701191Y-69213574D01*
X133701191Y-69213574D02*
X133748810Y-69213574D01*
X133748810Y-69213574D02*
X133772619Y-69201670D01*
X133772619Y-69201670D02*
X133784524Y-69189765D01*
X133784524Y-69189765D02*
X133796429Y-69165955D01*
X133796429Y-69165955D02*
X133796429Y-69106431D01*
X133796429Y-69106431D02*
X133784524Y-69082622D01*
X133784524Y-69082622D02*
X133772619Y-69070717D01*
X133772619Y-69070717D02*
X133748810Y-69058812D01*
X133748810Y-69058812D02*
X133701191Y-69058812D01*
X133701191Y-69058812D02*
X133677381Y-69070717D01*
X133677381Y-69070717D02*
X133665476Y-69082622D01*
X133665476Y-69082622D02*
X133653572Y-69106431D01*
X133084011Y-75892935D02*
X133084011Y-75909771D01*
X133084011Y-75909771D02*
X133067175Y-75943443D01*
X133067175Y-75943443D02*
X133050339Y-75960279D01*
X133050339Y-75960279D02*
X133016667Y-75977115D01*
X133016667Y-75977115D02*
X132982996Y-75977115D01*
X132982996Y-75977115D02*
X132957742Y-75968697D01*
X132957742Y-75968697D02*
X132915652Y-75943443D01*
X132915652Y-75943443D02*
X132890398Y-75918189D01*
X132890398Y-75918189D02*
X132865144Y-75876100D01*
X132865144Y-75876100D02*
X132856726Y-75850846D01*
X132856726Y-75850846D02*
X132856726Y-75817174D01*
X132856726Y-75817174D02*
X132873562Y-75783502D01*
X132873562Y-75783502D02*
X132890398Y-75766666D01*
X132890398Y-75766666D02*
X132924070Y-75749831D01*
X132924070Y-75749831D02*
X132940906Y-75749831D01*
X133100847Y-75707741D02*
X133075593Y-75716159D01*
X133075593Y-75716159D02*
X133058757Y-75716159D01*
X133058757Y-75716159D02*
X133033503Y-75707741D01*
X133033503Y-75707741D02*
X133025085Y-75699323D01*
X133025085Y-75699323D02*
X133016667Y-75674069D01*
X133016667Y-75674069D02*
X133016667Y-75657233D01*
X133016667Y-75657233D02*
X133025085Y-75631979D01*
X133025085Y-75631979D02*
X133058757Y-75598308D01*
X133058757Y-75598308D02*
X133084011Y-75589890D01*
X133084011Y-75589890D02*
X133100847Y-75589890D01*
X133100847Y-75589890D02*
X133126100Y-75598308D01*
X133126100Y-75598308D02*
X133134518Y-75606726D01*
X133134518Y-75606726D02*
X133142936Y-75631979D01*
X133142936Y-75631979D02*
X133142936Y-75648815D01*
X133142936Y-75648815D02*
X133134518Y-75674069D01*
X133134518Y-75674069D02*
X133100847Y-75707741D01*
X133100847Y-75707741D02*
X133092429Y-75732995D01*
X133092429Y-75732995D02*
X133092429Y-75749831D01*
X133092429Y-75749831D02*
X133100847Y-75775084D01*
X133100847Y-75775084D02*
X133134518Y-75808756D01*
X133134518Y-75808756D02*
X133159772Y-75817174D01*
X133159772Y-75817174D02*
X133176608Y-75817174D01*
X133176608Y-75817174D02*
X133201862Y-75808756D01*
X133201862Y-75808756D02*
X133235534Y-75775084D01*
X133235534Y-75775084D02*
X133243952Y-75749831D01*
X133243952Y-75749831D02*
X133243952Y-75732995D01*
X133243952Y-75732995D02*
X133235534Y-75707741D01*
X133235534Y-75707741D02*
X133201862Y-75674069D01*
X133201862Y-75674069D02*
X133176608Y-75665651D01*
X133176608Y-75665651D02*
X133159772Y-75665651D01*
X133159772Y-75665651D02*
X133134518Y-75674069D01*
D10*
X131969771Y-71567142D02*
X132455485Y-71567142D01*
X132455485Y-71567142D02*
X132512628Y-71538571D01*
X132512628Y-71538571D02*
X132541200Y-71510000D01*
X132541200Y-71510000D02*
X132569771Y-71452857D01*
X132569771Y-71452857D02*
X132569771Y-71338571D01*
X132569771Y-71338571D02*
X132541200Y-71281428D01*
X132541200Y-71281428D02*
X132512628Y-71252857D01*
X132512628Y-71252857D02*
X132455485Y-71224285D01*
X132455485Y-71224285D02*
X131969771Y-71224285D01*
X132569771Y-70624286D02*
X132569771Y-70967143D01*
X132569771Y-70795714D02*
X131969771Y-70795714D01*
X131969771Y-70795714D02*
X132055485Y-70852857D01*
X132055485Y-70852857D02*
X132112628Y-70910000D01*
X132112628Y-70910000D02*
X132141200Y-70967143D01*
X137438095Y-98954819D02*
X137438095Y-97954819D01*
X137438095Y-98431009D02*
X138009523Y-98431009D01*
X138009523Y-98954819D02*
X138009523Y-97954819D01*
X138914285Y-98288152D02*
X138914285Y-98954819D01*
X138676190Y-97907200D02*
X138438095Y-98621485D01*
X138438095Y-98621485D02*
X139057142Y-98621485D01*
X139104820Y-73619047D02*
X138104820Y-73619047D01*
X138104820Y-73619047D02*
X138819105Y-73285714D01*
X138819105Y-73285714D02*
X138104820Y-72952381D01*
X138104820Y-72952381D02*
X139104820Y-72952381D01*
X138104820Y-72619047D02*
X138104820Y-72047619D01*
X139104820Y-72333333D02*
X138104820Y-72333333D01*
X138104820Y-71809523D02*
X138104820Y-71190476D01*
X138104820Y-71190476D02*
X138485772Y-71523809D01*
X138485772Y-71523809D02*
X138485772Y-71380952D01*
X138485772Y-71380952D02*
X138533391Y-71285714D01*
X138533391Y-71285714D02*
X138581010Y-71238095D01*
X138581010Y-71238095D02*
X138676248Y-71190476D01*
X138676248Y-71190476D02*
X138914343Y-71190476D01*
X138914343Y-71190476D02*
X139009581Y-71238095D01*
X139009581Y-71238095D02*
X139057201Y-71285714D01*
X139057201Y-71285714D02*
X139104820Y-71380952D01*
X139104820Y-71380952D02*
X139104820Y-71666666D01*
X139104820Y-71666666D02*
X139057201Y-71761904D01*
X139057201Y-71761904D02*
X139009581Y-71809523D01*
X138438153Y-70333333D02*
X139104820Y-70333333D01*
X138057201Y-70571428D02*
X138771486Y-70809523D01*
X138771486Y-70809523D02*
X138771486Y-70190476D01*
X138104820Y-69619047D02*
X138104820Y-69523809D01*
X138104820Y-69523809D02*
X138152439Y-69428571D01*
X138152439Y-69428571D02*
X138200058Y-69380952D01*
X138200058Y-69380952D02*
X138295296Y-69333333D01*
X138295296Y-69333333D02*
X138485772Y-69285714D01*
X138485772Y-69285714D02*
X138723867Y-69285714D01*
X138723867Y-69285714D02*
X138914343Y-69333333D01*
X138914343Y-69333333D02*
X139009581Y-69380952D01*
X139009581Y-69380952D02*
X139057201Y-69428571D01*
X139057201Y-69428571D02*
X139104820Y-69523809D01*
X139104820Y-69523809D02*
X139104820Y-69619047D01*
X139104820Y-69619047D02*
X139057201Y-69714285D01*
X139057201Y-69714285D02*
X139009581Y-69761904D01*
X139009581Y-69761904D02*
X138914343Y-69809523D01*
X138914343Y-69809523D02*
X138723867Y-69857142D01*
X138723867Y-69857142D02*
X138485772Y-69857142D01*
X138485772Y-69857142D02*
X138295296Y-69809523D01*
X138295296Y-69809523D02*
X138200058Y-69761904D01*
X138200058Y-69761904D02*
X138152439Y-69714285D01*
X138152439Y-69714285D02*
X138104820Y-69619047D01*
X138104820Y-68428571D02*
X138104820Y-68619047D01*
X138104820Y-68619047D02*
X138152439Y-68714285D01*
X138152439Y-68714285D02*
X138200058Y-68761904D01*
X138200058Y-68761904D02*
X138342915Y-68857142D01*
X138342915Y-68857142D02*
X138533391Y-68904761D01*
X138533391Y-68904761D02*
X138914343Y-68904761D01*
X138914343Y-68904761D02*
X139009581Y-68857142D01*
X139009581Y-68857142D02*
X139057201Y-68809523D01*
X139057201Y-68809523D02*
X139104820Y-68714285D01*
X139104820Y-68714285D02*
X139104820Y-68523809D01*
X139104820Y-68523809D02*
X139057201Y-68428571D01*
X139057201Y-68428571D02*
X139009581Y-68380952D01*
X139009581Y-68380952D02*
X138914343Y-68333333D01*
X138914343Y-68333333D02*
X138676248Y-68333333D01*
X138676248Y-68333333D02*
X138581010Y-68380952D01*
X138581010Y-68380952D02*
X138533391Y-68428571D01*
X138533391Y-68428571D02*
X138485772Y-68523809D01*
X138485772Y-68523809D02*
X138485772Y-68714285D01*
X138485772Y-68714285D02*
X138533391Y-68809523D01*
X138533391Y-68809523D02*
X138581010Y-68857142D01*
X138581010Y-68857142D02*
X138676248Y-68904761D01*
D11*
X136031928Y-71304761D02*
X136355738Y-71304761D01*
X136355738Y-71304761D02*
X136393833Y-71285714D01*
X136393833Y-71285714D02*
X136412881Y-71266666D01*
X136412881Y-71266666D02*
X136431928Y-71228571D01*
X136431928Y-71228571D02*
X136431928Y-71152380D01*
X136431928Y-71152380D02*
X136412881Y-71114285D01*
X136412881Y-71114285D02*
X136393833Y-71095238D01*
X136393833Y-71095238D02*
X136355738Y-71076190D01*
X136355738Y-71076190D02*
X136031928Y-71076190D01*
X136031928Y-70923809D02*
X136031928Y-70676190D01*
X136031928Y-70676190D02*
X136184309Y-70809523D01*
X136184309Y-70809523D02*
X136184309Y-70752380D01*
X136184309Y-70752380D02*
X136203357Y-70714285D01*
X136203357Y-70714285D02*
X136222404Y-70695237D01*
X136222404Y-70695237D02*
X136260500Y-70676190D01*
X136260500Y-70676190D02*
X136355738Y-70676190D01*
X136355738Y-70676190D02*
X136393833Y-70695237D01*
X136393833Y-70695237D02*
X136412881Y-70714285D01*
X136412881Y-70714285D02*
X136431928Y-70752380D01*
X136431928Y-70752380D02*
X136431928Y-70866666D01*
X136431928Y-70866666D02*
X136412881Y-70904761D01*
X136412881Y-70904761D02*
X136393833Y-70923809D01*
X138843832Y-70657142D02*
X138862880Y-70676190D01*
X138862880Y-70676190D02*
X138881927Y-70733332D01*
X138881927Y-70733332D02*
X138881927Y-70771428D01*
X138881927Y-70771428D02*
X138862880Y-70828571D01*
X138862880Y-70828571D02*
X138824784Y-70866666D01*
X138824784Y-70866666D02*
X138786689Y-70885713D01*
X138786689Y-70885713D02*
X138710499Y-70904761D01*
X138710499Y-70904761D02*
X138653356Y-70904761D01*
X138653356Y-70904761D02*
X138577165Y-70885713D01*
X138577165Y-70885713D02*
X138539070Y-70866666D01*
X138539070Y-70866666D02*
X138500975Y-70828571D01*
X138500975Y-70828571D02*
X138481927Y-70771428D01*
X138481927Y-70771428D02*
X138481927Y-70733332D01*
X138481927Y-70733332D02*
X138500975Y-70676190D01*
X138500975Y-70676190D02*
X138520022Y-70657142D01*
X138881927Y-70276190D02*
X138881927Y-70504761D01*
X138881927Y-70390475D02*
X138481927Y-70390475D01*
X138481927Y-70390475D02*
X138539070Y-70428571D01*
X138539070Y-70428571D02*
X138577165Y-70466666D01*
X138577165Y-70466666D02*
X138596213Y-70504761D01*
X138881927Y-69895238D02*
X138881927Y-70123809D01*
X138881927Y-70009523D02*
X138481927Y-70009523D01*
X138481927Y-70009523D02*
X138539070Y-70047619D01*
X138539070Y-70047619D02*
X138577165Y-70085714D01*
X138577165Y-70085714D02*
X138596213Y-70123809D01*
D10*
X124324819Y-90442857D02*
X124324819Y-91014285D01*
X124324819Y-90728571D02*
X123324819Y-90728571D01*
X123324819Y-90728571D02*
X123467676Y-90823809D01*
X123467676Y-90823809D02*
X123562914Y-90919047D01*
X123562914Y-90919047D02*
X123610533Y-91014285D01*
X123324819Y-89823809D02*
X123324819Y-89728571D01*
X123324819Y-89728571D02*
X123372438Y-89633333D01*
X123372438Y-89633333D02*
X123420057Y-89585714D01*
X123420057Y-89585714D02*
X123515295Y-89538095D01*
X123515295Y-89538095D02*
X123705771Y-89490476D01*
X123705771Y-89490476D02*
X123943866Y-89490476D01*
X123943866Y-89490476D02*
X124134342Y-89538095D01*
X124134342Y-89538095D02*
X124229580Y-89585714D01*
X124229580Y-89585714D02*
X124277200Y-89633333D01*
X124277200Y-89633333D02*
X124324819Y-89728571D01*
X124324819Y-89728571D02*
X124324819Y-89823809D01*
X124324819Y-89823809D02*
X124277200Y-89919047D01*
X124277200Y-89919047D02*
X124229580Y-89966666D01*
X124229580Y-89966666D02*
X124134342Y-90014285D01*
X124134342Y-90014285D02*
X123943866Y-90061904D01*
X123943866Y-90061904D02*
X123705771Y-90061904D01*
X123705771Y-90061904D02*
X123515295Y-90014285D01*
X123515295Y-90014285D02*
X123420057Y-89966666D01*
X123420057Y-89966666D02*
X123372438Y-89919047D01*
X123372438Y-89919047D02*
X123324819Y-89823809D01*
X123658152Y-88633333D02*
X124324819Y-88633333D01*
X123658152Y-89061904D02*
X124181961Y-89061904D01*
X124181961Y-89061904D02*
X124277200Y-89014285D01*
X124277200Y-89014285D02*
X124324819Y-88919047D01*
X124324819Y-88919047D02*
X124324819Y-88776190D01*
X124324819Y-88776190D02*
X124277200Y-88680952D01*
X124277200Y-88680952D02*
X124229580Y-88633333D01*
X123801009Y-87823809D02*
X123801009Y-88157142D01*
X124324819Y-88157142D02*
X123324819Y-88157142D01*
X123324819Y-88157142D02*
X123324819Y-87680952D01*
X124277200Y-87252380D02*
X124324819Y-87252380D01*
X124324819Y-87252380D02*
X124420057Y-87299999D01*
X124420057Y-87299999D02*
X124467676Y-87347618D01*
X123420057Y-86109523D02*
X123372438Y-86061904D01*
X123372438Y-86061904D02*
X123324819Y-85966666D01*
X123324819Y-85966666D02*
X123324819Y-85728571D01*
X123324819Y-85728571D02*
X123372438Y-85633333D01*
X123372438Y-85633333D02*
X123420057Y-85585714D01*
X123420057Y-85585714D02*
X123515295Y-85538095D01*
X123515295Y-85538095D02*
X123610533Y-85538095D01*
X123610533Y-85538095D02*
X123753390Y-85585714D01*
X123753390Y-85585714D02*
X124324819Y-86157142D01*
X124324819Y-86157142D02*
X124324819Y-85538095D01*
X123324819Y-84633333D02*
X123324819Y-85109523D01*
X123324819Y-85109523D02*
X123801009Y-85157142D01*
X123801009Y-85157142D02*
X123753390Y-85109523D01*
X123753390Y-85109523D02*
X123705771Y-85014285D01*
X123705771Y-85014285D02*
X123705771Y-84776190D01*
X123705771Y-84776190D02*
X123753390Y-84680952D01*
X123753390Y-84680952D02*
X123801009Y-84633333D01*
X123801009Y-84633333D02*
X123896247Y-84585714D01*
X123896247Y-84585714D02*
X124134342Y-84585714D01*
X124134342Y-84585714D02*
X124229580Y-84633333D01*
X124229580Y-84633333D02*
X124277200Y-84680952D01*
X124277200Y-84680952D02*
X124324819Y-84776190D01*
X124324819Y-84776190D02*
X124324819Y-85014285D01*
X124324819Y-85014285D02*
X124277200Y-85109523D01*
X124277200Y-85109523D02*
X124229580Y-85157142D01*
X123324819Y-84299999D02*
X124324819Y-83966666D01*
X124324819Y-83966666D02*
X123324819Y-83633333D01*
X124277200Y-83252380D02*
X124324819Y-83252380D01*
X124324819Y-83252380D02*
X124420057Y-83299999D01*
X124420057Y-83299999D02*
X124467676Y-83347618D01*
X123324819Y-82157142D02*
X124324819Y-81490476D01*
X123324819Y-81490476D02*
X124324819Y-82157142D01*
X123324819Y-80633333D02*
X123324819Y-81109523D01*
X123324819Y-81109523D02*
X123801009Y-81157142D01*
X123801009Y-81157142D02*
X123753390Y-81109523D01*
X123753390Y-81109523D02*
X123705771Y-81014285D01*
X123705771Y-81014285D02*
X123705771Y-80776190D01*
X123705771Y-80776190D02*
X123753390Y-80680952D01*
X123753390Y-80680952D02*
X123801009Y-80633333D01*
X123801009Y-80633333D02*
X123896247Y-80585714D01*
X123896247Y-80585714D02*
X124134342Y-80585714D01*
X124134342Y-80585714D02*
X124229580Y-80633333D01*
X124229580Y-80633333D02*
X124277200Y-80680952D01*
X124277200Y-80680952D02*
X124324819Y-80776190D01*
X124324819Y-80776190D02*
X124324819Y-81014285D01*
X124324819Y-81014285D02*
X124277200Y-81109523D01*
X124277200Y-81109523D02*
X124229580Y-81157142D01*
X124324819Y-79585714D02*
X123848628Y-79919047D01*
X124324819Y-80157142D02*
X123324819Y-80157142D01*
X123324819Y-80157142D02*
X123324819Y-79776190D01*
X123324819Y-79776190D02*
X123372438Y-79680952D01*
X123372438Y-79680952D02*
X123420057Y-79633333D01*
X123420057Y-79633333D02*
X123515295Y-79585714D01*
X123515295Y-79585714D02*
X123658152Y-79585714D01*
X123658152Y-79585714D02*
X123753390Y-79633333D01*
X123753390Y-79633333D02*
X123801009Y-79680952D01*
X123801009Y-79680952D02*
X123848628Y-79776190D01*
X123848628Y-79776190D02*
X123848628Y-80157142D01*
D11*
X125443832Y-85557142D02*
X125462880Y-85576190D01*
X125462880Y-85576190D02*
X125481927Y-85633332D01*
X125481927Y-85633332D02*
X125481927Y-85671428D01*
X125481927Y-85671428D02*
X125462880Y-85728571D01*
X125462880Y-85728571D02*
X125424784Y-85766666D01*
X125424784Y-85766666D02*
X125386689Y-85785713D01*
X125386689Y-85785713D02*
X125310499Y-85804761D01*
X125310499Y-85804761D02*
X125253356Y-85804761D01*
X125253356Y-85804761D02*
X125177165Y-85785713D01*
X125177165Y-85785713D02*
X125139070Y-85766666D01*
X125139070Y-85766666D02*
X125100975Y-85728571D01*
X125100975Y-85728571D02*
X125081927Y-85671428D01*
X125081927Y-85671428D02*
X125081927Y-85633332D01*
X125081927Y-85633332D02*
X125100975Y-85576190D01*
X125100975Y-85576190D02*
X125120022Y-85557142D01*
X125481927Y-85176190D02*
X125481927Y-85404761D01*
X125481927Y-85290475D02*
X125081927Y-85290475D01*
X125081927Y-85290475D02*
X125139070Y-85328571D01*
X125139070Y-85328571D02*
X125177165Y-85366666D01*
X125177165Y-85366666D02*
X125196213Y-85404761D01*
X125081927Y-84814285D02*
X125081927Y-85004761D01*
X125081927Y-85004761D02*
X125272403Y-85023809D01*
X125272403Y-85023809D02*
X125253356Y-85004761D01*
X125253356Y-85004761D02*
X125234308Y-84966666D01*
X125234308Y-84966666D02*
X125234308Y-84871428D01*
X125234308Y-84871428D02*
X125253356Y-84833333D01*
X125253356Y-84833333D02*
X125272403Y-84814285D01*
X125272403Y-84814285D02*
X125310499Y-84795238D01*
X125310499Y-84795238D02*
X125405737Y-84795238D01*
X125405737Y-84795238D02*
X125443832Y-84814285D01*
X125443832Y-84814285D02*
X125462880Y-84833333D01*
X125462880Y-84833333D02*
X125481927Y-84871428D01*
X125481927Y-84871428D02*
X125481927Y-84966666D01*
X125481927Y-84966666D02*
X125462880Y-85004761D01*
X125462880Y-85004761D02*
X125443832Y-85023809D01*
%TO.C,C17*%
D16*
X130012400Y-61454600D02*
X129212400Y-61454600D01*
X129212400Y-63054600D01*
X130012400Y-63054600D01*
X130012400Y-61454600D01*
%TO.C,L2*%
X130550000Y-84900000D02*
X131450000Y-84900000D01*
X130550000Y-86900000D02*
X130550000Y-84900000D01*
X131450000Y-84900000D02*
X131450000Y-86900000D01*
X131450000Y-86900000D02*
X130550000Y-86900000D01*
%TO.C,C5*%
X133256802Y-76431066D02*
X133681066Y-76006802D01*
X133468934Y-76643198D02*
X133256802Y-76431066D01*
X133681066Y-76006802D02*
X133893198Y-76218934D01*
X133893198Y-76218934D02*
X133468934Y-76643198D01*
%TO.C,C10*%
X130981802Y-82681066D02*
X131406066Y-82256802D01*
X131193934Y-82893198D02*
X130981802Y-82681066D01*
X131406066Y-82256802D02*
X131618198Y-82468934D01*
X131618198Y-82468934D02*
X131193934Y-82893198D01*
%TO.C,R3*%
X138000000Y-68350000D02*
X138600000Y-68350000D01*
X138000000Y-68650000D02*
X138000000Y-68350000D01*
X138600000Y-68350000D02*
X138600000Y-68650000D01*
X138600000Y-68650000D02*
X138000000Y-68650000D01*
%TO.C,C13*%
X133950000Y-71420000D02*
X134250000Y-71420000D01*
X133950000Y-72020000D02*
X133950000Y-71420000D01*
X134250000Y-71420000D02*
X134250000Y-72020000D01*
X134250000Y-72020000D02*
X133950000Y-72020000D01*
%TO.C,C1*%
X126625000Y-76450000D02*
X127225000Y-76450000D01*
X126625000Y-76750000D02*
X126625000Y-76450000D01*
X127225000Y-76450000D02*
X127225000Y-76750000D01*
X127225000Y-76750000D02*
X126625000Y-76750000D01*
%TO.C,R7*%
X125900000Y-87950000D02*
X126500000Y-87950000D01*
X125900000Y-88250000D02*
X125900000Y-87950000D01*
X126500000Y-87950000D02*
X126500000Y-88250000D01*
X126500000Y-88250000D02*
X125900000Y-88250000D01*
%TO.C,J1*%
X125619400Y-56070000D02*
X125619400Y-37270000D01*
X127644400Y-55420000D02*
X128594400Y-55420000D01*
X127894400Y-58570000D02*
X127894400Y-56070000D01*
X128144400Y-55920000D02*
X127644400Y-55420000D01*
X128144400Y-55920000D02*
X128644400Y-55420000D01*
X128394400Y-58570000D02*
X127894400Y-58570000D01*
X128394400Y-58570000D02*
X128394400Y-56070000D01*
X130394400Y-58570000D02*
X130394400Y-56070000D01*
X130894400Y-58570000D02*
X130394400Y-58570000D01*
X130894400Y-58570000D02*
X130894400Y-56070000D01*
X132394400Y-58570000D02*
X132394400Y-56070000D01*
X132894400Y-58570000D02*
X132394400Y-58570000D01*
X132894400Y-58570000D02*
X132894400Y-56070000D01*
X134894400Y-58570000D02*
X134894400Y-56070000D01*
X135394400Y-58570000D02*
X134894400Y-58570000D01*
X135394400Y-58570000D02*
X135394400Y-56070000D01*
X137669400Y-37270000D02*
X125619400Y-37270000D01*
X137669400Y-56070000D02*
X125619400Y-56070000D01*
X137669400Y-56070000D02*
X137669400Y-37270000D01*
X129844400Y-55070000D02*
G75*
G02*
X128844400Y-55070000I-500000J0D01*
G01*
X128844400Y-55070000D02*
G75*
G02*
X129844400Y-55070000I500000J0D01*
G01*
X134444400Y-55070000D02*
G75*
G02*
X133444400Y-55070000I-500000J0D01*
G01*
X133444400Y-55070000D02*
G75*
G02*
X134444400Y-55070000I500000J0D01*
G01*
%TO.C,C9*%
X126850000Y-81350000D02*
X127450000Y-81350000D01*
X126850000Y-81650000D02*
X126850000Y-81350000D01*
X127450000Y-81350000D02*
X127450000Y-81650000D01*
X127450000Y-81650000D02*
X126850000Y-81650000D01*
%TO.C,R5*%
X133950000Y-70000000D02*
X134250000Y-70000000D01*
X133950000Y-70600000D02*
X133950000Y-70000000D01*
X134250000Y-70000000D02*
X134250000Y-70600000D01*
X134250000Y-70600000D02*
X133950000Y-70600000D01*
%TO.C,C4*%
X134506802Y-77581066D02*
X134931066Y-77156802D01*
X134718934Y-77793198D02*
X134506802Y-77581066D01*
X134931066Y-77156802D02*
X135143198Y-77368934D01*
X135143198Y-77368934D02*
X134718934Y-77793198D01*
%TO.C,R4*%
X136550000Y-84600000D02*
X136850000Y-84600000D01*
X136550000Y-85200000D02*
X136550000Y-84600000D01*
X136850000Y-84600000D02*
X136850000Y-85200000D01*
X136850000Y-85200000D02*
X136550000Y-85200000D01*
%TO.C,C6*%
X129981802Y-81406066D02*
X130406066Y-80981802D01*
X130193934Y-81618198D02*
X129981802Y-81406066D01*
X130406066Y-80981802D02*
X130618198Y-81193934D01*
X130618198Y-81193934D02*
X130193934Y-81618198D01*
%TO.C,R8*%
X125900000Y-87250000D02*
X126500000Y-87250000D01*
X125900000Y-87550000D02*
X125900000Y-87250000D01*
X126500000Y-87250000D02*
X126500000Y-87550000D01*
X126500000Y-87550000D02*
X125900000Y-87550000D01*
%TO.C,C14*%
X136000000Y-75100000D02*
X137600000Y-75100000D01*
X136000000Y-75900000D02*
X136000000Y-75100000D01*
X137600000Y-75100000D02*
X137600000Y-75900000D01*
X137600000Y-75900000D02*
X136000000Y-75900000D01*
%TO.C,C7*%
X131481802Y-83181066D02*
X131906066Y-82756802D01*
X131693934Y-83393198D02*
X131481802Y-83181066D01*
X131906066Y-82756802D02*
X132118198Y-82968934D01*
X132118198Y-82968934D02*
X131693934Y-83393198D01*
%TO.C,D1*%
X135050000Y-67300000D02*
X136850000Y-67300000D01*
X135050000Y-68700000D02*
X135050000Y-67300000D01*
X135750000Y-67650000D02*
X136250000Y-68000000D01*
X135750000Y-68000000D02*
X135500000Y-68000000D01*
X135750000Y-68350000D02*
X135750000Y-67650000D01*
X136250000Y-68000000D02*
X135750000Y-68350000D01*
X136250000Y-68000000D02*
X136450000Y-68000000D01*
X136250000Y-68350000D02*
X136250000Y-67650000D01*
X136850000Y-67300000D02*
X136850000Y-68700000D01*
X136850000Y-68700000D02*
X135050000Y-68700000D01*
%TO.C,C2*%
X129481802Y-80906066D02*
X129906066Y-80481802D01*
X129693934Y-81118198D02*
X129481802Y-80906066D01*
X129906066Y-80481802D02*
X130118198Y-80693934D01*
X130118198Y-80693934D02*
X129693934Y-81118198D01*
%TO.C,SW1*%
X125600000Y-69400000D02*
X126600000Y-68400000D01*
X125600000Y-69550000D02*
X125600000Y-69400000D01*
X125600000Y-72200000D02*
X125600000Y-72050000D01*
X125900000Y-67900000D02*
X126400000Y-67900000D01*
X125900000Y-73700000D02*
X126400000Y-73700000D01*
X126600000Y-68400000D02*
X126750000Y-68400000D01*
X126600000Y-73200000D02*
X125600000Y-72200000D01*
X126750000Y-73200000D02*
X126600000Y-73200000D01*
X129250000Y-68400000D02*
X129400000Y-68400000D01*
X129400000Y-68400000D02*
X130400000Y-69400000D01*
X129400000Y-73200000D02*
X129250000Y-73200000D01*
X130100000Y-67900000D02*
X129600000Y-67900000D01*
X130100000Y-73700000D02*
X129600000Y-73700000D01*
X130400000Y-69400000D02*
X130400000Y-69550000D01*
X130400000Y-72050000D02*
X130400000Y-72200000D01*
X130400000Y-72200000D02*
X129400000Y-73200000D01*
X129000000Y-70800000D02*
G75*
G02*
X127000000Y-70800000I-1000000J0D01*
G01*
X127000000Y-70800000D02*
G75*
G02*
X129000000Y-70800000I1000000J0D01*
G01*
X126400000Y-68600000D02*
X125900000Y-69100000D01*
X125900000Y-67550000D01*
X126400000Y-67550000D01*
X126400000Y-68600000D01*
X126400000Y-73000000D02*
X126400000Y-74050000D01*
X125900000Y-74050000D01*
X125900000Y-72500000D01*
X126400000Y-73000000D01*
X130100000Y-69100000D02*
X129600000Y-68600000D01*
X129600000Y-67550000D01*
X130100000Y-67550000D01*
X130100000Y-69100000D01*
X130100000Y-74050000D02*
X129600000Y-74050000D01*
X129600000Y-73000000D01*
X130100000Y-72500000D01*
X130100000Y-74050000D01*
X129850000Y-69950000D02*
X129850000Y-71650000D01*
X128850000Y-72650000D01*
X127150000Y-72650000D01*
X126150000Y-71650000D01*
X126150000Y-69950000D01*
X127150000Y-68950000D01*
X128850000Y-68950000D01*
X129850000Y-69950000D01*
X129250000Y-68825001D02*
X129575000Y-68825000D01*
X129975000Y-69225000D01*
X129974999Y-69550000D01*
X130550000Y-69550000D01*
X130550000Y-72050000D01*
X129974999Y-72050000D01*
X129975000Y-72375000D01*
X129575000Y-72775000D01*
X129250000Y-72774999D01*
X129250000Y-73350000D01*
X126750000Y-73350000D01*
X126750000Y-72774999D01*
X126425000Y-72775000D01*
X126025000Y-72375000D01*
X126025001Y-72050000D01*
X125450000Y-72050000D01*
X125450000Y-69550000D01*
X126025001Y-69550000D01*
X126025000Y-69225000D01*
X126425000Y-68825000D01*
X126750000Y-68825001D01*
X126750000Y-68250000D01*
X129250000Y-68250000D01*
X129250000Y-68825001D01*
%TO.C,C16*%
X127800000Y-87400000D02*
X129400000Y-87400000D01*
X127800000Y-88200000D02*
X127800000Y-87400000D01*
X129400000Y-87400000D02*
X129400000Y-88200000D01*
X129400000Y-88200000D02*
X127800000Y-88200000D01*
%TO.C,C12*%
X133750000Y-81600000D02*
X134050000Y-81600000D01*
X133750000Y-82200000D02*
X133750000Y-81600000D01*
X134050000Y-81600000D02*
X134050000Y-82200000D01*
X134050000Y-82200000D02*
X133750000Y-82200000D01*
%TO.C,C3*%
X130106802Y-76168934D02*
X130318934Y-75956802D01*
X130318934Y-75956802D02*
X130743198Y-76381066D01*
X130531066Y-76593198D02*
X130106802Y-76168934D01*
X130743198Y-76381066D02*
X130531066Y-76593198D01*
%TO.C,L1*%
X135800000Y-73450000D02*
X137800000Y-73450000D01*
X135800000Y-74350000D02*
X135800000Y-73450000D01*
X137800000Y-73450000D02*
X137800000Y-74350000D01*
X137800000Y-74350000D02*
X135800000Y-74350000D01*
%TO.C,U2*%
X129333798Y-78893934D02*
X132206066Y-81766202D01*
X131286827Y-76940905D02*
X129333798Y-78893934D01*
X132206066Y-81766202D02*
X134866202Y-79106066D01*
X132701041Y-76940905D02*
X131286827Y-76940905D01*
X134866202Y-79106066D02*
X132701041Y-76940905D01*
%TO.C,Y1*%
X125975000Y-77450000D02*
X125975000Y-80650000D01*
X125975000Y-80650000D02*
X128475000Y-80650000D01*
X126975000Y-77450000D02*
X125975000Y-78449999D01*
X128475000Y-77450000D02*
X125975000Y-77450000D01*
X128475000Y-80650000D02*
X128475000Y-77450000D01*
%TO.C,R2*%
X124780000Y-78550000D02*
X125320000Y-78550000D01*
X124780000Y-79600000D02*
X124780000Y-78550000D01*
X125320000Y-78550000D02*
X125320000Y-79600000D01*
X125320000Y-79600000D02*
X124780000Y-79600000D01*
%TO.C,R1*%
X134240000Y-64834800D02*
X134840000Y-64834800D01*
X134240000Y-65134800D02*
X134240000Y-64834800D01*
X134840000Y-64834800D02*
X134840000Y-65134800D01*
X134840000Y-65134800D02*
X134240000Y-65134800D01*
%TO.C,U4*%
X127300000Y-83850000D02*
X128900000Y-83850000D01*
X127300000Y-86750000D02*
X127300000Y-83850000D01*
X128500000Y-86750000D02*
X127300000Y-86750000D01*
X128900000Y-83850000D02*
X128900000Y-86350001D01*
X128900000Y-86350001D02*
X128500000Y-86750000D01*
%TO.C,R6*%
X133300000Y-68950000D02*
X133900000Y-68950000D01*
X133300000Y-69250000D02*
X133300000Y-68950000D01*
X133900000Y-68950000D02*
X133900000Y-69250000D01*
X133900000Y-69250000D02*
X133300000Y-69250000D01*
%TO.C,C8*%
X132731802Y-75906066D02*
X133156066Y-75481802D01*
X132943934Y-76118198D02*
X132731802Y-75906066D01*
X133156066Y-75481802D02*
X133368198Y-75693934D01*
X133368198Y-75693934D02*
X132943934Y-76118198D01*
D10*
%TO.C,U1*%
X131400000Y-70410000D02*
X131400000Y-71810000D01*
X131400000Y-71810000D02*
X133200000Y-71810000D01*
X132500000Y-70410000D02*
X131400000Y-70410000D01*
X133200000Y-71110000D02*
X132500000Y-70410000D01*
X133200000Y-71810000D02*
X133200000Y-71110000D01*
D16*
%TO.C,U3*%
X134800001Y-70200000D02*
X137700001Y-70200000D01*
X134800001Y-71400000D02*
X134800001Y-70200000D01*
X135200000Y-71800000D02*
X134800001Y-71400000D01*
X137700001Y-70200000D02*
X137700001Y-71800000D01*
X137700001Y-71800000D02*
X135200000Y-71800000D01*
%TO.C,C11*%
X138300000Y-69600000D02*
X139100000Y-69600000D01*
X138300000Y-71200000D02*
X138300000Y-69600000D01*
X139100000Y-69600000D02*
X139100000Y-71200000D01*
X139100000Y-71200000D02*
X138300000Y-71200000D01*
%TO.C,C15*%
X124900000Y-84500000D02*
X125700000Y-84500000D01*
X124900000Y-86100000D02*
X124900000Y-84500000D01*
X125700000Y-84500000D02*
X125700000Y-86100000D01*
X125700000Y-86100000D02*
X124900000Y-86100000D01*
%TD*%
M02*
