%TF.GenerationSoftware,KiCad,Pcbnew,9.0.9-9.0.9~ubuntu24.04.1*%
%TF.CreationDate,2026-06-25T15:10:37+02:00*%
%TF.ProjectId,dabao_v3c,64616261-6f5f-4763-9363-2e6b69636164,rev?*%
%TF.SameCoordinates,Original*%
%TF.FileFunction,Legend,Bot*%
%TF.FilePolarity,Positive*%
%FSLAX46Y46*%
G04 Gerber Fmt 4.6, Leading zero omitted, Abs format (unit mm)*
G04 Created by KiCad (PCBNEW 9.0.9-9.0.9~ubuntu24.04.1) date 2026-06-25 15:10:37*
%MOMM*%
%LPD*%
G01*
G04 APERTURE LIST*
%ADD10C,0.100000*%
%ADD11C,0.150000*%
%ADD12C,0.200000*%
%ADD13C,0.000000*%
G04 APERTURE END LIST*
D10*
X136191353Y-78472419D02*
X135572306Y-78472419D01*
X135572306Y-78472419D02*
X135905639Y-78853371D01*
X135905639Y-78853371D02*
X135762782Y-78853371D01*
X135762782Y-78853371D02*
X135667544Y-78900990D01*
X135667544Y-78900990D02*
X135619925Y-78948609D01*
X135619925Y-78948609D02*
X135572306Y-79043847D01*
X135572306Y-79043847D02*
X135572306Y-79281942D01*
X135572306Y-79281942D02*
X135619925Y-79377180D01*
X135619925Y-79377180D02*
X135667544Y-79424800D01*
X135667544Y-79424800D02*
X135762782Y-79472419D01*
X135762782Y-79472419D02*
X136048496Y-79472419D01*
X136048496Y-79472419D02*
X136143734Y-79424800D01*
X136143734Y-79424800D02*
X136191353Y-79377180D01*
X135143734Y-79377180D02*
X135096115Y-79424800D01*
X135096115Y-79424800D02*
X135143734Y-79472419D01*
X135143734Y-79472419D02*
X135191353Y-79424800D01*
X135191353Y-79424800D02*
X135143734Y-79377180D01*
X135143734Y-79377180D02*
X135143734Y-79472419D01*
X134762782Y-78472419D02*
X134143735Y-78472419D01*
X134143735Y-78472419D02*
X134477068Y-78853371D01*
X134477068Y-78853371D02*
X134334211Y-78853371D01*
X134334211Y-78853371D02*
X134238973Y-78900990D01*
X134238973Y-78900990D02*
X134191354Y-78948609D01*
X134191354Y-78948609D02*
X134143735Y-79043847D01*
X134143735Y-79043847D02*
X134143735Y-79281942D01*
X134143735Y-79281942D02*
X134191354Y-79377180D01*
X134191354Y-79377180D02*
X134238973Y-79424800D01*
X134238973Y-79424800D02*
X134334211Y-79472419D01*
X134334211Y-79472419D02*
X134619925Y-79472419D01*
X134619925Y-79472419D02*
X134715163Y-79424800D01*
X134715163Y-79424800D02*
X134762782Y-79377180D01*
X133858020Y-78472419D02*
X133524687Y-79472419D01*
X133524687Y-79472419D02*
X133191354Y-78472419D01*
D11*
X131428458Y-62388771D02*
X131428458Y-62874485D01*
X131428458Y-62874485D02*
X131399887Y-62931628D01*
X131399887Y-62931628D02*
X131371316Y-62960200D01*
X131371316Y-62960200D02*
X131314173Y-62988771D01*
X131314173Y-62988771D02*
X131199887Y-62988771D01*
X131199887Y-62988771D02*
X131142744Y-62960200D01*
X131142744Y-62960200D02*
X131114173Y-62931628D01*
X131114173Y-62931628D02*
X131085601Y-62874485D01*
X131085601Y-62874485D02*
X131085601Y-62388771D01*
X130799887Y-62760200D02*
X130342745Y-62760200D01*
X130571316Y-62988771D02*
X130571316Y-62531628D01*
X133428458Y-63378771D02*
X133428458Y-63864485D01*
X133428458Y-63864485D02*
X133399887Y-63921628D01*
X133399887Y-63921628D02*
X133371316Y-63950200D01*
X133371316Y-63950200D02*
X133314173Y-63978771D01*
X133314173Y-63978771D02*
X133199887Y-63978771D01*
X133199887Y-63978771D02*
X133142744Y-63950200D01*
X133142744Y-63950200D02*
X133114173Y-63921628D01*
X133114173Y-63921628D02*
X133085601Y-63864485D01*
X133085601Y-63864485D02*
X133085601Y-63378771D01*
X132799887Y-63750200D02*
X132342745Y-63750200D01*
X135286905Y-95185961D02*
X135096429Y-95719295D01*
X135096429Y-95719295D02*
X134905952Y-95185961D01*
X134677381Y-94919295D02*
X134182143Y-94919295D01*
X134182143Y-94919295D02*
X134448809Y-95224057D01*
X134448809Y-95224057D02*
X134334524Y-95224057D01*
X134334524Y-95224057D02*
X134258333Y-95262152D01*
X134258333Y-95262152D02*
X134220238Y-95300247D01*
X134220238Y-95300247D02*
X134182143Y-95376438D01*
X134182143Y-95376438D02*
X134182143Y-95566914D01*
X134182143Y-95566914D02*
X134220238Y-95643104D01*
X134220238Y-95643104D02*
X134258333Y-95681200D01*
X134258333Y-95681200D02*
X134334524Y-95719295D01*
X134334524Y-95719295D02*
X134563095Y-95719295D01*
X134563095Y-95719295D02*
X134639286Y-95681200D01*
X134639286Y-95681200D02*
X134677381Y-95643104D01*
X133534523Y-95681200D02*
X133610714Y-95719295D01*
X133610714Y-95719295D02*
X133763095Y-95719295D01*
X133763095Y-95719295D02*
X133839285Y-95681200D01*
X133839285Y-95681200D02*
X133877381Y-95605009D01*
X133877381Y-95605009D02*
X133877381Y-95300247D01*
X133877381Y-95300247D02*
X133839285Y-95224057D01*
X133839285Y-95224057D02*
X133763095Y-95185961D01*
X133763095Y-95185961D02*
X133610714Y-95185961D01*
X133610714Y-95185961D02*
X133534523Y-95224057D01*
X133534523Y-95224057D02*
X133496428Y-95300247D01*
X133496428Y-95300247D02*
X133496428Y-95376438D01*
X133496428Y-95376438D02*
X133877381Y-95452628D01*
X132391666Y-94919295D02*
X132315476Y-94919295D01*
X132315476Y-94919295D02*
X132239285Y-94957390D01*
X132239285Y-94957390D02*
X132201190Y-94995485D01*
X132201190Y-94995485D02*
X132163095Y-95071676D01*
X132163095Y-95071676D02*
X132125000Y-95224057D01*
X132125000Y-95224057D02*
X132125000Y-95414533D01*
X132125000Y-95414533D02*
X132163095Y-95566914D01*
X132163095Y-95566914D02*
X132201190Y-95643104D01*
X132201190Y-95643104D02*
X132239285Y-95681200D01*
X132239285Y-95681200D02*
X132315476Y-95719295D01*
X132315476Y-95719295D02*
X132391666Y-95719295D01*
X132391666Y-95719295D02*
X132467857Y-95681200D01*
X132467857Y-95681200D02*
X132505952Y-95643104D01*
X132505952Y-95643104D02*
X132544047Y-95566914D01*
X132544047Y-95566914D02*
X132582143Y-95414533D01*
X132582143Y-95414533D02*
X132582143Y-95224057D01*
X132582143Y-95224057D02*
X132544047Y-95071676D01*
X132544047Y-95071676D02*
X132505952Y-94995485D01*
X132505952Y-94995485D02*
X132467857Y-94957390D01*
X132467857Y-94957390D02*
X132391666Y-94919295D01*
X131820238Y-94995485D02*
X131782142Y-94957390D01*
X131782142Y-94957390D02*
X131705952Y-94919295D01*
X131705952Y-94919295D02*
X131515476Y-94919295D01*
X131515476Y-94919295D02*
X131439285Y-94957390D01*
X131439285Y-94957390D02*
X131401190Y-94995485D01*
X131401190Y-94995485D02*
X131363095Y-95071676D01*
X131363095Y-95071676D02*
X131363095Y-95147866D01*
X131363095Y-95147866D02*
X131401190Y-95262152D01*
X131401190Y-95262152D02*
X131858333Y-95719295D01*
X131858333Y-95719295D02*
X131363095Y-95719295D01*
X130448809Y-94881200D02*
X131134523Y-95909771D01*
X130220238Y-94995485D02*
X130182142Y-94957390D01*
X130182142Y-94957390D02*
X130105952Y-94919295D01*
X130105952Y-94919295D02*
X129915476Y-94919295D01*
X129915476Y-94919295D02*
X129839285Y-94957390D01*
X129839285Y-94957390D02*
X129801190Y-94995485D01*
X129801190Y-94995485D02*
X129763095Y-95071676D01*
X129763095Y-95071676D02*
X129763095Y-95147866D01*
X129763095Y-95147866D02*
X129801190Y-95262152D01*
X129801190Y-95262152D02*
X130258333Y-95719295D01*
X130258333Y-95719295D02*
X129763095Y-95719295D01*
X129077380Y-94919295D02*
X129229761Y-94919295D01*
X129229761Y-94919295D02*
X129305952Y-94957390D01*
X129305952Y-94957390D02*
X129344047Y-94995485D01*
X129344047Y-94995485D02*
X129420237Y-95109771D01*
X129420237Y-95109771D02*
X129458333Y-95262152D01*
X129458333Y-95262152D02*
X129458333Y-95566914D01*
X129458333Y-95566914D02*
X129420237Y-95643104D01*
X129420237Y-95643104D02*
X129382142Y-95681200D01*
X129382142Y-95681200D02*
X129305952Y-95719295D01*
X129305952Y-95719295D02*
X129153571Y-95719295D01*
X129153571Y-95719295D02*
X129077380Y-95681200D01*
X129077380Y-95681200D02*
X129039285Y-95643104D01*
X129039285Y-95643104D02*
X129001190Y-95566914D01*
X129001190Y-95566914D02*
X129001190Y-95376438D01*
X129001190Y-95376438D02*
X129039285Y-95300247D01*
X129039285Y-95300247D02*
X129077380Y-95262152D01*
X129077380Y-95262152D02*
X129153571Y-95224057D01*
X129153571Y-95224057D02*
X129305952Y-95224057D01*
X129305952Y-95224057D02*
X129382142Y-95262152D01*
X129382142Y-95262152D02*
X129420237Y-95300247D01*
X129420237Y-95300247D02*
X129458333Y-95376438D01*
X133058332Y-97855149D02*
X133096428Y-97893245D01*
X133096428Y-97893245D02*
X133210713Y-97931340D01*
X133210713Y-97931340D02*
X133286904Y-97931340D01*
X133286904Y-97931340D02*
X133401190Y-97893245D01*
X133401190Y-97893245D02*
X133477380Y-97817054D01*
X133477380Y-97817054D02*
X133515475Y-97740864D01*
X133515475Y-97740864D02*
X133553571Y-97588483D01*
X133553571Y-97588483D02*
X133553571Y-97474197D01*
X133553571Y-97474197D02*
X133515475Y-97321816D01*
X133515475Y-97321816D02*
X133477380Y-97245625D01*
X133477380Y-97245625D02*
X133401190Y-97169435D01*
X133401190Y-97169435D02*
X133286904Y-97131340D01*
X133286904Y-97131340D02*
X133210713Y-97131340D01*
X133210713Y-97131340D02*
X133096428Y-97169435D01*
X133096428Y-97169435D02*
X133058332Y-97207530D01*
X132715475Y-97512292D02*
X132448809Y-97512292D01*
X132334523Y-97931340D02*
X132715475Y-97931340D01*
X132715475Y-97931340D02*
X132715475Y-97131340D01*
X132715475Y-97131340D02*
X132334523Y-97131340D01*
X131534522Y-97931340D02*
X131801189Y-97550387D01*
X131991665Y-97931340D02*
X131991665Y-97131340D01*
X131991665Y-97131340D02*
X131686903Y-97131340D01*
X131686903Y-97131340D02*
X131610713Y-97169435D01*
X131610713Y-97169435D02*
X131572618Y-97207530D01*
X131572618Y-97207530D02*
X131534522Y-97283721D01*
X131534522Y-97283721D02*
X131534522Y-97398006D01*
X131534522Y-97398006D02*
X131572618Y-97474197D01*
X131572618Y-97474197D02*
X131610713Y-97512292D01*
X131610713Y-97512292D02*
X131686903Y-97550387D01*
X131686903Y-97550387D02*
X131991665Y-97550387D01*
X131191665Y-97931340D02*
X131191665Y-97131340D01*
X131191665Y-97131340D02*
X130734522Y-97931340D01*
X130734522Y-97931340D02*
X130734522Y-97131340D01*
X135344046Y-98419295D02*
X135191665Y-98419295D01*
X135191665Y-98419295D02*
X135115475Y-98457390D01*
X135115475Y-98457390D02*
X135039284Y-98533580D01*
X135039284Y-98533580D02*
X135001189Y-98685961D01*
X135001189Y-98685961D02*
X135001189Y-98952628D01*
X135001189Y-98952628D02*
X135039284Y-99105009D01*
X135039284Y-99105009D02*
X135115475Y-99181200D01*
X135115475Y-99181200D02*
X135191665Y-99219295D01*
X135191665Y-99219295D02*
X135344046Y-99219295D01*
X135344046Y-99219295D02*
X135420237Y-99181200D01*
X135420237Y-99181200D02*
X135496427Y-99105009D01*
X135496427Y-99105009D02*
X135534523Y-98952628D01*
X135534523Y-98952628D02*
X135534523Y-98685961D01*
X135534523Y-98685961D02*
X135496427Y-98533580D01*
X135496427Y-98533580D02*
X135420237Y-98457390D01*
X135420237Y-98457390D02*
X135344046Y-98419295D01*
X134658332Y-99219295D02*
X134658332Y-98419295D01*
X134658332Y-98800247D02*
X134201189Y-98800247D01*
X134201189Y-99219295D02*
X134201189Y-98419295D01*
X133439285Y-99219295D02*
X133820237Y-99219295D01*
X133820237Y-99219295D02*
X133820237Y-98419295D01*
X133172618Y-98914533D02*
X132563095Y-98914533D01*
X132258333Y-98419295D02*
X132067857Y-99219295D01*
X132067857Y-99219295D02*
X131915476Y-98647866D01*
X131915476Y-98647866D02*
X131763095Y-99219295D01*
X131763095Y-99219295D02*
X131572619Y-98419295D01*
X131267856Y-98914533D02*
X130658333Y-98914533D01*
X130315476Y-98495485D02*
X130277380Y-98457390D01*
X130277380Y-98457390D02*
X130201190Y-98419295D01*
X130201190Y-98419295D02*
X130010714Y-98419295D01*
X130010714Y-98419295D02*
X129934523Y-98457390D01*
X129934523Y-98457390D02*
X129896428Y-98495485D01*
X129896428Y-98495485D02*
X129858333Y-98571676D01*
X129858333Y-98571676D02*
X129858333Y-98647866D01*
X129858333Y-98647866D02*
X129896428Y-98762152D01*
X129896428Y-98762152D02*
X130353571Y-99219295D01*
X130353571Y-99219295D02*
X129858333Y-99219295D01*
X129515475Y-99143104D02*
X129477380Y-99181200D01*
X129477380Y-99181200D02*
X129515475Y-99219295D01*
X129515475Y-99219295D02*
X129553571Y-99181200D01*
X129553571Y-99181200D02*
X129515475Y-99143104D01*
X129515475Y-99143104D02*
X129515475Y-99219295D01*
X128982142Y-98419295D02*
X128905952Y-98419295D01*
X128905952Y-98419295D02*
X128829761Y-98457390D01*
X128829761Y-98457390D02*
X128791666Y-98495485D01*
X128791666Y-98495485D02*
X128753571Y-98571676D01*
X128753571Y-98571676D02*
X128715476Y-98724057D01*
X128715476Y-98724057D02*
X128715476Y-98914533D01*
X128715476Y-98914533D02*
X128753571Y-99066914D01*
X128753571Y-99066914D02*
X128791666Y-99143104D01*
X128791666Y-99143104D02*
X128829761Y-99181200D01*
X128829761Y-99181200D02*
X128905952Y-99219295D01*
X128905952Y-99219295D02*
X128982142Y-99219295D01*
X128982142Y-99219295D02*
X129058333Y-99181200D01*
X129058333Y-99181200D02*
X129096428Y-99143104D01*
X129096428Y-99143104D02*
X129134523Y-99066914D01*
X129134523Y-99066914D02*
X129172619Y-98914533D01*
X129172619Y-98914533D02*
X129172619Y-98724057D01*
X129172619Y-98724057D02*
X129134523Y-98571676D01*
X129134523Y-98571676D02*
X129096428Y-98495485D01*
X129096428Y-98495485D02*
X129058333Y-98457390D01*
X129058333Y-98457390D02*
X128982142Y-98419295D01*
D12*
X133915476Y-94116695D02*
X133915476Y-93316695D01*
X133915476Y-93621457D02*
X133839286Y-93583361D01*
X133839286Y-93583361D02*
X133686905Y-93583361D01*
X133686905Y-93583361D02*
X133610714Y-93621457D01*
X133610714Y-93621457D02*
X133572619Y-93659552D01*
X133572619Y-93659552D02*
X133534524Y-93735742D01*
X133534524Y-93735742D02*
X133534524Y-93964314D01*
X133534524Y-93964314D02*
X133572619Y-94040504D01*
X133572619Y-94040504D02*
X133610714Y-94078600D01*
X133610714Y-94078600D02*
X133686905Y-94116695D01*
X133686905Y-94116695D02*
X133839286Y-94116695D01*
X133839286Y-94116695D02*
X133915476Y-94078600D01*
X132848809Y-93583361D02*
X132848809Y-94116695D01*
X133191666Y-93583361D02*
X133191666Y-94002409D01*
X133191666Y-94002409D02*
X133153571Y-94078600D01*
X133153571Y-94078600D02*
X133077381Y-94116695D01*
X133077381Y-94116695D02*
X132963095Y-94116695D01*
X132963095Y-94116695D02*
X132886904Y-94078600D01*
X132886904Y-94078600D02*
X132848809Y-94040504D01*
X132467856Y-93583361D02*
X132467856Y-94116695D01*
X132467856Y-93659552D02*
X132429761Y-93621457D01*
X132429761Y-93621457D02*
X132353571Y-93583361D01*
X132353571Y-93583361D02*
X132239285Y-93583361D01*
X132239285Y-93583361D02*
X132163094Y-93621457D01*
X132163094Y-93621457D02*
X132124999Y-93697647D01*
X132124999Y-93697647D02*
X132124999Y-94116695D01*
X131744046Y-93583361D02*
X131744046Y-94116695D01*
X131744046Y-93659552D02*
X131705951Y-93621457D01*
X131705951Y-93621457D02*
X131629761Y-93583361D01*
X131629761Y-93583361D02*
X131515475Y-93583361D01*
X131515475Y-93583361D02*
X131439284Y-93621457D01*
X131439284Y-93621457D02*
X131401189Y-93697647D01*
X131401189Y-93697647D02*
X131401189Y-94116695D01*
X131020236Y-94116695D02*
X131020236Y-93583361D01*
X131020236Y-93316695D02*
X131058332Y-93354790D01*
X131058332Y-93354790D02*
X131020236Y-93392885D01*
X131020236Y-93392885D02*
X130982141Y-93354790D01*
X130982141Y-93354790D02*
X131020236Y-93316695D01*
X131020236Y-93316695D02*
X131020236Y-93392885D01*
X130334522Y-94078600D02*
X130410713Y-94116695D01*
X130410713Y-94116695D02*
X130563094Y-94116695D01*
X130563094Y-94116695D02*
X130639284Y-94078600D01*
X130639284Y-94078600D02*
X130677380Y-94002409D01*
X130677380Y-94002409D02*
X130677380Y-93697647D01*
X130677380Y-93697647D02*
X130639284Y-93621457D01*
X130639284Y-93621457D02*
X130563094Y-93583361D01*
X130563094Y-93583361D02*
X130410713Y-93583361D01*
X130410713Y-93583361D02*
X130334522Y-93621457D01*
X130334522Y-93621457D02*
X130296427Y-93697647D01*
X130296427Y-93697647D02*
X130296427Y-93773838D01*
X130296427Y-93773838D02*
X130677380Y-93850028D01*
D13*
%TO.C,G\u002A\u002A\u002A*%
G36*
X132441191Y-69027853D02*
G01*
X132330894Y-69027853D01*
X132220595Y-69027853D01*
X132220596Y-68978141D01*
X132219345Y-68946821D01*
X132211855Y-68939051D01*
X132192738Y-68953639D01*
X132181597Y-68962383D01*
X132142229Y-68986973D01*
X132094258Y-69011831D01*
X132039958Y-69029888D01*
X131950949Y-69041658D01*
X131853623Y-69039592D01*
X131759205Y-69024128D01*
X131678927Y-68995700D01*
X131605234Y-68948959D01*
X131527607Y-68870360D01*
X131470757Y-68776011D01*
X131435177Y-68670823D01*
X131424666Y-68586265D01*
X131662452Y-68586265D01*
X131683608Y-68671615D01*
X131725770Y-68745416D01*
X131786998Y-68802310D01*
X131865352Y-68836948D01*
X131875275Y-68839449D01*
X131919362Y-68849742D01*
X131949350Y-68852105D01*
X131979391Y-68845992D01*
X132023636Y-68830859D01*
X132099542Y-68789964D01*
X132159714Y-68727043D01*
X132198542Y-68648909D01*
X132214263Y-68561047D01*
X132205112Y-68468941D01*
X132169325Y-68378075D01*
X132117111Y-68313354D01*
X132049115Y-68270116D01*
X131972020Y-68248817D01*
X131892221Y-68249406D01*
X131816113Y-68271829D01*
X131750090Y-68316033D01*
X131700548Y-68381966D01*
X131690914Y-68402331D01*
X131664241Y-68494719D01*
X131662452Y-68586265D01*
X131424666Y-68586265D01*
X131421364Y-68559705D01*
X131429816Y-68447562D01*
X131461029Y-68339307D01*
X131515501Y-68239848D01*
X131593728Y-68154091D01*
X131628033Y-68128249D01*
X131722896Y-68081459D01*
X131829973Y-68055682D01*
X131940994Y-68051569D01*
X132047690Y-68069771D01*
X132141792Y-68110939D01*
X132220596Y-68159925D01*
X132220596Y-67932103D01*
X132220596Y-67704280D01*
X132330893Y-67704280D01*
X132441192Y-67704280D01*
X132441192Y-68366067D01*
X132441192Y-68561047D01*
X132441191Y-69027853D01*
G37*
G36*
X131277424Y-68678353D02*
G01*
X131239184Y-68794051D01*
X131176367Y-68890192D01*
X131089138Y-68966518D01*
X130977662Y-69022773D01*
X130950883Y-69030243D01*
X130878853Y-69038690D01*
X130783954Y-69039038D01*
X130760210Y-69038081D01*
X130696685Y-69033545D01*
X130650596Y-69024900D01*
X130611086Y-69009405D01*
X130567298Y-68984315D01*
X130487345Y-68934614D01*
X130487345Y-68981234D01*
X130487345Y-69027853D01*
X130377048Y-69027853D01*
X130266750Y-69027853D01*
X130266750Y-68547270D01*
X130266750Y-68519267D01*
X130494526Y-68519267D01*
X130498988Y-68608980D01*
X130526264Y-68692255D01*
X130574751Y-68762619D01*
X130642851Y-68813596D01*
X130677477Y-68827361D01*
X130728842Y-68840854D01*
X130777595Y-68848199D01*
X130810360Y-68846749D01*
X130831770Y-68840869D01*
X130869159Y-68832044D01*
X130880758Y-68828489D01*
X130923366Y-68806568D01*
X130966678Y-68774729D01*
X131012273Y-68720735D01*
X131046660Y-68641858D01*
X131059351Y-68554558D01*
X131050340Y-68466649D01*
X131019617Y-68385942D01*
X130967173Y-68320246D01*
X130913177Y-68282118D01*
X130830254Y-68251264D01*
X130745153Y-68246769D01*
X130663829Y-68267768D01*
X130592240Y-68313398D01*
X130536344Y-68382793D01*
X130514478Y-68429589D01*
X130494526Y-68519267D01*
X130266750Y-68519267D01*
X130266750Y-68066687D01*
X130377048Y-68066687D01*
X130487345Y-68066687D01*
X130487345Y-68113307D01*
X130487345Y-68159926D01*
X130566954Y-68110439D01*
X130611068Y-68085387D01*
X130654132Y-68068916D01*
X130705085Y-68059648D01*
X130775732Y-68054413D01*
X130822113Y-68052693D01*
X130886069Y-68054549D01*
X130940181Y-68064063D01*
X130997974Y-68082973D01*
X131089232Y-68129243D01*
X131175025Y-68203640D01*
X131238333Y-68298110D01*
X131277518Y-68410117D01*
X131290943Y-68537123D01*
X131290920Y-68543352D01*
X131289800Y-68554558D01*
X131277424Y-68678353D01*
G37*
G36*
X133719731Y-68678353D02*
G01*
X133681492Y-68794051D01*
X133618675Y-68890191D01*
X133531446Y-68966518D01*
X133419969Y-69022773D01*
X133393191Y-69030243D01*
X133321160Y-69038690D01*
X133226262Y-69039038D01*
X133202518Y-69038081D01*
X133138992Y-69033545D01*
X133092903Y-69024900D01*
X133053394Y-69009404D01*
X133009606Y-68984315D01*
X132929652Y-68934614D01*
X132929653Y-68981234D01*
X132929653Y-69027852D01*
X132819355Y-69027853D01*
X132709058Y-69027853D01*
X132709058Y-68547270D01*
X132709058Y-68519267D01*
X132936834Y-68519267D01*
X132941296Y-68608980D01*
X132968571Y-68692255D01*
X133017059Y-68762619D01*
X133085159Y-68813596D01*
X133119785Y-68827361D01*
X133171150Y-68840854D01*
X133219903Y-68848199D01*
X133252668Y-68846750D01*
X133274078Y-68840869D01*
X133311467Y-68832044D01*
X133350295Y-68816598D01*
X133404819Y-68777282D01*
X133452085Y-68725849D01*
X133481493Y-68672261D01*
X133486170Y-68657022D01*
X133500816Y-68561161D01*
X133491901Y-68468116D01*
X133460948Y-68385330D01*
X133409481Y-68320247D01*
X133355485Y-68282118D01*
X133272563Y-68251264D01*
X133187461Y-68246769D01*
X133106137Y-68267769D01*
X133034547Y-68313398D01*
X132978651Y-68382793D01*
X132956786Y-68429589D01*
X132936834Y-68519267D01*
X132709058Y-68519267D01*
X132709058Y-68066687D01*
X132819355Y-68066687D01*
X132929653Y-68066686D01*
X132929653Y-68113307D01*
X132929653Y-68159925D01*
X133009262Y-68110439D01*
X133053376Y-68085387D01*
X133096440Y-68068916D01*
X133147392Y-68059648D01*
X133218040Y-68054413D01*
X133264421Y-68052693D01*
X133328376Y-68054549D01*
X133382489Y-68064063D01*
X133440282Y-68082973D01*
X133531540Y-68129243D01*
X133617333Y-68203640D01*
X133680640Y-68298110D01*
X133719827Y-68410117D01*
X133733251Y-68537122D01*
X133733228Y-68543352D01*
X133731448Y-68561161D01*
X133719731Y-68678353D01*
G37*
G36*
X130053435Y-68615892D02*
G01*
X130050281Y-68670170D01*
X130042748Y-68710881D01*
X130029016Y-68747444D01*
X130007264Y-68789276D01*
X129952958Y-68868882D01*
X129863490Y-68952906D01*
X129755846Y-69012106D01*
X129708773Y-69026838D01*
X129608058Y-69041244D01*
X129498822Y-69039740D01*
X129392827Y-69022869D01*
X129301840Y-68991174D01*
X129233019Y-68950506D01*
X129149435Y-68873537D01*
X129081146Y-68771367D01*
X129074442Y-68758322D01*
X129059717Y-68721795D01*
X129050939Y-68680342D01*
X129046703Y-68625116D01*
X129045681Y-68552539D01*
X129271635Y-68552539D01*
X129274189Y-68596330D01*
X129297835Y-68688664D01*
X129345403Y-68762008D01*
X129415881Y-68814528D01*
X129455572Y-68830337D01*
X129538463Y-68844799D01*
X129618785Y-68838698D01*
X129621110Y-68838140D01*
X129702356Y-68803367D01*
X129765463Y-68745595D01*
X129808069Y-68669031D01*
X129827809Y-68577885D01*
X129822319Y-68476366D01*
X129796010Y-68396329D01*
X129746661Y-68327110D01*
X129680910Y-68278076D01*
X129604139Y-68251051D01*
X129521725Y-68247856D01*
X129439048Y-68270314D01*
X129361488Y-68320247D01*
X129313779Y-68375685D01*
X129281503Y-68454232D01*
X129271635Y-68552539D01*
X129045681Y-68552539D01*
X129045607Y-68547270D01*
X129045987Y-68492928D01*
X129048700Y-68432958D01*
X129055477Y-68388676D01*
X129067994Y-68350662D01*
X129087927Y-68309499D01*
X129130320Y-68243378D01*
X129215334Y-68156890D01*
X129320540Y-68091987D01*
X129361903Y-68075824D01*
X129408442Y-68065485D01*
X129468014Y-68060257D01*
X129549814Y-68058809D01*
X129603023Y-68059177D01*
X129664147Y-68061954D01*
X129710226Y-68068969D01*
X129751174Y-68081987D01*
X129796907Y-68102771D01*
X129866804Y-68144179D01*
X129950341Y-68221184D01*
X130018483Y-68323174D01*
X130025175Y-68336191D01*
X130039906Y-68372725D01*
X130048689Y-68414186D01*
X130052931Y-68469418D01*
X130054033Y-68547269D01*
X130053766Y-68577885D01*
X130053435Y-68615892D01*
G37*
G36*
X134952927Y-68630212D02*
G01*
X134947694Y-68689008D01*
X134937338Y-68735233D01*
X134920491Y-68778208D01*
X134907506Y-68803544D01*
X134845036Y-68888762D01*
X134763738Y-68961208D01*
X134673477Y-69011562D01*
X134645479Y-69021767D01*
X134593827Y-69034484D01*
X134534320Y-69039713D01*
X134455294Y-69038916D01*
X134431047Y-69037959D01*
X134367732Y-69033474D01*
X134321791Y-69024862D01*
X134282377Y-69009387D01*
X134238639Y-68984315D01*
X134158685Y-68934614D01*
X134158685Y-68981234D01*
X134158685Y-69027853D01*
X134048388Y-69027852D01*
X133938090Y-69027853D01*
X133938091Y-68526305D01*
X134162903Y-68526305D01*
X134170188Y-68612409D01*
X134200580Y-68694739D01*
X134249956Y-68764673D01*
X134314191Y-68813596D01*
X134348817Y-68827361D01*
X134400182Y-68840854D01*
X134448935Y-68848198D01*
X134481699Y-68846749D01*
X134503110Y-68840869D01*
X134540500Y-68832044D01*
X134552098Y-68828489D01*
X134594706Y-68806568D01*
X134638017Y-68774729D01*
X134683613Y-68720736D01*
X134717999Y-68641858D01*
X134730691Y-68554558D01*
X134721680Y-68466649D01*
X134690957Y-68385941D01*
X134638513Y-68320247D01*
X134628322Y-68311648D01*
X134548973Y-68264835D01*
X134465796Y-68245920D01*
X134383734Y-68252991D01*
X134307732Y-68284139D01*
X134242733Y-68337454D01*
X134193684Y-68411027D01*
X134165525Y-68502947D01*
X134162903Y-68526305D01*
X133938091Y-68526305D01*
X133938091Y-68366067D01*
X133938091Y-67704280D01*
X134048388Y-67704280D01*
X134158685Y-67704280D01*
X134158685Y-67932103D01*
X134158685Y-68159926D01*
X134238294Y-68110439D01*
X134282408Y-68085387D01*
X134325472Y-68068917D01*
X134376425Y-68059648D01*
X134447072Y-68054413D01*
X134539511Y-68055577D01*
X134659950Y-68078878D01*
X134762298Y-68127520D01*
X134845893Y-68201152D01*
X134910073Y-68299422D01*
X134925105Y-68331395D01*
X134940591Y-68372921D01*
X134949451Y-68416116D01*
X134953463Y-68470920D01*
X134954405Y-68547270D01*
X134954405Y-68549532D01*
X134954312Y-68554558D01*
X134952927Y-68630212D01*
G37*
%TD*%
M02*
