%TF.GenerationSoftware,KiCad,Pcbnew,9.0.9-9.0.9~ubuntu24.04.1*%
%TF.CreationDate,2026-06-18T12:35:29+02:00*%
%TF.ProjectId,dabao_v3c,64616261-6f5f-4763-9363-2e6b69636164,rev?*%
%TF.SameCoordinates,Original*%
%TF.FileFunction,Other,User*%
%FSLAX46Y46*%
G04 Gerber Fmt 4.6, Leading zero omitted, Abs format (unit mm)*
G04 Created by KiCad (PCBNEW 9.0.9-9.0.9~ubuntu24.04.1) date 2026-06-18 12:35:29*
%MOMM*%
%LPD*%
G01*
G04 APERTURE LIST*
%ADD10C,0.050000*%
G04 APERTURE END LIST*
%TO.C,C17*%
D10*
X130342400Y-60774600D02*
X128882400Y-60774600D01*
X128882400Y-63734600D01*
X130342400Y-63734600D01*
X130342400Y-60774600D01*
%TO.C,L2*%
X130150000Y-84150000D02*
X131850000Y-84150000D01*
X130150000Y-87650000D02*
X130150000Y-84150000D01*
X131850000Y-84150000D02*
X131850000Y-87650000D01*
X131850000Y-87650000D02*
X130150000Y-87650000D01*
%TO.C,C5*%
X132832538Y-76572487D02*
X133822487Y-75582538D01*
X133327513Y-77067462D02*
X132832538Y-76572487D01*
X133822487Y-75582538D02*
X134317462Y-76077513D01*
X134317462Y-76077513D02*
X133327513Y-77067462D01*
%TO.C,C10*%
X130557538Y-82822487D02*
X131547487Y-81832538D01*
X131052513Y-83317462D02*
X130557538Y-82822487D01*
X131547487Y-81832538D02*
X132042462Y-82327513D01*
X132042462Y-82327513D02*
X131052513Y-83317462D01*
%TO.C,R3*%
X137600000Y-68150000D02*
X139000000Y-68150000D01*
X137600000Y-68850000D02*
X137600000Y-68150000D01*
X139000000Y-68150000D02*
X139000000Y-68850000D01*
X139000000Y-68850000D02*
X137600000Y-68850000D01*
%TO.C,C13*%
X133750000Y-71020000D02*
X134450000Y-71020000D01*
X133750000Y-72420000D02*
X133750000Y-71020000D01*
X134450000Y-71020000D02*
X134450000Y-72420000D01*
X134450000Y-72420000D02*
X133750000Y-72420000D01*
%TO.C,C1*%
X126225000Y-76250000D02*
X127625000Y-76250000D01*
X126225000Y-76950000D02*
X126225000Y-76250000D01*
X127625000Y-76250000D02*
X127625000Y-76950000D01*
X127625000Y-76950000D02*
X126225000Y-76950000D01*
%TO.C,R7*%
X125500000Y-87750000D02*
X126900000Y-87750000D01*
X125500000Y-88450000D02*
X125500000Y-87750000D01*
X126900000Y-87750000D02*
X126900000Y-88450000D01*
X126900000Y-88450000D02*
X125500000Y-88450000D01*
%TO.C,J1*%
X124494400Y-57320000D02*
X124494400Y-52820000D01*
X124494400Y-57320000D02*
X127094400Y-57320000D01*
X125124400Y-52820000D02*
X124494400Y-52820000D01*
X125124400Y-52820000D02*
X125124400Y-36770000D01*
X127094400Y-59570000D02*
X127094400Y-57320000D01*
X136194400Y-57320000D02*
X138794400Y-57320000D01*
X136194400Y-59570000D02*
X127094400Y-59570000D01*
X136194400Y-59570000D02*
X136194400Y-57320000D01*
X138164400Y-36770000D02*
X125124400Y-36770000D01*
X138164400Y-52820000D02*
X138164400Y-36770000D01*
X138794400Y-52820000D02*
X138164400Y-52820000D01*
X138794400Y-57320000D02*
X138794400Y-52820000D01*
%TO.C,C9*%
X126450000Y-81150000D02*
X127850000Y-81150000D01*
X126450000Y-81850000D02*
X126450000Y-81150000D01*
X127850000Y-81150000D02*
X127850000Y-81850000D01*
X127850000Y-81850000D02*
X126450000Y-81850000D01*
%TO.C,R5*%
X133750000Y-69600000D02*
X134450000Y-69600000D01*
X133750000Y-71000000D02*
X133750000Y-69600000D01*
X134450000Y-69600000D02*
X134450000Y-71000000D01*
X134450000Y-71000000D02*
X133750000Y-71000000D01*
%TO.C,H2*%
X140350000Y-61475000D02*
G75*
G02*
X136050000Y-61475000I-2150000J0D01*
G01*
X136050000Y-61475000D02*
G75*
G02*
X140350000Y-61475000I2150000J0D01*
G01*
%TO.C,C4*%
X134082538Y-77722487D02*
X135072487Y-76732538D01*
X134577513Y-78217462D02*
X134082538Y-77722487D01*
X135072487Y-76732538D02*
X135567462Y-77227513D01*
X135567462Y-77227513D02*
X134577513Y-78217462D01*
%TO.C,R4*%
X136350000Y-84200000D02*
X137050000Y-84200000D01*
X136350000Y-85600000D02*
X136350000Y-84200000D01*
X137050000Y-84200000D02*
X137050000Y-85600000D01*
X137050000Y-85600000D02*
X136350000Y-85600000D01*
%TO.C,C6*%
X129557538Y-81547487D02*
X130547487Y-80557538D01*
X130052513Y-82042462D02*
X129557538Y-81547487D01*
X130547487Y-80557538D02*
X131042462Y-81052513D01*
X131042462Y-81052513D02*
X130052513Y-82042462D01*
%TO.C,H1*%
X127950000Y-61475000D02*
G75*
G02*
X123650000Y-61475000I-2150000J0D01*
G01*
X123650000Y-61475000D02*
G75*
G02*
X127950000Y-61475000I2150000J0D01*
G01*
%TO.C,R8*%
X125500000Y-87050000D02*
X126900000Y-87050000D01*
X125500000Y-87750000D02*
X125500000Y-87050000D01*
X126900000Y-87050000D02*
X126900000Y-87750000D01*
X126900000Y-87750000D02*
X125500000Y-87750000D01*
%TO.C,C14*%
X135320000Y-74770000D02*
X138280000Y-74770000D01*
X135320000Y-76230000D02*
X135320000Y-74770000D01*
X138280000Y-74770000D02*
X138280000Y-76230000D01*
X138280000Y-76230000D02*
X135320000Y-76230000D01*
%TO.C,C7*%
X131057538Y-83322487D02*
X132047487Y-82332538D01*
X131552513Y-83817462D02*
X131057538Y-83322487D01*
X132047487Y-82332538D02*
X132542462Y-82827513D01*
X132542462Y-82827513D02*
X131552513Y-83817462D01*
%TO.C,D1*%
X134350000Y-68950000D02*
X134350000Y-67050000D01*
X137550000Y-67050000D02*
X134350000Y-67050000D01*
X137550000Y-68950000D02*
X134350000Y-68950000D01*
X137550000Y-68950000D02*
X137550000Y-67050000D01*
%TO.C,C2*%
X129057538Y-81047487D02*
X130047487Y-80057538D01*
X129552513Y-81542462D02*
X129057538Y-81047487D01*
X130047487Y-80057538D02*
X130542462Y-80552513D01*
X130542462Y-80552513D02*
X129552513Y-81542462D01*
%TO.C,SW1*%
X125200000Y-67050001D02*
X130800000Y-67050001D01*
X125200000Y-74549999D02*
X125200000Y-67050001D01*
X130800000Y-67050001D02*
X130800000Y-74549999D01*
X130800000Y-74549999D02*
X125200000Y-74549999D01*
%TO.C,C16*%
X127120000Y-87070000D02*
X130080000Y-87070000D01*
X127120000Y-88530000D02*
X127120000Y-87070000D01*
X130080000Y-87070000D02*
X130080000Y-88530000D01*
X130080000Y-88530000D02*
X127120000Y-88530000D01*
%TO.C,C12*%
X133550000Y-81200000D02*
X134250000Y-81200000D01*
X133550000Y-82600000D02*
X133550000Y-81200000D01*
X134250000Y-81200000D02*
X134250000Y-82600000D01*
X134250000Y-82600000D02*
X133550000Y-82600000D01*
%TO.C,C3*%
X129682538Y-76027513D02*
X130177513Y-75532538D01*
X130177513Y-75532538D02*
X131167462Y-76522487D01*
X130672487Y-77017462D02*
X129682538Y-76027513D01*
X131167462Y-76522487D02*
X130672487Y-77017462D01*
%TO.C,L1*%
X135050000Y-73050000D02*
X138550000Y-73050000D01*
X135050000Y-74750000D02*
X135050000Y-73050000D01*
X138550000Y-73050000D02*
X138550000Y-74750000D01*
X138550000Y-74750000D02*
X135050000Y-74750000D01*
%TO.C,U2*%
X128953375Y-78893934D02*
X131993934Y-75853375D01*
X131993934Y-75853375D02*
X135246625Y-79106066D01*
X132206066Y-82146625D02*
X128953375Y-78893934D01*
X135246625Y-79106066D02*
X132206066Y-82146625D01*
%TO.C,Y1*%
X125525000Y-76950000D02*
X125525000Y-81150000D01*
X125525000Y-81150000D02*
X128925000Y-81150000D01*
X128925000Y-76950000D02*
X125525000Y-76950000D01*
X128925000Y-81150000D02*
X128925000Y-76950000D01*
%TO.C,R2*%
X124580000Y-78145000D02*
X125520000Y-78145000D01*
X124580000Y-80005000D02*
X124580000Y-78145000D01*
X125520000Y-78145000D02*
X125520000Y-80005000D01*
X125520000Y-80005000D02*
X124580000Y-80005000D01*
%TO.C,R1*%
X133840000Y-64634800D02*
X135240000Y-64634800D01*
X133840000Y-65334800D02*
X133840000Y-64634800D01*
X135240000Y-64634800D02*
X135240000Y-65334800D01*
X135240000Y-65334800D02*
X133840000Y-65334800D01*
%TO.C,U4*%
X126050001Y-83600000D02*
X126050001Y-87000000D01*
X126050001Y-87000000D02*
X130149999Y-87000000D01*
X130149999Y-83600000D02*
X126050001Y-83600000D01*
X130149999Y-87000000D02*
X130149999Y-83600000D01*
%TO.C,H3*%
X127950000Y-98500000D02*
G75*
G02*
X123650000Y-98500000I-2150000J0D01*
G01*
X123650000Y-98500000D02*
G75*
G02*
X127950000Y-98500000I2150000J0D01*
G01*
%TO.C,R6*%
X132900000Y-68750000D02*
X134300000Y-68750000D01*
X132900000Y-69450000D02*
X132900000Y-68750000D01*
X134300000Y-68750000D02*
X134300000Y-69450000D01*
X134300000Y-69450000D02*
X132900000Y-69450000D01*
%TO.C,C8*%
X132307538Y-76047487D02*
X133297487Y-75057538D01*
X132802513Y-76542462D02*
X132307538Y-76047487D01*
X133297487Y-75057538D02*
X133792462Y-75552513D01*
X133792462Y-75552513D02*
X132802513Y-76542462D01*
%TO.C,U1*%
X130850000Y-69860000D02*
X133750000Y-69860000D01*
X130850000Y-72360000D02*
X130850000Y-69860000D01*
X133750000Y-69860000D02*
X133750000Y-72360000D01*
X133750000Y-72360000D02*
X130850000Y-72360000D01*
%TO.C,H4*%
X140350000Y-98500000D02*
G75*
G02*
X136050000Y-98500000I-2150000J0D01*
G01*
X136050000Y-98500000D02*
G75*
G02*
X140350000Y-98500000I2150000J0D01*
G01*
%TO.C,U3*%
X134550001Y-68950001D02*
X134550001Y-73049999D01*
X134550001Y-73049999D02*
X137950001Y-73049999D01*
X137950001Y-68950001D02*
X134550001Y-68950001D01*
X137950001Y-73049999D02*
X137950001Y-68950001D01*
%TO.C,C11*%
X137970000Y-68920000D02*
X139430000Y-68920000D01*
X137970000Y-71880000D02*
X137970000Y-68920000D01*
X139430000Y-68920000D02*
X139430000Y-71880000D01*
X139430000Y-71880000D02*
X137970000Y-71880000D01*
%TO.C,C15*%
X124570000Y-83820000D02*
X126030000Y-83820000D01*
X124570000Y-86780000D02*
X124570000Y-83820000D01*
X126030000Y-83820000D02*
X126030000Y-86780000D01*
X126030000Y-86780000D02*
X124570000Y-86780000D01*
%TD*%
M02*
