%TF.GenerationSoftware,KiCad,Pcbnew,9.0.8-9.0.8~ubuntu24.04.1*%
%TF.CreationDate,2026-04-10T15:51:04+02:00*%
%TF.ProjectId,dabao_v3c,64616261-6f5f-4763-9363-2e6b69636164,rev?*%
%TF.SameCoordinates,Original*%
%TF.FileFunction,Copper,L1,Top*%
%TF.FilePolarity,Positive*%
%FSLAX46Y46*%
G04 Gerber Fmt 4.6, Leading zero omitted, Abs format (unit mm)*
G04 Created by KiCad (PCBNEW 9.0.8-9.0.8~ubuntu24.04.1) date 2026-04-10 15:51:04*
%MOMM*%
%LPD*%
G01*
G04 APERTURE LIST*
G04 Aperture macros list*
%AMRoundRect*
0 Rectangle with rounded corners*
0 $1 Rounding radius*
0 $2 $3 $4 $5 $6 $7 $8 $9 X,Y pos of 4 corners*
0 Add a 4 corners polygon primitive as box body*
4,1,4,$2,$3,$4,$5,$6,$7,$8,$9,$2,$3,0*
0 Add four circle primitives for the rounded corners*
1,1,$1+$1,$2,$3*
1,1,$1+$1,$4,$5*
1,1,$1+$1,$6,$7*
1,1,$1+$1,$8,$9*
0 Add four rect primitives between the rounded corners*
20,1,$1+$1,$2,$3,$4,$5,0*
20,1,$1+$1,$4,$5,$6,$7,0*
20,1,$1+$1,$6,$7,$8,$9,0*
20,1,$1+$1,$8,$9,$2,$3,0*%
G04 Aperture macros list end*
%TA.AperFunction,EtchedComponent*%
%ADD10C,0.000000*%
%TD*%
%TA.AperFunction,EtchedComponent*%
%ADD11C,0.050000*%
%TD*%
%TA.AperFunction,SMDPad,CuDef*%
%ADD12RoundRect,0.225000X-0.250000X0.225000X-0.250000X-0.225000X0.250000X-0.225000X0.250000X0.225000X0*%
%TD*%
%TA.AperFunction,SMDPad,CuDef*%
%ADD13RoundRect,0.218750X-0.381250X0.218750X-0.381250X-0.218750X0.381250X-0.218750X0.381250X0.218750X0*%
%TD*%
%TA.AperFunction,SMDPad,CuDef*%
%ADD14RoundRect,0.100000X-0.021213X-0.162635X0.162635X0.021213X0.021213X0.162635X-0.162635X-0.021213X0*%
%TD*%
%TA.AperFunction,SMDPad,CuDef*%
%ADD15RoundRect,0.100000X0.021213X0.162635X-0.162635X-0.021213X-0.021213X-0.162635X0.162635X0.021213X0*%
%TD*%
%TA.AperFunction,SMDPad,CuDef*%
%ADD16RoundRect,0.100000X0.130000X0.100000X-0.130000X0.100000X-0.130000X-0.100000X0.130000X-0.100000X0*%
%TD*%
%TA.AperFunction,SMDPad,CuDef*%
%ADD17RoundRect,0.100000X-0.100000X0.130000X-0.100000X-0.130000X0.100000X-0.130000X0.100000X0.130000X0*%
%TD*%
%TA.AperFunction,SMDPad,CuDef*%
%ADD18RoundRect,0.100000X-0.130000X-0.100000X0.130000X-0.100000X0.130000X0.100000X-0.130000X0.100000X0*%
%TD*%
%TA.AperFunction,SMDPad,CuDef*%
%ADD19R,1.100000X2.500000*%
%TD*%
%TA.AperFunction,HeatsinkPad*%
%ADD20O,1.900000X3.500000*%
%TD*%
%TA.AperFunction,SMDPad,CuDef*%
%ADD21RoundRect,0.100000X0.100000X-0.130000X0.100000X0.130000X-0.100000X0.130000X-0.100000X-0.130000X0*%
%TD*%
%TA.AperFunction,SMDPad,CuDef*%
%ADD22RoundRect,0.225000X-0.225000X-0.250000X0.225000X-0.250000X0.225000X0.250000X-0.225000X0.250000X0*%
%TD*%
%TA.AperFunction,SMDPad,CuDef*%
%ADD23RoundRect,0.112500X0.187500X0.112500X-0.187500X0.112500X-0.187500X-0.112500X0.187500X-0.112500X0*%
%TD*%
%TA.AperFunction,SMDPad,CuDef*%
%ADD24R,0.750000X1.000000*%
%TD*%
%TA.AperFunction,SMDPad,CuDef*%
%ADD25RoundRect,0.225000X0.225000X0.250000X-0.225000X0.250000X-0.225000X-0.250000X0.225000X-0.250000X0*%
%TD*%
%TA.AperFunction,SMDPad,CuDef*%
%ADD26RoundRect,0.100000X0.162635X-0.021213X-0.021213X0.162635X-0.162635X0.021213X0.021213X-0.162635X0*%
%TD*%
%TA.AperFunction,SMDPad,CuDef*%
%ADD27RoundRect,0.218750X0.218750X0.381250X-0.218750X0.381250X-0.218750X-0.381250X0.218750X-0.381250X0*%
%TD*%
%TA.AperFunction,SMDPad,CuDef*%
%ADD28C,0.230000*%
%TD*%
%TA.AperFunction,SMDPad,CuDef*%
%ADD29C,0.210000*%
%TD*%
%TA.AperFunction,SMDPad,CuDef*%
%ADD30R,1.200000X1.400000*%
%TD*%
%TA.AperFunction,SMDPad,CuDef*%
%ADD31RoundRect,0.135000X0.185000X-0.135000X0.185000X0.135000X-0.185000X0.135000X-0.185000X-0.135000X0*%
%TD*%
%TA.AperFunction,SMDPad,CuDef*%
%ADD32RoundRect,0.150000X0.512500X0.150000X-0.512500X0.150000X-0.512500X-0.150000X0.512500X-0.150000X0*%
%TD*%
%TA.AperFunction,SMDPad,CuDef*%
%ADD33O,0.200000X0.700000*%
%TD*%
%TA.AperFunction,SMDPad,CuDef*%
%ADD34O,0.200000X0.600000*%
%TD*%
%TA.AperFunction,SMDPad,CuDef*%
%ADD35O,0.600000X0.200000*%
%TD*%
%TA.AperFunction,SMDPad,CuDef*%
%ADD36RoundRect,0.150000X0.150000X-0.512500X0.150000X0.512500X-0.150000X0.512500X-0.150000X-0.512500X0*%
%TD*%
%TA.AperFunction,ViaPad*%
%ADD37C,0.500000*%
%TD*%
%TA.AperFunction,ViaPad*%
%ADD38C,0.400000*%
%TD*%
%TA.AperFunction,Conductor*%
%ADD39C,0.200000*%
%TD*%
%TA.AperFunction,Conductor*%
%ADD40C,0.100000*%
%TD*%
%TA.AperFunction,Conductor*%
%ADD41C,0.150000*%
%TD*%
%TA.AperFunction,Conductor*%
%ADD42C,0.500000*%
%TD*%
%TA.AperFunction,Conductor*%
%ADD43C,0.120000*%
%TD*%
%TA.AperFunction,Conductor*%
%ADD44C,0.400000*%
%TD*%
G04 APERTURE END LIST*
D10*
%TA.AperFunction,EtchedComponent*%
%TO.C,FID2*%
G36*
X132630330Y-74227029D02*
G01*
X132559619Y-74297740D01*
X132276776Y-74014897D01*
X132347487Y-73944186D01*
X132630330Y-74227029D01*
G37*
%TD.AperFunction*%
%TA.AperFunction,EtchedComponent*%
G36*
X132630330Y-74014897D02*
G01*
X132347487Y-74297740D01*
X132276776Y-74227029D01*
X132559619Y-73944186D01*
X132630330Y-74014897D01*
G37*
%TD.AperFunction*%
%TA.AperFunction,EtchedComponent*%
%TO.C,FID1*%
G36*
X131923224Y-83985102D02*
G01*
X131852513Y-84055813D01*
X131569670Y-83772970D01*
X131640381Y-83702259D01*
X131923224Y-83985102D01*
G37*
%TD.AperFunction*%
%TA.AperFunction,EtchedComponent*%
G36*
X131923224Y-83772970D02*
G01*
X131640381Y-84055813D01*
X131569670Y-83985102D01*
X131852513Y-83702259D01*
X131923224Y-83772970D01*
G37*
%TD.AperFunction*%
%TO.C,FID3*%
D11*
X137004038Y-78646448D02*
G75*
G02*
X136954038Y-78646448I-25000J0D01*
G01*
X136954038Y-78646448D02*
G75*
G02*
X137004038Y-78646448I25000J0D01*
G01*
D10*
%TA.AperFunction,EtchedComponent*%
G36*
X137049749Y-78434316D02*
G01*
X136979038Y-78505027D01*
X136908327Y-78434316D01*
X136979038Y-78363605D01*
X137049749Y-78434316D01*
G37*
%TD.AperFunction*%
%TA.AperFunction,EtchedComponent*%
G36*
X137049749Y-78858580D02*
G01*
X136979038Y-78929291D01*
X136908327Y-78858580D01*
X136979038Y-78787869D01*
X137049749Y-78858580D01*
G37*
%TD.AperFunction*%
%TA.AperFunction,EtchedComponent*%
G36*
X137261881Y-78646448D02*
G01*
X137191170Y-78717159D01*
X137120459Y-78646448D01*
X137191170Y-78575737D01*
X137261881Y-78646448D01*
G37*
%TD.AperFunction*%
%TD*%
D12*
%TO.P,C17,1,1*%
%TO.N,VBUS*%
X129612400Y-61479600D03*
%TO.P,C17,2,2*%
%TO.N,GND*%
X129612400Y-63029600D03*
%TD*%
D13*
%TO.P,L2,1*%
%TO.N,Net-(U4-SW)*%
X131000000Y-84837500D03*
%TO.P,L2,2*%
%TO.N,+0.9V*%
X131000000Y-86962500D03*
%TD*%
D14*
%TO.P,C5,1,1*%
%TO.N,+0.9V*%
X133348726Y-76551274D03*
%TO.P,C5,2,2*%
%TO.N,GND*%
X133801274Y-76098726D03*
%TD*%
D15*
%TO.P,C10,1,1*%
%TO.N,+0.9V*%
X131526274Y-82348726D03*
%TO.P,C10,2,2*%
%TO.N,GND*%
X131073726Y-82801274D03*
%TD*%
D16*
%TO.P,R3,1,1*%
%TO.N,/EN*%
X138620000Y-68500000D03*
%TO.P,R3,2,2*%
%TO.N,/VSYS*%
X137980000Y-68500000D03*
%TD*%
D17*
%TO.P,C13,1,1*%
%TO.N,+3.3V*%
X134100000Y-71400000D03*
%TO.P,C13,2,2*%
%TO.N,GND*%
X134100000Y-72040000D03*
%TD*%
D18*
%TO.P,C1,1*%
%TO.N,/XI_48M*%
X126605000Y-76600000D03*
%TO.P,C1,2*%
%TO.N,GND*%
X127245000Y-76600000D03*
%TD*%
%TO.P,R7,1,1*%
%TO.N,+0.9V*%
X125880000Y-88100000D03*
%TO.P,R7,2,2*%
%TO.N,/FB_0.85V*%
X126520000Y-88100000D03*
%TD*%
D19*
%TO.P,J1,1,VBUS*%
%TO.N,VBUS*%
X128144400Y-57820000D03*
%TO.P,J1,2,D-*%
%TO.N,/USBCONN_N*%
X130644400Y-57820000D03*
%TO.P,J1,3,D+*%
%TO.N,/USBCONN_P*%
X132644400Y-57820000D03*
%TO.P,J1,4,GND*%
%TO.N,GND*%
X135144400Y-57820000D03*
D20*
%TO.P,J1,5,Shield*%
X125944400Y-55070000D03*
X137344400Y-55070000D03*
%TD*%
D18*
%TO.P,C9,1*%
%TO.N,GND*%
X126830000Y-81500000D03*
%TO.P,C9,2*%
%TO.N,/XO_48M*%
X127470000Y-81500000D03*
%TD*%
D21*
%TO.P,R5,1,1*%
%TO.N,+3.3V*%
X134100000Y-70620000D03*
%TO.P,R5,2,2*%
%TO.N,/FB_3.3V*%
X134100000Y-69980000D03*
%TD*%
D14*
%TO.P,C4,1,1*%
%TO.N,+3.3V*%
X134598726Y-77701274D03*
%TO.P,C4,2,2*%
%TO.N,GND*%
X135051274Y-77248726D03*
%TD*%
D17*
%TO.P,R4,1,1*%
%TO.N,+3.3V*%
X136700000Y-84580000D03*
%TO.P,R4,2,2*%
%TO.N,/RST_N*%
X136700000Y-85220000D03*
%TD*%
D15*
%TO.P,C6,1,1*%
%TO.N,+3.3V*%
X130526274Y-81073726D03*
%TO.P,C6,2,2*%
%TO.N,GND*%
X130073726Y-81526274D03*
%TD*%
D16*
%TO.P,R8,1,1*%
%TO.N,/FB_0.85V*%
X126520000Y-87400000D03*
%TO.P,R8,2,2*%
%TO.N,GND*%
X125880000Y-87400000D03*
%TD*%
D22*
%TO.P,C14,1,1*%
%TO.N,+3.3V*%
X136025000Y-75500000D03*
%TO.P,C14,2,2*%
%TO.N,GND*%
X137575000Y-75500000D03*
%TD*%
D15*
%TO.P,C7,1,1*%
%TO.N,+0.9V*%
X132026274Y-82848726D03*
%TO.P,C7,2,2*%
%TO.N,GND*%
X131573726Y-83301274D03*
%TD*%
D23*
%TO.P,D1,1,K*%
%TO.N,/VSYS*%
X137000000Y-68000000D03*
%TO.P,D1,2,A*%
%TO.N,VBUS*%
X134900000Y-68000000D03*
%TD*%
D15*
%TO.P,C2,1,1*%
%TO.N,+3.3V*%
X130026274Y-80573726D03*
%TO.P,C2,2,2*%
%TO.N,GND*%
X129573726Y-81026274D03*
%TD*%
D24*
%TO.P,SW1,1,1*%
%TO.N,GND*%
X129875000Y-67800000D03*
X129875000Y-73800000D03*
%TO.P,SW1,2,2*%
%TO.N,/PC13*%
X126125000Y-67800000D03*
X126125000Y-73800000D03*
%TD*%
D25*
%TO.P,C16,1,1*%
%TO.N,+0.9V*%
X129375000Y-87800000D03*
%TO.P,C16,2,2*%
%TO.N,GND*%
X127825000Y-87800000D03*
%TD*%
D21*
%TO.P,C12,1,1*%
%TO.N,/RST_N*%
X133900000Y-82220000D03*
%TO.P,C12,2,2*%
%TO.N,GND*%
X133900000Y-81580000D03*
%TD*%
D26*
%TO.P,C3,1,1*%
%TO.N,/2.5V*%
X130651274Y-76501274D03*
%TO.P,C3,2,2*%
%TO.N,GND*%
X130198726Y-76048726D03*
%TD*%
D27*
%TO.P,L1,1*%
%TO.N,Net-(U3-SW)*%
X137862500Y-73900000D03*
%TO.P,L1,2*%
%TO.N,+3.3V*%
X135737500Y-73900000D03*
%TD*%
D28*
%TO.P,U2,A2,USB_D+*%
%TO.N,/USBC_P*%
X132241421Y-77161522D03*
%TO.P,U2,A3,V3.3IN*%
%TO.N,+3.3V*%
X132524264Y-77444365D03*
%TO.P,U2,A4,VDD.85*%
%TO.N,+0.9V*%
X132807107Y-77727208D03*
%TO.P,U2,A5,PB5*%
%TO.N,unconnected-(U2C-PB5-PadA5)*%
X133089949Y-78010051D03*
%TO.P,U2,A6,PB4*%
%TO.N,unconnected-(U2C-PB4-PadA6)*%
X133372792Y-78292893D03*
%TO.P,U2,A7,PB3*%
%TO.N,unconnected-(U2C-PB3-PadA7)*%
X133655635Y-78575736D03*
%TO.P,U2,A8,PB2*%
%TO.N,unconnected-(U2C-PB2-PadA8)*%
X133938478Y-78858579D03*
%TO.P,U2,A9,PB1*%
%TO.N,unconnected-(U2C-PB1-PadA9)*%
X134221320Y-79141421D03*
%TO.P,U2,B1,USB_D-*%
%TO.N,/USBC_N*%
X131675736Y-77161522D03*
%TO.P,U2,B2,GND*%
%TO.N,GND*%
X131958579Y-77444365D03*
%TO.P,U2,B3,X32KIN*%
%TO.N,unconnected-(U2B-X32KIN-PadB3)*%
X132241421Y-77727208D03*
%TO.P,U2,B4,X32KOUT*%
%TO.N,unconnected-(U2B-X32KOUT-PadB4)*%
X132524264Y-78010051D03*
%TO.P,U2,B5,PB6*%
%TO.N,unconnected-(U2C-PB6-PadB5)*%
X132807107Y-78292893D03*
%TO.P,U2,B6,PB7*%
%TO.N,unconnected-(U2C-PB7-PadB6)*%
X133089949Y-78575736D03*
%TO.P,U2,B7,VDDIO*%
%TO.N,+3.3V*%
X133372792Y-78858579D03*
%TO.P,U2,B8,PB8*%
%TO.N,unconnected-(U2C-PB8-PadB8)*%
X133655635Y-79141421D03*
%TO.P,U2,B9,PB11*%
%TO.N,unconnected-(U2C-PB11-PadB9)*%
X133938478Y-79424264D03*
D29*
%TO.P,U2,C1,VDD2.5*%
%TO.N,/2.5V*%
X131392893Y-77444365D03*
D28*
%TO.P,U2,C2,PC15*%
%TO.N,unconnected-(U2D-PC15-PadC2)*%
X131675736Y-77727208D03*
%TO.P,U2,C3,GND*%
%TO.N,GND*%
X131958579Y-78010051D03*
%TO.P,U2,C4,PA5*%
X132241421Y-78292893D03*
%TO.P,U2,C5,GND*%
X132524264Y-78575736D03*
%TO.P,U2,C6,PF9_PA0*%
%TO.N,+3.3V*%
X132807107Y-78858579D03*
%TO.P,U2,C7,VDDIO*%
X133089949Y-79141421D03*
%TO.P,U2,C8,PB9*%
%TO.N,unconnected-(U2C-PB9-PadC8)*%
X133372792Y-79424264D03*
%TO.P,U2,C9,PB12*%
%TO.N,unconnected-(U2C-PB12-PadC9)*%
X133655635Y-79707107D03*
%TO.P,U2,D1,PC13*%
%TO.N,unconnected-(U2D-PC13-PadD1)*%
X131110051Y-77727208D03*
%TO.P,U2,D2,PC14*%
%TO.N,unconnected-(U2D-PC14-PadD2)*%
X131392893Y-78010051D03*
%TO.P,U2,D3,DUART*%
%TO.N,unconnected-(U2B-DUART-PadD3)*%
X131675736Y-78292893D03*
%TO.P,U2,D4,GND*%
%TO.N,GND*%
X131958579Y-78575736D03*
%TO.P,U2,D5,GND_TP*%
X132241421Y-78858579D03*
%TO.P,U2,D6,PB0*%
%TO.N,+3.3V*%
X132524264Y-79141421D03*
%TO.P,U2,D7,PA7*%
X132807107Y-79424264D03*
%TO.P,U2,D8,PB10*%
%TO.N,unconnected-(U2C-PB10-PadD8)*%
X133089949Y-79707107D03*
%TO.P,U2,D9,PB13*%
%TO.N,unconnected-(U2C-PB13-PadD9)*%
X133372792Y-79989949D03*
%TO.P,U2,E1,PC12*%
%TO.N,unconnected-(U2D-PC12-PadE1)*%
X130827208Y-78010051D03*
%TO.P,U2,E2,PF0*%
%TO.N,unconnected-(U2E-PF0-PadE2)*%
X131110051Y-78292893D03*
%TO.P,U2,E3,PC5*%
%TO.N,GND*%
X131392893Y-78575736D03*
%TO.P,U2,E4,PF1*%
X131675736Y-78858579D03*
%TO.P,U2,E5,XRSTn*%
%TO.N,unconnected-(U2B-XRSTn-PadE5)*%
X131958579Y-79141421D03*
%TO.P,U2,E6,VDDAO*%
%TO.N,+0.9V*%
X132241421Y-79424264D03*
%TO.P,U2,E7,VDD.85*%
X132524264Y-79707107D03*
%TO.P,U2,E8,PC4*%
%TO.N,unconnected-(U2D-PC4-PadE8)*%
X132807107Y-79989949D03*
%TO.P,U2,E9,PB14*%
%TO.N,unconnected-(U2C-PB14-PadE9)*%
X133089949Y-80272792D03*
%TO.P,U2,F1,PC11*%
%TO.N,unconnected-(U2D-PC11-PadF1)*%
X130544365Y-78292893D03*
%TO.P,U2,F2,PF8_PA1*%
%TO.N,unconnected-(U2E-PF8_PA1-PadF2)*%
X130827208Y-78575736D03*
%TO.P,U2,F3,PA3*%
%TO.N,GND*%
X131110051Y-78858579D03*
%TO.P,U2,F4,PC6*%
X131392893Y-79141421D03*
%TO.P,U2,F5,GND*%
X131675736Y-79424264D03*
%TO.P,U2,F6,PA6*%
%TO.N,+0.9V*%
X131958579Y-79707107D03*
%TO.P,U2,F7,VDD.85*%
X132241421Y-79989949D03*
%TO.P,U2,F8,PF7_PA2*%
%TO.N,unconnected-(U2E-PF7_PA2-PadF8)*%
X132524264Y-80272792D03*
%TO.P,U2,F9,PC0*%
%TO.N,unconnected-(U2D-PC0-PadF9)*%
X132807107Y-80555635D03*
%TO.P,U2,G1,PC10*%
%TO.N,unconnected-(U2D-PC10-PadG1)*%
X130261522Y-78575736D03*
%TO.P,U2,G2,PF3*%
%TO.N,unconnected-(U2E-PF3-PadG2)*%
X130544365Y-78858579D03*
%TO.P,U2,G3,PA4*%
%TO.N,unconnected-(U2E-PA4-PadG3)*%
X130827208Y-79141421D03*
%TO.P,U2,G4,PF2*%
%TO.N,unconnected-(U2E-PF2-PadG4)*%
X131110051Y-79424264D03*
%TO.P,U2,G5,PF4*%
%TO.N,unconnected-(U2E-PF4-PadG5)*%
X131392893Y-79707107D03*
%TO.P,U2,G6,PB15*%
%TO.N,unconnected-(U2C-PB15-PadG6)*%
X131675736Y-79989949D03*
%TO.P,U2,G7,PF5*%
%TO.N,unconnected-(U2E-PF5-PadG7)*%
X131958579Y-80272792D03*
%TO.P,U2,G8,PF6*%
%TO.N,unconnected-(U2E-PF6-PadG8)*%
X132241421Y-80555635D03*
%TO.P,U2,G9,PC1*%
%TO.N,unconnected-(U2D-PC1-PadG9)*%
X132524264Y-80838478D03*
%TO.P,U2,H1,X48MI*%
%TO.N,/XI_48M*%
X129978680Y-78858579D03*
%TO.P,U2,H2,X48MO*%
%TO.N,/XO_48M*%
X130261522Y-79141421D03*
%TO.P,U2,H3,PC9*%
%TO.N,unconnected-(U2D-PC9-PadH3)*%
X130544365Y-79424264D03*
%TO.P,U2,H4,V3.3RR*%
%TO.N,+3.3V*%
X130827208Y-79707107D03*
%TO.P,U2,H5,AORSTn*%
%TO.N,/RST_N*%
X131110051Y-79989949D03*
%TO.P,U2,H6,PC8*%
%TO.N,unconnected-(U2D-PC8-PadH6)*%
X131392893Y-80272792D03*
%TO.P,U2,H7,PC7*%
%TO.N,unconnected-(U2D-PC7-PadH7)*%
X131675736Y-80555635D03*
%TO.P,U2,H8,PC3*%
%TO.N,unconnected-(U2D-PC3-PadH8)*%
X131958579Y-80838478D03*
%TO.P,U2,H9,PC2*%
%TO.N,unconnected-(U2D-PC2-PadH9)*%
X132241421Y-81121320D03*
%TD*%
D30*
%TO.P,Y1,1,X1*%
%TO.N,/XI_48M*%
X126375000Y-77950000D03*
%TO.P,Y1,2,CASE2*%
%TO.N,GND*%
X126375000Y-80150000D03*
%TO.P,Y1,3,X2*%
%TO.N,/XO_48M*%
X128075000Y-80150000D03*
%TO.P,Y1,4,CASE4*%
%TO.N,GND*%
X128075000Y-77950000D03*
%TD*%
D31*
%TO.P,R2,1,1*%
%TO.N,/XO_48M*%
X125050000Y-79584999D03*
%TO.P,R2,2,2*%
%TO.N,/XI_48M*%
X125050000Y-78565001D03*
%TD*%
D16*
%TO.P,R1,1,1*%
%TO.N,VBUS*%
X134860000Y-64984800D03*
%TO.P,R1,2,2*%
%TO.N,GND*%
X134220000Y-64984800D03*
%TD*%
D32*
%TO.P,U4,1,EN*%
%TO.N,/EN*%
X129237500Y-86249999D03*
%TO.P,U4,2,GND*%
%TO.N,GND*%
X129237500Y-85300000D03*
%TO.P,U4,3,SW*%
%TO.N,Net-(U4-SW)*%
X129237500Y-84350001D03*
%TO.P,U4,4,VIN*%
%TO.N,/VSYS*%
X126962500Y-84350001D03*
%TO.P,U4,5,FB*%
%TO.N,/FB_0.85V*%
X126962500Y-86249999D03*
%TD*%
D16*
%TO.P,R6,1,1*%
%TO.N,/FB_3.3V*%
X133920000Y-69100000D03*
%TO.P,R6,2,2*%
%TO.N,GND*%
X133280000Y-69100000D03*
%TD*%
D14*
%TO.P,C8,1,1*%
%TO.N,+3.3V*%
X132823726Y-76026274D03*
%TO.P,C8,2,2*%
%TO.N,GND*%
X133276274Y-75573726D03*
%TD*%
D33*
%TO.P,U1,1,C0+*%
%TO.N,/USBCONN_P*%
X132500000Y-70560000D03*
D34*
%TO.P,U1,2,C0-*%
%TO.N,/USBCONN_N*%
X132100001Y-70510000D03*
D35*
%TO.P,U1,3,GND*%
%TO.N,GND*%
X131500000Y-70710000D03*
%TO.P,U1,4,L0-*%
X131500001Y-71110000D03*
%TO.P,U1,5,L0+*%
X131500000Y-71510000D03*
D34*
%TO.P,U1,6,L1-*%
%TO.N,/USBC_N*%
X132100001Y-71710000D03*
%TO.P,U1,7,L1+*%
%TO.N,/USBC_P*%
X132499999Y-71710000D03*
D35*
%TO.P,U1,8,EN*%
%TO.N,GND*%
X133100000Y-71510000D03*
%TO.P,U1,9,VDD*%
%TO.N,+3.3V*%
X133099999Y-71110000D03*
%TO.P,U1,10,SEL*%
%TO.N,/PC13*%
X133100000Y-70710000D03*
%TD*%
D36*
%TO.P,U3,1,EN*%
%TO.N,/EN*%
X135300002Y-72137500D03*
%TO.P,U3,2,GND*%
%TO.N,GND*%
X136250001Y-72137500D03*
%TO.P,U3,3,SW*%
%TO.N,Net-(U3-SW)*%
X137200000Y-72137500D03*
%TO.P,U3,4,VIN*%
%TO.N,/VSYS*%
X137200000Y-69862500D03*
%TO.P,U3,5,FB*%
%TO.N,/FB_3.3V*%
X135300002Y-69862500D03*
%TD*%
D12*
%TO.P,C11,1,1*%
%TO.N,/VSYS*%
X138700000Y-69625000D03*
%TO.P,C11,2,2*%
%TO.N,GND*%
X138700000Y-71175000D03*
%TD*%
%TO.P,C15,1,1*%
%TO.N,/VSYS*%
X125300000Y-84525000D03*
%TO.P,C15,2,2*%
%TO.N,GND*%
X125300000Y-86075000D03*
%TD*%
D37*
%TO.N,GND*%
X130930000Y-81980000D03*
X133219200Y-64680000D03*
X130882400Y-64730800D03*
X130960000Y-70090000D03*
X130390000Y-71880000D03*
X129325000Y-81750000D03*
X136900000Y-74800000D03*
X133910000Y-67280000D03*
X130882400Y-65899200D03*
X133168400Y-67169200D03*
X133219200Y-63562400D03*
X130933200Y-60362000D03*
X128500000Y-83600000D03*
X129053600Y-79462800D03*
X131034800Y-67169200D03*
X129750000Y-75600000D03*
X134037500Y-75362500D03*
X138500000Y-75200000D03*
X126000000Y-85400000D03*
X137900000Y-84000000D03*
X137900000Y-80050000D03*
X139200000Y-84400000D03*
X135556000Y-92569200D03*
X136700000Y-73300000D03*
X141702800Y-85254000D03*
X136800000Y-74000000D03*
X139700000Y-69800000D03*
X138700000Y-72000000D03*
X138045200Y-65289600D03*
X127885200Y-92518400D03*
X129200000Y-78500000D03*
X133558587Y-74058587D03*
X125424998Y-77837200D03*
X133270000Y-65950000D03*
X130400000Y-85900000D03*
X130850637Y-83524363D03*
X130882400Y-63511600D03*
X139250000Y-80050000D03*
X137384800Y-58279200D03*
X137900000Y-71000000D03*
X130882400Y-62089200D03*
X136400000Y-71100000D03*
X133016000Y-83425200D03*
X134438400Y-83272800D03*
X139213600Y-85304800D03*
X125200000Y-87100000D03*
X133168400Y-68337600D03*
X128100000Y-87000000D03*
X127529600Y-64629200D03*
X136850000Y-88600000D03*
X131300000Y-76300000D03*
X133168400Y-62089200D03*
X133168400Y-60362000D03*
X134895600Y-70928400D03*
X130100000Y-83600000D03*
X127174000Y-67575600D03*
X128100000Y-85300000D03*
X139264400Y-82510800D03*
X141702800Y-84441200D03*
X141652000Y-72249200D03*
D38*
X131392893Y-78858579D03*
D37*
X135400000Y-68800000D03*
X137100000Y-71000000D03*
X125700800Y-58279200D03*
X133900000Y-80900000D03*
X127840000Y-76820000D03*
X137900000Y-89550000D03*
X127800000Y-88700000D03*
X135550000Y-76750000D03*
X140077200Y-75195600D03*
X126125000Y-81550000D03*
X133100000Y-72500000D03*
X130984000Y-68337600D03*
X139975600Y-72249200D03*
%TO.N,+3.3V*%
X133950000Y-77600000D03*
X135000000Y-75700000D03*
X136000000Y-80100000D03*
X135300000Y-79400000D03*
X135000000Y-74900000D03*
X130250000Y-79900000D03*
D38*
X132807107Y-79141421D03*
D37*
X132675000Y-76675000D03*
X136300000Y-77900000D03*
X135500000Y-77800000D03*
%TO.N,/VSYS*%
X136927600Y-65340400D03*
X125900000Y-83600000D03*
X127450000Y-72600000D03*
X127500000Y-69850000D03*
X126620000Y-83590000D03*
X126500000Y-72600000D03*
X126500000Y-69850000D03*
%TO.N,/RST_N*%
X136700000Y-86175000D03*
X124800000Y-81900000D03*
X125200000Y-90300000D03*
X133250000Y-89250000D03*
X129400000Y-90300000D03*
X134000000Y-85700000D03*
%TO.N,/EN*%
X130222000Y-91959600D03*
X139478800Y-68501200D03*
X128600000Y-88700000D03*
X135650000Y-90800000D03*
X136876800Y-66559600D03*
%TO.N,/PC13*%
X126100000Y-68850000D03*
X133550000Y-69950000D03*
%TO.N,+0.9V*%
X132369792Y-82300000D03*
X133329657Y-77204657D03*
X132300000Y-81675000D03*
D38*
X132241421Y-79707107D03*
D37*
%TO.N,/USBCONN_P*%
X132355600Y-60311200D03*
X132345866Y-61787597D03*
%TO.N,/USBCONN_N*%
X131746000Y-60311200D03*
X131746000Y-61774800D03*
%TD*%
D39*
%TO.N,/2.5V*%
X131392893Y-77444365D02*
X130651274Y-76702746D01*
X130651274Y-76702746D02*
X130651274Y-76501274D01*
D40*
%TO.N,*%
X130827208Y-79141421D02*
X130544365Y-79424264D01*
D41*
%TO.N,GND*%
X133100000Y-72500000D02*
X133500000Y-72100000D01*
D39*
X129200000Y-78500000D02*
X128625000Y-78500000D01*
X133801274Y-76098726D02*
X133551274Y-75848726D01*
D42*
X136500000Y-71000000D02*
X136250001Y-71249999D01*
X126075000Y-85300000D02*
X128100000Y-85300000D01*
D40*
X126375000Y-80150000D02*
X126375000Y-81045000D01*
D41*
X130590000Y-71110000D02*
X130580000Y-71100000D01*
D42*
X127825000Y-87800000D02*
X127825000Y-88675000D01*
D39*
X132154657Y-78379657D02*
X132075000Y-78300000D01*
D42*
X128100000Y-85300000D02*
X129237500Y-85300000D01*
D41*
X130760000Y-71510000D02*
X131500000Y-71510000D01*
X133100000Y-71640000D02*
X133500000Y-72040000D01*
D39*
X134150000Y-68250000D02*
X133909999Y-68250000D01*
X131299363Y-83075637D02*
X130850637Y-83524363D01*
D43*
X131675736Y-78858579D02*
X131392893Y-78858579D01*
D42*
X130775000Y-83600000D02*
X130850637Y-83524363D01*
D39*
X133551274Y-75848726D02*
X133276274Y-75573726D01*
D40*
X126502500Y-81172500D02*
X126830000Y-81500000D01*
X128075000Y-77950000D02*
X128075000Y-77050000D01*
D41*
X125880000Y-87400000D02*
X125500000Y-87400000D01*
D40*
X131958579Y-78010051D02*
X131958579Y-77444365D01*
D42*
X128100000Y-85300000D02*
X128100000Y-87525000D01*
D40*
X127625000Y-76600000D02*
X127245000Y-76600000D01*
D41*
X131500001Y-71110000D02*
X130590000Y-71110000D01*
X133500000Y-72040000D02*
X134100000Y-72040000D01*
X130760000Y-71510000D02*
X130380000Y-71890000D01*
D42*
X129237500Y-85300000D02*
X129800000Y-85300000D01*
X128500000Y-83600000D02*
X130775000Y-83600000D01*
D40*
X131392893Y-78575736D02*
X131392893Y-78858579D01*
D41*
X125200000Y-87100000D02*
X125300000Y-87000000D01*
X125300000Y-87000000D02*
X125300000Y-86075000D01*
D40*
X129800000Y-73875000D02*
X129800000Y-75550000D01*
D39*
X133280000Y-69100000D02*
X133280000Y-68879999D01*
D41*
X131500000Y-70710000D02*
X130970000Y-70710000D01*
X130580000Y-70880000D02*
X130580000Y-71100000D01*
X133500000Y-72100000D02*
X133500000Y-72040000D01*
D42*
X129800000Y-85300000D02*
X130400000Y-85900000D01*
D39*
X135400000Y-68800000D02*
X134700000Y-68800000D01*
D41*
X125500000Y-87400000D02*
X125200000Y-87100000D01*
D39*
X131348726Y-83126274D02*
X131098726Y-82876274D01*
D42*
X134037500Y-75362500D02*
X134037500Y-74537500D01*
D39*
X133909999Y-67310001D02*
X133920000Y-67300000D01*
D41*
X131966736Y-78567579D02*
X131966736Y-78018208D01*
D39*
X133909999Y-68250000D02*
X133909999Y-67310001D01*
D40*
X129800000Y-75550000D02*
X129750000Y-75600000D01*
D41*
X131675736Y-79424264D02*
X131392893Y-79141421D01*
D40*
X126375000Y-81045000D02*
X126502500Y-81172500D01*
D39*
X132154657Y-78379657D02*
X131958579Y-78575736D01*
X129811226Y-81263774D02*
X129325000Y-81750000D01*
X130907305Y-75907305D02*
X130340147Y-75907305D01*
D41*
X130580000Y-71100000D02*
X130580000Y-71330000D01*
D44*
X134399000Y-75999000D02*
X134399000Y-75700000D01*
D39*
X130770001Y-83604999D02*
X130850637Y-83524363D01*
X135051274Y-77248726D02*
X135550000Y-76750000D01*
D42*
X136250001Y-71249999D02*
X136250001Y-72137500D01*
D39*
X130198726Y-76048726D02*
X129750000Y-75600000D01*
D42*
X137575000Y-75500000D02*
X138200000Y-75500000D01*
D39*
X139700000Y-69800000D02*
X139700000Y-69950000D01*
D41*
X130970000Y-70710000D02*
X130750000Y-70710000D01*
D39*
X128075000Y-77055000D02*
X127840000Y-76820000D01*
D40*
X131110051Y-78858579D02*
X131392893Y-78858579D01*
D42*
X138200000Y-75500000D02*
X138700000Y-75000000D01*
X128100000Y-87525000D02*
X127825000Y-87800000D01*
D41*
X131392893Y-79141421D02*
X131392893Y-78858579D01*
D40*
X133900000Y-81580000D02*
X133900000Y-80900000D01*
D43*
X131940000Y-78858579D02*
X131958579Y-78840000D01*
D41*
X130580000Y-71330000D02*
X130760000Y-71510000D01*
D39*
X131300000Y-76300000D02*
X130907305Y-75907305D01*
D42*
X128100000Y-84000000D02*
X128500000Y-83600000D01*
D44*
X134375000Y-75700000D02*
X134037500Y-75362500D01*
D39*
X130340147Y-75907305D02*
X130198726Y-76048726D01*
D41*
X133100000Y-71510000D02*
X133100000Y-71640000D01*
D42*
X137575000Y-75500000D02*
X136800000Y-74725000D01*
D44*
X135200000Y-76400000D02*
X134800000Y-76400000D01*
D42*
X136800000Y-73400000D02*
X136250001Y-72850001D01*
D43*
X131940000Y-78858579D02*
X132241421Y-78858579D01*
D39*
X132241421Y-78292893D02*
X132154657Y-78379657D01*
D40*
X126502500Y-81172500D02*
X126125000Y-81550000D01*
D42*
X133100000Y-73600000D02*
X133100000Y-72500000D01*
D41*
X132524264Y-78575736D02*
X132241421Y-78292893D01*
D43*
X131675736Y-78858579D02*
X131940000Y-78858579D01*
D42*
X138525000Y-71000000D02*
X136500000Y-71000000D01*
X136250001Y-72850001D02*
X136250001Y-72137500D01*
D44*
X134800000Y-76400000D02*
X134399000Y-75999000D01*
D39*
X131598726Y-83376274D02*
X131348726Y-83126274D01*
X129573726Y-81026274D02*
X129811226Y-81263774D01*
X128625000Y-78500000D02*
X128075000Y-77950000D01*
D42*
X138700000Y-75000000D02*
X138700000Y-71175000D01*
D43*
X131958579Y-78840000D02*
X131958579Y-78575736D01*
D42*
X134037500Y-74537500D02*
X133100000Y-73600000D01*
D41*
X130750000Y-70710000D02*
X130580000Y-70880000D01*
D42*
X128100000Y-85300000D02*
X128100000Y-84000000D01*
D41*
X130970000Y-70710000D02*
X130970000Y-70080000D01*
X132241421Y-78858579D02*
X132524264Y-78575736D01*
D39*
X133280000Y-68879999D02*
X133909999Y-68250000D01*
D44*
X135550000Y-76750000D02*
X135200000Y-76400000D01*
D39*
X128075000Y-77950000D02*
X128075000Y-77055000D01*
D40*
X128075000Y-77050000D02*
X127625000Y-76600000D01*
D39*
X133551274Y-75848726D02*
X134037500Y-75362500D01*
X139700000Y-69950000D02*
X138700000Y-70950000D01*
X129811226Y-81263774D02*
X130073726Y-81526274D01*
D42*
X136800000Y-74725000D02*
X136800000Y-73400000D01*
X125300000Y-86075000D02*
X126075000Y-85300000D01*
D39*
X134700000Y-68800000D02*
X134150000Y-68250000D01*
X131958579Y-78010051D02*
X132241421Y-78292893D01*
D40*
%TO.N,/XI_48M*%
X127450000Y-79025000D02*
X126375000Y-77950000D01*
X126605000Y-77695000D02*
X126605000Y-76600000D01*
X125050000Y-78565001D02*
X125759999Y-78565001D01*
X129812259Y-79025000D02*
X127450000Y-79025000D01*
X129978680Y-78858579D02*
X129812259Y-79025000D01*
X125759999Y-78565001D02*
X126375000Y-77950000D01*
D41*
%TO.N,+3.3V*%
X130026274Y-80123726D02*
X130026274Y-80573726D01*
D42*
X136025000Y-75500000D02*
X135100000Y-75500000D01*
D39*
X134100000Y-71400000D02*
X134100000Y-70620000D01*
D41*
X130250000Y-79900000D02*
X130026274Y-80123726D01*
D39*
X133950000Y-77750000D02*
X133998726Y-77701274D01*
D41*
X130827208Y-79707107D02*
X130673059Y-79707107D01*
D39*
X133998726Y-77701274D02*
X134598726Y-77701274D01*
D42*
X135000000Y-74900000D02*
X134700000Y-74600000D01*
D39*
X132524264Y-77444365D02*
X132675000Y-77293629D01*
X134100000Y-71400000D02*
X133810000Y-71110000D01*
D40*
X136700000Y-80800000D02*
X135300000Y-79400000D01*
D39*
X132675000Y-76175000D02*
X132823726Y-76026274D01*
X134700000Y-71700000D02*
X134700000Y-74600000D01*
D42*
X135000000Y-75400000D02*
X135000000Y-74900000D01*
D41*
X130664902Y-79715264D02*
X130434736Y-79715264D01*
D42*
X135737500Y-73900000D02*
X135737500Y-75212500D01*
X135000000Y-75400000D02*
X135000000Y-75700000D01*
D39*
X133810000Y-71110000D02*
X133099999Y-71110000D01*
D41*
X130434736Y-79715264D02*
X130250000Y-79900000D01*
D42*
X135100000Y-75500000D02*
X135000000Y-75400000D01*
D39*
X134100000Y-71400000D02*
X134400000Y-71400000D01*
X132675000Y-77293629D02*
X132675000Y-76175000D01*
X134400000Y-71400000D02*
X134700000Y-71700000D01*
D41*
X130026274Y-80573726D02*
X130526274Y-81073726D01*
X133089949Y-79141421D02*
X133372792Y-78858579D01*
D40*
X136700000Y-84580000D02*
X136700000Y-80800000D01*
D42*
X135737500Y-75212500D02*
X136025000Y-75500000D01*
D41*
X130673059Y-79707107D02*
X130664902Y-79715264D01*
D40*
%TO.N,/XO_48M*%
X127150000Y-79050000D02*
X128075000Y-79975000D01*
X130261522Y-79141421D02*
X130033579Y-79141421D01*
X128075000Y-80150000D02*
X128075000Y-81100000D01*
X125050000Y-79584999D02*
X125584999Y-79050000D01*
X125584999Y-79050000D02*
X127150000Y-79050000D01*
X130033579Y-79141421D02*
X129025000Y-80150000D01*
X128075000Y-81100000D02*
X127675000Y-81500000D01*
X127675000Y-81500000D02*
X127470000Y-81500000D01*
X129025000Y-80150000D02*
X128075000Y-80150000D01*
D42*
%TO.N,/VSYS*%
X137000000Y-69662500D02*
X137200000Y-69862500D01*
X138700000Y-69625000D02*
X137437500Y-69625000D01*
X136927600Y-65696000D02*
X138101606Y-66870006D01*
X138101606Y-66870006D02*
X138101606Y-67519194D01*
X125900000Y-84250001D02*
X125800000Y-84350001D01*
X137437500Y-69625000D02*
X137200000Y-69862500D01*
X138101606Y-67519194D02*
X138000000Y-67620800D01*
X125800000Y-84350001D02*
X125474999Y-84350001D01*
X126962500Y-84350001D02*
X125800000Y-84350001D01*
X127450000Y-69900000D02*
X127500000Y-69850000D01*
X138000000Y-67680000D02*
X137320000Y-67680000D01*
X126500000Y-69850000D02*
X127500000Y-69850000D01*
X127450000Y-72600000D02*
X127450000Y-69900000D01*
D40*
X137980000Y-68500000D02*
X137980000Y-67700000D01*
D42*
X137320000Y-67680000D02*
X137000000Y-68000000D01*
X125900000Y-83600000D02*
X125900000Y-84250001D01*
X137000000Y-68000000D02*
X137000000Y-69662500D01*
X126500000Y-69850000D02*
X126500000Y-72600000D01*
X138000000Y-67620800D02*
X138000000Y-67680000D01*
D40*
X137980000Y-67700000D02*
X138000000Y-67680000D01*
D42*
X126500000Y-72600000D02*
X127450000Y-72600000D01*
X136927600Y-65340400D02*
X136927600Y-65696000D01*
D40*
%TO.N,/RST_N*%
X133575000Y-82545000D02*
X133900000Y-82220000D01*
X131000000Y-80100000D02*
X131000000Y-81215744D01*
X133250000Y-89250000D02*
X133725000Y-88775000D01*
X133901948Y-84109999D02*
X133575000Y-83783051D01*
X136700000Y-86175000D02*
X136700000Y-85220000D01*
X133725000Y-85425000D02*
X133725000Y-84384999D01*
X134000000Y-85700000D02*
X133725000Y-85425000D01*
X131110051Y-79989949D02*
X131000000Y-80100000D01*
X125100000Y-82200000D02*
X124800000Y-81900000D01*
X130015744Y-82200000D02*
X131000000Y-81215744D01*
X133575000Y-83783051D02*
X133575000Y-82545000D01*
X133901948Y-84208051D02*
X133901948Y-84109999D01*
X133725000Y-88775000D02*
X133725000Y-85975000D01*
X125100000Y-82200000D02*
X130015744Y-82200000D01*
X125200000Y-90300000D02*
X129400000Y-90300000D01*
X133725000Y-84384999D02*
X133901948Y-84208051D01*
X133725000Y-85975000D02*
X134000000Y-85700000D01*
D42*
%TO.N,VBUS*%
X134032000Y-61174800D02*
X135098800Y-62241600D01*
X128144400Y-60009400D02*
X129309800Y-61174800D01*
X129309800Y-61174800D02*
X134032000Y-61174800D01*
X135200400Y-66102400D02*
X134900000Y-66402800D01*
X134900000Y-66402800D02*
X134900000Y-68000000D01*
X135098800Y-63714800D02*
X135200400Y-63816400D01*
X135200400Y-63816400D02*
X135200400Y-66102400D01*
X128144400Y-57820000D02*
X128144400Y-60009400D01*
X135098800Y-62241600D02*
X135098800Y-63714800D01*
%TO.N,Net-(U3-SW)*%
X137200000Y-72137500D02*
X137862500Y-72800000D01*
X137862500Y-72800000D02*
X137862500Y-73900000D01*
D40*
%TO.N,/EN*%
X136100000Y-70600000D02*
X136100000Y-68000000D01*
X135300002Y-71399998D02*
X136100000Y-70600000D01*
X128600000Y-87400000D02*
X128800000Y-87200000D01*
X135300002Y-72137500D02*
X135300002Y-71399998D01*
X130222000Y-91959600D02*
X130933200Y-91959600D01*
X130933200Y-91959600D02*
X132092800Y-90800000D01*
X136100000Y-68000000D02*
X136876800Y-67223200D01*
X136876800Y-67223200D02*
X136876800Y-66559600D01*
X138620000Y-68500000D02*
X139477600Y-68500000D01*
X139477600Y-68500000D02*
X139478800Y-68501200D01*
X132092800Y-90800000D02*
X135650000Y-90800000D01*
X128800000Y-86249999D02*
X128800000Y-87200000D01*
X128600000Y-87400000D02*
X128600000Y-88700000D01*
%TO.N,/PC13*%
X125150000Y-74120000D02*
X125150000Y-73800000D01*
X126125000Y-67800000D02*
X125222400Y-67800000D01*
D39*
X133230000Y-70180000D02*
X133100000Y-70310000D01*
D40*
X128842842Y-75460000D02*
X126490000Y-75460000D01*
X125150000Y-67888400D02*
X125150000Y-73800000D01*
D39*
X133100000Y-70310000D02*
X133100000Y-70710000D01*
D40*
X125150000Y-74120000D02*
X126490000Y-75460000D01*
X126125000Y-68825000D02*
X126125000Y-67800000D01*
X125222400Y-67800000D02*
X125142000Y-67880400D01*
D39*
X133550000Y-69950000D02*
X133320000Y-70180000D01*
D40*
X126125000Y-73800000D02*
X125150000Y-73800000D01*
D39*
X133320000Y-70180000D02*
X133230000Y-70180000D01*
D40*
X126100000Y-68850000D02*
X126125000Y-68825000D01*
X125142000Y-67880400D02*
X125150000Y-67888400D01*
X131110051Y-77727208D02*
X128842842Y-75460000D01*
D39*
%TO.N,/USBC_N*%
X131675736Y-77161522D02*
X131807579Y-77029679D01*
X132149001Y-72525321D02*
X132149001Y-71959999D01*
X131807579Y-75546125D02*
X131610000Y-75348546D01*
X131807579Y-77029679D02*
X131807579Y-75546125D01*
X132150000Y-71959999D02*
X132100001Y-71910000D01*
X131610000Y-75348546D02*
X131610000Y-73064322D01*
X131610000Y-73064322D02*
X132149001Y-72525321D01*
D42*
%TO.N,+0.9V*%
X130300000Y-87800000D02*
X130700000Y-88200000D01*
X129375000Y-87800000D02*
X130162500Y-87800000D01*
D39*
X132475000Y-83200000D02*
X132377548Y-83200000D01*
D42*
X130162500Y-87800000D02*
X130300000Y-87800000D01*
D39*
X131551274Y-82423726D02*
X132051274Y-82923726D01*
X132450000Y-84525000D02*
X132300000Y-84675000D01*
D41*
X126600000Y-89200000D02*
X125880000Y-88480000D01*
D39*
X132450000Y-87182900D02*
X132123264Y-87509636D01*
X132273264Y-84150000D02*
X132273264Y-83095716D01*
X132425000Y-82300000D02*
X132518792Y-82393792D01*
X132273264Y-84473264D02*
X132273264Y-84150000D01*
D41*
X128900000Y-89200000D02*
X126600000Y-89200000D01*
D42*
X131432900Y-88200000D02*
X132123264Y-87509636D01*
D39*
X132050000Y-82619792D02*
X132050000Y-82825000D01*
X133348726Y-77185589D02*
X133348726Y-76551274D01*
X132450000Y-83225000D02*
X132450000Y-84525000D01*
D42*
X132369792Y-82300000D02*
X132369792Y-81744792D01*
D39*
X132123264Y-84326736D02*
X132123264Y-84623264D01*
D42*
X130162500Y-87800000D02*
X131000000Y-86962500D01*
D39*
X132369792Y-82300000D02*
X132050000Y-82619792D01*
X132518792Y-82393792D02*
X132518792Y-83156208D01*
X132377548Y-83200000D02*
X132273264Y-83095716D01*
X132369792Y-82300000D02*
X132425000Y-82300000D01*
D41*
X129375000Y-88725000D02*
X128900000Y-89200000D01*
X129375000Y-87800000D02*
X129375000Y-88725000D01*
D39*
X132518792Y-83156208D02*
X132475000Y-83200000D01*
D42*
X130700000Y-88200000D02*
X131432900Y-88200000D01*
D39*
X132807107Y-77727208D02*
X133329657Y-77204657D01*
X132273264Y-84150000D02*
X132273264Y-84176736D01*
X132273264Y-83095716D02*
X132026274Y-82848726D01*
X131675000Y-82300000D02*
X131551274Y-82423726D01*
D42*
X132369792Y-81744792D02*
X132300000Y-81675000D01*
X132123264Y-87509636D02*
X132123264Y-84623264D01*
D41*
X125880000Y-88480000D02*
X125880000Y-88100000D01*
D39*
X132450000Y-84525000D02*
X132450000Y-87182900D01*
X132475000Y-83200000D02*
X132450000Y-83225000D01*
X133329657Y-77204657D02*
X133348726Y-77185589D01*
X132369792Y-82300000D02*
X131675000Y-82300000D01*
X132273264Y-84176736D02*
X132123264Y-84326736D01*
%TO.N,/USBC_P*%
X132450000Y-72650000D02*
X132450000Y-71959999D01*
X132450000Y-71959999D02*
X132499999Y-71910000D01*
X132241421Y-77161522D02*
X132108579Y-77028680D01*
X132108579Y-77028680D02*
X132108579Y-75421447D01*
X131911000Y-75223868D02*
X131911000Y-73189000D01*
X132108579Y-75421447D02*
X131911000Y-75223868D01*
X131911000Y-73189000D02*
X132450000Y-72650000D01*
%TO.N,/USBCONN_P*%
X132355600Y-60311200D02*
X132355600Y-58108800D01*
X132345866Y-61787597D02*
X132196000Y-61937463D01*
X132159000Y-61998197D02*
X132159000Y-66589000D01*
X132160000Y-66590000D02*
X132160000Y-68934322D01*
X132196000Y-61937463D02*
X132196000Y-61961197D01*
X132196000Y-61961197D02*
X132159000Y-61998197D01*
X132355600Y-58108800D02*
X132644400Y-57820000D01*
X132451000Y-70511000D02*
X132500000Y-70560000D01*
X132451000Y-69225322D02*
X132451000Y-70511000D01*
X132159000Y-66589000D02*
X132160000Y-66590000D01*
X132160000Y-68934322D02*
X132451000Y-69225322D01*
%TO.N,/USBCONN_N*%
X132150000Y-69350000D02*
X132150000Y-70460001D01*
X131859000Y-69059000D02*
X132150000Y-69350000D01*
X131859000Y-61887800D02*
X131859000Y-69059000D01*
X132150000Y-70460001D02*
X132100001Y-70510000D01*
X131746000Y-60311200D02*
X131746000Y-58921600D01*
X131746000Y-58921600D02*
X130644400Y-57820000D01*
X131746000Y-61774800D02*
X131859000Y-61887800D01*
D42*
%TO.N,Net-(U4-SW)*%
X129237500Y-84350001D02*
X130512501Y-84350001D01*
X130512501Y-84350001D02*
X131000000Y-84837500D01*
D39*
%TO.N,/FB_3.3V*%
X134100000Y-69980000D02*
X135182502Y-69980000D01*
X134100000Y-69280000D02*
X133920000Y-69100000D01*
X134100000Y-69980000D02*
X134100000Y-69280000D01*
D41*
%TO.N,/FB_0.85V*%
X126520000Y-88100000D02*
X126520000Y-86692499D01*
X126520000Y-86692499D02*
X126962500Y-86249999D01*
%TD*%
%TA.AperFunction,Conductor*%
%TO.N,+3.3V*%
G36*
X135834132Y-72883674D02*
G01*
X135853283Y-72916845D01*
X135876794Y-73004589D01*
X135876796Y-73004593D01*
X135929518Y-73095910D01*
X135929519Y-73095911D01*
X135929521Y-73095914D01*
X136377826Y-73544219D01*
X136399500Y-73596544D01*
X136399500Y-74672273D01*
X136399500Y-74777727D01*
X136404155Y-74795100D01*
X136426793Y-74879588D01*
X136426795Y-74879592D01*
X136479517Y-74970909D01*
X136479518Y-74970910D01*
X136479520Y-74970913D01*
X136734305Y-75225697D01*
X136952826Y-75444218D01*
X136974500Y-75496544D01*
X136974500Y-75785640D01*
X136985134Y-75858625D01*
X136985134Y-75858626D01*
X137040173Y-75971210D01*
X137040174Y-75971211D01*
X137128789Y-76059826D01*
X137241375Y-76114866D01*
X137314364Y-76125500D01*
X137314370Y-76125500D01*
X137835630Y-76125500D01*
X137835636Y-76125500D01*
X137908625Y-76114866D01*
X138021211Y-76059826D01*
X138109826Y-75971211D01*
X138109826Y-75971210D01*
X138109827Y-75971210D01*
X138109827Y-75971209D01*
X138124107Y-75942000D01*
X138166560Y-75904510D01*
X138190588Y-75900500D01*
X138252726Y-75900500D01*
X138252727Y-75900500D01*
X138354588Y-75873207D01*
X138445913Y-75820480D01*
X138745911Y-75520480D01*
X138745913Y-75520480D01*
X138820480Y-75445913D01*
X138820480Y-75445911D01*
X138945910Y-75320481D01*
X138945913Y-75320480D01*
X139020480Y-75245913D01*
X139068559Y-75162638D01*
X139073207Y-75154588D01*
X139100500Y-75052727D01*
X139100500Y-74947273D01*
X139100500Y-72936000D01*
X139122174Y-72883674D01*
X139174500Y-72862000D01*
X139426000Y-72862000D01*
X139478326Y-72883674D01*
X139500000Y-72936000D01*
X139500000Y-77369348D01*
X139478326Y-77421674D01*
X137200000Y-79700000D01*
X137200000Y-84569348D01*
X137178326Y-84621674D01*
X137021674Y-84778326D01*
X136969348Y-84800000D01*
X135474000Y-84800000D01*
X135421674Y-84778326D01*
X135400000Y-84726000D01*
X135400000Y-82400000D01*
X135399999Y-82399999D01*
X134323778Y-82389498D01*
X134271666Y-82367315D01*
X134250500Y-82315502D01*
X134250500Y-82065327D01*
X134250500Y-82065326D01*
X134235966Y-81992260D01*
X134201789Y-81941110D01*
X134190741Y-81885563D01*
X134201790Y-81858889D01*
X134235966Y-81807740D01*
X134250500Y-81734674D01*
X134250500Y-81425326D01*
X134235966Y-81352260D01*
X134180851Y-81269774D01*
X134169803Y-81214226D01*
X134190054Y-81176338D01*
X134220480Y-81145913D01*
X134273207Y-81054587D01*
X134300499Y-80952729D01*
X134300500Y-80952729D01*
X134300500Y-80847271D01*
X134300499Y-80847270D01*
X134286657Y-80795612D01*
X134273207Y-80745413D01*
X134220480Y-80654087D01*
X134145913Y-80579520D01*
X134116073Y-80562292D01*
X134054591Y-80526795D01*
X134054582Y-80526791D01*
X133952729Y-80499500D01*
X133952727Y-80499500D01*
X133847273Y-80499500D01*
X133847271Y-80499500D01*
X133745417Y-80526791D01*
X133745408Y-80526795D01*
X133654086Y-80579520D01*
X133579520Y-80654086D01*
X133526795Y-80745408D01*
X133526791Y-80745417D01*
X133499500Y-80847270D01*
X133499500Y-80952729D01*
X133526791Y-81054582D01*
X133526795Y-81054591D01*
X133579520Y-81145913D01*
X133609944Y-81176337D01*
X133631618Y-81228663D01*
X133619147Y-81269774D01*
X133564034Y-81352258D01*
X133549500Y-81425327D01*
X133549500Y-81734672D01*
X133564034Y-81807741D01*
X133598209Y-81858889D01*
X133609258Y-81914438D01*
X133598209Y-81941111D01*
X133564034Y-81992258D01*
X133549500Y-82065327D01*
X133549500Y-82256297D01*
X133527826Y-82308623D01*
X133527825Y-82308623D01*
X133477395Y-82359052D01*
X133425069Y-82380726D01*
X133424348Y-82380722D01*
X132843570Y-82375056D01*
X132791458Y-82352873D01*
X132770292Y-82301060D01*
X132770292Y-81692063D01*
X132763889Y-81668170D01*
X132763888Y-81668168D01*
X132751592Y-81622274D01*
X132742999Y-81590204D01*
X132690272Y-81498879D01*
X132545913Y-81354520D01*
X132541997Y-81352259D01*
X132466673Y-81308770D01*
X132432195Y-81263836D01*
X132431612Y-81227860D01*
X132432988Y-81221963D01*
X132456921Y-81164186D01*
X132456921Y-81119454D01*
X132458859Y-81111154D01*
X132470771Y-81094540D01*
X132478595Y-81075652D01*
X132486731Y-81072281D01*
X132491862Y-81065126D01*
X132512032Y-81061801D01*
X132530921Y-81053978D01*
X132567129Y-81053978D01*
X132567130Y-81053978D01*
X132646335Y-81021170D01*
X132706956Y-80960549D01*
X132739764Y-80881344D01*
X132739764Y-80845135D01*
X132761438Y-80792809D01*
X132813764Y-80771135D01*
X132849972Y-80771135D01*
X132849973Y-80771135D01*
X132929178Y-80738327D01*
X132989799Y-80677706D01*
X133022607Y-80598501D01*
X133022607Y-80562292D01*
X133044281Y-80509966D01*
X133096607Y-80488292D01*
X133132814Y-80488292D01*
X133132815Y-80488292D01*
X133212020Y-80455484D01*
X133272641Y-80394863D01*
X133305449Y-80315658D01*
X133305449Y-80279449D01*
X133327123Y-80227123D01*
X133379449Y-80205449D01*
X133415657Y-80205449D01*
X133415658Y-80205449D01*
X133494863Y-80172641D01*
X133555484Y-80112020D01*
X133588292Y-80032815D01*
X133588292Y-79996607D01*
X133609966Y-79944281D01*
X133662292Y-79922607D01*
X133698500Y-79922607D01*
X133698501Y-79922607D01*
X133777706Y-79889799D01*
X133838327Y-79829178D01*
X133871135Y-79749973D01*
X133871135Y-79713764D01*
X133892809Y-79661438D01*
X133945135Y-79639764D01*
X133981343Y-79639764D01*
X133981344Y-79639764D01*
X134060549Y-79606956D01*
X134121170Y-79546335D01*
X134153978Y-79467130D01*
X134153978Y-79430921D01*
X134175652Y-79378595D01*
X134227978Y-79356921D01*
X134264185Y-79356921D01*
X134264186Y-79356921D01*
X134343391Y-79324113D01*
X134404012Y-79263492D01*
X134436820Y-79184287D01*
X134436820Y-79098555D01*
X134404012Y-79019350D01*
X134343391Y-78958729D01*
X134343390Y-78958728D01*
X134296993Y-78939510D01*
X134264186Y-78925921D01*
X134227978Y-78925921D01*
X134175652Y-78904247D01*
X134153978Y-78851921D01*
X134153978Y-78815713D01*
X134121170Y-78736508D01*
X134060549Y-78675887D01*
X133989475Y-78646447D01*
X136554774Y-78646447D01*
X136554774Y-78646448D01*
X136736452Y-78828126D01*
X136758126Y-78880452D01*
X136758126Y-78898827D01*
X136798372Y-78968535D01*
X136869083Y-79039246D01*
X136920113Y-79068708D01*
X136937016Y-79078467D01*
X136938792Y-79079492D01*
X136938793Y-79079492D01*
X137019283Y-79079492D01*
X137019284Y-79079492D01*
X137088993Y-79039246D01*
X137159704Y-78968535D01*
X137199950Y-78898826D01*
X137199950Y-78898825D01*
X137201553Y-78896049D01*
X137228639Y-78868963D01*
X137231415Y-78867360D01*
X137231416Y-78867360D01*
X137301125Y-78827114D01*
X137371836Y-78756403D01*
X137412082Y-78686694D01*
X137412082Y-78606202D01*
X137371836Y-78536493D01*
X137301125Y-78465782D01*
X137299370Y-78464769D01*
X137228639Y-78423932D01*
X137201553Y-78396846D01*
X137167903Y-78338562D01*
X137159704Y-78324361D01*
X137088993Y-78253650D01*
X137081805Y-78249500D01*
X137019285Y-78213404D01*
X137019284Y-78213404D01*
X136938792Y-78213404D01*
X136938790Y-78213404D01*
X136869082Y-78253650D01*
X136798372Y-78324360D01*
X136758126Y-78394068D01*
X136758126Y-78412443D01*
X136736452Y-78464769D01*
X136554774Y-78646447D01*
X133989475Y-78646447D01*
X133981344Y-78643079D01*
X133945135Y-78643079D01*
X133892809Y-78621405D01*
X133871135Y-78569079D01*
X133871135Y-78532870D01*
X133838327Y-78453665D01*
X133777705Y-78393043D01*
X133731308Y-78373825D01*
X133698501Y-78360236D01*
X133662292Y-78360236D01*
X133609966Y-78338562D01*
X133588292Y-78286236D01*
X133588292Y-78250027D01*
X133555484Y-78170822D01*
X133494862Y-78110200D01*
X133448465Y-78090982D01*
X133415658Y-78077393D01*
X133379449Y-78077393D01*
X133327123Y-78055719D01*
X133305449Y-78003393D01*
X133305449Y-77967185D01*
X133272641Y-77887980D01*
X133212021Y-77827360D01*
X133212020Y-77827359D01*
X133212018Y-77827358D01*
X133212015Y-77827356D01*
X133207703Y-77825570D01*
X133197296Y-77815162D01*
X133183697Y-77809530D01*
X133178063Y-77795929D01*
X133167655Y-77785521D01*
X133167655Y-77770802D01*
X133162023Y-77757204D01*
X133167656Y-77743603D01*
X133167657Y-77728884D01*
X133183695Y-77704879D01*
X133261744Y-77626830D01*
X133314070Y-77605157D01*
X133382386Y-77605157D01*
X133382386Y-77605156D01*
X133484244Y-77577864D01*
X133575570Y-77525137D01*
X133650137Y-77450570D01*
X133702864Y-77359244D01*
X133730156Y-77257386D01*
X133730157Y-77257386D01*
X133730157Y-77151928D01*
X133730156Y-77151927D01*
X133729773Y-77150499D01*
X133702864Y-77050070D01*
X133650137Y-76958744D01*
X133620900Y-76929507D01*
X133599226Y-76877181D01*
X133599226Y-76827108D01*
X133620900Y-76774782D01*
X133645183Y-76750499D01*
X133705938Y-76689744D01*
X133747326Y-76627801D01*
X133759328Y-76567466D01*
X133790793Y-76520376D01*
X133817464Y-76509328D01*
X133877801Y-76497326D01*
X133939744Y-76455938D01*
X134097674Y-76298008D01*
X134150000Y-76276334D01*
X134202326Y-76298008D01*
X134584788Y-76680470D01*
X134664712Y-76726614D01*
X134664713Y-76726614D01*
X134664715Y-76726615D01*
X134685447Y-76732170D01*
X134753853Y-76750499D01*
X134753854Y-76750500D01*
X134753856Y-76750500D01*
X134753857Y-76750500D01*
X134846144Y-76750500D01*
X134879902Y-76750500D01*
X134932228Y-76772174D01*
X134953902Y-76824500D01*
X134932228Y-76876826D01*
X134921018Y-76886025D01*
X134915703Y-76889576D01*
X134912802Y-76891515D01*
X134694064Y-77110253D01*
X134694064Y-77110254D01*
X134694062Y-77110256D01*
X134685411Y-77123204D01*
X134652674Y-77172198D01*
X134633231Y-77269939D01*
X134652673Y-77367679D01*
X134677455Y-77404767D01*
X134694062Y-77429622D01*
X134870378Y-77605938D01*
X134932320Y-77647326D01*
X135030061Y-77666769D01*
X135127801Y-77647326D01*
X135189744Y-77605938D01*
X135408486Y-77387196D01*
X135449874Y-77325253D01*
X135469317Y-77227513D01*
X135469317Y-77227512D01*
X135469317Y-77224500D01*
X135470469Y-77221716D01*
X135470739Y-77220364D01*
X135471008Y-77220417D01*
X135490991Y-77172174D01*
X135543317Y-77150500D01*
X135602729Y-77150500D01*
X135602729Y-77150499D01*
X135704587Y-77123207D01*
X135795913Y-77070480D01*
X135870480Y-76995913D01*
X135923207Y-76904587D01*
X135950499Y-76802729D01*
X135950500Y-76802729D01*
X135950500Y-76697271D01*
X135950499Y-76697270D01*
X135948482Y-76689744D01*
X135923207Y-76595413D01*
X135870480Y-76504087D01*
X135795913Y-76429520D01*
X135766955Y-76412801D01*
X135704588Y-76376793D01*
X135704584Y-76376792D01*
X135679872Y-76370170D01*
X135646700Y-76351018D01*
X135415212Y-76119530D01*
X135335289Y-76073386D01*
X135335284Y-76073384D01*
X135246146Y-76049500D01*
X135246144Y-76049500D01*
X134975834Y-76049500D01*
X134923508Y-76027826D01*
X134771174Y-75875492D01*
X134749500Y-75823166D01*
X134749500Y-75653854D01*
X134749499Y-75653853D01*
X134748500Y-75650126D01*
X134725614Y-75564712D01*
X134725613Y-75564710D01*
X134679471Y-75484791D01*
X134679470Y-75484790D01*
X134679469Y-75484788D01*
X134614212Y-75419531D01*
X134577568Y-75398374D01*
X134565862Y-75391615D01*
X134550538Y-75379856D01*
X134459674Y-75288992D01*
X134438000Y-75236666D01*
X134438000Y-74484773D01*
X134426477Y-74441767D01*
X134426477Y-74441766D01*
X134410708Y-74382915D01*
X134410706Y-74382910D01*
X134357982Y-74291590D01*
X134357981Y-74291589D01*
X134357980Y-74291587D01*
X133706817Y-73640424D01*
X133685143Y-73588098D01*
X133706817Y-73535772D01*
X133707827Y-73534781D01*
X134377610Y-72890759D01*
X134428119Y-72870106D01*
X134908659Y-72865059D01*
X134961207Y-72886182D01*
X134961760Y-72886729D01*
X134977237Y-72902206D01*
X135080011Y-72947585D01*
X135105137Y-72950500D01*
X135494866Y-72950499D01*
X135519993Y-72947585D01*
X135622767Y-72902206D01*
X135641299Y-72883674D01*
X135693625Y-72862000D01*
X135781806Y-72862000D01*
X135834132Y-72883674D01*
G37*
%TD.AperFunction*%
%TA.AperFunction,Conductor*%
G36*
X130176924Y-79343751D02*
G01*
X130180276Y-79342994D01*
X130188416Y-79344395D01*
X130218656Y-79356921D01*
X130261184Y-79356921D01*
X130267418Y-79357994D01*
X130315309Y-79388230D01*
X130328865Y-79430921D01*
X130328865Y-79467129D01*
X130328864Y-79467129D01*
X130361672Y-79546334D01*
X130361673Y-79546335D01*
X130422294Y-79606956D01*
X130501499Y-79639764D01*
X130587230Y-79639764D01*
X130587231Y-79639764D01*
X130666436Y-79606956D01*
X130727057Y-79546335D01*
X130736424Y-79523719D01*
X130752462Y-79499715D01*
X130784168Y-79468009D01*
X130836493Y-79446336D01*
X130888819Y-79468010D01*
X130904860Y-79492018D01*
X130927357Y-79546332D01*
X130927358Y-79546334D01*
X130927359Y-79546335D01*
X130987980Y-79606956D01*
X131064711Y-79638739D01*
X131104760Y-79678787D01*
X131104760Y-79735424D01*
X131064712Y-79775473D01*
X130987981Y-79807256D01*
X130927358Y-79867879D01*
X130917991Y-79890493D01*
X130901953Y-79914496D01*
X130886428Y-79930022D01*
X130830022Y-79986428D01*
X130799500Y-80060116D01*
X130799500Y-81102041D01*
X130777826Y-81154367D01*
X130557132Y-81375060D01*
X130504806Y-81396734D01*
X130452480Y-81375060D01*
X130443282Y-81363852D01*
X130430938Y-81345378D01*
X130254622Y-81169062D01*
X130247325Y-81164186D01*
X130192679Y-81127673D01*
X130094939Y-81108231D01*
X130094937Y-81108231D01*
X130074771Y-81112242D01*
X130019222Y-81101192D01*
X129987757Y-81054100D01*
X129987757Y-81025228D01*
X129991769Y-81005061D01*
X129972326Y-80907320D01*
X129930938Y-80845378D01*
X129754622Y-80669062D01*
X129696808Y-80630432D01*
X129665343Y-80583341D01*
X129663922Y-80568715D01*
X129665949Y-79823047D01*
X129687620Y-79770929D01*
X130094955Y-79363595D01*
X130147281Y-79341921D01*
X130167723Y-79341921D01*
X130176924Y-79343751D01*
G37*
%TD.AperFunction*%
%TA.AperFunction,Conductor*%
G36*
X133441159Y-78621073D02*
G01*
X133441159Y-78621074D01*
X133472941Y-78697804D01*
X133472942Y-78697805D01*
X133472943Y-78697807D01*
X133533564Y-78758428D01*
X133610295Y-78790211D01*
X133650344Y-78830259D01*
X133650344Y-78886896D01*
X133610296Y-78926945D01*
X133533565Y-78958728D01*
X133472944Y-79019349D01*
X133472942Y-79019350D01*
X133440135Y-79098555D01*
X133440135Y-79134764D01*
X133418461Y-79187090D01*
X133366135Y-79208764D01*
X133329926Y-79208764D01*
X133329166Y-79209079D01*
X133250721Y-79241571D01*
X133250720Y-79241573D01*
X133190101Y-79302192D01*
X133190099Y-79302193D01*
X133157292Y-79381398D01*
X133157292Y-79417607D01*
X133135618Y-79469933D01*
X133083292Y-79491607D01*
X133047083Y-79491607D01*
X133027514Y-79499713D01*
X132967878Y-79524414D01*
X132967877Y-79524416D01*
X132907256Y-79585037D01*
X132875473Y-79661768D01*
X132835424Y-79701816D01*
X132778787Y-79701816D01*
X132738739Y-79661767D01*
X132706957Y-79585038D01*
X132706955Y-79585035D01*
X132646334Y-79524414D01*
X132586699Y-79499713D01*
X132567130Y-79491607D01*
X132567129Y-79491607D01*
X132552254Y-79491607D01*
X132499928Y-79469933D01*
X132478595Y-79448600D01*
X132456921Y-79396274D01*
X132456921Y-79381398D01*
X132424113Y-79302193D01*
X132363493Y-79241573D01*
X132363489Y-79241570D01*
X132299827Y-79215201D01*
X132259778Y-79175153D01*
X132259778Y-79118516D01*
X132299825Y-79078467D01*
X132369156Y-79049749D01*
X132715434Y-78703472D01*
X132744151Y-78634140D01*
X132784199Y-78594092D01*
X132840836Y-78594092D01*
X132880885Y-78634140D01*
X132891756Y-78660386D01*
X132907257Y-78697807D01*
X132967878Y-78758428D01*
X133047083Y-78791236D01*
X133132814Y-78791236D01*
X133132815Y-78791236D01*
X133212020Y-78758428D01*
X133272641Y-78697807D01*
X133304425Y-78621073D01*
X133344473Y-78581025D01*
X133401110Y-78581025D01*
X133441159Y-78621073D01*
G37*
%TD.AperFunction*%
%TA.AperFunction,Conductor*%
G36*
X133127266Y-74193659D02*
G01*
X133615326Y-74681719D01*
X133637000Y-74734045D01*
X133637000Y-75217692D01*
X133615326Y-75270018D01*
X133563000Y-75291692D01*
X133510674Y-75270018D01*
X133457169Y-75216513D01*
X133395227Y-75175125D01*
X133297487Y-75155683D01*
X133199746Y-75175126D01*
X133168669Y-75195890D01*
X133137804Y-75216514D01*
X133137802Y-75216516D01*
X133137801Y-75216516D01*
X132919064Y-75435253D01*
X132919064Y-75435254D01*
X132919062Y-75435256D01*
X132898592Y-75465892D01*
X132877674Y-75497198D01*
X132858231Y-75594939D01*
X132877673Y-75692679D01*
X132879185Y-75694941D01*
X132919062Y-75754622D01*
X133095378Y-75930938D01*
X133157320Y-75972326D01*
X133255061Y-75991769D01*
X133287159Y-75985383D01*
X133294592Y-75986861D01*
X133301596Y-75983961D01*
X133321536Y-75992220D01*
X133342706Y-75996431D01*
X133353922Y-76005635D01*
X133365111Y-76016824D01*
X133386785Y-76069150D01*
X133365111Y-76121476D01*
X133327223Y-76141728D01*
X133272198Y-76152674D01*
X133241121Y-76173438D01*
X133210256Y-76194062D01*
X133210254Y-76194064D01*
X133210253Y-76194064D01*
X132991516Y-76412801D01*
X132991516Y-76412802D01*
X132991514Y-76412804D01*
X132970890Y-76443669D01*
X132950126Y-76474746D01*
X132930683Y-76572487D01*
X132950125Y-76670227D01*
X132991513Y-76732169D01*
X133061306Y-76801962D01*
X133082980Y-76854288D01*
X133061306Y-76906613D01*
X133009178Y-76958741D01*
X132956452Y-77050065D01*
X132956448Y-77050074D01*
X132929157Y-77151927D01*
X132929157Y-77220244D01*
X132907483Y-77272570D01*
X132594744Y-77585310D01*
X132594742Y-77585312D01*
X132573689Y-77636141D01*
X132533641Y-77676189D01*
X132477003Y-77676189D01*
X132446896Y-77653235D01*
X132440772Y-77645357D01*
X132424113Y-77605137D01*
X132363492Y-77544516D01*
X132361869Y-77543843D01*
X132355714Y-77535925D01*
X132349344Y-77512734D01*
X132340140Y-77490512D01*
X132342004Y-77486009D01*
X132340714Y-77481310D01*
X132352610Y-77460406D01*
X132361814Y-77438186D01*
X132600000Y-77200000D01*
X132600000Y-74631505D01*
X132621674Y-74579179D01*
X132622710Y-74578163D01*
X133023651Y-74192642D01*
X133076391Y-74171999D01*
X133127266Y-74193659D01*
G37*
%TD.AperFunction*%
%TD*%
%TA.AperFunction,Conductor*%
%TO.N,/VSYS*%
G36*
X126658484Y-83346669D02*
G01*
X126708337Y-83360026D01*
X126720151Y-83364920D01*
X126764848Y-83390726D01*
X126774995Y-83398512D01*
X126811486Y-83435003D01*
X126819273Y-83445151D01*
X126845078Y-83489847D01*
X126849973Y-83501664D01*
X126863330Y-83551509D01*
X126865000Y-83564192D01*
X126865000Y-83615803D01*
X126863330Y-83628486D01*
X126849971Y-83678340D01*
X126845078Y-83690154D01*
X126833184Y-83710756D01*
X126817652Y-83748258D01*
X126807740Y-83785247D01*
X126807735Y-83785266D01*
X126803770Y-83805199D01*
X126803770Y-83805204D01*
X126814276Y-83885005D01*
X126814276Y-83885007D01*
X126814277Y-83885008D01*
X126835951Y-83937334D01*
X126856248Y-83972490D01*
X126912405Y-84015580D01*
X126920107Y-84021490D01*
X126972433Y-84043164D01*
X126972442Y-84043166D01*
X127031934Y-84055000D01*
X127031940Y-84055001D01*
X127187718Y-84055001D01*
X127222366Y-84069353D01*
X127236718Y-84104001D01*
X127236703Y-84105196D01*
X127231160Y-84332409D01*
X127215968Y-84366697D01*
X127182396Y-84380214D01*
X125068728Y-84389735D01*
X125034015Y-84375539D01*
X125019511Y-84341355D01*
X125018924Y-84295037D01*
X125016830Y-84129618D01*
X125030742Y-84094793D01*
X125065206Y-84080004D01*
X125065826Y-84080000D01*
X125425500Y-84080000D01*
X125485007Y-84068163D01*
X125537333Y-84046489D01*
X125572489Y-84026192D01*
X125621489Y-83962333D01*
X125643163Y-83910007D01*
X125655000Y-83850500D01*
X125655000Y-83574194D01*
X125656669Y-83561513D01*
X125670027Y-83511656D01*
X125674918Y-83499848D01*
X125700728Y-83455145D01*
X125708508Y-83445006D01*
X125745006Y-83408508D01*
X125755145Y-83400728D01*
X125799848Y-83374918D01*
X125811657Y-83370027D01*
X125861514Y-83356669D01*
X125874195Y-83355000D01*
X125925803Y-83355000D01*
X125938484Y-83356669D01*
X125988337Y-83370026D01*
X126000151Y-83374920D01*
X126044848Y-83400726D01*
X126054995Y-83408512D01*
X126092719Y-83446236D01*
X126092723Y-83446239D01*
X126106060Y-83455150D01*
X126143167Y-83479944D01*
X126195493Y-83501618D01*
X126234703Y-83512125D01*
X126314507Y-83501618D01*
X126366833Y-83479944D01*
X126417282Y-83446235D01*
X126465004Y-83398510D01*
X126475148Y-83390726D01*
X126519848Y-83364919D01*
X126531657Y-83360027D01*
X126581514Y-83346669D01*
X126594195Y-83345000D01*
X126645803Y-83345000D01*
X126658484Y-83346669D01*
G37*
%TD.AperFunction*%
%TD*%
%TA.AperFunction,Conductor*%
%TO.N,/VSYS*%
G36*
X127693039Y-69619685D02*
G01*
X127738794Y-69672489D01*
X127750000Y-69724000D01*
X127750000Y-72726000D01*
X127730315Y-72793039D01*
X127677511Y-72838794D01*
X127626000Y-72850000D01*
X126374000Y-72850000D01*
X126306961Y-72830315D01*
X126261206Y-72777511D01*
X126250000Y-72726000D01*
X126250000Y-69724000D01*
X126269685Y-69656961D01*
X126322489Y-69611206D01*
X126374000Y-69600000D01*
X127626000Y-69600000D01*
X127693039Y-69619685D01*
G37*
%TD.AperFunction*%
%TD*%
%TA.AperFunction,Conductor*%
%TO.N,GND*%
G36*
X141999500Y-84847600D02*
G01*
X137334000Y-84847600D01*
X137334000Y-84812937D01*
X137334000Y-84666902D01*
X137339632Y-84638585D01*
X137343663Y-84628855D01*
X137355500Y-84569348D01*
X137355500Y-79795062D01*
X137377174Y-79742736D01*
X139588280Y-77531630D01*
X139588281Y-77531629D01*
X139621989Y-77481181D01*
X139643663Y-77428855D01*
X139655500Y-77369348D01*
X139655500Y-72936000D01*
X139643663Y-72876493D01*
X139621989Y-72824167D01*
X139601692Y-72789011D01*
X139598150Y-72786293D01*
X139569833Y-72737244D01*
X139569200Y-72727586D01*
X139569200Y-72655600D01*
X139569200Y-71944400D01*
X141999500Y-71944400D01*
X141999500Y-84847600D01*
G37*
%TD.AperFunction*%
%TD*%
%TA.AperFunction,Conductor*%
%TO.N,GND*%
G36*
X141977826Y-52552974D02*
G01*
X141999500Y-52605300D01*
X141999500Y-71944400D01*
X139569200Y-71944400D01*
X139569200Y-72655600D01*
X138284313Y-72655600D01*
X138231987Y-72633926D01*
X138220227Y-72618600D01*
X138182979Y-72554086D01*
X137672173Y-72043280D01*
X137650499Y-71990954D01*
X137650499Y-71580136D01*
X137647585Y-71555013D01*
X137647585Y-71555011D01*
X137647585Y-71555009D01*
X137602206Y-71452235D01*
X137522765Y-71372794D01*
X137419991Y-71327415D01*
X137419990Y-71327414D01*
X137419988Y-71327414D01*
X137398659Y-71324940D01*
X137394865Y-71324500D01*
X137394864Y-71324500D01*
X137005136Y-71324500D01*
X136980013Y-71327414D01*
X136980007Y-71327415D01*
X136877234Y-71372794D01*
X136797794Y-71452234D01*
X136752414Y-71555011D01*
X136749500Y-71580135D01*
X136749500Y-72092099D01*
X136749501Y-72581600D01*
X136727827Y-72633926D01*
X136675501Y-72655600D01*
X135824502Y-72655600D01*
X135772176Y-72633926D01*
X135750502Y-72581600D01*
X135750501Y-71580136D01*
X135747587Y-71555013D01*
X135747587Y-71555011D01*
X135747587Y-71555009D01*
X135702208Y-71452235D01*
X135669087Y-71419114D01*
X135647413Y-71366788D01*
X135669087Y-71314462D01*
X135939396Y-71044153D01*
X136269976Y-70713574D01*
X136300500Y-70639882D01*
X136300500Y-70560118D01*
X136300500Y-68113701D01*
X136322173Y-68061376D01*
X136423176Y-67960372D01*
X136475500Y-67938700D01*
X136527826Y-67960374D01*
X136549500Y-68012699D01*
X136549500Y-68138399D01*
X136564760Y-68215117D01*
X136564760Y-68215118D01*
X136587028Y-68248443D01*
X136599500Y-68289556D01*
X136599500Y-69609773D01*
X136599500Y-69715227D01*
X136626793Y-69817088D01*
X136626795Y-69817092D01*
X136679517Y-69908409D01*
X136679518Y-69908410D01*
X136679520Y-69908413D01*
X136727826Y-69956719D01*
X136749500Y-70009044D01*
X136749500Y-70419863D01*
X136752414Y-70444986D01*
X136752415Y-70444992D01*
X136775660Y-70497636D01*
X136797794Y-70547765D01*
X136877235Y-70627206D01*
X136980009Y-70672585D01*
X137005135Y-70675500D01*
X137394864Y-70675499D01*
X137419991Y-70672585D01*
X137522765Y-70627206D01*
X137602206Y-70547765D01*
X137647585Y-70444991D01*
X137650500Y-70419865D01*
X137650500Y-70099500D01*
X137672174Y-70047174D01*
X137724500Y-70025500D01*
X138071634Y-70025500D01*
X138123960Y-70047174D01*
X138138115Y-70067000D01*
X138140174Y-70071211D01*
X138228789Y-70159826D01*
X138341375Y-70214866D01*
X138414364Y-70225500D01*
X138414370Y-70225500D01*
X138985630Y-70225500D01*
X138985636Y-70225500D01*
X139058625Y-70214866D01*
X139171211Y-70159826D01*
X139259826Y-70071211D01*
X139314866Y-69958625D01*
X139325500Y-69885636D01*
X139325500Y-69364364D01*
X139314866Y-69291375D01*
X139259826Y-69178789D01*
X139171211Y-69090174D01*
X139171210Y-69090173D01*
X139058626Y-69035134D01*
X138985640Y-69024500D01*
X138985636Y-69024500D01*
X138414364Y-69024500D01*
X138414359Y-69024500D01*
X138341374Y-69035134D01*
X138341373Y-69035134D01*
X138228789Y-69090173D01*
X138140174Y-69178788D01*
X138138116Y-69182999D01*
X138095664Y-69220490D01*
X138071634Y-69224500D01*
X137671294Y-69224500D01*
X137618968Y-69202826D01*
X137603600Y-69180391D01*
X137602206Y-69177235D01*
X137522765Y-69097794D01*
X137444610Y-69063285D01*
X137405497Y-69022322D01*
X137400500Y-68995590D01*
X137400500Y-68289556D01*
X137404813Y-68264661D01*
X137407888Y-68256050D01*
X137435240Y-68215117D01*
X137450500Y-68138401D01*
X137450499Y-68136771D01*
X137453060Y-68129605D01*
X137468694Y-68112337D01*
X137481635Y-68092971D01*
X137487969Y-68091049D01*
X137491074Y-68087621D01*
X137500875Y-68087134D01*
X137522747Y-68080500D01*
X137633331Y-68080500D01*
X137685657Y-68102174D01*
X137707331Y-68154500D01*
X137685657Y-68206826D01*
X137674441Y-68216030D01*
X137669399Y-68219398D01*
X137669398Y-68219399D01*
X137614034Y-68302259D01*
X137606767Y-68338793D01*
X137599500Y-68375326D01*
X137599500Y-68624674D01*
X137614034Y-68697740D01*
X137669399Y-68780601D01*
X137752260Y-68835966D01*
X137825326Y-68850500D01*
X137825328Y-68850500D01*
X138134672Y-68850500D01*
X138134674Y-68850500D01*
X138207740Y-68835966D01*
X138258889Y-68801789D01*
X138314437Y-68790741D01*
X138341109Y-68801789D01*
X138392260Y-68835966D01*
X138465326Y-68850500D01*
X138465328Y-68850500D01*
X138774672Y-68850500D01*
X138774674Y-68850500D01*
X138847740Y-68835966D01*
X138930601Y-68780601D01*
X138962147Y-68733389D01*
X138968448Y-68729177D01*
X138971350Y-68722174D01*
X138991292Y-68713913D01*
X139009238Y-68701922D01*
X139023676Y-68700500D01*
X139088684Y-68700500D01*
X139141010Y-68722174D01*
X139152769Y-68737499D01*
X139158320Y-68747113D01*
X139232887Y-68821680D01*
X139324213Y-68874407D01*
X139426070Y-68901699D01*
X139426071Y-68901700D01*
X139426073Y-68901700D01*
X139531529Y-68901700D01*
X139531529Y-68901699D01*
X139633387Y-68874407D01*
X139724713Y-68821680D01*
X139799280Y-68747113D01*
X139852007Y-68655787D01*
X139879299Y-68553929D01*
X139879300Y-68553929D01*
X139879300Y-68448471D01*
X139879299Y-68448470D01*
X139866445Y-68400499D01*
X139852007Y-68346613D01*
X139799280Y-68255287D01*
X139724713Y-68180720D01*
X139679299Y-68154500D01*
X139633391Y-68127995D01*
X139633382Y-68127991D01*
X139531529Y-68100700D01*
X139531527Y-68100700D01*
X139426073Y-68100700D01*
X139426071Y-68100700D01*
X139324217Y-68127991D01*
X139324208Y-68127995D01*
X139232886Y-68180720D01*
X139158321Y-68255285D01*
X139158320Y-68255287D01*
X139154155Y-68262500D01*
X139146222Y-68268587D01*
X139142396Y-68277826D01*
X139124549Y-68285218D01*
X139109224Y-68296978D01*
X139090070Y-68299500D01*
X139023676Y-68299500D01*
X138971350Y-68277826D01*
X138962147Y-68266611D01*
X138930603Y-68219401D01*
X138930600Y-68219398D01*
X138847740Y-68164034D01*
X138820497Y-68158615D01*
X138774674Y-68149500D01*
X138465326Y-68149500D01*
X138440190Y-68154500D01*
X138392258Y-68164034D01*
X138341111Y-68198209D01*
X138326675Y-68201080D01*
X138314437Y-68209258D01*
X138299999Y-68206386D01*
X138285562Y-68209258D01*
X138258888Y-68198209D01*
X138213388Y-68167807D01*
X138181922Y-68120715D01*
X138180500Y-68106278D01*
X138180500Y-68080970D01*
X138202174Y-68028644D01*
X138217500Y-68016884D01*
X138245913Y-68000480D01*
X138320480Y-67925913D01*
X138373207Y-67834587D01*
X138375615Y-67825601D01*
X138394769Y-67792423D01*
X138422086Y-67765107D01*
X138474813Y-67673781D01*
X138487275Y-67627273D01*
X138502107Y-67571921D01*
X138502107Y-67466467D01*
X138502107Y-67461938D01*
X138502106Y-67461920D01*
X138502106Y-66817279D01*
X138478960Y-66730896D01*
X138478960Y-66730895D01*
X138478959Y-66730893D01*
X138474813Y-66715418D01*
X138459324Y-66688591D01*
X138422088Y-66624096D01*
X138422087Y-66624095D01*
X138422086Y-66624093D01*
X137349774Y-65551781D01*
X137328100Y-65499455D01*
X137328100Y-65287671D01*
X137328099Y-65287670D01*
X137300808Y-65185817D01*
X137300807Y-65185813D01*
X137248080Y-65094487D01*
X137173513Y-65019920D01*
X137082191Y-64967195D01*
X137082182Y-64967191D01*
X136980329Y-64939900D01*
X136980327Y-64939900D01*
X136874873Y-64939900D01*
X136874871Y-64939900D01*
X136773017Y-64967191D01*
X136773008Y-64967195D01*
X136681686Y-65019920D01*
X136607120Y-65094486D01*
X136554395Y-65185808D01*
X136554391Y-65185817D01*
X136527100Y-65287670D01*
X136527100Y-65287673D01*
X136527100Y-65643273D01*
X136527100Y-65748727D01*
X136554393Y-65850588D01*
X136554395Y-65850592D01*
X136607117Y-65941909D01*
X136607118Y-65941910D01*
X136607120Y-65941913D01*
X136710333Y-66045126D01*
X136736048Y-66070841D01*
X136757722Y-66123167D01*
X136736048Y-66175493D01*
X136720722Y-66187253D01*
X136630886Y-66239120D01*
X136556320Y-66313686D01*
X136503595Y-66405008D01*
X136503591Y-66405017D01*
X136476300Y-66506870D01*
X136476300Y-66612329D01*
X136503591Y-66714182D01*
X136503595Y-66714191D01*
X136556320Y-66805513D01*
X136630887Y-66880080D01*
X136639300Y-66884937D01*
X136673778Y-66929870D01*
X136676300Y-66949023D01*
X136676300Y-67109498D01*
X136654626Y-67161824D01*
X135930022Y-67886428D01*
X135899500Y-67960116D01*
X135899500Y-70486298D01*
X135877826Y-70538624D01*
X135877825Y-70538625D01*
X135850500Y-70565949D01*
X135798174Y-70587622D01*
X135745848Y-70565947D01*
X135724175Y-70513621D01*
X135730480Y-70483733D01*
X135747587Y-70444991D01*
X135750502Y-70419865D01*
X135750501Y-69305136D01*
X135747587Y-69280009D01*
X135702208Y-69177235D01*
X135622767Y-69097794D01*
X135519993Y-69052415D01*
X135519992Y-69052414D01*
X135519990Y-69052414D01*
X135498661Y-69049940D01*
X135494867Y-69049500D01*
X135494866Y-69049500D01*
X135105138Y-69049500D01*
X135080015Y-69052414D01*
X135080009Y-69052415D01*
X134977236Y-69097794D01*
X134897796Y-69177234D01*
X134852416Y-69280011D01*
X134849502Y-69305135D01*
X134849502Y-69655500D01*
X134827828Y-69707826D01*
X134775502Y-69729500D01*
X134460313Y-69729500D01*
X134455925Y-69727682D01*
X134451350Y-69728955D01*
X134435596Y-69719262D01*
X134407987Y-69707826D01*
X134402034Y-69701103D01*
X134400328Y-69698923D01*
X134380601Y-69669399D01*
X134373527Y-69664672D01*
X134366221Y-69655335D01*
X134361566Y-69638598D01*
X134351919Y-69624153D01*
X134350500Y-69609732D01*
X134350500Y-69230172D01*
X134350499Y-69230170D01*
X134348150Y-69224500D01*
X134328573Y-69177235D01*
X134309575Y-69131369D01*
X134310531Y-69130972D01*
X134300500Y-69097899D01*
X134300500Y-68975327D01*
X134300500Y-68975326D01*
X134285966Y-68902260D01*
X134230601Y-68819399D01*
X134147740Y-68764034D01*
X134074674Y-68749500D01*
X133765326Y-68749500D01*
X133716615Y-68759189D01*
X133692259Y-68764034D01*
X133609399Y-68819398D01*
X133609398Y-68819399D01*
X133554034Y-68902259D01*
X133554034Y-68902260D01*
X133539500Y-68975326D01*
X133539500Y-69224674D01*
X133550508Y-69280013D01*
X133554034Y-69297740D01*
X133609398Y-69380600D01*
X133609399Y-69380601D01*
X133663197Y-69416547D01*
X133694663Y-69463639D01*
X133683614Y-69519188D01*
X133636522Y-69550654D01*
X133607593Y-69549708D01*
X133607538Y-69550133D01*
X133603226Y-69549565D01*
X133602936Y-69549556D01*
X133602727Y-69549500D01*
X133497273Y-69549500D01*
X133497271Y-69549500D01*
X133395417Y-69576791D01*
X133395408Y-69576795D01*
X133304086Y-69629520D01*
X133229520Y-69704086D01*
X133176795Y-69795408D01*
X133176791Y-69795417D01*
X133149500Y-69897270D01*
X133148867Y-69902080D01*
X133145805Y-69901677D01*
X133127826Y-69945084D01*
X133123234Y-69949304D01*
X133114444Y-69956723D01*
X133088103Y-69967636D01*
X133017636Y-70038103D01*
X133017635Y-70038104D01*
X133015436Y-70040302D01*
X133015430Y-70040308D01*
X132887637Y-70168101D01*
X132887634Y-70168105D01*
X132868367Y-70214622D01*
X132848686Y-70234302D01*
X132829262Y-70254273D01*
X132828709Y-70254280D01*
X132828319Y-70254671D01*
X132800476Y-70254671D01*
X132772630Y-70255056D01*
X132772240Y-70254671D01*
X132771682Y-70254671D01*
X132732031Y-70215566D01*
X132731838Y-70215118D01*
X132712364Y-70168103D01*
X132711017Y-70166756D01*
X132707531Y-70158658D01*
X132707395Y-70148830D01*
X132701500Y-70129396D01*
X132701500Y-69175494D01*
X132701499Y-69175492D01*
X132663365Y-69083427D01*
X132663363Y-69083424D01*
X132432174Y-68852235D01*
X132410500Y-68799909D01*
X132410500Y-66538017D01*
X132409500Y-66527856D01*
X132409500Y-62241956D01*
X132431174Y-62189630D01*
X132464344Y-62170478D01*
X132500453Y-62160804D01*
X132591779Y-62108077D01*
X132666346Y-62033510D01*
X132719073Y-61942184D01*
X132746365Y-61840326D01*
X132746366Y-61840326D01*
X132746366Y-61734868D01*
X132746365Y-61734867D01*
X132728570Y-61668453D01*
X132735962Y-61612300D01*
X132780895Y-61577822D01*
X132800048Y-61575300D01*
X133835455Y-61575300D01*
X133887781Y-61596974D01*
X134676626Y-62385819D01*
X134698300Y-62438145D01*
X134698300Y-63662073D01*
X134698300Y-63767527D01*
X134725593Y-63869388D01*
X134725595Y-63869392D01*
X134778318Y-63960710D01*
X134781268Y-63964554D01*
X134780196Y-63965376D01*
X134799900Y-64012944D01*
X134799900Y-64560300D01*
X134778226Y-64612626D01*
X134725900Y-64634300D01*
X134705326Y-64634300D01*
X134656615Y-64643989D01*
X134632259Y-64648834D01*
X134549399Y-64704198D01*
X134549398Y-64704199D01*
X134494034Y-64787059D01*
X134494034Y-64787060D01*
X134479500Y-64860126D01*
X134479500Y-65109474D01*
X134494034Y-65182540D01*
X134549399Y-65265401D01*
X134632260Y-65320766D01*
X134705326Y-65335300D01*
X134725900Y-65335300D01*
X134778226Y-65356974D01*
X134799900Y-65409300D01*
X134799900Y-65905855D01*
X134778226Y-65958181D01*
X134579517Y-66156890D01*
X134526792Y-66248212D01*
X134526793Y-66248213D01*
X134499500Y-66350073D01*
X134499500Y-67710442D01*
X134487029Y-67751553D01*
X134464760Y-67784881D01*
X134449500Y-67861600D01*
X134449500Y-68138399D01*
X134464760Y-68215117D01*
X134521142Y-68299500D01*
X134522888Y-68302112D01*
X134609883Y-68360240D01*
X134686599Y-68375500D01*
X134744229Y-68375499D01*
X134763382Y-68378021D01*
X134847270Y-68400499D01*
X134847271Y-68400500D01*
X134847273Y-68400500D01*
X134952727Y-68400500D01*
X135036624Y-68378020D01*
X135055776Y-68375499D01*
X135113399Y-68375499D01*
X135113400Y-68375499D01*
X135190117Y-68360240D01*
X135277112Y-68302112D01*
X135335240Y-68215117D01*
X135350500Y-68138401D01*
X135350499Y-67861600D01*
X135335240Y-67784883D01*
X135335238Y-67784881D01*
X135335238Y-67784879D01*
X135312971Y-67751553D01*
X135300500Y-67710442D01*
X135300500Y-66599344D01*
X135322174Y-66547018D01*
X135362322Y-66506870D01*
X135446311Y-66422881D01*
X135446313Y-66422880D01*
X135520880Y-66348313D01*
X135549273Y-66299135D01*
X135573607Y-66256988D01*
X135600900Y-66155129D01*
X135600901Y-66155129D01*
X135600901Y-66045144D01*
X135600900Y-66045126D01*
X135600900Y-63763673D01*
X135573607Y-63661813D01*
X135573607Y-63661812D01*
X135520881Y-63570489D01*
X135520880Y-63570487D01*
X135520877Y-63570484D01*
X135517932Y-63566646D01*
X135519000Y-63565826D01*
X135499300Y-63518255D01*
X135499300Y-62188873D01*
X135472007Y-62087013D01*
X135472007Y-62087012D01*
X135419282Y-61995690D01*
X135419281Y-61995689D01*
X135419280Y-61995687D01*
X134796239Y-61372646D01*
X136899500Y-61372646D01*
X136899500Y-61577353D01*
X136931522Y-61779531D01*
X136931525Y-61779544D01*
X136994777Y-61974213D01*
X137087712Y-62156610D01*
X137149720Y-62241956D01*
X137208034Y-62322219D01*
X137352781Y-62466966D01*
X137444695Y-62533745D01*
X137518389Y-62587287D01*
X137606300Y-62632079D01*
X137700781Y-62680220D01*
X137700783Y-62680220D01*
X137700786Y-62680222D01*
X137895455Y-62743474D01*
X137895461Y-62743475D01*
X137895466Y-62743477D01*
X137996557Y-62759488D01*
X138097646Y-62775500D01*
X138097648Y-62775500D01*
X138302354Y-62775500D01*
X138383224Y-62762690D01*
X138504534Y-62743477D01*
X138504541Y-62743474D01*
X138504544Y-62743474D01*
X138699213Y-62680222D01*
X138699213Y-62680221D01*
X138699219Y-62680220D01*
X138881610Y-62587287D01*
X139047219Y-62466966D01*
X139191966Y-62322219D01*
X139312287Y-62156610D01*
X139405220Y-61974219D01*
X139415629Y-61942184D01*
X139468474Y-61779544D01*
X139468474Y-61779541D01*
X139468477Y-61779534D01*
X139500500Y-61577352D01*
X139500500Y-61372648D01*
X139468477Y-61170466D01*
X139468475Y-61170461D01*
X139468474Y-61170455D01*
X139405222Y-60975786D01*
X139405220Y-60975783D01*
X139405220Y-60975781D01*
X139357079Y-60881300D01*
X139312287Y-60793389D01*
X139230739Y-60681148D01*
X139191966Y-60627781D01*
X139047219Y-60483034D01*
X138983040Y-60436406D01*
X138881610Y-60362712D01*
X138699213Y-60269777D01*
X138504544Y-60206525D01*
X138504531Y-60206522D01*
X138302354Y-60174500D01*
X138302352Y-60174500D01*
X138097648Y-60174500D01*
X138097646Y-60174500D01*
X137895468Y-60206522D01*
X137895455Y-60206525D01*
X137700786Y-60269777D01*
X137518389Y-60362712D01*
X137376514Y-60465791D01*
X137352781Y-60483034D01*
X137208034Y-60627781D01*
X137208031Y-60627784D01*
X137208031Y-60627785D01*
X137087712Y-60793389D01*
X136994777Y-60975786D01*
X136931525Y-61170455D01*
X136931522Y-61170468D01*
X136899500Y-61372646D01*
X134796239Y-61372646D01*
X134277913Y-60854320D01*
X134277910Y-60854318D01*
X134277909Y-60854317D01*
X134186592Y-60801595D01*
X134186588Y-60801593D01*
X134155973Y-60793390D01*
X134084727Y-60774300D01*
X134084726Y-60774300D01*
X132630660Y-60774300D01*
X132578334Y-60752626D01*
X132556660Y-60700300D01*
X132578334Y-60647974D01*
X132593659Y-60636215D01*
X132597298Y-60634113D01*
X132601513Y-60631680D01*
X132676080Y-60557113D01*
X132728807Y-60465787D01*
X132756099Y-60363929D01*
X132756100Y-60363929D01*
X132756100Y-60258471D01*
X132756099Y-60258470D01*
X132728808Y-60156617D01*
X132728807Y-60156613D01*
X132676080Y-60065287D01*
X132627774Y-60016981D01*
X132606100Y-59964655D01*
X132606100Y-59294500D01*
X132627774Y-59242174D01*
X132680100Y-59220500D01*
X133209219Y-59220500D01*
X133209220Y-59220500D01*
X133253122Y-59211767D01*
X133302904Y-59178504D01*
X133336167Y-59128722D01*
X133344900Y-59084820D01*
X133344900Y-56555180D01*
X133336167Y-56511278D01*
X133302904Y-56461496D01*
X133253122Y-56428233D01*
X133209220Y-56419500D01*
X132079580Y-56419500D01*
X132057629Y-56423866D01*
X132035677Y-56428233D01*
X131985896Y-56461495D01*
X131985895Y-56461496D01*
X131952633Y-56511277D01*
X131943900Y-56555180D01*
X131943900Y-58586587D01*
X131922226Y-58638913D01*
X131869900Y-58660587D01*
X131817574Y-58638913D01*
X131366574Y-58187913D01*
X131344900Y-58135587D01*
X131344900Y-56555180D01*
X131336167Y-56511278D01*
X131302904Y-56461496D01*
X131253122Y-56428233D01*
X131209220Y-56419500D01*
X130079580Y-56419500D01*
X130057629Y-56423866D01*
X130035677Y-56428233D01*
X129985896Y-56461495D01*
X129985895Y-56461496D01*
X129952633Y-56511277D01*
X129952633Y-56511278D01*
X129943900Y-56555180D01*
X129943900Y-59084820D01*
X129952633Y-59128722D01*
X129985896Y-59178504D01*
X130035678Y-59211767D01*
X130079580Y-59220500D01*
X130079581Y-59220500D01*
X131209219Y-59220500D01*
X131209220Y-59220500D01*
X131253122Y-59211767D01*
X131302904Y-59178504D01*
X131336167Y-59128722D01*
X131344900Y-59084820D01*
X131344900Y-59053412D01*
X131366574Y-59001086D01*
X131418900Y-58979412D01*
X131471226Y-59001086D01*
X131473826Y-59003686D01*
X131495500Y-59056012D01*
X131495500Y-59964655D01*
X131473826Y-60016981D01*
X131425520Y-60065286D01*
X131372795Y-60156608D01*
X131372791Y-60156617D01*
X131345500Y-60258470D01*
X131345500Y-60363929D01*
X131372791Y-60465782D01*
X131372795Y-60465791D01*
X131425520Y-60557113D01*
X131500087Y-60631680D01*
X131507941Y-60636215D01*
X131542419Y-60681148D01*
X131535025Y-60737301D01*
X131490092Y-60771779D01*
X131470940Y-60774300D01*
X129506345Y-60774300D01*
X129454019Y-60752626D01*
X128566574Y-59865181D01*
X128544900Y-59812855D01*
X128544900Y-59294500D01*
X128566574Y-59242174D01*
X128618900Y-59220500D01*
X128709219Y-59220500D01*
X128709220Y-59220500D01*
X128753122Y-59211767D01*
X128802904Y-59178504D01*
X128836167Y-59128722D01*
X128844900Y-59084820D01*
X128844900Y-56555180D01*
X128836167Y-56511278D01*
X128802904Y-56461496D01*
X128753122Y-56428233D01*
X128709220Y-56419500D01*
X127579580Y-56419500D01*
X127557629Y-56423866D01*
X127535677Y-56428233D01*
X127485896Y-56461495D01*
X127485895Y-56461496D01*
X127452633Y-56511277D01*
X127452633Y-56511278D01*
X127443900Y-56555180D01*
X127443900Y-59084820D01*
X127452633Y-59128722D01*
X127485896Y-59178504D01*
X127535678Y-59211767D01*
X127579580Y-59220500D01*
X127669900Y-59220500D01*
X127722226Y-59242174D01*
X127743900Y-59294500D01*
X127743900Y-59956673D01*
X127743900Y-60062127D01*
X127744747Y-60065287D01*
X127771193Y-60163988D01*
X127771195Y-60163992D01*
X127823917Y-60255309D01*
X127823918Y-60255310D01*
X127823920Y-60255313D01*
X128965226Y-61396619D01*
X128986900Y-61448944D01*
X128986900Y-61740240D01*
X128997534Y-61813225D01*
X128997534Y-61813226D01*
X129052573Y-61925810D01*
X129052574Y-61925811D01*
X129141189Y-62014426D01*
X129253775Y-62069466D01*
X129326764Y-62080100D01*
X129326770Y-62080100D01*
X129898030Y-62080100D01*
X129898036Y-62080100D01*
X129971025Y-62069466D01*
X130083611Y-62014426D01*
X130172226Y-61925811D01*
X130227266Y-61813225D01*
X130237900Y-61740236D01*
X130237900Y-61649300D01*
X130259574Y-61596974D01*
X130311900Y-61575300D01*
X131288389Y-61575300D01*
X131340715Y-61596974D01*
X131362389Y-61649300D01*
X131359867Y-61668453D01*
X131345500Y-61722070D01*
X131345500Y-61827529D01*
X131372791Y-61929382D01*
X131372795Y-61929391D01*
X131398673Y-61974213D01*
X131425520Y-62020713D01*
X131500087Y-62095280D01*
X131571499Y-62136510D01*
X131605978Y-62181442D01*
X131608500Y-62200595D01*
X131608500Y-69108829D01*
X131646634Y-69200894D01*
X131646637Y-69200898D01*
X131877826Y-69432087D01*
X131899500Y-69484413D01*
X131899500Y-70127900D01*
X131889469Y-70160972D01*
X131890426Y-70161369D01*
X131849501Y-70260170D01*
X131849501Y-70759829D01*
X131887635Y-70851894D01*
X131887638Y-70851898D01*
X131958103Y-70922363D01*
X131958106Y-70922365D01*
X131977990Y-70930601D01*
X132050173Y-70960500D01*
X132050174Y-70960500D01*
X132149827Y-70960500D01*
X132149829Y-70960500D01*
X132207676Y-70936539D01*
X132264312Y-70936539D01*
X132288316Y-70952577D01*
X132358103Y-71022364D01*
X132450172Y-71060500D01*
X132450173Y-71060500D01*
X132549827Y-71060500D01*
X132549828Y-71060500D01*
X132549828Y-71060499D01*
X132556976Y-71059078D01*
X132557477Y-71061597D01*
X132557510Y-71061597D01*
X132566510Y-71056511D01*
X132584813Y-71061595D01*
X132603810Y-71061593D01*
X132611121Y-71068902D01*
X132621081Y-71071669D01*
X132627919Y-71085697D01*
X132643863Y-71101637D01*
X132648951Y-71120974D01*
X132649499Y-71125452D01*
X132649499Y-71159828D01*
X132655469Y-71174242D01*
X132656695Y-71184255D01*
X132651609Y-71202562D01*
X132651609Y-71221565D01*
X132644302Y-71228871D01*
X132641537Y-71238826D01*
X132624996Y-71248175D01*
X132611559Y-71261612D01*
X132601226Y-71261612D01*
X132592232Y-71266696D01*
X132573929Y-71261612D01*
X132554927Y-71261612D01*
X132549828Y-71259500D01*
X132549827Y-71259500D01*
X132450171Y-71259500D01*
X132358104Y-71297634D01*
X132352326Y-71303412D01*
X132300000Y-71325086D01*
X132247674Y-71303412D01*
X132241899Y-71297637D01*
X132241895Y-71297634D01*
X132149829Y-71259500D01*
X132050173Y-71259500D01*
X131958106Y-71297634D01*
X131887635Y-71368105D01*
X131849501Y-71460170D01*
X131849501Y-71959829D01*
X131890426Y-72058631D01*
X131888982Y-72059228D01*
X131898501Y-72090603D01*
X131898501Y-72390907D01*
X131876827Y-72443233D01*
X131397637Y-72922423D01*
X131397634Y-72922427D01*
X131359500Y-73014492D01*
X131359500Y-75398375D01*
X131379170Y-75445862D01*
X131397636Y-75490443D01*
X131487462Y-75580268D01*
X131535405Y-75628211D01*
X131557079Y-75680537D01*
X131557079Y-76895266D01*
X131537232Y-76945699D01*
X131536337Y-76946659D01*
X131463372Y-77019625D01*
X131459356Y-77029318D01*
X131450254Y-77039093D01*
X131435717Y-77045729D01*
X131424418Y-77057028D01*
X131410967Y-77057027D01*
X131398732Y-77062613D01*
X131383760Y-77057026D01*
X131367781Y-77057026D01*
X131347573Y-77043523D01*
X131345668Y-77042813D01*
X131345298Y-77042004D01*
X131343775Y-77040986D01*
X131042005Y-76739216D01*
X131020331Y-76686890D01*
X131032802Y-76645778D01*
X131049874Y-76620228D01*
X131069317Y-76522487D01*
X131049874Y-76424747D01*
X131008486Y-76362804D01*
X130789744Y-76144062D01*
X130727801Y-76102674D01*
X130630061Y-76083231D01*
X130630060Y-76083231D01*
X130532320Y-76102673D01*
X130470378Y-76144061D01*
X130470377Y-76144063D01*
X130294063Y-76320377D01*
X130294061Y-76320378D01*
X130252673Y-76382320D01*
X130245843Y-76416658D01*
X130214376Y-76463750D01*
X130158827Y-76474798D01*
X130120939Y-76454546D01*
X128956417Y-75290025D01*
X128956413Y-75290022D01*
X128882724Y-75259500D01*
X126603702Y-75259500D01*
X126551376Y-75237826D01*
X125890376Y-74576826D01*
X125868702Y-74524500D01*
X125890376Y-74472174D01*
X125942702Y-74450500D01*
X126514819Y-74450500D01*
X126514820Y-74450500D01*
X126558722Y-74441767D01*
X126608504Y-74408504D01*
X126641767Y-74358722D01*
X126650500Y-74314820D01*
X126650500Y-73285180D01*
X126641767Y-73241278D01*
X126608504Y-73191496D01*
X126558722Y-73158233D01*
X126527778Y-73152077D01*
X126480687Y-73120612D01*
X126469638Y-73065063D01*
X126501104Y-73017971D01*
X126542216Y-73005500D01*
X127626001Y-73005500D01*
X127629209Y-73005154D01*
X127659055Y-73001946D01*
X127710566Y-72990740D01*
X127779342Y-72956313D01*
X127832146Y-72910558D01*
X127837621Y-72905580D01*
X127879516Y-72836850D01*
X127899201Y-72769811D01*
X127905500Y-72726000D01*
X127905500Y-69724000D01*
X127905499Y-69723995D01*
X127904557Y-69715227D01*
X127901946Y-69690945D01*
X127890740Y-69639434D01*
X127856313Y-69570658D01*
X127847162Y-69560097D01*
X127810562Y-69517858D01*
X127805581Y-69512380D01*
X127805580Y-69512379D01*
X127736850Y-69470484D01*
X127736846Y-69470483D01*
X127736845Y-69470482D01*
X127669812Y-69450799D01*
X127626004Y-69444500D01*
X127626000Y-69444500D01*
X126374000Y-69444500D01*
X126373999Y-69444500D01*
X126340944Y-69448054D01*
X126289435Y-69459259D01*
X126220657Y-69493687D01*
X126167858Y-69539437D01*
X126162380Y-69544418D01*
X126158579Y-69550654D01*
X126122543Y-69609773D01*
X126120482Y-69613154D01*
X126100799Y-69680187D01*
X126094500Y-69723995D01*
X126094500Y-72726000D01*
X126098054Y-72759055D01*
X126109259Y-72810564D01*
X126143687Y-72879342D01*
X126189437Y-72932141D01*
X126189442Y-72932146D01*
X126194420Y-72937621D01*
X126263150Y-72979516D01*
X126330189Y-72999201D01*
X126349274Y-73001945D01*
X126351416Y-73002253D01*
X126400125Y-73031153D01*
X126414132Y-73086031D01*
X126385232Y-73134740D01*
X126340885Y-73149500D01*
X125735180Y-73149500D01*
X125722220Y-73152078D01*
X125691277Y-73158233D01*
X125641496Y-73191495D01*
X125641495Y-73191496D01*
X125608233Y-73241277D01*
X125599500Y-73285180D01*
X125599500Y-73525500D01*
X125577826Y-73577826D01*
X125525500Y-73599500D01*
X125424500Y-73599500D01*
X125372174Y-73577826D01*
X125350500Y-73525500D01*
X125350500Y-68074500D01*
X125372174Y-68022174D01*
X125424500Y-68000500D01*
X125525500Y-68000500D01*
X125577826Y-68022174D01*
X125599500Y-68074500D01*
X125599500Y-68314819D01*
X125608233Y-68358722D01*
X125619443Y-68375500D01*
X125641496Y-68408504D01*
X125691278Y-68441767D01*
X125735180Y-68450500D01*
X125754455Y-68450500D01*
X125806781Y-68472174D01*
X125828455Y-68524500D01*
X125806781Y-68576826D01*
X125779520Y-68604086D01*
X125726795Y-68695408D01*
X125726791Y-68695417D01*
X125699500Y-68797270D01*
X125699500Y-68902729D01*
X125726791Y-69004582D01*
X125726792Y-69004585D01*
X125726793Y-69004587D01*
X125779520Y-69095913D01*
X125854087Y-69170480D01*
X125945413Y-69223207D01*
X126047270Y-69250499D01*
X126047271Y-69250500D01*
X126047273Y-69250500D01*
X126152729Y-69250500D01*
X126152729Y-69250499D01*
X126254587Y-69223207D01*
X126345913Y-69170480D01*
X126420480Y-69095913D01*
X126473207Y-69004587D01*
X126500499Y-68902729D01*
X126500500Y-68902729D01*
X126500500Y-68797271D01*
X126500499Y-68797270D01*
X126496032Y-68780600D01*
X126473207Y-68695413D01*
X126420480Y-68604087D01*
X126393219Y-68576826D01*
X126371545Y-68524500D01*
X126393219Y-68472174D01*
X126445545Y-68450500D01*
X126514819Y-68450500D01*
X126514820Y-68450500D01*
X126558722Y-68441767D01*
X126608504Y-68408504D01*
X126641767Y-68358722D01*
X126650500Y-68314820D01*
X126650500Y-67285180D01*
X126641767Y-67241278D01*
X126608504Y-67191496D01*
X126558722Y-67158233D01*
X126514820Y-67149500D01*
X125735180Y-67149500D01*
X125713229Y-67153866D01*
X125691277Y-67158233D01*
X125641496Y-67191495D01*
X125641495Y-67191496D01*
X125608233Y-67241277D01*
X125599500Y-67285180D01*
X125599500Y-67525500D01*
X125577826Y-67577826D01*
X125525500Y-67599500D01*
X125182518Y-67599500D01*
X125108828Y-67630022D01*
X124972022Y-67766828D01*
X124941500Y-67840516D01*
X124941500Y-67840518D01*
X124941500Y-67920282D01*
X124943867Y-67925997D01*
X124949500Y-67954315D01*
X124949500Y-74159883D01*
X124980022Y-74233571D01*
X124980023Y-74233573D01*
X124980024Y-74233574D01*
X126376426Y-75629976D01*
X126450118Y-75660500D01*
X126529882Y-75660500D01*
X128729140Y-75660500D01*
X128781466Y-75682174D01*
X129823966Y-76724674D01*
X130783460Y-77684167D01*
X130805134Y-77736493D01*
X130783460Y-77788819D01*
X130759453Y-77804860D01*
X130705138Y-77827358D01*
X130644517Y-77887979D01*
X130644515Y-77887980D01*
X130611708Y-77967185D01*
X130611708Y-78003393D01*
X130590034Y-78055719D01*
X130549674Y-78076419D01*
X130543730Y-78077393D01*
X130501499Y-78077393D01*
X130473858Y-78088842D01*
X130465413Y-78090226D01*
X130462168Y-78089465D01*
X130453447Y-78091200D01*
X130370871Y-78091200D01*
X129761271Y-78700799D01*
X129761270Y-78700800D01*
X129747281Y-78766020D01*
X129715115Y-78812637D01*
X129674927Y-78824500D01*
X127563702Y-78824500D01*
X127511376Y-78802826D01*
X127147174Y-78438624D01*
X127125500Y-78386298D01*
X127125500Y-77235180D01*
X127120367Y-77209376D01*
X127116767Y-77191278D01*
X127083504Y-77141496D01*
X127033722Y-77108233D01*
X126989820Y-77099500D01*
X126989819Y-77099500D01*
X126879500Y-77099500D01*
X126827174Y-77077826D01*
X126805500Y-77025500D01*
X126805500Y-76993721D01*
X126827174Y-76941395D01*
X126838388Y-76932192D01*
X126885918Y-76900434D01*
X126915601Y-76880601D01*
X126970966Y-76797740D01*
X126985500Y-76724674D01*
X126985500Y-76475326D01*
X126970966Y-76402260D01*
X126915601Y-76319399D01*
X126832740Y-76264034D01*
X126759674Y-76249500D01*
X126450326Y-76249500D01*
X126401615Y-76259189D01*
X126377259Y-76264034D01*
X126294399Y-76319398D01*
X126294398Y-76319399D01*
X126239034Y-76402259D01*
X126234561Y-76424746D01*
X126228634Y-76454546D01*
X126224500Y-76475327D01*
X126224500Y-76724672D01*
X126239034Y-76797740D01*
X126294398Y-76880600D01*
X126294399Y-76880601D01*
X126371612Y-76932192D01*
X126375823Y-76938494D01*
X126382826Y-76941395D01*
X126391086Y-76961337D01*
X126403078Y-76979284D01*
X126404500Y-76993721D01*
X126404500Y-77025500D01*
X126382826Y-77077826D01*
X126330500Y-77099500D01*
X125760180Y-77099500D01*
X125738229Y-77103866D01*
X125716277Y-77108233D01*
X125666496Y-77141495D01*
X125666495Y-77141496D01*
X125633233Y-77191277D01*
X125624500Y-77235180D01*
X125624500Y-78254516D01*
X125602826Y-78306842D01*
X125550500Y-78328516D01*
X125498174Y-78306842D01*
X125482806Y-78284407D01*
X125474616Y-78265860D01*
X125399142Y-78190386D01*
X125399141Y-78190385D01*
X125301498Y-78147271D01*
X125277623Y-78144501D01*
X125277619Y-78144501D01*
X124822377Y-78144501D01*
X124798504Y-78147270D01*
X124700858Y-78190385D01*
X124625385Y-78265858D01*
X124583713Y-78360236D01*
X124582270Y-78363503D01*
X124579626Y-78386298D01*
X124579500Y-78387381D01*
X124579500Y-78742623D01*
X124582269Y-78766496D01*
X124582269Y-78766498D01*
X124582270Y-78766499D01*
X124625384Y-78864142D01*
X124700859Y-78939617D01*
X124798502Y-78982731D01*
X124822377Y-78985501D01*
X125187295Y-78985500D01*
X125239621Y-79007174D01*
X125261295Y-79059500D01*
X125239621Y-79111826D01*
X125208622Y-79142825D01*
X125156296Y-79164499D01*
X124822377Y-79164499D01*
X124798504Y-79167268D01*
X124700858Y-79210383D01*
X124625385Y-79285856D01*
X124582270Y-79383500D01*
X124579500Y-79407379D01*
X124579500Y-79762621D01*
X124582269Y-79786494D01*
X124582269Y-79786496D01*
X124582270Y-79786497D01*
X124625384Y-79884140D01*
X124700859Y-79959615D01*
X124798502Y-80002729D01*
X124822377Y-80005499D01*
X125277622Y-80005498D01*
X125301498Y-80002729D01*
X125399141Y-79959615D01*
X125474616Y-79884140D01*
X125517730Y-79786497D01*
X125520500Y-79762622D01*
X125520499Y-79428700D01*
X125542173Y-79376375D01*
X125646375Y-79272174D01*
X125698701Y-79250500D01*
X127036298Y-79250500D01*
X127088624Y-79272174D01*
X127302826Y-79486376D01*
X127324500Y-79538702D01*
X127324500Y-80864820D01*
X127325082Y-80867745D01*
X127333233Y-80908722D01*
X127357139Y-80944501D01*
X127366496Y-80958504D01*
X127416278Y-80991767D01*
X127460180Y-81000500D01*
X127712297Y-81000500D01*
X127764623Y-81022174D01*
X127786297Y-81074500D01*
X127764623Y-81126826D01*
X127764621Y-81126828D01*
X127750458Y-81140990D01*
X127698131Y-81162662D01*
X127683698Y-81161240D01*
X127624674Y-81149500D01*
X127315326Y-81149500D01*
X127266615Y-81159189D01*
X127242259Y-81164034D01*
X127159399Y-81219398D01*
X127159398Y-81219399D01*
X127104034Y-81302259D01*
X127104034Y-81302260D01*
X127089500Y-81375326D01*
X127089500Y-81624674D01*
X127095351Y-81654086D01*
X127104034Y-81697740D01*
X127153985Y-81772499D01*
X127159399Y-81780601D01*
X127242260Y-81835966D01*
X127315326Y-81850500D01*
X127315328Y-81850500D01*
X127624672Y-81850500D01*
X127624674Y-81850500D01*
X127697740Y-81835966D01*
X127780601Y-81780601D01*
X127835966Y-81697740D01*
X127850248Y-81625936D01*
X127870498Y-81588050D01*
X128178165Y-81280382D01*
X128178168Y-81280381D01*
X128188573Y-81269976D01*
X128188574Y-81269976D01*
X128244976Y-81213574D01*
X128275068Y-81140925D01*
X128275500Y-81139883D01*
X128275500Y-81072138D01*
X128275652Y-81069767D01*
X128287173Y-81046318D01*
X128297174Y-81022174D01*
X128299511Y-81021205D01*
X128300628Y-81018934D01*
X128325358Y-81010499D01*
X128349500Y-81000500D01*
X128689819Y-81000500D01*
X128689820Y-81000500D01*
X128733722Y-80991767D01*
X128783504Y-80958504D01*
X128816767Y-80908722D01*
X128825500Y-80864820D01*
X128825500Y-80424500D01*
X128847174Y-80372174D01*
X128899500Y-80350500D01*
X129064881Y-80350500D01*
X129064882Y-80350500D01*
X129138574Y-80319976D01*
X129383295Y-80075254D01*
X129435619Y-80053581D01*
X129487945Y-80075255D01*
X129509619Y-80127581D01*
X129509619Y-80127782D01*
X129508423Y-80568285D01*
X129508424Y-80568312D01*
X129509149Y-80583734D01*
X129509150Y-80583748D01*
X129510572Y-80598379D01*
X129536049Y-80669733D01*
X129536051Y-80669737D01*
X129567511Y-80716820D01*
X129610417Y-80759726D01*
X129649437Y-80785798D01*
X129660651Y-80795001D01*
X129804997Y-80939347D01*
X129814203Y-80950565D01*
X129817673Y-80955759D01*
X129828718Y-80982426D01*
X129831762Y-80997724D01*
X129832829Y-81019416D01*
X129832257Y-81025225D01*
X129832257Y-81054112D01*
X129832589Y-81064265D01*
X129832590Y-81064269D01*
X129858461Y-81140488D01*
X129858464Y-81140494D01*
X129889919Y-81187571D01*
X129889939Y-81187597D01*
X129916690Y-81218100D01*
X129916693Y-81218103D01*
X129970340Y-81244559D01*
X129988884Y-81253704D01*
X130044433Y-81264754D01*
X130077479Y-81264754D01*
X130091915Y-81266176D01*
X130117566Y-81271278D01*
X130144239Y-81282325D01*
X130149439Y-81285799D01*
X130160651Y-81295001D01*
X130305001Y-81439351D01*
X130313378Y-81449553D01*
X130313462Y-81449495D01*
X130313980Y-81450230D01*
X130313989Y-81450243D01*
X130319248Y-81457335D01*
X130323064Y-81462481D01*
X130323082Y-81462504D01*
X130332277Y-81473708D01*
X130335834Y-81476346D01*
X130364954Y-81524924D01*
X130351194Y-81579864D01*
X130344081Y-81588111D01*
X129954368Y-81977826D01*
X129902042Y-81999500D01*
X125274500Y-81999500D01*
X125222174Y-81977826D01*
X125200500Y-81925500D01*
X125200500Y-81847271D01*
X125200499Y-81847270D01*
X125199393Y-81843144D01*
X125173207Y-81745413D01*
X125120480Y-81654087D01*
X125045913Y-81579520D01*
X125033276Y-81572224D01*
X124954591Y-81526795D01*
X124954582Y-81526791D01*
X124852729Y-81499500D01*
X124852727Y-81499500D01*
X124747273Y-81499500D01*
X124747271Y-81499500D01*
X124645417Y-81526791D01*
X124645408Y-81526795D01*
X124554086Y-81579520D01*
X124479520Y-81654086D01*
X124426795Y-81745408D01*
X124426791Y-81745417D01*
X124399500Y-81847270D01*
X124399500Y-81952729D01*
X124426791Y-82054582D01*
X124426792Y-82054585D01*
X124426793Y-82054587D01*
X124479520Y-82145913D01*
X124554087Y-82220480D01*
X124645413Y-82273207D01*
X124747270Y-82300499D01*
X124747271Y-82300500D01*
X124747273Y-82300500D01*
X124852726Y-82300500D01*
X124852727Y-82300500D01*
X124862108Y-82297986D01*
X124918259Y-82305376D01*
X124933588Y-82317138D01*
X124986426Y-82369976D01*
X125060118Y-82400500D01*
X125060119Y-82400500D01*
X130055625Y-82400500D01*
X130055626Y-82400500D01*
X130129318Y-82369976D01*
X130905396Y-81593896D01*
X130957719Y-81572224D01*
X131009019Y-81592892D01*
X131350893Y-81921740D01*
X131373579Y-81973635D01*
X131352925Y-82026372D01*
X131351919Y-82027398D01*
X131169064Y-82210253D01*
X131169064Y-82210254D01*
X131169062Y-82210256D01*
X131162231Y-82220480D01*
X131127674Y-82272198D01*
X131108231Y-82369939D01*
X131127673Y-82467679D01*
X131169061Y-82529621D01*
X131345378Y-82705938D01*
X131407320Y-82747326D01*
X131505061Y-82766769D01*
X131509404Y-82766769D01*
X131561729Y-82788442D01*
X131586556Y-82813268D01*
X131608231Y-82865594D01*
X131608231Y-82869939D01*
X131627673Y-82967679D01*
X131669061Y-83029621D01*
X131845378Y-83205938D01*
X131907320Y-83247326D01*
X131963201Y-83258442D01*
X132010293Y-83289908D01*
X132022764Y-83331020D01*
X132022764Y-83498944D01*
X132001090Y-83551270D01*
X131948764Y-83572944D01*
X131928759Y-83570189D01*
X131919811Y-83567676D01*
X131892759Y-83552058D01*
X131864189Y-83552058D01*
X131854378Y-83549303D01*
X131839520Y-83537617D01*
X131822057Y-83530384D01*
X131746447Y-83454774D01*
X131670837Y-83530384D01*
X131618511Y-83552058D01*
X131600133Y-83552058D01*
X131530425Y-83592304D01*
X131459715Y-83663014D01*
X131419469Y-83732722D01*
X131419469Y-83751098D01*
X131397795Y-83803424D01*
X131322183Y-83879036D01*
X131397795Y-83954648D01*
X131419469Y-84006974D01*
X131419469Y-84025349D01*
X131459715Y-84095057D01*
X131490193Y-84125535D01*
X131511867Y-84177861D01*
X131490193Y-84230187D01*
X131437867Y-84251861D01*
X131427201Y-84251088D01*
X131416307Y-84249501D01*
X131416298Y-84249500D01*
X131416295Y-84249500D01*
X131416289Y-84249500D01*
X131009045Y-84249500D01*
X130956719Y-84227826D01*
X130858901Y-84130008D01*
X130758414Y-84029521D01*
X130758411Y-84029519D01*
X130758410Y-84029518D01*
X130667093Y-83976796D01*
X130667089Y-83976794D01*
X130665327Y-83976322D01*
X130565228Y-83949501D01*
X130565227Y-83949501D01*
X129942239Y-83949501D01*
X129912349Y-83943196D01*
X129905163Y-83940023D01*
X129819991Y-83902416D01*
X129819990Y-83902415D01*
X129819988Y-83902415D01*
X129798659Y-83899941D01*
X129794865Y-83899501D01*
X129794864Y-83899501D01*
X128680136Y-83899501D01*
X128655013Y-83902415D01*
X128655007Y-83902416D01*
X128552234Y-83947795D01*
X128472794Y-84027235D01*
X128427414Y-84130012D01*
X128424500Y-84155136D01*
X128424500Y-84544864D01*
X128427414Y-84569987D01*
X128427415Y-84569992D01*
X128472794Y-84672766D01*
X128552235Y-84752207D01*
X128655009Y-84797586D01*
X128680135Y-84800501D01*
X129794864Y-84800500D01*
X129819991Y-84797586D01*
X129912349Y-84756805D01*
X129942239Y-84750501D01*
X130175500Y-84750501D01*
X130227826Y-84772175D01*
X130249500Y-84824501D01*
X130249500Y-85091294D01*
X130259955Y-85163061D01*
X130259957Y-85163068D01*
X130314080Y-85273779D01*
X130314081Y-85273780D01*
X130401220Y-85360919D01*
X130511933Y-85415043D01*
X130583705Y-85425500D01*
X131416294Y-85425499D01*
X131488061Y-85415044D01*
X131488061Y-85415043D01*
X131488067Y-85415043D01*
X131598780Y-85360919D01*
X131598782Y-85360916D01*
X131603772Y-85357355D01*
X131605352Y-85359568D01*
X131648764Y-85341587D01*
X131701090Y-85363261D01*
X131722764Y-85415587D01*
X131722764Y-86384413D01*
X131701090Y-86436739D01*
X131648764Y-86458413D01*
X131605352Y-86440431D01*
X131603772Y-86442645D01*
X131598779Y-86439080D01*
X131488068Y-86384957D01*
X131452181Y-86379728D01*
X131416295Y-86374500D01*
X131416294Y-86374500D01*
X130583705Y-86374500D01*
X130511938Y-86384955D01*
X130511931Y-86384957D01*
X130401220Y-86439080D01*
X130314080Y-86526220D01*
X130259957Y-86636931D01*
X130259957Y-86636932D01*
X130249500Y-86708700D01*
X130249500Y-87115954D01*
X130227826Y-87168280D01*
X130034825Y-87361281D01*
X129982499Y-87382955D01*
X129930173Y-87361281D01*
X129916017Y-87341453D01*
X129909826Y-87328789D01*
X129821210Y-87240173D01*
X129708626Y-87185134D01*
X129635640Y-87174500D01*
X129635636Y-87174500D01*
X129114364Y-87174500D01*
X129114359Y-87174500D01*
X129114354Y-87174501D01*
X129085167Y-87178753D01*
X129030264Y-87164848D01*
X129001273Y-87116193D01*
X129000500Y-87105526D01*
X129000500Y-86774498D01*
X129022174Y-86722172D01*
X129074500Y-86700498D01*
X129794863Y-86700498D01*
X129794864Y-86700498D01*
X129819991Y-86697584D01*
X129922765Y-86652205D01*
X130002206Y-86572764D01*
X130047585Y-86469990D01*
X130050500Y-86444864D01*
X130050499Y-86055135D01*
X130047585Y-86030008D01*
X130002206Y-85927234D01*
X129922765Y-85847793D01*
X129819991Y-85802414D01*
X129819990Y-85802413D01*
X129819988Y-85802413D01*
X129798659Y-85799939D01*
X129794865Y-85799499D01*
X129794864Y-85799499D01*
X128680136Y-85799499D01*
X128655013Y-85802413D01*
X128655007Y-85802414D01*
X128552234Y-85847793D01*
X128472794Y-85927233D01*
X128427414Y-86030010D01*
X128424500Y-86055134D01*
X128424500Y-86444862D01*
X128427414Y-86469985D01*
X128427415Y-86469991D01*
X128472794Y-86572764D01*
X128552235Y-86652205D01*
X128555386Y-86653596D01*
X128557506Y-86655816D01*
X128557891Y-86656080D01*
X128557835Y-86656161D01*
X128594501Y-86694555D01*
X128599500Y-86721292D01*
X128599500Y-87086298D01*
X128577826Y-87138624D01*
X128430022Y-87286428D01*
X128399500Y-87360116D01*
X128399500Y-88310577D01*
X128377826Y-88362903D01*
X128362501Y-88374662D01*
X128354090Y-88379518D01*
X128354088Y-88379519D01*
X128279520Y-88454086D01*
X128226795Y-88545408D01*
X128226791Y-88545417D01*
X128199500Y-88647270D01*
X128199500Y-88752729D01*
X128226791Y-88854582D01*
X128226796Y-88854593D01*
X128231938Y-88863499D01*
X128239332Y-88919652D01*
X128204854Y-88964585D01*
X128167853Y-88974500D01*
X126724057Y-88974500D01*
X126671731Y-88952826D01*
X126293252Y-88574347D01*
X126271578Y-88522021D01*
X126293252Y-88469695D01*
X126345578Y-88448021D01*
X126360007Y-88449442D01*
X126365326Y-88450500D01*
X126365330Y-88450500D01*
X126674672Y-88450500D01*
X126674674Y-88450500D01*
X126747740Y-88435966D01*
X126830601Y-88380601D01*
X126885966Y-88297740D01*
X126900500Y-88224674D01*
X126900500Y-87975326D01*
X126885966Y-87902260D01*
X126830601Y-87819399D01*
X126818822Y-87811528D01*
X126787356Y-87764438D01*
X126798404Y-87708889D01*
X126818820Y-87688472D01*
X126830601Y-87680601D01*
X126885966Y-87597740D01*
X126900500Y-87524674D01*
X126900500Y-87275326D01*
X126885966Y-87202260D01*
X126830601Y-87119399D01*
X126825445Y-87115954D01*
X126778388Y-87084512D01*
X126746922Y-87037420D01*
X126745500Y-87022983D01*
X126745500Y-86816555D01*
X126767173Y-86764230D01*
X126809231Y-86722171D01*
X126861557Y-86700498D01*
X127519863Y-86700498D01*
X127519864Y-86700498D01*
X127544991Y-86697584D01*
X127647765Y-86652205D01*
X127727206Y-86572764D01*
X127772585Y-86469990D01*
X127775500Y-86444864D01*
X127775499Y-86055135D01*
X127772585Y-86030008D01*
X127727206Y-85927234D01*
X127647765Y-85847793D01*
X127544991Y-85802414D01*
X127544990Y-85802413D01*
X127544988Y-85802413D01*
X127523659Y-85799939D01*
X127519865Y-85799499D01*
X127519864Y-85799499D01*
X126405136Y-85799499D01*
X126380013Y-85802413D01*
X126380007Y-85802414D01*
X126277234Y-85847793D01*
X126197794Y-85927233D01*
X126152414Y-86030010D01*
X126149500Y-86055134D01*
X126149500Y-86444862D01*
X126152414Y-86469985D01*
X126152415Y-86469991D01*
X126197794Y-86572764D01*
X126272825Y-86647795D01*
X126294499Y-86700119D01*
X126294499Y-86737354D01*
X126294499Y-86737355D01*
X126294500Y-86745970D01*
X126294500Y-87022983D01*
X126272826Y-87075309D01*
X126261612Y-87084512D01*
X126209399Y-87119398D01*
X126209398Y-87119399D01*
X126154034Y-87202259D01*
X126154034Y-87202260D01*
X126146493Y-87240173D01*
X126139500Y-87275327D01*
X126139500Y-87524672D01*
X126154034Y-87597741D01*
X126190021Y-87651601D01*
X126201070Y-87707150D01*
X126169603Y-87754241D01*
X126114055Y-87765290D01*
X126091813Y-87760866D01*
X126034674Y-87749500D01*
X125725326Y-87749500D01*
X125676615Y-87759189D01*
X125652259Y-87764034D01*
X125569399Y-87819398D01*
X125569398Y-87819399D01*
X125514034Y-87902259D01*
X125514034Y-87902260D01*
X125499500Y-87975326D01*
X125499500Y-88224674D01*
X125508757Y-88271209D01*
X125514034Y-88297740D01*
X125569398Y-88380600D01*
X125569401Y-88380603D01*
X125621610Y-88415487D01*
X125653077Y-88462578D01*
X125653720Y-88466304D01*
X125654499Y-88471628D01*
X125654499Y-88524855D01*
X125663015Y-88545413D01*
X125666536Y-88553915D01*
X125666537Y-88553916D01*
X125688829Y-88607735D01*
X125762671Y-88681577D01*
X125762673Y-88681578D01*
X126404609Y-89323514D01*
X126404612Y-89323518D01*
X126408830Y-89327736D01*
X126472264Y-89391170D01*
X126504656Y-89404587D01*
X126555146Y-89425501D01*
X126555147Y-89425501D01*
X126653467Y-89425501D01*
X126653475Y-89425500D01*
X128846525Y-89425500D01*
X128846533Y-89425501D01*
X128855145Y-89425501D01*
X128944854Y-89425501D01*
X128944855Y-89425501D01*
X129003460Y-89401225D01*
X129027736Y-89391170D01*
X129091170Y-89327736D01*
X129091170Y-89327735D01*
X129101575Y-89317330D01*
X129101576Y-89317327D01*
X129566170Y-88852736D01*
X129600500Y-88769855D01*
X129600500Y-88680146D01*
X129600500Y-88494618D01*
X129622174Y-88442292D01*
X129663829Y-88421392D01*
X129708625Y-88414866D01*
X129821211Y-88359826D01*
X129909826Y-88271211D01*
X129909826Y-88271210D01*
X129909827Y-88271210D01*
X129909827Y-88271209D01*
X129924107Y-88242000D01*
X129933477Y-88233725D01*
X129938262Y-88222174D01*
X129953885Y-88215702D01*
X129966560Y-88204510D01*
X129990588Y-88200500D01*
X130103455Y-88200500D01*
X130155781Y-88222174D01*
X130379519Y-88445912D01*
X130379520Y-88445913D01*
X130454087Y-88520480D01*
X130545413Y-88573207D01*
X130647270Y-88600499D01*
X130647271Y-88600500D01*
X130647273Y-88600500D01*
X131485626Y-88600500D01*
X131485627Y-88600500D01*
X131587488Y-88573207D01*
X131678813Y-88520480D01*
X132443744Y-87755549D01*
X132496471Y-87664224D01*
X132523764Y-87562363D01*
X132523764Y-87494049D01*
X132545438Y-87441723D01*
X132662363Y-87324798D01*
X132662364Y-87324797D01*
X132700500Y-87232728D01*
X132700500Y-87133073D01*
X132700500Y-84475172D01*
X132700500Y-83359413D01*
X132722174Y-83307087D01*
X132731155Y-83298106D01*
X132731156Y-83298105D01*
X132769292Y-83206036D01*
X132769292Y-83106380D01*
X132769292Y-82737200D01*
X132790966Y-82684874D01*
X132843292Y-82663200D01*
X133300500Y-82663200D01*
X133352826Y-82684874D01*
X133374500Y-82737200D01*
X133374500Y-83822934D01*
X133405022Y-83896622D01*
X133405025Y-83896626D01*
X133615098Y-84106699D01*
X133636772Y-84159025D01*
X133615098Y-84211351D01*
X133555022Y-84271427D01*
X133524500Y-84345115D01*
X133524500Y-85464883D01*
X133555022Y-85538571D01*
X133555025Y-85538575D01*
X133582861Y-85566411D01*
X133604535Y-85618737D01*
X133602015Y-85637885D01*
X133599500Y-85647273D01*
X133599500Y-85752729D01*
X133602014Y-85762112D01*
X133594620Y-85818264D01*
X133582862Y-85833587D01*
X133555025Y-85861424D01*
X133555022Y-85861428D01*
X133524500Y-85935116D01*
X133524500Y-88661297D01*
X133502826Y-88713623D01*
X133383587Y-88832861D01*
X133331261Y-88854535D01*
X133312110Y-88852014D01*
X133302727Y-88849500D01*
X133197273Y-88849500D01*
X133197271Y-88849500D01*
X133095417Y-88876791D01*
X133095408Y-88876795D01*
X133004086Y-88929520D01*
X132929520Y-89004086D01*
X132876795Y-89095408D01*
X132876791Y-89095417D01*
X132849500Y-89197270D01*
X132849500Y-89302729D01*
X132876791Y-89404582D01*
X132876795Y-89404591D01*
X132929520Y-89495913D01*
X133004087Y-89570480D01*
X133095413Y-89623207D01*
X133197270Y-89650499D01*
X133197271Y-89650500D01*
X133197273Y-89650500D01*
X133302729Y-89650500D01*
X133302729Y-89650499D01*
X133404587Y-89623207D01*
X133495913Y-89570480D01*
X133570480Y-89495913D01*
X133623207Y-89404587D01*
X133650499Y-89302729D01*
X133650500Y-89302729D01*
X133650500Y-89197274D01*
X133647985Y-89187888D01*
X133655378Y-89131736D01*
X133667135Y-89116413D01*
X133828165Y-88955382D01*
X133828168Y-88955381D01*
X133838573Y-88944976D01*
X133838574Y-88944976D01*
X133894976Y-88888574D01*
X133925500Y-88814882D01*
X133925500Y-86174500D01*
X133947174Y-86122174D01*
X133999500Y-86100500D01*
X134052729Y-86100500D01*
X134052729Y-86100499D01*
X134154587Y-86073207D01*
X134245913Y-86020480D01*
X134320480Y-85945913D01*
X134373207Y-85854587D01*
X134400499Y-85752729D01*
X134400500Y-85752729D01*
X134400500Y-85647271D01*
X134400499Y-85647270D01*
X134397984Y-85637885D01*
X134373207Y-85545413D01*
X134320480Y-85454087D01*
X134245913Y-85379520D01*
X134154591Y-85326795D01*
X134154582Y-85326791D01*
X134052729Y-85299500D01*
X134052727Y-85299500D01*
X133999500Y-85299500D01*
X133947174Y-85277826D01*
X133925500Y-85225500D01*
X133925500Y-84498701D01*
X133947174Y-84446375D01*
X134071923Y-84321626D01*
X134071924Y-84321625D01*
X134102448Y-84247933D01*
X134102448Y-84168169D01*
X134102448Y-84070117D01*
X134071924Y-83996425D01*
X134015522Y-83940023D01*
X133797174Y-83721675D01*
X133775500Y-83669349D01*
X133775500Y-82737200D01*
X133797174Y-82684874D01*
X133849500Y-82663200D01*
X135170500Y-82663200D01*
X135222826Y-82684874D01*
X135244500Y-82737200D01*
X135244500Y-84725998D01*
X135256335Y-84785501D01*
X135256338Y-84785511D01*
X135278008Y-84837826D01*
X135278016Y-84837843D01*
X135298305Y-84872986D01*
X135298307Y-84872988D01*
X135298308Y-84872989D01*
X135362167Y-84921989D01*
X135414493Y-84943663D01*
X135474000Y-84955500D01*
X136281177Y-84955500D01*
X136333503Y-84977174D01*
X136355177Y-85029500D01*
X136353755Y-85043933D01*
X136349500Y-85065326D01*
X136349500Y-85374674D01*
X136364034Y-85447740D01*
X136419399Y-85530601D01*
X136466612Y-85562146D01*
X136498078Y-85609237D01*
X136499500Y-85623675D01*
X136499500Y-85785577D01*
X136477826Y-85837903D01*
X136462501Y-85849662D01*
X136454090Y-85854518D01*
X136454088Y-85854519D01*
X136379520Y-85929086D01*
X136326795Y-86020408D01*
X136326791Y-86020417D01*
X136299500Y-86122270D01*
X136299500Y-86227729D01*
X136326791Y-86329582D01*
X136326792Y-86329585D01*
X136326793Y-86329587D01*
X136379520Y-86420913D01*
X136454087Y-86495480D01*
X136545413Y-86548207D01*
X136647270Y-86575499D01*
X136647271Y-86575500D01*
X136647273Y-86575500D01*
X136752729Y-86575500D01*
X136752729Y-86575499D01*
X136854587Y-86548207D01*
X136945913Y-86495480D01*
X137020480Y-86420913D01*
X137073207Y-86329587D01*
X137100499Y-86227729D01*
X137100500Y-86227729D01*
X137100500Y-86122271D01*
X137100499Y-86122270D01*
X137073208Y-86020417D01*
X137073207Y-86020413D01*
X137020480Y-85929087D01*
X136945913Y-85854520D01*
X136937499Y-85849662D01*
X136903021Y-85804728D01*
X136900500Y-85785577D01*
X136900500Y-85623675D01*
X136922174Y-85571349D01*
X136933382Y-85562150D01*
X136980601Y-85530601D01*
X137035966Y-85447740D01*
X137050500Y-85374674D01*
X137050500Y-85065326D01*
X137038341Y-85004202D01*
X137049390Y-84948655D01*
X137078535Y-84924747D01*
X137077977Y-84923702D01*
X137081177Y-84921991D01*
X137081178Y-84921990D01*
X137081181Y-84921989D01*
X137131629Y-84888281D01*
X137185939Y-84833970D01*
X137238262Y-84812297D01*
X137238285Y-84812297D01*
X137334000Y-84812937D01*
X137334000Y-84847600D01*
X141999500Y-84847600D01*
X141999500Y-99925500D01*
X141977826Y-99977826D01*
X141925500Y-99999500D01*
X122074500Y-99999500D01*
X122022174Y-99977826D01*
X122000500Y-99925500D01*
X122000500Y-98397646D01*
X124499500Y-98397646D01*
X124499500Y-98602353D01*
X124531522Y-98804531D01*
X124531525Y-98804544D01*
X124594777Y-98999213D01*
X124687712Y-99181610D01*
X124761406Y-99283040D01*
X124808034Y-99347219D01*
X124952781Y-99491966D01*
X125044695Y-99558745D01*
X125118389Y-99612287D01*
X125206300Y-99657079D01*
X125300781Y-99705220D01*
X125300783Y-99705220D01*
X125300786Y-99705222D01*
X125495455Y-99768474D01*
X125495461Y-99768475D01*
X125495466Y-99768477D01*
X125596557Y-99784488D01*
X125697646Y-99800500D01*
X125697648Y-99800500D01*
X125902354Y-99800500D01*
X125983224Y-99787690D01*
X126104534Y-99768477D01*
X126104541Y-99768474D01*
X126104544Y-99768474D01*
X126299213Y-99705222D01*
X126299213Y-99705221D01*
X126299219Y-99705220D01*
X126481610Y-99612287D01*
X126647219Y-99491966D01*
X126791966Y-99347219D01*
X126912287Y-99181610D01*
X127005220Y-98999219D01*
X127068477Y-98804534D01*
X127100500Y-98602352D01*
X127100500Y-98397648D01*
X127100500Y-98397646D01*
X136899500Y-98397646D01*
X136899500Y-98602353D01*
X136931522Y-98804531D01*
X136931525Y-98804544D01*
X136994777Y-98999213D01*
X137087712Y-99181610D01*
X137161406Y-99283040D01*
X137208034Y-99347219D01*
X137352781Y-99491966D01*
X137444695Y-99558745D01*
X137518389Y-99612287D01*
X137606300Y-99657079D01*
X137700781Y-99705220D01*
X137700783Y-99705220D01*
X137700786Y-99705222D01*
X137895455Y-99768474D01*
X137895461Y-99768475D01*
X137895466Y-99768477D01*
X137996557Y-99784488D01*
X138097646Y-99800500D01*
X138097648Y-99800500D01*
X138302354Y-99800500D01*
X138383224Y-99787690D01*
X138504534Y-99768477D01*
X138504541Y-99768474D01*
X138504544Y-99768474D01*
X138699213Y-99705222D01*
X138699213Y-99705221D01*
X138699219Y-99705220D01*
X138881610Y-99612287D01*
X139047219Y-99491966D01*
X139191966Y-99347219D01*
X139312287Y-99181610D01*
X139405220Y-98999219D01*
X139468477Y-98804534D01*
X139500500Y-98602352D01*
X139500500Y-98397648D01*
X139468477Y-98195466D01*
X139468475Y-98195461D01*
X139468474Y-98195455D01*
X139405222Y-98000786D01*
X139405220Y-98000783D01*
X139405220Y-98000781D01*
X139357079Y-97906300D01*
X139312287Y-97818389D01*
X139258745Y-97744695D01*
X139191966Y-97652781D01*
X139047219Y-97508034D01*
X138983040Y-97461406D01*
X138881610Y-97387712D01*
X138699213Y-97294777D01*
X138504544Y-97231525D01*
X138504531Y-97231522D01*
X138302354Y-97199500D01*
X138302352Y-97199500D01*
X138097648Y-97199500D01*
X138097646Y-97199500D01*
X137895468Y-97231522D01*
X137895455Y-97231525D01*
X137700786Y-97294777D01*
X137518389Y-97387712D01*
X137352785Y-97508031D01*
X137352781Y-97508034D01*
X137208034Y-97652781D01*
X137208031Y-97652784D01*
X137208031Y-97652785D01*
X137087712Y-97818389D01*
X136994777Y-98000786D01*
X136931525Y-98195455D01*
X136931522Y-98195468D01*
X136899500Y-98397646D01*
X127100500Y-98397646D01*
X127068477Y-98195466D01*
X127068475Y-98195461D01*
X127068474Y-98195455D01*
X127005222Y-98000786D01*
X127005220Y-98000783D01*
X127005220Y-98000781D01*
X126957079Y-97906300D01*
X126912287Y-97818389D01*
X126858745Y-97744695D01*
X126791966Y-97652781D01*
X126647219Y-97508034D01*
X126583040Y-97461406D01*
X126481610Y-97387712D01*
X126299213Y-97294777D01*
X126104544Y-97231525D01*
X126104531Y-97231522D01*
X125902354Y-97199500D01*
X125902352Y-97199500D01*
X125697648Y-97199500D01*
X125697646Y-97199500D01*
X125495468Y-97231522D01*
X125495455Y-97231525D01*
X125300786Y-97294777D01*
X125118389Y-97387712D01*
X124952785Y-97508031D01*
X124952781Y-97508034D01*
X124808034Y-97652781D01*
X124808031Y-97652784D01*
X124808031Y-97652785D01*
X124687712Y-97818389D01*
X124594777Y-98000786D01*
X124531525Y-98195455D01*
X124531522Y-98195468D01*
X124499500Y-98397646D01*
X122000500Y-98397646D01*
X122000500Y-91906870D01*
X129821500Y-91906870D01*
X129821500Y-92012329D01*
X129848791Y-92114182D01*
X129848792Y-92114185D01*
X129848793Y-92114187D01*
X129901520Y-92205513D01*
X129976087Y-92280080D01*
X130067413Y-92332807D01*
X130169270Y-92360099D01*
X130169271Y-92360100D01*
X130169273Y-92360100D01*
X130274729Y-92360100D01*
X130274729Y-92360099D01*
X130376587Y-92332807D01*
X130467913Y-92280080D01*
X130542480Y-92205513D01*
X130547337Y-92197099D01*
X130592270Y-92162622D01*
X130611423Y-92160100D01*
X130973081Y-92160100D01*
X130973082Y-92160100D01*
X131046774Y-92129576D01*
X132154176Y-91022174D01*
X132206502Y-91000500D01*
X135260577Y-91000500D01*
X135312903Y-91022174D01*
X135324662Y-91037498D01*
X135329520Y-91045913D01*
X135404087Y-91120480D01*
X135495413Y-91173207D01*
X135597270Y-91200499D01*
X135597271Y-91200500D01*
X135597273Y-91200500D01*
X135702729Y-91200500D01*
X135702729Y-91200499D01*
X135804587Y-91173207D01*
X135895913Y-91120480D01*
X135970480Y-91045913D01*
X136023207Y-90954587D01*
X136050499Y-90852729D01*
X136050500Y-90852729D01*
X136050500Y-90747271D01*
X136050499Y-90747270D01*
X136030654Y-90673208D01*
X136023207Y-90645413D01*
X135970480Y-90554087D01*
X135895913Y-90479520D01*
X135852719Y-90454582D01*
X135804591Y-90426795D01*
X135804582Y-90426791D01*
X135702729Y-90399500D01*
X135702727Y-90399500D01*
X135597273Y-90399500D01*
X135597271Y-90399500D01*
X135495417Y-90426791D01*
X135495408Y-90426795D01*
X135404086Y-90479520D01*
X135329520Y-90554086D01*
X135324663Y-90562500D01*
X135279730Y-90596978D01*
X135260577Y-90599500D01*
X132052918Y-90599500D01*
X131979228Y-90630022D01*
X130871824Y-91737426D01*
X130819498Y-91759100D01*
X130611423Y-91759100D01*
X130559097Y-91737426D01*
X130547337Y-91722100D01*
X130542479Y-91713686D01*
X130467913Y-91639120D01*
X130376591Y-91586395D01*
X130376582Y-91586391D01*
X130274729Y-91559100D01*
X130274727Y-91559100D01*
X130169273Y-91559100D01*
X130169271Y-91559100D01*
X130067417Y-91586391D01*
X130067408Y-91586395D01*
X129976086Y-91639120D01*
X129901520Y-91713686D01*
X129848795Y-91805008D01*
X129848791Y-91805017D01*
X129821500Y-91906870D01*
X122000500Y-91906870D01*
X122000500Y-90247270D01*
X124799500Y-90247270D01*
X124799500Y-90352729D01*
X124826791Y-90454582D01*
X124826792Y-90454585D01*
X124826793Y-90454587D01*
X124879520Y-90545913D01*
X124954087Y-90620480D01*
X125045413Y-90673207D01*
X125147270Y-90700499D01*
X125147271Y-90700500D01*
X125147273Y-90700500D01*
X125252729Y-90700500D01*
X125252729Y-90700499D01*
X125354587Y-90673207D01*
X125445913Y-90620480D01*
X125520480Y-90545913D01*
X125525337Y-90537499D01*
X125570270Y-90503022D01*
X125589423Y-90500500D01*
X129010577Y-90500500D01*
X129062903Y-90522174D01*
X129074662Y-90537498D01*
X129079520Y-90545913D01*
X129154087Y-90620480D01*
X129245413Y-90673207D01*
X129347270Y-90700499D01*
X129347271Y-90700500D01*
X129347273Y-90700500D01*
X129452729Y-90700500D01*
X129452729Y-90700499D01*
X129554587Y-90673207D01*
X129645913Y-90620480D01*
X129720480Y-90545913D01*
X129773207Y-90454587D01*
X129800499Y-90352729D01*
X129800500Y-90352729D01*
X129800500Y-90247271D01*
X129800499Y-90247270D01*
X129773208Y-90145417D01*
X129773207Y-90145413D01*
X129720480Y-90054087D01*
X129645913Y-89979520D01*
X129554591Y-89926795D01*
X129554582Y-89926791D01*
X129452729Y-89899500D01*
X129452727Y-89899500D01*
X129347273Y-89899500D01*
X129347271Y-89899500D01*
X129245417Y-89926791D01*
X129245408Y-89926795D01*
X129154086Y-89979520D01*
X129079520Y-90054086D01*
X129074663Y-90062500D01*
X129029730Y-90096978D01*
X129010577Y-90099500D01*
X125589423Y-90099500D01*
X125537097Y-90077826D01*
X125525337Y-90062500D01*
X125520479Y-90054086D01*
X125445913Y-89979520D01*
X125354591Y-89926795D01*
X125354582Y-89926791D01*
X125252729Y-89899500D01*
X125252727Y-89899500D01*
X125147273Y-89899500D01*
X125147271Y-89899500D01*
X125045417Y-89926791D01*
X125045408Y-89926795D01*
X124954086Y-89979520D01*
X124879520Y-90054086D01*
X124826795Y-90145408D01*
X124826791Y-90145417D01*
X124799500Y-90247270D01*
X122000500Y-90247270D01*
X122000500Y-84264359D01*
X124674500Y-84264359D01*
X124674500Y-84785640D01*
X124685134Y-84858625D01*
X124685134Y-84858626D01*
X124740173Y-84971210D01*
X124740174Y-84971211D01*
X124828789Y-85059826D01*
X124941375Y-85114866D01*
X125014364Y-85125500D01*
X125014370Y-85125500D01*
X125585630Y-85125500D01*
X125585636Y-85125500D01*
X125658625Y-85114866D01*
X125771211Y-85059826D01*
X125859826Y-84971211D01*
X125914866Y-84858625D01*
X125921392Y-84813831D01*
X125950384Y-84765178D01*
X125994619Y-84750501D01*
X126257761Y-84750501D01*
X126287650Y-84756805D01*
X126380009Y-84797586D01*
X126405135Y-84800501D01*
X127519864Y-84800500D01*
X127544991Y-84797586D01*
X127647765Y-84752207D01*
X127727206Y-84672766D01*
X127772585Y-84569992D01*
X127775500Y-84544866D01*
X127775499Y-84155137D01*
X127772585Y-84130010D01*
X127727206Y-84027236D01*
X127647765Y-83947795D01*
X127544991Y-83902416D01*
X127544990Y-83902415D01*
X127544988Y-83902415D01*
X127519865Y-83899501D01*
X127031940Y-83899501D01*
X126979614Y-83877827D01*
X126957940Y-83825501D01*
X126967854Y-83788502D01*
X126993203Y-83744595D01*
X126993204Y-83744591D01*
X126993207Y-83744587D01*
X127020499Y-83642729D01*
X127020500Y-83642729D01*
X127020500Y-83537271D01*
X127020499Y-83537270D01*
X126995887Y-83445417D01*
X126993207Y-83435413D01*
X126940480Y-83344087D01*
X126865913Y-83269520D01*
X126791908Y-83226793D01*
X126774591Y-83216795D01*
X126774582Y-83216791D01*
X126672729Y-83189500D01*
X126672727Y-83189500D01*
X126567273Y-83189500D01*
X126567271Y-83189500D01*
X126465417Y-83216791D01*
X126465408Y-83216795D01*
X126374086Y-83269520D01*
X126307326Y-83336281D01*
X126255000Y-83357955D01*
X126202674Y-83336281D01*
X126145913Y-83279520D01*
X126054591Y-83226795D01*
X126054582Y-83226791D01*
X125952729Y-83199500D01*
X125952727Y-83199500D01*
X125847273Y-83199500D01*
X125847271Y-83199500D01*
X125745417Y-83226791D01*
X125745408Y-83226795D01*
X125654086Y-83279520D01*
X125579520Y-83354086D01*
X125526795Y-83445408D01*
X125526791Y-83445417D01*
X125499500Y-83547270D01*
X125499500Y-83850500D01*
X125477826Y-83902826D01*
X125425500Y-83924500D01*
X125014359Y-83924500D01*
X124941374Y-83935134D01*
X124941373Y-83935134D01*
X124828789Y-83990173D01*
X124740173Y-84078789D01*
X124685134Y-84191373D01*
X124685134Y-84191374D01*
X124674500Y-84264359D01*
X122000500Y-84264359D01*
X122000500Y-61372646D01*
X124499500Y-61372646D01*
X124499500Y-61577353D01*
X124531522Y-61779531D01*
X124531525Y-61779544D01*
X124594777Y-61974213D01*
X124687712Y-62156610D01*
X124749720Y-62241956D01*
X124808034Y-62322219D01*
X124952781Y-62466966D01*
X125044695Y-62533745D01*
X125118389Y-62587287D01*
X125206300Y-62632079D01*
X125300781Y-62680220D01*
X125300783Y-62680220D01*
X125300786Y-62680222D01*
X125495455Y-62743474D01*
X125495461Y-62743475D01*
X125495466Y-62743477D01*
X125596557Y-62759488D01*
X125697646Y-62775500D01*
X125697648Y-62775500D01*
X125902354Y-62775500D01*
X125983224Y-62762690D01*
X126104534Y-62743477D01*
X126104541Y-62743474D01*
X126104544Y-62743474D01*
X126299213Y-62680222D01*
X126299213Y-62680221D01*
X126299219Y-62680220D01*
X126481610Y-62587287D01*
X126647219Y-62466966D01*
X126791966Y-62322219D01*
X126912287Y-62156610D01*
X127005220Y-61974219D01*
X127015629Y-61942184D01*
X127068474Y-61779544D01*
X127068474Y-61779541D01*
X127068477Y-61779534D01*
X127100500Y-61577352D01*
X127100500Y-61372648D01*
X127068477Y-61170466D01*
X127068475Y-61170461D01*
X127068474Y-61170455D01*
X127005222Y-60975786D01*
X127005220Y-60975783D01*
X127005220Y-60975781D01*
X126957079Y-60881300D01*
X126912287Y-60793389D01*
X126830739Y-60681148D01*
X126791966Y-60627781D01*
X126647219Y-60483034D01*
X126583040Y-60436406D01*
X126481610Y-60362712D01*
X126299213Y-60269777D01*
X126104544Y-60206525D01*
X126104531Y-60206522D01*
X125902354Y-60174500D01*
X125902352Y-60174500D01*
X125697648Y-60174500D01*
X125697646Y-60174500D01*
X125495468Y-60206522D01*
X125495455Y-60206525D01*
X125300786Y-60269777D01*
X125118389Y-60362712D01*
X124976514Y-60465791D01*
X124952781Y-60483034D01*
X124808034Y-60627781D01*
X124808031Y-60627784D01*
X124808031Y-60627785D01*
X124687712Y-60793389D01*
X124594777Y-60975786D01*
X124531525Y-61170455D01*
X124531522Y-61170468D01*
X124499500Y-61372646D01*
X122000500Y-61372646D01*
X122000500Y-54996083D01*
X128593900Y-54996083D01*
X128593900Y-55143916D01*
X128622740Y-55288907D01*
X128622743Y-55288917D01*
X128679315Y-55425494D01*
X128679316Y-55425495D01*
X128761449Y-55548416D01*
X128865984Y-55652951D01*
X128988905Y-55735084D01*
X129125487Y-55791658D01*
X129270482Y-55820500D01*
X129270484Y-55820500D01*
X129418316Y-55820500D01*
X129418318Y-55820500D01*
X129563313Y-55791658D01*
X129699895Y-55735084D01*
X129822816Y-55652951D01*
X129927351Y-55548416D01*
X130009484Y-55425495D01*
X130066058Y-55288913D01*
X130094900Y-55143918D01*
X130094900Y-54996083D01*
X133193900Y-54996083D01*
X133193900Y-55143916D01*
X133222740Y-55288907D01*
X133222743Y-55288917D01*
X133279315Y-55425494D01*
X133279316Y-55425495D01*
X133361449Y-55548416D01*
X133465984Y-55652951D01*
X133588905Y-55735084D01*
X133725487Y-55791658D01*
X133870482Y-55820500D01*
X133870484Y-55820500D01*
X134018316Y-55820500D01*
X134018318Y-55820500D01*
X134163313Y-55791658D01*
X134299895Y-55735084D01*
X134422816Y-55652951D01*
X134527351Y-55548416D01*
X134609484Y-55425495D01*
X134666058Y-55288913D01*
X134694900Y-55143918D01*
X134694900Y-54996082D01*
X134666058Y-54851087D01*
X134609484Y-54714505D01*
X134527351Y-54591584D01*
X134422816Y-54487049D01*
X134299895Y-54404916D01*
X134299896Y-54404916D01*
X134299894Y-54404915D01*
X134163317Y-54348343D01*
X134163307Y-54348340D01*
X134066211Y-54329026D01*
X134018318Y-54319500D01*
X133870482Y-54319500D01*
X133829377Y-54327676D01*
X133725492Y-54348340D01*
X133725482Y-54348343D01*
X133588905Y-54404915D01*
X133465984Y-54487048D01*
X133465983Y-54487050D01*
X133361450Y-54591583D01*
X133361448Y-54591584D01*
X133279315Y-54714505D01*
X133222743Y-54851082D01*
X133222740Y-54851092D01*
X133193900Y-54996083D01*
X130094900Y-54996083D01*
X130094900Y-54996082D01*
X130066058Y-54851087D01*
X130009484Y-54714505D01*
X129927351Y-54591584D01*
X129822816Y-54487049D01*
X129699895Y-54404916D01*
X129699896Y-54404916D01*
X129699894Y-54404915D01*
X129563317Y-54348343D01*
X129563307Y-54348340D01*
X129466211Y-54329026D01*
X129418318Y-54319500D01*
X129270482Y-54319500D01*
X129229377Y-54327676D01*
X129125492Y-54348340D01*
X129125482Y-54348343D01*
X128988905Y-54404915D01*
X128865984Y-54487048D01*
X128865983Y-54487050D01*
X128761450Y-54591583D01*
X128761448Y-54591584D01*
X128679315Y-54714505D01*
X128622743Y-54851082D01*
X128622740Y-54851092D01*
X128593900Y-54996083D01*
X122000500Y-54996083D01*
X122000500Y-52605300D01*
X122022174Y-52552974D01*
X122074500Y-52531300D01*
X141925500Y-52531300D01*
X141977826Y-52552974D01*
G37*
%TD.AperFunction*%
%TA.AperFunction,Conductor*%
G36*
X129539624Y-79247174D02*
G01*
X129561298Y-79299500D01*
X129539624Y-79351826D01*
X128963624Y-79927826D01*
X128911298Y-79949500D01*
X128899500Y-79949500D01*
X128847174Y-79927826D01*
X128825500Y-79875500D01*
X128825500Y-79435180D01*
X128823858Y-79426926D01*
X128816767Y-79391278D01*
X128783504Y-79341496D01*
X128783503Y-79341495D01*
X128782913Y-79340612D01*
X128771864Y-79285063D01*
X128803330Y-79237971D01*
X128844442Y-79225500D01*
X129487298Y-79225500D01*
X129539624Y-79247174D01*
G37*
%TD.AperFunction*%
%TA.AperFunction,Conductor*%
G36*
X132850171Y-71360500D02*
G01*
X133050171Y-71360500D01*
X133675500Y-71360500D01*
X133727826Y-71382174D01*
X133749500Y-71434500D01*
X133749500Y-71554674D01*
X133764034Y-71627740D01*
X133819399Y-71710601D01*
X133902260Y-71765966D01*
X133975326Y-71780500D01*
X133975328Y-71780500D01*
X134224672Y-71780500D01*
X134224674Y-71780500D01*
X134297740Y-71765966D01*
X134315560Y-71754058D01*
X134336729Y-71749846D01*
X134356673Y-71741586D01*
X134363674Y-71744485D01*
X134371107Y-71743007D01*
X134408999Y-71763260D01*
X134427826Y-71782087D01*
X134449500Y-71834413D01*
X134449500Y-72609826D01*
X134427826Y-72662152D01*
X134426127Y-72663797D01*
X134412974Y-72676128D01*
X134362070Y-72723849D01*
X134339472Y-72738355D01*
X134318754Y-72746827D01*
X134269832Y-72778668D01*
X133875085Y-73158233D01*
X133605418Y-73417529D01*
X133599910Y-73422825D01*
X133599052Y-73423657D01*
X133599053Y-73423658D01*
X133597908Y-73424780D01*
X133572017Y-73463135D01*
X133561830Y-73475211D01*
X132960359Y-74050430D01*
X132949111Y-74059273D01*
X132918165Y-74079084D01*
X132862410Y-74089042D01*
X132825941Y-74069087D01*
X132802205Y-74045351D01*
X132780531Y-73993025D01*
X132780531Y-73974652D01*
X132780530Y-73974649D01*
X132769747Y-73955972D01*
X132740285Y-73904942D01*
X132669574Y-73834231D01*
X132647409Y-73821434D01*
X132599866Y-73793985D01*
X132599865Y-73793985D01*
X132581491Y-73793985D01*
X132529165Y-73772311D01*
X132453553Y-73696699D01*
X132377941Y-73772311D01*
X132348969Y-73790203D01*
X132337598Y-73793985D01*
X132307241Y-73793985D01*
X132265991Y-73817800D01*
X132258854Y-73820174D01*
X132237535Y-73818644D01*
X132216346Y-73821434D01*
X132210150Y-73816679D01*
X132202362Y-73816121D01*
X132188369Y-73799966D01*
X132171414Y-73786955D01*
X132168866Y-73777448D01*
X132165282Y-73773310D01*
X132165804Y-73766021D01*
X132161500Y-73749956D01*
X132161500Y-73323413D01*
X132183174Y-73271087D01*
X132662363Y-72791898D01*
X132662364Y-72791897D01*
X132700500Y-72699828D01*
X132700500Y-72600172D01*
X132700500Y-72092099D01*
X132710532Y-72059027D01*
X132709574Y-72058631D01*
X132737606Y-71990954D01*
X132750499Y-71959828D01*
X132750499Y-71860172D01*
X132750499Y-71460172D01*
X132748387Y-71455073D01*
X132748387Y-71398437D01*
X132788435Y-71358388D01*
X132845072Y-71358388D01*
X132850171Y-71360500D01*
G37*
%TD.AperFunction*%
%TA.AperFunction,Conductor*%
G36*
X134827829Y-70252174D02*
G01*
X134849503Y-70304500D01*
X134849503Y-70419863D01*
X134852416Y-70444986D01*
X134852417Y-70444992D01*
X134875662Y-70497636D01*
X134897796Y-70547765D01*
X134977237Y-70627206D01*
X135080011Y-70672585D01*
X135105137Y-70675500D01*
X135494866Y-70675499D01*
X135519993Y-70672585D01*
X135558734Y-70655478D01*
X135615355Y-70654170D01*
X135656318Y-70693282D01*
X135657627Y-70749904D01*
X135640950Y-70775499D01*
X135186428Y-71230022D01*
X135186427Y-71230021D01*
X135130027Y-71286422D01*
X135125974Y-71292488D01*
X135123825Y-71291052D01*
X135091077Y-71323788D01*
X135082203Y-71326818D01*
X135080015Y-71327413D01*
X134977236Y-71372794D01*
X134904472Y-71445559D01*
X134852146Y-71467233D01*
X134799820Y-71445559D01*
X134541898Y-71187637D01*
X134541894Y-71187634D01*
X134449825Y-71149498D01*
X134446363Y-71148810D01*
X134402473Y-71121770D01*
X134400790Y-71119614D01*
X134380601Y-71089399D01*
X134373493Y-71084650D01*
X134366170Y-71075269D01*
X134361544Y-71058565D01*
X134351919Y-71044153D01*
X134350500Y-71029732D01*
X134350500Y-70990267D01*
X134372174Y-70937941D01*
X134378229Y-70932972D01*
X134380597Y-70930603D01*
X134380601Y-70930601D01*
X134435966Y-70847740D01*
X134450500Y-70774674D01*
X134450500Y-70465326D01*
X134435966Y-70392260D01*
X134404796Y-70345611D01*
X134393748Y-70290063D01*
X134425214Y-70242971D01*
X134466326Y-70230500D01*
X134775503Y-70230500D01*
X134827829Y-70252174D01*
G37*
%TD.AperFunction*%
%TD*%
M02*
